<!-- Generated by IcoMoon.io -->
<svg version="1.1" xmlns="http://www.w3.org/2000/svg" width="32" height="32" viewBox="0 0 32 32">
<title>gift</title>
<path fill="#fce8cb" d="M30.692 19.902c-0.236-0.011-0.476 0.040-0.696 0.154l-4.737 2.467h-7.501c-1.635 0-3.235 0.462-4.619 1.333l-1.056 0.663c-0.404 0.254-0.872 0.39-1.351 0.39h-0.134v1.111c0.001 0 0.001-0 0.002-0v2.078c-0.001 0-0.001-0-0.002-0v1.273l10.058-0.309c0.863-0.056 1.692-0.346 2.403-0.84l8.36-6.427c0.274-0.191 0.363-0.457 0.37-0.714 0.016-0.614-0.481-1.152-1.095-1.179z"></path>
<path fill="#3a312a" d="M30.703 19.691c-0.277-0.014-0.554 0.048-0.804 0.178l-4.691 2.444h-7.449c-1.677 0-3.313 0.472-4.731 1.365l-1.056 0.663c-0.371 0.234-0.799 0.357-1.238 0.357h-0.134c-0.117 0-0.212 0.095-0.212 0.212v1.111c0 0.117 0.095 0.212 0.212 0.212 0.004 0 0.009-0 0.013-0 0.112-0.006 0.201-0.098 0.201-0.211 0-0.011-0.001-0.021-0.002-0.031v-0.869c0.492-0.014 0.969-0.159 1.386-0.421l1.056-0.663c1.351-0.851 2.909-1.3 4.506-1.3h7.501c0.034 0 0.068-0.008 0.098-0.024l4.737-2.467c0.183-0.095 0.386-0.14 0.589-0.13 0.497 0.022 0.906 0.462 0.893 0.961-0.007 0.241-0.098 0.42-0.287 0.552l-8.351 6.421c-0.677 0.471-1.47 0.748-2.288 0.802l-9.839 0.302v-1.024c0.002-0.010 0.002-0.021 0.002-0.031 0-0.113-0.089-0.206-0.2-0.211-0.128-0.008-0.225 0.090-0.225 0.211v1.273c0 0.057 0.023 0.112 0.064 0.152 0.040 0.038 0.092 0.060 0.147 0.060h0.007l10.065-0.31c0.902-0.059 1.77-0.362 2.518-0.883l8.351-6.421c0.291-0.203 0.45-0.508 0.46-0.883 0.018-0.726-0.576-1.365-1.297-1.396z"></path>
<path fill="#3a312a" d="M25.471 22.634c-0.044-0.108-0.168-0.16-0.276-0.116s-0.16 0.168-0.116 0.276c0.164 0.399-0.070 0.881-0.386 1.151-0.368 0.315-0.88 0.468-1.333 0.603-1.020 0.305-1.946 0.492-2.926 0.691-0.946 0.192-1.925 0.39-3.133 0.716-0.113 0.030-0.18 0.147-0.149 0.26 0.025 0.094 0.111 0.157 0.204 0.157 0.018 0 0.037-0.002 0.055-0.007 1.195-0.322 2.166-0.519 3.106-0.71 0.989-0.201 1.924-0.39 2.963-0.7 0.492-0.147 1.050-0.314 1.487-0.687 0.418-0.358 0.753-1.021 0.502-1.634z"></path>
<path fill="#f16c7a" d="M0.212 22.662h6.67v9.090h-6.67z"></path>
<path fill="#3a312a" d="M6.882 22.45h-6.67c-0.117 0-0.212 0.095-0.212 0.212v9.090c0 0.117 0.095 0.212 0.212 0.212h1.832c0.117 0 0.212-0.095 0.212-0.212s-0.095-0.212-0.212-0.212h-1.62v-8.667h6.246v8.667h-2.687c-0.117 0-0.212 0.095-0.212 0.212s0.095 0.212 0.212 0.212h2.898c0.117 0 0.212-0.095 0.212-0.212v-9.090c0-0.117-0.095-0.212-0.212-0.212z"></path>
<path fill="#8ac6dd" d="M9.471 22.662h-2.589v9.090h2.589c0.623 0 1.128-0.505 1.128-1.128v-6.834c0-0.623-0.505-1.128-1.128-1.128z"></path>
<path fill="#3a312a" d="M10.599 26.232c0.117 0 0.212-0.095 0.212-0.212v-2.23c0-0.739-0.601-1.34-1.34-1.34h-2.589c-0.117 0-0.212 0.095-0.212 0.212v9.090c0 0.117 0.095 0.212 0.212 0.212h2.589c0.739 0 1.34-0.601 1.34-1.34v-2.526c0-0.117-0.095-0.212-0.212-0.212s-0.212 0.095-0.212 0.212v2.526c0 0.505-0.411 0.916-0.916 0.916h-2.377v-8.667h2.377c0.505 0 0.916 0.411 0.916 0.916v2.23c0 0.117 0.095 0.212 0.212 0.212z"></path>
<path fill="#87796f" d="M9.573 29.73c0.075 0.464-0.24 0.901-0.704 0.976s-0.901-0.24-0.976-0.704c-0.075-0.464 0.24-0.901 0.704-0.976s0.901 0.24 0.976 0.704z"></path>
<path fill="#3a312a" d="M8.74 28.805c-0.586 0-1.063 0.477-1.063 1.063s0.477 1.063 1.063 1.063 1.063-0.477 1.063-1.063-0.477-1.063-1.063-1.063zM8.74 30.506c-0.352 0-0.639-0.287-0.639-0.639s0.287-0.639 0.639-0.639 0.639 0.287 0.639 0.639-0.287 0.639-0.639 0.639z"></path>
<path fill="#decaad" d="M30.684 20.114c-0.205-0.010-0.409 0.035-0.59 0.13l-0.596 0.311c0.097 0.152 0.152 0.332 0.148 0.521-0.006 0.241-0.097 0.421-0.287 0.552l-8.352 6.421c-0.998 0.7-2.338 0.843-2.335 0.863l1.978-0.061c0.816-0.052 1.609-0.33 2.287-0.802l8.352-6.421c0.189-0.131 0.279-0.311 0.287-0.552 0.013-0.5-0.395-0.94-0.892-0.961z"></path>
<path fill="#d6df58" d="M4.7 1.657c-0.138 1.632-1.838 1.89-1.838 1.89 1.461 0.069 1.825 1.985 1.825 1.985 0.031-1.366 1.88-2.005 1.88-2.005-1.385-0.083-1.866-1.87-1.866-1.87z"></path>
<path fill="#3a312a" d="M6.579 3.316c-1.215-0.073-1.67-1.697-1.675-1.714-0.027-0.099-0.12-0.163-0.223-0.156-0.102 0.009-0.183 0.091-0.192 0.193-0.122 1.442-1.597 1.689-1.659 1.699-0.108 0.016-0.185 0.112-0.18 0.22s0.093 0.195 0.202 0.201c1.274 0.060 1.623 1.795 1.626 1.813 0.019 0.1 0.107 0.172 0.208 0.172 0.006 0 0.012-0 0.018-0.001 0.108-0.009 0.192-0.098 0.194-0.206 0.027-1.201 1.721-1.804 1.738-1.81 0.095-0.033 0.154-0.129 0.14-0.229s-0.096-0.176-0.197-0.183zM4.664 4.776c-0.192-0.442-0.524-0.975-1.071-1.253 0.414-0.198 0.905-0.552 1.158-1.168 0.219 0.433 0.593 0.971 1.176 1.231-0.424 0.231-0.977 0.622-1.263 1.189z"></path>
<path fill="#d6df58" d="M1.637 4.054c-0.097 1.155-1.3 1.337-1.3 1.337 1.033 0.049 1.29 1.404 1.29 1.404 0.022-0.966 1.33-1.418 1.33-1.418-0.98-0.059-1.32-1.323-1.32-1.323z"></path>
<path fill="#3a312a" d="M2.969 5.165c-0.814-0.049-1.125-1.156-1.128-1.167-0.027-0.099-0.12-0.165-0.223-0.156s-0.183 0.091-0.192 0.193c-0.082 0.97-1.079 1.139-1.121 1.145-0.108 0.016-0.185 0.112-0.18 0.22s0.093 0.195 0.202 0.201c0.852 0.040 1.090 1.22 1.092 1.232 0.019 0.101 0.107 0.172 0.208 0.172 0.006 0 0.012-0 0.018-0.001 0.108-0.009 0.192-0.098 0.194-0.206 0.018-0.806 1.176-1.219 1.188-1.223 0.095-0.033 0.154-0.129 0.141-0.229s-0.097-0.176-0.197-0.183zM1.616 6.125c-0.13-0.266-0.33-0.557-0.628-0.745 0.262-0.147 0.522-0.371 0.688-0.694 0.149 0.265 0.375 0.558 0.697 0.737-0.261 0.155-0.563 0.387-0.757 0.702z"></path>
<path fill="#d6df58" d="M1.631 0.291c-0.093 1.155-1.295 1.342-1.295 1.342 1.033 0.045 1.296 1.399 1.296 1.399 0.018-0.966 1.324-1.423 1.324-1.423-0.98-0.055-1.325-1.318-1.325-1.318z"></path>
<path fill="#3a312a" d="M2.968 1.397c-0.814-0.046-1.13-1.151-1.133-1.162-0.027-0.099-0.121-0.164-0.224-0.155s-0.183 0.091-0.191 0.194c-0.078 0.97-1.075 1.143-1.117 1.15-0.108 0.017-0.185 0.112-0.179 0.221s0.094 0.195 0.202 0.2c0.852 0.037 1.095 1.216 1.097 1.227 0.019 0.1 0.107 0.171 0.208 0.171 0.006 0 0.012-0 0.018-0.001 0.108-0.009 0.191-0.099 0.193-0.207 0.015-0.806 1.171-1.223 1.183-1.227 0.095-0.033 0.154-0.129 0.14-0.23s-0.097-0.176-0.198-0.182zM1.619 2.362c-0.132-0.266-0.333-0.556-0.631-0.743 0.261-0.148 0.52-0.373 0.685-0.697 0.15 0.264 0.377 0.557 0.7 0.735-0.261 0.156-0.562 0.389-0.754 0.705z"></path>
<path fill="#d7e057" d="M21.72 1.11c-0.586-0.586-1.378-0.892-2.23-0.86-0.834 0.030-1.627 0.381-2.233 0.988-0.433 0.433-0.895 1.131-1.256 1.873-0.361-0.743-0.824-1.44-1.256-1.873-0.607-0.607-1.4-0.958-2.233-0.988-0.852-0.032-1.644 0.274-2.23 0.86s-0.891 1.378-0.86 2.23c0.030 0.834 0.381 1.627 0.988 2.233 0.588 0.588 1.664 1.231 2.678 1.6 0.631 0.23 1.195 0.344 1.681 0.344 0.497 0 0.911-0.122 1.233-0.362 0.322 0.24 0.736 0.362 1.233 0.362 0.486 0 1.049-0.115 1.68-0.344 1.014-0.369 2.090-1.012 2.678-1.6 0.607-0.607 0.958-1.4 0.988-2.233 0.031-0.852-0.274-1.644-0.86-2.23zM15.318 5.772c-0.017 0.13-0.053 0.222-0.103 0.272-0.161 0.161-0.75 0.183-1.663-0.149-0.831-0.303-1.728-0.83-2.181-1.283-0.363-0.363-0.573-0.832-0.591-1.321-0.017-0.47 0.147-0.903 0.462-1.218 0.3-0.3 0.707-0.464 1.152-0.464 0.022 0 0.045 0 0.067 0.001 0.489 0.018 0.958 0.228 1.321 0.591 0.453 0.453 0.981 1.35 1.283 2.181 0.152 0.417 0.229 0.765 0.253 1.037-0.007 0.122-0.008 0.241-0.001 0.354zM20.63 4.611c-0.453 0.453-1.35 0.981-2.181 1.283-0.913 0.332-1.502 0.31-1.663 0.149-0.050-0.050-0.087-0.142-0.103-0.272 0.007-0.113 0.006-0.231-0.001-0.354 0.025-0.272 0.102-0.62 0.253-1.037 0.302-0.831 0.83-1.728 1.283-2.181 0.363-0.363 0.832-0.573 1.321-0.591 0.022-0.001 0.045-0.001 0.067-0.001 0.444 0 0.851 0.163 1.152 0.464 0.315 0.315 0.48 0.748 0.462 1.219-0.018 0.489-0.228 0.958-0.591 1.321z"></path>
<path fill="#3a312a" d="M19.606 1.396c-0.025 0-0.049 0-0.075 0.001-0.543 0.020-1.063 0.252-1.463 0.653-0.473 0.473-1.021 1.401-1.333 2.259-0.147 0.405-0.237 0.772-0.265 1.090-0.001 0.010-0.001 0.020-0 0.031 0.006 0.119 0.007 0.23 0.001 0.329-0.001 0.013-0 0.027 0.001 0.040 0.023 0.176 0.078 0.309 0.164 0.395 0.117 0.117 0.323 0.175 0.594 0.175 0.343 0 0.79-0.093 1.291-0.275 0.857-0.312 1.786-0.86 2.259-1.333 0.401-0.401 0.633-0.921 0.652-1.463 0.019-0.53-0.167-1.018-0.524-1.376-0.339-0.339-0.801-0.526-1.301-0.526zM20.48 4.462c-0.434 0.434-1.299 0.941-2.104 1.234-0.901 0.328-1.372 0.26-1.441 0.199-0.007-0.008-0.028-0.047-0.041-0.132 0.006-0.106 0.005-0.218-0.001-0.341 0.027-0.276 0.11-0.61 0.24-0.969 0.293-0.805 0.801-1.671 1.234-2.104 0.325-0.325 0.744-0.513 1.179-0.529 0.41-0.015 0.79 0.128 1.062 0.4 0.273 0.273 0.415 0.65 0.4 1.061-0.016 0.436-0.204 0.854-0.529 1.18zM15.529 5.399c-0.029-0.319-0.118-0.686-0.265-1.090-0.312-0.857-0.86-1.786-1.333-2.259-0.401-0.401-0.921-0.633-1.464-0.653-0.528-0.018-1.020 0.169-1.375 0.524-0.357 0.358-0.544 0.846-0.524 1.376 0.020 0.543 0.252 1.063 0.652 1.463 0.473 0.473 1.401 1.021 2.259 1.333 0.501 0.182 0.948 0.275 1.291 0.275 0.271 0 0.477-0.058 0.594-0.175 0.086-0.086 0.141-0.219 0.164-0.395 0.002-0.013 0.002-0.027 0.001-0.040-0.006-0.099-0.006-0.21 0.001-0.329 0.001-0.010 0.001-0.020-0-0.030zM15.105 5.763c-0.013 0.084-0.034 0.123-0.040 0.131-0.069 0.062-0.54 0.13-1.441-0.198-0.805-0.293-1.671-0.801-2.104-1.234-0.325-0.325-0.513-0.744-0.529-1.179-0.015-0.411 0.127-0.788 0.4-1.061 0.259-0.259 0.615-0.402 1.002-0.402 0.020 0 0.040 0 0.059 0.001 0.436 0.016 0.854 0.204 1.179 0.529 0.434 0.434 0.941 1.299 1.234 2.104 0.131 0.359 0.213 0.693 0.24 0.969-0.006 0.123-0.006 0.235-0.001 0.341zM21.87 0.96c-0.629-0.629-1.476-0.956-2.387-0.922-0.887 0.032-1.731 0.405-2.375 1.050-0.372 0.372-0.765 0.927-1.107 1.559-0.342-0.632-0.735-1.188-1.107-1.559-0.645-0.645-1.488-1.017-2.375-1.050-0.912-0.033-1.759 0.293-2.388 0.922-0.628 0.628-0.955 1.476-0.922 2.388 0.033 0.887 0.405 1.731 1.050 2.375 0.608 0.608 1.715 1.27 2.755 1.649 1.262 0.459 2.288 0.475 2.986 0.040 0.338 0.211 0.752 0.317 1.233 0.317 0.512 0 1.102-0.12 1.753-0.357 1.040-0.379 2.147-1.041 2.755-1.649 0.645-0.645 1.017-1.488 1.050-2.375 0.034-0.912-0.294-1.76-0.922-2.388zM21.442 5.424c-0.568 0.568-1.613 1.191-2.601 1.55-1.192 0.434-2.137 0.442-2.715 0.012-0.038-0.028-0.082-0.042-0.126-0.042s-0.089 0.014-0.126 0.042c-0.578 0.431-1.523 0.422-2.715-0.012-0.988-0.359-2.033-0.982-2.601-1.55s-0.898-1.312-0.926-2.091c-0.029-0.793 0.254-1.529 0.798-2.073s1.28-0.828 2.073-0.798c0.78 0.029 1.523 0.357 2.091 0.926 0.405 0.405 0.86 1.084 1.216 1.816 0.035 0.073 0.109 0.119 0.19 0.119s0.155-0.046 0.19-0.119c0.356-0.732 0.811-1.411 1.216-1.816 0.569-0.569 1.312-0.898 2.092-0.926 0.794-0.030 1.528 0.254 2.072 0.798s0.827 1.28 0.798 2.073c-0.029 0.78-0.358 1.523-0.926 2.091z"></path>
<path fill="#8ac5dc" d="M8.802 10.885v9.257c0 0.452 0.366 0.818 0.818 0.818h12.76c0.452 0 0.818-0.366 0.818-0.818v-9.257z"></path>
<path fill="#3a312a" d="M23.198 10.673h-14.396c-0.117 0-0.212 0.095-0.212 0.212v9.257c0 0.568 0.462 1.029 1.030 1.029h12.76c0.568 0 1.030-0.462 1.030-1.029v-9.257c0-0.117-0.095-0.212-0.212-0.212zM22.986 20.142c0 0.334-0.272 0.606-0.606 0.606h-12.76c-0.334 0-0.606-0.272-0.606-0.606v-9.046h13.972v9.046z"></path>
<path fill="#8ac5dc" d="M23.712 7.126h-15.423c-0.452 0-0.818 0.366-0.818 0.818v2.123c0 0.452 0.366 0.818 0.818 0.818h15.423c0.452 0 0.818-0.366 0.818-0.818v-2.123c0-0.452-0.366-0.818-0.818-0.818z"></path>
<path fill="#3a312a" d="M23.712 6.915h-15.423c-0.568 0-1.030 0.462-1.030 1.030v2.123c0 0.568 0.462 1.030 1.030 1.030h15.423c0.568 0 1.030-0.462 1.030-1.030v-2.123c0-0.568-0.462-1.030-1.030-1.030zM24.318 10.067c0 0.334-0.272 0.606-0.606 0.606h-15.423c-0.334 0-0.606-0.272-0.606-0.606v-2.123c0-0.334 0.272-0.606 0.606-0.606h15.423c0.334 0 0.606 0.272 0.606 0.606z"></path>
<path fill="#d7e057" d="M15.207 7.126v13.834h1.587v-13.834z"></path>
<path fill="#3a312a" d="M16.793 14.142c0.117 0 0.212-0.095 0.212-0.212v-6.804c0-0.117-0.095-0.212-0.212-0.212h-1.587c-0.117 0-0.212 0.095-0.212 0.212v13.834c0 0.117 0.095 0.212 0.212 0.212h1.587c0.117 0 0.212-0.095 0.212-0.212v-5.016c0-0.117-0.095-0.212-0.212-0.212s-0.212 0.095-0.212 0.212v4.804h-1.163v-13.41h1.163v6.592c0 0.117 0.095 0.212 0.212 0.212z"></path>
</svg>
