<!-- Generated by IcoMoon.io -->
<svg version="1.1" xmlns="http://www.w3.org/2000/svg" width="32" height="32" viewBox="0 0 32 32">
<title>hand-discount</title>
<path fill="#f8f3f3" d="M3.805 9.953c0 0.326-0.264 0.589-0.59 0.589h-2.031c-0.326 0-0.589-0.264-0.589-0.589s0.264-0.59 0.589-0.59h2.031c0.326-0.001 0.59 0.264 0.59 0.59z"></path>
<path fill="#f8f3f3" d="M4.616 6.743c-0.164 0.282-0.525 0.378-0.806 0.215l-1.757-1.019c-0.282-0.163-0.378-0.524-0.215-0.806 0.164-0.282 0.525-0.378 0.806-0.215l1.757 1.020c0.282 0.162 0.378 0.524 0.215 0.805z"></path>
<path fill="#f8f3f3" d="M6.929 4.374c-0.283 0.162-0.643 0.064-0.805-0.218l-1.010-1.763c-0.162-0.282-0.063-0.643 0.219-0.805s0.643-0.064 0.805 0.219l1.009 1.762c0.162 0.283 0.064 0.644-0.218 0.805z"></path>
<path fill="#f8f3f3" d="M10.118 3.484c-0.326-0.002-0.588-0.268-0.586-0.593l0.011-2.031c0.002-0.326 0.267-0.588 0.593-0.587s0.588 0.268 0.586 0.593l-0.011 2.031c-0.002 0.326-0.268 0.589-0.593 0.587z"></path>
<path fill="#f8f3f3" d="M13.323 4.314c-0.281-0.165-0.375-0.527-0.21-0.807l1.029-1.752c0.165-0.281 0.527-0.374 0.808-0.209s0.375 0.527 0.21 0.807l-1.029 1.751c-0.166 0.282-0.527 0.375-0.808 0.21z"></path>
<path fill="#f8f3f3" d="M15.679 6.64c-0.16-0.284-0.060-0.643 0.224-0.804l1.768-0.999c0.284-0.16 0.644-0.060 0.804 0.223 0.161 0.284 0.060 0.643-0.223 0.804l-1.768 0.999c-0.284 0.16-0.644 0.059-0.804-0.224z"></path>
<path fill="#f8f3f3" d="M16.55 9.834c0.004-0.326 0.271-0.587 0.597-0.583l2.032 0.023c0.326 0.004 0.587 0.271 0.583 0.597s-0.27 0.587-0.596 0.583l-2.031-0.023c-0.327-0.004-0.588-0.271-0.584-0.597z"></path>
<path fill="#63312d" d="M3.215 10.815h-2.031c-0.475 0-0.862-0.386-0.862-0.862s0.387-0.862 0.862-0.862h2.031c0.476 0 0.862 0.387 0.862 0.862s-0.387 0.862-0.862 0.862zM1.183 9.635c-0.175 0-0.317 0.143-0.317 0.318s0.142 0.317 0.317 0.317h2.031c0.175 0 0.318-0.142 0.318-0.317s-0.143-0.318-0.318-0.318z"></path>
<path fill="#63312d" d="M4.104 7.309c-0.147 0-0.295-0.037-0.43-0.115l-1.757-1.020c-0.411-0.239-0.552-0.767-0.314-1.178s0.768-0.551 1.178-0.314l1.757 1.020c0.199 0.115 0.342 0.301 0.401 0.524s0.028 0.455-0.087 0.654c0 0 0 0-0.001 0-0.16 0.276-0.45 0.429-0.748 0.429zM2.35 5.111c-0.11 0-0.216 0.057-0.276 0.159-0.087 0.151-0.035 0.346 0.116 0.434l1.757 1.019c0.151 0.088 0.346 0.035 0.435-0.116 0.042-0.073 0.053-0.159 0.032-0.24s-0.074-0.15-0.148-0.193l-1.757-1.020c-0.050-0.029-0.104-0.043-0.159-0.043z"></path>
<path fill="#63312d" d="M6.637 4.724c-0.299 0-0.59-0.156-0.75-0.433l-1.009-1.763c-0.236-0.412-0.093-0.94 0.32-1.176 0.199-0.114 0.433-0.145 0.655-0.084s0.408 0.204 0.522 0.404l1.009 1.762c0.114 0.2 0.144 0.433 0.084 0.655s-0.204 0.408-0.404 0.522c-0.134 0.077-0.281 0.113-0.427 0.113zM5.627 1.781c-0.054 0-0.108 0.013-0.157 0.042-0.151 0.087-0.205 0.281-0.118 0.433l1.009 1.763c0.088 0.151 0.282 0.204 0.433 0.118h0.001c0.074-0.042 0.126-0.11 0.148-0.192s0.011-0.168-0.031-0.241l-1.009-1.762c-0.058-0.102-0.166-0.16-0.276-0.16z"></path>
<path fill="#63312d" d="M10.121 3.756c-0.002 0-0.004 0-0.005 0-0.23-0.001-0.446-0.092-0.608-0.256s-0.251-0.381-0.249-0.612l0.011-2.031c0.003-0.475 0.416-0.854 0.867-0.858 0.23 0.001 0.446 0.092 0.608 0.256s0.25 0.381 0.248 0.611l-0.011 2.031c-0.001 0.23-0.092 0.446-0.256 0.609-0.162 0.161-0.377 0.249-0.605 0.249zM10.133 0.545c-0.174 0-0.317 0.141-0.318 0.315l-0.011 2.031c-0.001 0.085 0.032 0.165 0.092 0.225s0.139 0.094 0.224 0.094h0.002c0.084 0 0.163-0.033 0.223-0.092s0.094-0.139 0.094-0.224l0.011-2.031c0.001-0.085-0.032-0.165-0.092-0.225-0.060-0.060-0.148-0.081-0.226-0.094z"></path>
<path fill="#63312d" d="M13.62 4.668c-0.148 0-0.298-0.038-0.435-0.118 0 0 0 0-0.001 0-0.41-0.241-0.547-0.77-0.306-1.181l1.029-1.752c0.241-0.409 0.77-0.546 1.18-0.306 0.199 0.117 0.34 0.304 0.398 0.527s0.026 0.455-0.092 0.653l-1.029 1.751c-0.16 0.273-0.449 0.425-0.745 0.425zM13.46 4.079c0.15 0.088 0.346 0.038 0.435-0.113l1.029-1.751c0.043-0.073 0.055-0.159 0.034-0.24s-0.074-0.151-0.147-0.193c-0.151-0.089-0.346-0.038-0.435 0.113l-1.029 1.752c-0.088 0.15-0.038 0.345 0.113 0.434z"></path>
<path fill="#63312d" d="M16.194 7.212c-0.302 0-0.595-0.158-0.753-0.439-0.234-0.414-0.087-0.941 0.327-1.175l1.768-0.999c0.201-0.113 0.434-0.141 0.655-0.080s0.406 0.206 0.519 0.406c0.113 0.2 0.142 0.433 0.080 0.655-0.062 0.222-0.206 0.406-0.406 0.52l-1.768 0.999c-0.133 0.075-0.279 0.111-0.422 0.111zM17.961 5.034c-0.054 0-0.107 0.014-0.156 0.041l-1.768 0.999c-0.153 0.086-0.207 0.28-0.121 0.433 0.085 0.152 0.279 0.207 0.433 0.12l1.768-0.999c0.074-0.042 0.127-0.109 0.15-0.192s0.012-0.167-0.030-0.241c-0.041-0.074-0.109-0.127-0.191-0.149-0.028-0.009-0.057-0.012-0.085-0.012z"></path>
<path fill="#63312d" d="M19.173 10.726c-0.004 0-0.007 0-0.011 0l-2.032-0.023c-0.23-0.003-0.446-0.095-0.607-0.26s-0.248-0.382-0.245-0.612v0c0.005-0.472 0.392-0.852 0.862-0.852h0.009l2.032 0.023c0.475 0.005 0.858 0.397 0.852 0.872-0.003 0.23-0.095 0.446-0.259 0.607-0.161 0.159-0.375 0.245-0.601 0.245zM17.14 9.523c-0.173 0-0.315 0.14-0.318 0.314-0.001 0.084 0.031 0.165 0.090 0.226s0.139 0.094 0.224 0.095l2.032 0.023c0.081-0.011 0.165-0.031 0.225-0.090s0.094-0.138 0.095-0.224c0.002-0.175-0.139-0.319-0.314-0.321l-2.032-0.022c-0.001 0-0.002 0-0.003 0z"></path>
<path fill="#efc36a" d="M21.817 14.528h-1.646c-0.050-0.86-0.756-1.543-1.628-1.543h-1.668c-0.145-0.756-0.807-1.328-1.606-1.328h-1.637v-2.574c0-0.904-0.733-1.637-1.637-1.637h-3.312v6.641c-0.051-0.004-3.388-0.015-3.388-0.015v11.774h1.787c0.734 2.355 2.48 4.263 4.728 5.217v0.662h3.243c0.009 0 0.017 0.001 0.026 0.001 4.625 0 8.374-3.749 8.374-8.374 0-0.051 0-7.188 0-7.188 0-0.904-0.733-1.637-1.637-1.637z"></path>
<path fill="#63312d" d="M15.080 32l-3.268-0.001c-0.15 0-0.272-0.122-0.272-0.272v-0.484c-2.203-0.989-3.884-2.841-4.654-5.123h-1.589c-0.15 0-0.272-0.122-0.272-0.272v-11.774c0-0.072 0.029-0.142 0.080-0.193s0.118-0.075 0.193-0.080c1.598 0.005 2.64 0.010 3.115 0.013v-6.366c0-0.15 0.122-0.272 0.272-0.272h3.312c1.053 0 1.909 0.856 1.909 1.909v2.301h1.365c0.837 0 1.568 0.546 1.817 1.328h1.456c0.92 0 1.696 0.66 1.868 1.543h1.406c1.053 0 1.909 0.856 1.909 1.909v7.188c0 4.768-3.879 8.647-8.647 8.647zM12.084 31.454h2.972c4.492 0 8.125-3.634 8.125-8.1v-7.188c0-0.752-0.612-1.364-1.365-1.364h-1.646c-0.144 0-0.264-0.113-0.272-0.257-0.041-0.721-0.637-1.287-1.356-1.287h-1.668c-0.131 0-0.243-0.093-0.267-0.221-0.123-0.641-0.686-1.107-1.339-1.107h-1.637c-0.15 0-0.272-0.122-0.272-0.272v-2.574c0-0.752-0.612-1.364-1.364-1.364h-3.039v6.369c0 0.076-0.032 0.149-0.088 0.2s-0.131 0.081-0.208 0.071c-0.078-0.002-1.802-0.009-3.093-0.013v11.229h1.514c0.119 0 0.224 0.078 0.26 0.191 0.709 2.274 2.376 4.115 4.574 5.048 0.101 0.043 0.166 0.142 0.166 0.251z"></path>
<path fill="#f9dd9d" d="M18.548 14.528c-0.904 0-1.637 0.733-1.637 1.637v-1.543c0-0.904-0.733-1.637-1.638-1.637-0.903 0-1.637 0.733-1.637 1.637v-1.328c0-0.904-0.733-1.637-1.637-1.637s-1.637 0.733-1.637 1.637v-4.211c0-0.904-0.733-1.637-1.637-1.637s-1.637 0.733-1.637 1.637v6.815c0-1.008-0.817-1.825-1.826-1.825s-1.825 0.817-1.825 1.825l-0.003 7.456c0 4.625 3.75 8.374 8.374 8.374s8.374-3.749 8.374-8.374c0-0.051 0-7.188 0-7.188 0.001-0.904-0.732-1.637-1.637-1.637z"></path>
<path fill="#ffeecf" d="M8.179 22.702v-12.847c0-0.904 0.733-1.637 1.637-1.637 0.106 0 0.211 0.012 0.312 0.032-0.285-0.479-0.804-0.804-1.401-0.804-0.904 0-1.637 0.733-1.637 1.637v13.619z"></path>
<path fill="#ffeecf" d="M11.456 20.407v-6.341c0-0.904 0.733-1.637 1.637-1.637 0.106 0 0.211 0.012 0.312 0.032-0.285-0.479-0.804-0.804-1.401-0.804-0.904 0-1.637 0.733-1.637 1.637v7.113z"></path>
<path fill="#ffeecf" d="M14.719 20.551v-5.157c0-0.904 0.733-1.637 1.637-1.637 0.106 0 0.211 0.012 0.312 0.032-0.285-0.479-0.804-0.804-1.401-0.804-0.904 0-1.637 0.733-1.637 1.637v5.929z"></path>
<path fill="#ffeecf" d="M17.996 22.268v-5.331c0-0.904 0.733-1.637 1.637-1.637 0.106 0 0.211 0.012 0.312 0.032-0.285-0.479-0.804-0.804-1.401-0.804-0.904 0-1.637 0.733-1.637 1.637v6.103z"></path>
<path fill="#ffeecf" d="M4.526 24.126l0.003-7.456c0-1.008 0.817-1.825 1.825-1.825 0.152 0 0.297 0.024 0.439 0.059-0.326-0.5-0.887-0.831-1.528-0.831-1.008 0-1.825 0.817-1.825 1.825l-0.003 7.456c0 3.050 1.636 5.71 4.072 7.174-1.822-1.536-2.983-3.833-2.983-6.402z"></path>
<path fill="#63312d" d="M11.811 32c-4.767 0-8.646-3.879-8.646-8.646l0.003-7.456c0-1.157 0.941-2.097 2.097-2.097 0.615 0 1.169 0.266 1.553 0.689v-5.406c0-1.053 0.856-1.909 1.909-1.909s1.909 0.856 1.909 1.909v2.876c0.347-0.355 0.83-0.575 1.365-0.575 1.051 0 1.906 0.853 1.909 1.903 0.347-0.355 0.83-0.575 1.364-0.575 1.054 0 1.91 0.856 1.91 1.909v0.209c0.347-0.355 0.83-0.575 1.364-0.575 1.053 0 1.909 0.856 1.909 1.909v7.188c-0.001 4.767-3.88 8.646-8.648 8.646zM5.265 14.345c-0.856 0-1.553 0.696-1.553 1.553l-0.003 7.456c0 4.467 3.634 8.101 8.101 8.101s8.102-3.634 8.102-8.101v-7.188c0-0.752-0.612-1.364-1.365-1.364s-1.364 0.612-1.364 1.364c0 0.15-0.122 0.272-0.272 0.272s-0.272-0.122-0.272-0.272v-1.543c0-0.752-0.612-1.364-1.365-1.364s-1.364 0.612-1.364 1.364c0 0.15-0.122 0.272-0.272 0.272s-0.272-0.122-0.272-0.272v-1.328c0-0.752-0.612-1.364-1.365-1.364s-1.365 0.612-1.365 1.364c0 0.15-0.122 0.272-0.272 0.272s-0.272-0.122-0.272-0.272v-4.211c0-0.752-0.612-1.364-1.364-1.364s-1.365 0.612-1.365 1.364v6.815c0 0.15-0.122 0.272-0.272 0.272s-0.272-0.122-0.272-0.272c0.001-0.856-0.696-1.553-1.552-1.553z"></path>
<path fill="#63312d" d="M10.094 13.219h0.545v7.187h-0.545z"></path>
<path fill="#63312d" d="M13.357 14.572h0.545v5.979h-0.545z"></path>
<path fill="#63312d" d="M16.634 16.079h0.545v6.189h-0.545z"></path>
<path fill="#63312d" d="M6.811 15.811h0.545v6.892h-0.545z"></path>
<path fill="#63312d" d="M12 11.384h1.632v0.545h-1.632z"></path>
<path fill="#63312d" d="M15.274 12.713h1.601v0.545h-1.601z"></path>
<path fill="#63312d" d="M18.548 14.256h1.798v0.545h-1.798z"></path>
<path fill="#52b8d9" d="M24.776 18.409h-2.213v13.26h2.213c3.662 0 6.63-2.969 6.63-6.63s-2.968-6.63-6.63-6.63z"></path>
<path fill="#63312d" d="M24.776 31.942h-2.213c-0.15 0-0.272-0.122-0.272-0.272v-13.26c0-0.15 0.122-0.272 0.272-0.272h2.213c3.806 0 6.902 3.097 6.902 6.902s-3.096 6.902-6.902 6.902zM22.836 31.397h1.941c3.506 0 6.358-2.852 6.358-6.358s-2.852-6.358-6.358-6.358h-1.941z"></path>
<path fill="#84dbff" d="M29.194 25.039c0 3.662-2.968 6.63-6.63 6.63s-6.63-2.968-6.63-6.63c0-3.662 2.968-6.63 6.63-6.63s6.63 2.968 6.63 6.63z"></path>
<path fill="#caf4ff" d="M17.023 25.039c0-3.478 2.679-6.325 6.085-6.603-0.18-0.015-0.361-0.027-0.545-0.027-3.662 0-6.63 2.968-6.63 6.63s2.969 6.63 6.63 6.63c0.184 0 0.365-0.013 0.545-0.027-3.406-0.278-6.085-3.125-6.085-6.603z"></path>
<path fill="#63312d" d="M22.564 31.942c-3.806 0-6.902-3.097-6.902-6.902s3.097-6.902 6.902-6.902 6.902 3.097 6.902 6.902-3.097 6.902-6.902 6.902zM22.564 18.682c-3.506 0-6.358 2.852-6.358 6.358s2.852 6.358 6.358 6.358 6.358-2.852 6.358-6.358-2.852-6.358-6.358-6.358z"></path>
<path fill="#f8f3f3" d="M19.662 29.060c-0.302-0.213-0.374-0.63-0.161-0.932l4.854-6.948c0.212-0.302 0.63-0.374 0.932-0.161s0.374 0.63 0.161 0.932l-4.853 6.947c-0.213 0.301-0.63 0.375-0.933 0.162z"></path>
<path fill="#f8f3f3" d="M20.155 20.98c-0.968 0-1.752 0.785-1.752 1.752s0.784 1.752 1.752 1.752c0.967 0 1.752-0.784 1.752-1.752s-0.785-1.752-1.752-1.752zM20.155 23.422c-0.381 0-0.69-0.309-0.69-0.69s0.309-0.69 0.69-0.69c0.381 0 0.69 0.309 0.69 0.69s-0.309 0.69-0.69 0.69z"></path>
<path fill="#f8f3f3" d="M24.782 25.606c-0.968 0-1.752 0.785-1.752 1.752s0.784 1.752 1.752 1.752c0.968 0 1.752-0.784 1.752-1.752s-0.785-1.752-1.752-1.752zM24.782 28.049c-0.381 0-0.69-0.309-0.69-0.69s0.309-0.69 0.69-0.69 0.691 0.309 0.691 0.69c0 0.381-0.309 0.69-0.691 0.69z"></path>
<path fill="#63312d" d="M20.045 29.454c-0.187 0-0.376-0.056-0.54-0.171-0.424-0.299-0.526-0.887-0.227-1.312l4.853-6.947c0.144-0.206 0.36-0.343 0.607-0.386 0.25-0.044 0.499 0.013 0.705 0.158 0.424 0.3 0.526 0.888 0.227 1.312l-4.852 6.946c-0.184 0.26-0.476 0.399-0.773 0.399zM19.819 28.838c0.179 0.126 0.427 0.082 0.553-0.096l4.852-6.946c0.126-0.18 0.083-0.428-0.095-0.554-0.086-0.061-0.193-0.084-0.296-0.066s-0.194 0.076-0.255 0.161l-4.853 6.948c-0.062 0.088-0.086 0.193-0.068 0.297 0.018 0.105 0.076 0.196 0.162 0.257z"></path>
<path fill="#63312d" d="M20.155 24.756c-1.116 0-2.024-0.908-2.024-2.024s0.908-2.024 2.024-2.024 2.024 0.908 2.024 2.024-0.908 2.024-2.024 2.024zM20.155 21.252c-0.816 0-1.48 0.664-1.48 1.48s0.664 1.48 1.48 1.48 1.48-0.664 1.48-1.48-0.664-1.48-1.48-1.48zM20.155 23.694c-0.531 0-0.963-0.431-0.963-0.963s0.432-0.963 0.963-0.963c0.531 0 0.963 0.431 0.963 0.963s-0.432 0.963-0.963 0.963zM20.155 22.314c-0.23 0-0.418 0.187-0.418 0.418s0.188 0.418 0.418 0.418 0.418-0.187 0.418-0.418-0.187-0.418-0.418-0.418z"></path>
<path fill="#63312d" d="M24.782 29.382c-1.116 0-2.024-0.908-2.024-2.024s0.908-2.024 2.024-2.024 2.024 0.908 2.024 2.024-0.908 2.024-2.024 2.024zM24.782 25.878c-0.816 0-1.48 0.664-1.48 1.48s0.664 1.48 1.48 1.48 1.48-0.664 1.48-1.48-0.664-1.48-1.48-1.48zM24.782 28.321c-0.531 0-0.963-0.431-0.963-0.963s0.432-0.963 0.963-0.963c0.531 0 0.963 0.431 0.963 0.963s-0.432 0.963-0.963 0.963zM24.782 26.941c-0.23 0-0.418 0.187-0.418 0.418s0.187 0.418 0.418 0.418 0.418-0.187 0.418-0.418-0.188-0.418-0.418-0.418z"></path>
</svg>
