<!-- Generated by IcoMoon.io -->
<svg version="1.1" xmlns="http://www.w3.org/2000/svg" width="36" height="32" viewBox="0 0 36 32">
<title>maintenable-evolutif-site</title>
<path fill="#6c63ff" opacity="0.1" d="M34.104 29.484c0 0.441-2.080 0.799-4.647 0.799s-4.647-0.358-4.647-0.799c0-0.441 2.080-0.799 4.647-0.799s4.647 0.358 4.647 0.799z"></path>
<path fill="#6c63ff" opacity="0.1" d="M22.267 28.703c0 0.269-3.080 0.487-6.879 0.487s-6.879-0.218-6.879-0.487c0-0.269 3.080-0.487 6.879-0.487s6.879 0.218 6.879 0.487z"></path>
<path fill="#6c63ff" opacity="0.1" d="M11.243 1.251c1.232-1.098 3.166-1.322 4.925-1.234 5.529 0.274 10.519 2.944 14.836 5.962 1.563 1.094 3.101 2.271 4.115 3.776 2.065 3.064 1.453 7.309-1.419 9.832-0.977 0.86-2.161 1.517-3.377 2.101-2.162 1.038-4.495 1.871-6.947 2.108-1.75 0.169-3.521 0.032-5.26-0.204-4.859-0.659-9.629-2.117-13.626-4.61-1.753-1.094-3.406-2.453-4.129-4.221s-0.26-4.011 1.53-5.058c0.743-0.433 1.626-0.629 2.493-0.812 1.276-0.27 2.572-0.537 3.724-1.087 1.19-0.568 2.597-1.666 2.362-2.923-0.254-1.349-0.457-2.532 0.774-3.629z"></path>
<path fill="#000" opacity="0.1" d="M15.895 25.264c0.15 0.255 0.385 0.42 0.65 0.42 0.453 0 0.821-0.48 0.821-1.072s-0.369-1.068-0.821-1.068c-0.213 0-0.407 0.106-0.553 0.281-0.053 0.063-0.099 0.135-0.137 0.212l-0.003 0.006-0.008 0.047s-0.175 0.149-0.413 0.012v-3.472h-3.39c-0.035-0.046-0.056-0.103-0.056-0.166 0-0.032 0.006-0.063 0.016-0.092l-0.001 0.002c0.026-0.081 0.081-0.146 0.151-0.186l0.002-0.001c0.255-0.15 0.42-0.385 0.42-0.65 0-0.453-0.48-0.821-1.072-0.821s-1.072 0.367-1.072 0.821c0 0.213 0.107 0.408 0.281 0.553 0.063 0.053 0.135 0.099 0.212 0.136l0.006 0.003 0.005 0.008c0.063 0.061 0.102 0.146 0.102 0.24 0 0.055-0.013 0.107-0.037 0.153l0.001-0.002h-1.529v6.429c0 0.842 0.682 1.524 1.524 1.524v0h4.437v-3.412c0.048-0.046 0.114-0.074 0.186-0.074 0.032 0 0.063 0.006 0.092 0.016l-0.002-0.001c0.080 0.026 0.145 0.080 0.184 0.15l0.001 0.002z"></path>
<path fill="#000" opacity="0.1" d="M10.19 20.495h0.531c-0.253-0.196-0.416-0.499-0.419-0.84v-0c0-0.609 0.532-1.103 1.187-1.103s1.187 0.494 1.187 1.103c-0.003 0.342-0.165 0.645-0.416 0.839l-0.002 0.002h3.182v-3.425c0.049-0.046 0.114-0.074 0.187-0.074 0.032 0 0.063 0.006 0.091 0.016l-0.002-0.001c0.081 0.026 0.146 0.080 0.186 0.151l0.001 0.002c0.15 0.255 0.385 0.42 0.65 0.42 0.453 0 0.821-0.48 0.821-1.071s-0.367-1.072-0.821-1.072c-0.213 0-0.408 0.107-0.553 0.281-0.053 0.063-0.099 0.135-0.137 0.212l-0.003 0.006-0.007 0.005c-0.061 0.063-0.146 0.103-0.241 0.103-0.064 0-0.123-0.018-0.174-0.049l0.001 0.001v-3.471h-3.263c-0.035-0.046-0.056-0.103-0.056-0.166 0-0.032 0.006-0.063 0.016-0.092l-0.001 0.002c0.026-0.081 0.080-0.146 0.151-0.186l0.002-0.001c0.255-0.15 0.42-0.385 0.42-0.65 0-0.453-0.48-0.821-1.071-0.821s-1.072 0.367-1.072 0.821c0 0.213 0.107 0.408 0.281 0.553 0.063 0.053 0.135 0.099 0.212 0.137l0.006 0.003 0.005 0.007c0.063 0.061 0.102 0.146 0.102 0.24 0 0.055-0.013 0.107-0.037 0.153l0.001-0.002h-0.944v-0.176h0.697c-0.253-0.196-0.415-0.498-0.418-0.839v-0.001c0-0.609 0.532-1.103 1.187-1.103s1.187 0.494 1.187 1.103c-0.003 0.342-0.166 0.645-0.418 0.839l-0.002 0.002h3.014v-3.467c0.049-0.046 0.114-0.074 0.186-0.074 0.032 0 0.063 0.006 0.092 0.016l-0.002-0.001c0.081 0.026 0.146 0.081 0.186 0.151l0.001 0.002c0.15 0.255 0.385 0.42 0.65 0.42 0.453 0 0.821-0.48 0.821-1.072s-0.367-1.071-0.821-1.071c-0.213 0-0.408 0.106-0.553 0.281-0.053 0.063-0.099 0.135-0.137 0.212l-0.003 0.006-0.007 0.046s-0.175 0.149-0.413 0.012v-3.234h-4.435c-0.842 0-1.524 0.683-1.524 1.524v0 1.65h-0.023c-0.049 0-0.089 0.040-0.089 0.090v0 0.782c0 0.049 0.040 0.089 0.089 0.089h0.023v0.798h-0.030c0 0 0 0 0 0-0.050 0-0.090 0.040-0.090 0.089v1.493c0 0.049 0.040 0.089 0.090 0.089 0 0 0 0 0 0h0.030v0.586h-0.025c-0.049 0-0.089 0.040-0.089 0.089v0 0.481h-0.020v1.013c0 0 0 0 0 0 0 0.049 0.040 0.089 0.089 0.089 0 0 0 0 0 0h0.027v7.049z"></path>
<path fill="#000" opacity="0.1" d="M21.788 10.117c0 0 0 0 0 0 0-0.050-0.040-0.090-0.090-0.090h-0.054v-0.098h-0.029v-3.899c0-0 0-0 0-0 0-0.809-0.656-1.465-1.465-1.465-0 0-0 0-0 0h-4.397v2.971c0.199-0.262 0.51-0.43 0.86-0.432h0c0.614 0 1.112 0.532 1.112 1.188s-0.498 1.188-1.112 1.188c-0.35-0.002-0.661-0.17-0.858-0.429l-0.002-0.003v3.296h3.557c-0.253-0.197-0.415-0.5-0.418-0.841v-0c0-0.61 0.53-1.105 1.185-1.105 0.002 0 0.004-0 0.007-0 0.301 0 0.577 0.108 0.791 0.288l-0.002-0.002c0.24 0.193 0.392 0.487 0.392 0.816s-0.152 0.623-0.39 0.814l-0.002 0.002v0.026h0.772v-0.003h0.143z"></path>
<path fill="#000" opacity="0.1" d="M20.608 20.32v-0.391c0.014-0.020 0.029-0.044 0.042-0.069l0.002-0.004c0.050-0.090 0.080-0.197 0.081-0.311v-0c-0-0.076-0.014-0.149-0.038-0.217l0.001 0.004c-0.023-0.065-0.053-0.122-0.089-0.173l0.001 0.002c-0.18-0.259-0.536-0.436-0.947-0.436-0.592 0-1.072 0.367-1.072 0.821 0 0.213 0.107 0.408 0.281 0.553 0.064 0.053 0.135 0.099 0.212 0.137l0.006 0.003 0.005 0.007c0.063 0.061 0.101 0.146 0.101 0.24 0 0.055-0.013 0.107-0.037 0.153l0.001-0.002h-3.448v3.205c0.196-0.26 0.504-0.428 0.851-0.43h0c0.609 0 1.103 0.532 1.103 1.187s-0.494 1.187-1.103 1.187c-0.347-0.002-0.655-0.17-0.849-0.427l-0.002-0.003v2.587h3.957c0 0 0 0 0 0 0.519 0 0.939-0.42 0.94-0.938v-0.004c0 0.519-0.421 0.94-0.94 0.94v0h-3.957v0.625h4.104c0.842 0 1.524-0.683 1.524-1.524v0-6.573h-0.731z"></path>
<path fill="#3a3768" d="M11.182 27.799c-0.519 0-0.94-0.421-0.94-0.94v0-6.385h-0.731v6.428c0 0.842 0.682 1.524 1.524 1.524v0h4.437v-0.625z"></path>
<path fill="#6c63ff" d="M15.746 24.956c0.081 0.026 0.146 0.080 0.186 0.151l0.001 0.002c0.15 0.255 0.385 0.42 0.65 0.42 0.453 0 0.821-0.48 0.821-1.072s-0.368-1.069-0.819-1.069c-0.213 0-0.407 0.106-0.553 0.281-0.053 0.063-0.099 0.135-0.137 0.212l-0.003 0.006-0.008 0.047s-0.175 0.149-0.413 0.012v-3.472h-3.39c-0.035-0.046-0.056-0.103-0.056-0.166 0-0.032 0.006-0.063 0.016-0.092l-0.001 0.002c0.026-0.081 0.081-0.146 0.151-0.186l0.002-0.001c0.255-0.15 0.42-0.385 0.42-0.65 0-0.453-0.48-0.821-1.072-0.821s-1.072 0.367-1.072 0.821c0 0.213 0.107 0.408 0.281 0.553 0.063 0.053 0.135 0.099 0.212 0.136l0.006 0.003 0.005 0.008c0.063 0.061 0.102 0.146 0.102 0.24 0 0.055-0.013 0.107-0.037 0.153l0.001-0.002h-0.797v6.386c0 0.519 0.421 0.94 0.94 0.94v0h4.29v-2.784c0.048-0.046 0.113-0.073 0.185-0.073 0.032 0 0.062 0.005 0.090 0.015l-0.002-0.001z"></path>
<path fill="#3a3768" d="M9.382 12.184h0.116v0.189h-0.116v-0.189z"></path>
<path fill="#3a3768" d="M9.595 12.184h0.634v0.189h-0.634v-0.189z"></path>
<path fill="#3a3768" d="M9.498 12.184h0.097v0.189h-0.097v-0.189z"></path>
<path fill="#6c63ff" d="M9.471 13.287h0.027v-0.914h-0.117v0.824c0 0 0 0 0 0 0 0.049 0.040 0.089 0.089 0.089 0.001 0 0.001 0 0.002 0h-0z"></path>
<path fill="#3a3768" d="M10.229 12.373h-0.634v0.824c0 0 0 0 0 0 0 0.049-0.040 0.089-0.089 0.089-0 0-0 0-0 0h-0.007v7.052h0.731z"></path>
<path fill="#3a3768" d="M9.498 13.287h0.007c0 0 0 0 0 0 0.049 0 0.089-0.040 0.089-0.089 0 0 0 0 0 0v0-0.824h-0.097z"></path>
<path fill="#3a3768" d="M10.341 19.496c0-0.609 0.532-1.103 1.187-1.103s1.187 0.494 1.187 1.103c-0.002 0.342-0.165 0.646-0.416 0.84l-0.002 0.002h3.182v-3.425c0.049-0.046 0.114-0.074 0.187-0.074 0.032 0 0.063 0.006 0.091 0.016l-0.002-0.001c0.081 0.026 0.146 0.080 0.186 0.151l0.001 0.002c0.15 0.255 0.385 0.42 0.65 0.42 0.453 0 0.821-0.48 0.821-1.071s-0.367-1.072-0.821-1.072c-0.213 0-0.408 0.107-0.553 0.281-0.053 0.063-0.099 0.135-0.137 0.212l-0.003 0.006-0.007 0.005c-0.061 0.063-0.146 0.103-0.241 0.103-0.064 0-0.123-0.018-0.174-0.049l0.001 0.001v-3.471h-3.263c-0.035-0.046-0.056-0.103-0.056-0.166 0-0.032 0.006-0.063 0.016-0.092l-0.001 0.002c0.026-0.081 0.080-0.146 0.151-0.186l0.002-0.001c0.255-0.15 0.42-0.385 0.42-0.65 0-0.453-0.48-0.821-1.071-0.821s-1.072 0.367-1.072 0.821c0 0.213 0.107 0.408 0.281 0.553 0.063 0.053 0.135 0.099 0.212 0.137l0.006 0.003 0.005 0.007c0.063 0.061 0.102 0.146 0.102 0.24 0 0.055-0.013 0.107-0.037 0.153l0.001-0.002h-0.944v7.967h0.531c-0.254-0.196-0.416-0.5-0.419-0.842v-0z"></path>
<path fill="#6c63ff" d="M9.614 11.69c0 0 0 0 0 0 0-0.049-0.040-0.089-0.089-0.089-0 0-0 0-0 0h-0.007v0.583h0.097z"></path>
<path fill="#3a3768" d="M9.514 7.599h-0.020c-0.049 0-0.089 0.040-0.089 0.090v0 0.782c0 0.049 0.040 0.089 0.089 0.089h0.023v-0.96z"></path>
<path fill="#3a3768" d="M9.487 9.357c0 0 0 0 0 0-0.050 0-0.090 0.040-0.090 0.089v1.493c0 0.049 0.040 0.089 0.090 0.089 0 0 0 0 0 0h0.030v-1.672z"></path>
<path fill="#3a3768" d="M9.517 11.614h-0.025c-0.049 0-0.089 0.040-0.089 0.089v0.494h0.117z"></path>
<path fill="#3a3768" d="M9.517 5.949v1.65c0.048 0.002 0.086 0.041 0.086 0.089 0 0 0 0 0 0v0 0.782c-0 0.048-0.038 0.087-0.086 0.089h-0v0.798h0.014c0.049 0 0.089 0.040 0.089 0.089v0 1.493c0 0.049-0.040 0.089-0.089 0.089v0h-0.014v0.586h0.007c0 0 0 0 0 0 0.050 0 0.090 0.040 0.090 0.089v0.492h0.634v-6.203c0-0.519 0.421-0.94 0.94-0.94h1.275v0.163c0 0.428 0.347 0.774 0.774 0.774h2.242v-0.511h-1.032c-0.083-0-0.15-0.067-0.151-0.15v-0.033c0-0.083 0.068-0.151 0.151-0.151h1.030v-0.72h-4.436c-0.841 0-1.523 0.683-1.524 1.524v0z"></path>
<path fill="#3a3768" d="M9.603 8.47v-0.782c0-0 0-0 0-0 0-0.048-0.038-0.087-0.086-0.089h-0v0.96c0.048-0.002 0.086-0.041 0.086-0.089v-0z"></path>
<path fill="#3a3768" d="M9.621 10.939v-1.493c0-0.049-0.040-0.089-0.089-0.089v0h-0.014v1.672h0.014c0 0 0.001 0 0.001 0 0.049 0 0.089-0.040 0.089-0.089 0 0 0 0 0 0v0z"></path>
<path fill="#3a3768" d="M10.508 11.356c0-0.609 0.532-1.103 1.187-1.103s1.187 0.494 1.187 1.103c-0.003 0.342-0.166 0.645-0.418 0.839l-0.002 0.002h3.014v-3.467c0.049-0.046 0.114-0.074 0.186-0.074 0.032 0 0.063 0.006 0.092 0.016l-0.002-0.001c0.081 0.026 0.146 0.081 0.186 0.151l0.001 0.002c0.15 0.255 0.385 0.42 0.65 0.42 0.453 0 0.821-0.48 0.821-1.072s-0.367-1.071-0.821-1.071c-0.213 0-0.408 0.106-0.553 0.281-0.053 0.063-0.099 0.135-0.137 0.212l-0.003 0.006-0.007 0.046s-0.175 0.149-0.413 0.012v-1.669h-2.241c-0.427-0.001-0.772-0.347-0.772-0.774 0 0 0 0 0 0v0-0.163h-1.274c-0.519 0-0.94 0.421-0.94 0.94 0 0 0 0.001 0 0.001v-0 6.203h0.678c-0.253-0.196-0.415-0.499-0.418-0.84v-0z"></path>
<path fill="#6c63ff" d="M14.447 5.144c-0.083 0-0.151 0.068-0.151 0.151v0.034c0 0.084 0.068 0.151 0.151 0.152h1.030v-0.336z"></path>
<path fill="#e6e8ec" d="M21.42 9.866v2.32h0.264v-2.414h-0.143c-0.067 0-0.121 0.042-0.121 0.093z"></path>
<path fill="#3a3768" d="M15.792 4.408h0.313v0.704h-0.313v-0.704z"></path>
<path fill="#3a3768" d="M15.792 5.464h0.313v0.508h-0.313v-0.508z"></path>
<path fill="#3a3768" d="M15.792 5.112h0.313v0.352h-0.313v-0.352z"></path>
<path fill="#e6e8ec" d="M21.738 9.871h-0.073v2.313h0.163v-2.223c0 0 0 0 0 0 0-0.050-0.040-0.090-0.090-0.090h-0z"></path>
<path fill="#3a3768" d="M16.104 5.112c0.083 0.019 0.156 0.17 0.156 0.17v0.033s-0.073 0.151-0.156 0.149v0 0.508h1.766c0.428-0 0.774-0.347 0.774-0.775v0-0.163h1.329c0.518 0.001 0.938 0.422 0.938 0.94 0 0 0 0 0 0v0 4.554c0.24 0.193 0.392 0.487 0.392 0.816s-0.152 0.623-0.39 0.814l-0.002 0.002v0.026h0.547v-2.294c0 0 0 0 0 0 0-0.006 0.005-0.011 0.011-0.011 0 0 0 0 0 0h0.184v-4.006c0-0 0-0 0-0 0-0.809-0.656-1.465-1.465-1.465-0 0-0 0-0 0h-4.123v0.704zM16.696 5.108c0.105 0 0.19 0.085 0.19 0.19s-0.085 0.19-0.19 0.19c-0.105 0-0.19-0.085-0.19-0.19v0c0-0.105 0.085-0.19 0.19-0.19v0z"></path>
<path fill="#3a3768" d="M16.65 6.947c0.614 0 1.112 0.532 1.112 1.188s-0.498 1.188-1.112 1.188c-0.35-0.002-0.661-0.17-0.858-0.429l-0.002-0.003v3.296h3.557c-0.253-0.197-0.415-0.5-0.418-0.841v-0c0-0.61 0.53-1.105 1.185-1.105 0.002-0 0.005-0 0.008-0 0.302 0 0.578 0.109 0.792 0.289l-0.002-0.002v-4.554c0 0 0 0 0 0 0-0.519-0.42-0.939-0.938-0.94h-1.329v0.163c0 0.428-0.347 0.774-0.774 0.775h-2.079v1.407c0.198-0.261 0.508-0.429 0.858-0.432h0z"></path>
<path fill="#6c63ff" d="M16.104 5.464c0 0 0 0 0 0 0.084 0 0.152-0.066 0.156-0.148l0-0v-0.033c-0.010-0.085-0.073-0.154-0.155-0.17l-0.001-0h-0.039v0.352z"></path>
<path fill="#e6e8ec" d="M16.884 5.267c0.017 0.104-0.054 0.202-0.157 0.218s-0.202-0.054-0.218-0.157c-0.017-0.104 0.054-0.202 0.157-0.218s0.202 0.054 0.218 0.157z"></path>
<path fill="#e6e8ec" d="M20.647 20.163v-0.391c0.078-0.106 0.125-0.24 0.125-0.384s-0.047-0.278-0.126-0.386l0.001 0.002z"></path>
<path fill="#3a3768" d="M20.647 20.314h0.731v0.168h-0.731v-0.168z"></path>
<path fill="#3a3768" d="M20.352 20.040c-0.072 0.041-0.127 0.106-0.152 0.184l-0.001 0.002c-0.010 0.027-0.015 0.058-0.015 0.090 0 0.063 0.021 0.121 0.057 0.167l-0-0.001h0.407v-0.168h-0.156c0.058-0.046 0.109-0.096 0.155-0.149l0.001-0.002v-0.391c-0.078 0.109-0.177 0.199-0.291 0.265l-0.004 0.002z"></path>
<path fill="#6c63ff" d="M20.49 20.314h0.156v-0.151c-0.048 0.055-0.099 0.105-0.154 0.149l-0.002 0.002z"></path>
<path fill="#6c63ff" d="M20.771 19.389c-0.001-0.144-0.048-0.277-0.126-0.386l0.001 0.002v0.767c0.077-0.107 0.123-0.239 0.125-0.383v-0z"></path>
<path fill="#3a3768" d="M21.378 20.482v6.407c0 0.842-0.683 1.524-1.524 1.524v0h-4.104v-0.625h3.957c0.519 0 0.94-0.421 0.94-0.94v0-6.365z"></path>
<path fill="#3a3768" d="M20.199 20.226c0.026-0.081 0.081-0.146 0.151-0.186l0.002-0.001c0.118-0.068 0.217-0.158 0.293-0.264l0.002-0.003v-0.767c-0.18-0.259-0.536-0.436-0.947-0.436-0.592 0-1.072 0.367-1.072 0.821 0 0.213 0.107 0.408 0.281 0.553 0.064 0.053 0.135 0.099 0.212 0.137l0.006 0.003 0.005 0.007c0.063 0.061 0.101 0.146 0.101 0.24 0 0.055-0.013 0.107-0.037 0.153l0.001-0.002h-3.448v3.205c0.196-0.26 0.504-0.428 0.851-0.43h0c0.609 0 1.103 0.532 1.103 1.187s-0.494 1.187-1.103 1.187c-0.347-0.002-0.655-0.17-0.849-0.427l-0.002-0.003v2.587h3.957c0 0 0 0 0 0 0.519 0 0.939-0.42 0.94-0.938v-6.369h-0.406c-0.036-0.046-0.057-0.104-0.057-0.167 0-0.032 0.005-0.062 0.015-0.091l-0.001 0.002z"></path>
<path fill="#6c63ff" d="M27.636 10.52c0.218-0.098 0.38-0.263 0.435-0.475 0.006-0.022 0.011-0.048 0.015-0.075l0-0.003c0.008-0.020 0.017-0.044 0.024-0.070l0.001-0.005c0.055-0.213-0.005-0.433-0.149-0.621l-0.286 1.094z"></path>
<path fill="#ba601b" d="M34.231 10.109c-0.045-0.261-0.87-0.828-0.87-0.828s-0.365-0.195-0.558-0.421c-0.124-0.144-0.162-0.142-0.174-0.123-0.008-0.005-0.017-0.008-0.026-0.009h-0c-0.008-0.005-0.015-0.011-0.022-0.016v0c0-0.002 0-0.004 0-0.005 0-0.021-0.013-0.040-0.031-0.048l-0-0c-0.009-0.005-0.019-0.012-0.028-0.019-0.063-0.105-0.085-0.254-0.092-0.384-0.009-0.164-0.195-0.123-0.259-0.104-0.044-0.082-0.086-0.167-0.127-0.253 0.017-0.025 0.031-0.054 0.043-0.085l0.001-0.003c0.115-0.25 0.090-0.536 0.14-0.801 0.036-0.191 0.111-0.391 0.096-0.577 0-0.004 0-0.009 0-0.014 0 0 0 0.002 0 0.003-0.004-0.050-0.016-0.096-0.033-0.139l0.001 0.003c-0.033-0.084-0.091-0.156-0.117-0.243-0.042-0.126-0.015-0.265-0.050-0.393-0.043-0.162-0.18-0.287-0.335-0.358s-0.327-0.096-0.497-0.117c-0.424-0.053-0.875-0.085-1.262 0.093-0.033 0.020-0.073 0.032-0.116 0.032-0.001 0-0.001 0-0.002 0h0c-0.041-0.011-0.076-0.028-0.108-0.050l0.001 0.001c-0.104-0.052-0.235-0.019-0.328 0.050s-0.156 0.168-0.218 0.264-0.129 0.195-0.225 0.258c-0.113 0.075-0.262 0.101-0.352 0.202-0.038 0.046-0.065 0.104-0.073 0.167l-0 0.002s0-0.002 0-0.003c-0 0.003-0 0.007-0 0.011s0 0.008 0 0.012l-0-0.001c0 0.006 0 0.012 0 0.018s0 0.010 0 0.014c0 0.017 0 0.033 0 0.050 0.014 0.103 0.040 0.197 0.078 0.284l-0.003-0.007c0.019 0.069 0.055 0.128 0.102 0.174l0 0c0.136 0.111 0.352 0.006 0.516 0.068 0.014 0.005 0.028 0.012 0.042 0.018 0 0.006-0.004 0.013-0.006 0.019-0.034 0.11-0.053 0.236-0.053 0.366 0 0.001 0 0.001 0 0.002v-0c0 0.734 0.609 1.329 1.361 1.329 0.028 0 0.056 0 0.084-0.003 0.004 0.014 0.008 0.029 0.012 0.043 0.029 0.108 0.046 0.232 0.046 0.36 0 0.048-0.002 0.096-0.007 0.143l0-0.006-0.008-0.073c-0.016-0.008-0.035-0.015-0.054-0.021l-0.003-0.001c-0.048-0.016-0.103-0.026-0.16-0.026-0.003 0-0.006 0-0.010 0h0c-0.185-0.002-0.463 0.072-0.76 0.432 0 0-0.379 0.211-0.491 0.261-0.009 0.006-0.016 0.014-0.021 0.023l-0 0s-0.507 0.766-0.559 1.057-0.117 0.625-0.117 0.625-0.127 0.378-0.208 0.545-0.156 0.327-0.163 0.399 0.030 0.232-0.127 0.334-0.195 0.378-0.195 0.378-0.078 0.073-0.189 0.166h-0.004l0.408-1.566 0.073 0.018c0.007 0.002 0.015 0.003 0.023 0.003 0.030 0 0.056-0.014 0.073-0.035l0-0c0.007-0.009 0.013-0.020 0.016-0.032l0-0.001 0.082-0.317 0.033-0.126 0.007-0.026 0.048-0.184-0.163-0.039-0.19-0.047-0.538-0.136 0.047-0.18 0.039-0.152 0.246-0.944 0.039-0.152c-0.156-0.202-0.405-0.367-0.711-0.443-0.59-0.147-1.162 0.092-1.277 0.532-0.006 0.022-0.011 0.048-0.015 0.075l-0 0.003c-0.009 0.020-0.017 0.045-0.024 0.070l-0.001 0.004c-0.013 0.047-0.020 0.102-0.020 0.158 0 0.027 0.002 0.053 0.005 0.079l-0-0.003q0.002 0.019 0.006 0.039c0.025 0.128 0.078 0.241 0.151 0.337l-0.001-0.002c0.054 0.071 0.114 0.134 0.181 0.188l0.002 0.002 0.003 0.009c0.028 0.045 0.046 0.098 0.051 0.155l0 0.001c0 0.008 0 0.016 0 0.024-0.014 0.025-0.030 0.046-0.047 0.066l0-0-3.606-0.896-0.039 0.152-0.812 3.121c0.1-0.078 0.217-0.141 0.343-0.183l0.008-0.002c0.042-0.014 0.093-0.028 0.145-0.038l0.007-0.001 0.018-0.003c0.052-0.009 0.113-0.014 0.175-0.014 0.093 0 0.184 0.012 0.27 0.034l-0.008-0.002c0.456 0.113 0.771 0.502 0.829 0.958 0.006 0.046 0.010 0.098 0.010 0.152 0 0.008-0 0.015-0 0.023l0-0.001c-0.001 0.079-0.010 0.155-0.025 0.229l0.001-0.008c-0.195 0.593-0.796 0.952-1.379 0.807-0.335-0.087-0.603-0.319-0.736-0.624l-0.003-0.007-0.039 0.152-0.838 3.203 3.194 0.794 0.034-0.154h0.005c-0.147-0.181-0.236-0.413-0.236-0.667 0-0.063 0.006-0.125 0.016-0.185l-0.001 0.006c0-0.005 0.003-0.010 0.005-0.015 0.004-0.011 0.008-0.022 0.012-0.033 0.025-0.060 0.051-0.111 0.081-0.159l-0.003 0.005c0.016-0.025 0.032-0.050 0.050-0.074q0.016-0.022 0.034-0.043c0.057-0.068 0.119-0.128 0.188-0.18l0.003-0.002 0.023-0.016c0.026-0.018 0.052-0.036 0.078-0.052 0.016-0.009 0.032-0.019 0.049-0.027 0.172-0.092 0.375-0.147 0.592-0.147 0.008 0 0.016 0 0.024 0l-0.001-0c0.109 0.002 0.214 0.016 0.314 0.041l-0.009-0.002c0.316 0.078 0.579 0.266 0.751 0.52l0.003 0.004c0.020 0.030 0.042 0.066 0.061 0.103l0.003 0.006c0.055 0.104 0.094 0.224 0.11 0.352l0.001 0.005c0.005 0.037 0.008 0.080 0.008 0.123 0 0.062-0.006 0.123-0.016 0.182l0.001-0.006c-0.079 0.223-0.223 0.407-0.41 0.533l-0.004 0.002-0.039 0.147h0.004l-0.006 0.004-0.039 0.147 0.729 0.181 1.033-3.95c0.279-0.032 0.421-0.156 0.421-0.174s0.335-0.204 0.521-0.254c0.092-0.025 0.199-0.043 0.284-0.061-0.1 0.497-0.195 0.977-0.187 1.005 0.003 0.011 0.021-0.006 0.048-0.044-0.002 0.012-0.004 0.025-0.004 0.039 0 0.002 0 0.004 0 0.005v-0c0 0.007 0.011 0.002 0.024-0.013l-0.002 0.009s-0.58 1.122-0.625 1.251 0.011 0.458 0.19 0.567c0.035 0.023 0.066 0.049 0.091 0.080l0.001 0.001-0.021 0.042c-0.066 0.135-0.125 0.285-0.115 0.378 0.002 0.018 0.004 0.039 0.004 0.060 0 0.103-0.030 0.199-0.083 0.28l0.001-0.002s-0.502 1.552-0.491 1.999-0.179 1.427-0.179 1.427-0.206 0.632-0.084 0.811 0.262 0.964 0.262 0.964 0.095 0.18 0.089 0.332 0.090 0.43 0.090 0.43l0.313 1.127s-0.034 0.3 0.084 0.512 0.106 0.147 0.050 0.518 0.067 0.713 0.268 0.821c0.078 0.042 0.082 0.107 0.058 0.17v0c-0.051-0.020-0.094 0.086-0.119 0.172l-0.026 0.025 0.017 0.004c-0.011 0.039-0.017 0.072-0.017 0.072s-0.524 0.436-0.558 0.594-0.402 0.24-0.402 0.24-0.558 0.152-0.704 0.229c-0.084 0.039-0.143 0.117-0.154 0.21l-0 0.001c-0.002 0.016-0.002 0.034-0.002 0.053 0 0.057 0.008 0.113 0.024 0.165l-0.001-0.004c0.055 0.223 0.836 0.245 1.212 0.185s1.149-0.278 1.149-0.278 0.815-0.078 1.055-0.174 0.050-0.349 0.050-0.349 0-0.008 0-0.023c0.006-0.091 0.023-0.421-0.035-0.508-0.043-0.067-0.042-0.235-0.036-0.341 0.163-0.293-0.187-1.173-0.187-1.173s0.067-0.86 0.022-0.986-0.235-1.193-0.235-1.193-0.117-0.485-0.072-0.566-0.028-0.316-0.028-0.316-0.191-0.261-0.174-0.343-0.056-0.229-0.056-0.229 0.569-0.85 0.519-1.008 0.023-0.414 0.023-0.414 0.072-0.12 0.156-0.265c0.106-0.177 0.235-0.388 0.277-0.454 0.055-0.084 0.186-0.442 0.26-0.648 0.031-0.088 0.052-0.148 0.052-0.148s0.089 1.603 0.167 1.765 0.195 1.454 0.195 1.454c0.036 0.093 0.057 0.2 0.057 0.313 0 0.017-0 0.033-0.001 0.049l0-0.002c-0.011 0.201 0.179 1.078 0.179 1.078s0.084 0.621 0.028 0.784-0.011 1.368-0.011 1.368-0.307 0.235-0.385 0.414 0.011 0.67 0.011 0.67l0.036 0.017c-0.026 0.061-0.048 0.132-0.063 0.205l-0.001 0.006c-0.011 0.104-0.179 0.572-0.162 0.637s-0.072 0.267-0.084 0.37-0.151 0.256-0.162 0.311c-0.021 0.058-0.042 0.105-0.065 0.151l0.003-0.008c-0.027 0.062-0.052 0.136-0.070 0.212l-0.002 0.009c-0.056 0.229 0.608 0.267 0.608 0.267 0.982 0.18 1.16-0.555 1.16-0.555s0.123-0.654 0.167-0.704c0.007-0.011 0.011-0.025 0.011-0.040 0-0.008-0.001-0.016-0.003-0.023l0 0.001c-0.027-0.117-0.076-0.221-0.143-0.31l0.002 0.002c-0.031-0.036-0.033-0.13-0.028-0.213 0.031-0.003 0.060-0.009 0.088-0.016l-0.003 0.001c0.396-0.114 0.235-0.774 0.235-0.774s0.268-0.435 0.268-0.604 0.095-0.686 0.095-0.686c0.34-0.61 0.206-2.092 0.262-2.212s-0.117-0.566-0.257-0.768-0.084-0.746 0-0.904-0.084-0.704-0.084-0.704 0.162-1.055 0.156-1.22 0.14-0.648 0.14-0.648 0.145-0.251 0.111-0.327 0.111-0.274 0.073-0.36 0.033-0.354 0.106-0.512c0.037-0.081 0.083-0.304 0.117-0.502 0.004-0.022 0.008-0.044 0.011-0.065 0.163 0.103 0.313 0.179 0.366 0.159 0.1-0.039-0.059-0.547-0.168-0.864 0.019-0.014 0.027-0.025 0.019-0.029-0.067-0.044 0.007-0.24 0.007-0.24 0.394-0.232 0.26-0.407 0.134-0.508s-0.045-0.391-0.082-0.508 0.045-0.646 0.112-1.031c0.006-0.036 0.010-0.078 0.010-0.121 0-0.047-0.004-0.092-0.013-0.136l0.001 0.005c0.072-0.109 0.145-0.223 0.21-0.329 0.223-0.363 0.699-2.092 0.699-2.092l-0.003-0.009c0.047-0.092 0.081-0.166 0.1-0.216 0.144-0.375-0.124-1.509-0.168-1.771zM30.765 9.114l0.010-0.005c0 0.003 0 0.005 0 0.008zM23.657 18.221v0 0zM28.601 27.655c-0 0-0.001 0-0.001 0-0.025 0-0.049-0.005-0.071-0.015l0.001 0z"></path>
<path fill="#c11e90" d="M24.468 15.058c0.322 0.122 1.069 0.135 1.402 0.135 0.101 0 0.163 0 0.163 0l0.213-0.434-0.213-0.362s-0.195-0.054-0.455-0.101c-0.383-0.069-0.907-0.123-1.157 0.032-0.419 0.259-0.372 0.57 0.047 0.729z"></path>
<path fill="#fec2be" d="M25.87 15.193c0.101 0 0.163 0 0.163 0l0.213-0.434-0.213-0.362s-0.195-0.054-0.455-0.101c0.211 0.155 0.717 0.492 0.291 0.896z"></path>
<path fill="#000" opacity="0.1" d="M29.398 9.868l-0.094-0.109s-0.484 0.766-0.535 1.055-0.117 0.621-0.117 0.621-0.123 0.376-0.202 0.542-0.152 0.325-0.159 0.398 0.029 0.231-0.123 0.333-0.188 0.376-0.188 0.376-0.55 0.535-0.839 0.547-1.12 0.159-1.091 0.304-0.347 0.231-0.499 0.267 0.977 0.469 0.318 1.026c0 0 0.419 0.087 0.462 0.188s0.484-0.057 0.484-0.057 0.094-0.224 0.419-0.239 0.491-0.159 0.491-0.181 0.325-0.202 0.508-0.253 0.419-0.072 0.426-0.123 1.084-4.698 1.084-4.698z"></path>
<path fill="#4c4981" d="M29.398 9.868l-0.094-0.109s-0.484 0.766-0.535 1.055-0.117 0.621-0.117 0.621-0.123 0.376-0.202 0.542-0.152 0.325-0.159 0.398 0.029 0.231-0.123 0.333-0.188 0.376-0.188 0.376-0.55 0.535-0.839 0.547-1.12 0.159-1.091 0.304-0.347 0.231-0.499 0.267 0.977 0.469 0.318 1.026c0 0 0.419 0.087 0.462 0.188s0.484-0.057 0.484-0.057 0.094-0.224 0.419-0.239 0.491-0.159 0.491-0.181 0.325-0.202 0.508-0.253 0.419-0.072 0.426-0.123 1.084-4.698 1.084-4.698z"></path>
<path fill="#000" opacity="0.05" d="M30.524 29.926c0.954 0.179 1.128-0.553 1.128-0.553s0.119-0.65 0.163-0.699c0.007-0.011 0.011-0.025 0.011-0.039 0-0.008-0.001-0.016-0.003-0.023l0 0.001c-0.027-0.117-0.075-0.219-0.139-0.309l0.002 0.003c-0.059-0.070-0.011-0.363-0.011-0.363l-1.106-0.282s-0.098 0.222-0.108 0.325-0.174 0.569-0.156 0.634-0.070 0.265-0.081 0.369-0.146 0.255-0.156 0.309c-0.020 0.058-0.040 0.105-0.063 0.15l0.003-0.007c-0.026 0.061-0.050 0.135-0.068 0.21l-0.002 0.010c-0.056 0.227 0.589 0.265 0.589 0.265z"></path>
<path fill="#ca8496" d="M30.524 29.926c0.954 0.179 1.128-0.553 1.128-0.553s0.119-0.65 0.163-0.699c0.007-0.011 0.011-0.025 0.011-0.039 0-0.008-0.001-0.016-0.003-0.023l0 0.001-0.23 0.658s-0.19 0.396-0.894 0.336c-0.401-0.034-0.598-0.108-0.694-0.166-0.026 0.061-0.050 0.135-0.068 0.21l-0.002 0.010c-0.054 0.228 0.591 0.266 0.591 0.266z"></path>
<path fill="#000" opacity="0.1" d="M31.266 28.896s-0.238 0.005-0.255-0.19z"></path>
<path fill="#000" opacity="0.1" d="M23.849 18.256l0.151 0.039-0.033 0.154-0.14-0.036 0.022-0.157z"></path>
<path fill="#6c63ff" d="M23.849 18.256l0.151 0.039-0.033 0.154-0.14-0.036 0.022-0.157z"></path>
<path fill="#000" opacity="0.1" d="M28.292 11.288l0.047-0.183 0.158 0.040-0.047 0.183-0.158-0.040z"></path>
<path fill="#3a3768" d="M27.583 11.107l0.047-0.183 0.524 0.133-0.047 0.183-0.524-0.133z"></path>
<path fill="#3a3768" d="M28.106 11.241l0.047-0.183 0.185 0.047-0.047 0.183-0.185-0.047z"></path>
<path fill="#3a3768" d="M27.637 10.9c-0.012 0.006-0.025 0.012-0.037 0.017l0.030 0.008-0.047 0.183-0.232-0.059c-0.014-0.031-0.022-0.068-0.022-0.107 0-0.056 0.017-0.109 0.046-0.152l-0.001 0.001c0.044-0.070 0.112-0.122 0.193-0.143l0.002-0.001c0.057-0.016 0.105-0.035 0.151-0.057l-0.006 0.003z"></path>
<path fill="#6c63ff" d="M28.191 11.691l0.071 0.018c0.007 0.002 0.014 0.003 0.022 0.003 0.042 0 0.077-0.028 0.087-0.067l0-0.001 0.079-0.316-0.156-0.039z"></path>
<path fill="#3a3768" d="M28.137 10.122c-0.054 0.211-0.211 0.376-0.423 0.473l0.278-1.091c0.141 0.187 0.2 0.406 0.145 0.618z"></path>
<path fill="#3a3768" d="M28.092 11.666c-0.039-0.010-0.067-0.045-0.067-0.087 0-0.008 0.001-0.015 0.003-0.023l-0 0.001 0.081-0.316-0.524-0.133-1.598 6.275c0.073 0.138 0.115 0.302 0.115 0.476 0 0.357-0.179 0.671-0.452 0.859l-0.004 0.002-0.037 0.146 0.709 0.182 1.873-7.356z"></path>
<path fill="#3a3768" d="M28.028 11.558c-0.002 0.007-0.003 0.014-0.003 0.022 0 0.042 0.028 0.076 0.067 0.087l0.001 0 0.099 0.025 0.102-0.403-0.185-0.047z"></path>
<path fill="#3a3768" d="M27.376 10.792c0.044-0.070 0.113-0.121 0.193-0.143l0.002-0.001c0.057-0.017 0.105-0.035 0.151-0.057l-0.006 0.003 0.278-1.091c-0.171-0.216-0.409-0.373-0.683-0.439l-0.009-0.002c-0.573-0.146-1.129 0.091-1.241 0.53-0.053 0.207 0.003 0.421 0.136 0.606 0.052 0.071 0.111 0.133 0.175 0.187l0.002 0.001 0.003 0.009c0.031 0.050 0.050 0.111 0.050 0.176 0 0.085-0.032 0.162-0.084 0.221l0-0-3.505-0.892-0.791 3.107c0.183-0.149 0.418-0.239 0.675-0.239 0.090 0 0.177 0.011 0.261 0.032l-0.007-0.002c0.591 0.15 0.938 0.788 0.776 1.423s-0.77 1.029-1.361 0.88c-0.328-0.088-0.588-0.32-0.715-0.621l-0.003-0.007-0.812 3.188 3.104 0.79c-0.143-0.18-0.23-0.411-0.23-0.662 0-0.091 0.011-0.179 0.033-0.263l-0.002 0.007c0.151-0.59 0.787-0.938 1.423-0.776 0.349 0.087 0.633 0.316 0.792 0.62l0.003 0.007 1.598-6.275-0.229-0.059c-0.014-0.032-0.023-0.070-0.023-0.109 0-0.055 0.016-0.107 0.044-0.15l-0.001 0.001z"></path>
<path fill="#6c63ff" d="M27.631 10.925l0.007-0.025c-0.012 0.006-0.024 0.012-0.037 0.018z"></path>
<path fill="#6c63ff" d="M28.339 11.105l-0.708-0.181 0.007-0.025 0.078-0.305c-0.040 0.019-0.088 0.037-0.138 0.052l-0.007 0.002c-0.083 0.021-0.151 0.073-0.195 0.142l-0.001 0.001c-0.010 0.018-0.020 0.038-0.028 0.059l-0.001 0.003c0.009-0.024 0.018-0.044 0.029-0.064l-0.001 0.002c0.044-0.070 0.113-0.121 0.193-0.143l0.002-0.001c0.057-0.017 0.105-0.035 0.151-0.057l-0.006 0.003 0.278-1.091c-0.171-0.216-0.409-0.373-0.683-0.439l-0.009-0.002c-0.573-0.146-1.129 0.091-1.241 0.53-0.053 0.207 0.003 0.421 0.136 0.606 0.052 0.071 0.111 0.133 0.175 0.187l0.002 0.001 0.003 0.009c0.031 0.050 0.050 0.111 0.050 0.176 0 0.085-0.032 0.162-0.084 0.221l0-0-3.505-0.892-0.791 3.107c0.183-0.149 0.418-0.239 0.675-0.239 0.090 0 0.178 0.011 0.261 0.032l-0.007-0.002c0.591 0.15 0.938 0.788 0.776 1.423s-0.77 1.029-1.361 0.88c-0.328-0.088-0.588-0.32-0.715-0.621l-0.003-0.007-0.812 3.188 3.104 0.79c-0.143-0.18-0.23-0.411-0.23-0.662 0-0.091 0.011-0.179 0.033-0.263l-0.002 0.007c0.151-0.59 0.787-0.938 1.423-0.776 0.349 0.087 0.633 0.316 0.792 0.62l0.003 0.007c0.073 0.138 0.115 0.302 0.115 0.476 0 0.357-0.179 0.671-0.452 0.859l-0.004 0.002-0.037 0.146 0.709 0.182 1.873-7.356 0.071 0.018c0.007 0.002 0.014 0.003 0.022 0.003 0.042 0 0.077-0.028 0.087-0.067l0-0.001 0.079-0.317 0.047-0.183zM27.619 10.91c-0.006 0.003-0.012 0.006-0.018 0.008v0zM27.353 11.050v0l0.232 0.059z"></path>
<path fill="#000" opacity="0.1" d="M28.137 10.122c0.054-0.211-0.005-0.43-0.145-0.618l-0.278 1.091c0.213-0.097 0.37-0.262 0.423-0.473z"></path>
<path fill="#000" opacity="0.1" d="M28.33 11.136l0.047-0.183 0.158 0.040-0.047 0.183-0.158-0.040z"></path>
<path fill="#3a3768" d="M27.621 10.956l0.047-0.183 0.524 0.133-0.047 0.183-0.524-0.133z"></path>
<path fill="#3a3768" d="M28.145 11.089l0.047-0.183 0.185 0.047-0.047 0.183-0.185-0.047z"></path>
<path fill="#3a3768" d="M27.676 10.748l-0.037 0.018 0.030 0.007-0.047 0.184-0.232-0.059c-0.014-0.032-0.022-0.068-0.022-0.107 0-0.056 0.017-0.108 0.046-0.151l-0.001 0.001c0.044-0.070 0.113-0.121 0.193-0.143l0.002-0.001c0.057-0.016 0.105-0.035 0.151-0.057l-0.006 0.003z"></path>
<path fill="#6c63ff" d="M28.229 11.54l0.071 0.018c0.007 0.002 0.015 0.003 0.023 0.003 0.042 0 0.077-0.029 0.087-0.067l0-0.001 0.081-0.316-0.156-0.039z"></path>
<path fill="#3a3768" d="M28.176 9.97c-0.054 0.211-0.21 0.375-0.423 0.473l0.278-1.091c0.14 0.187 0.199 0.406 0.145 0.618z"></path>
<path fill="#3a3768" d="M28.131 11.515c-0.039-0.010-0.067-0.045-0.067-0.087 0-0.008 0.001-0.016 0.003-0.023l-0 0.001 0.078-0.316-0.521-0.133-1.597 6.274c0.073 0.138 0.115 0.302 0.115 0.476 0 0.356-0.179 0.671-0.452 0.858l-0.004 0.002-0.037 0.146 0.709 0.181 1.872-7.356z"></path>
<path fill="#3a3768" d="M28.066 11.406c-0.002 0.007-0.003 0.014-0.003 0.022 0 0.042 0.028 0.076 0.067 0.087l0.001 0 0.098 0.025 0.103-0.403-0.185-0.047z"></path>
<path fill="#3a3768" d="M27.415 10.64c0.044-0.070 0.113-0.121 0.193-0.143l0.002-0.001c0.057-0.016 0.105-0.035 0.151-0.057l-0.006 0.003 0.278-1.091c-0.171-0.216-0.409-0.373-0.683-0.439l-0.009-0.002c-0.574-0.146-1.129 0.091-1.241 0.53-0.052 0.206 0.003 0.421 0.136 0.605 0.052 0.071 0.111 0.133 0.175 0.188l0.002 0.001 0.003 0.008c0.031 0.050 0.050 0.111 0.050 0.175 0 0.085-0.032 0.162-0.084 0.221l0-0-3.505-0.892-0.792 3.106c0.183-0.149 0.418-0.239 0.675-0.239 0.091 0 0.179 0.011 0.263 0.032l-0.007-0.002c0.59 0.15 0.938 0.787 0.776 1.423s-0.77 1.028-1.363 0.878c-0.327-0.089-0.587-0.32-0.714-0.621l-0.003-0.007-0.811 3.188 3.104 0.79c-0.143-0.18-0.229-0.411-0.229-0.662 0-0.091 0.011-0.179 0.033-0.263l-0.002 0.007c0.15-0.591 0.787-0.938 1.423-0.776 0.35 0.087 0.634 0.317 0.793 0.622l0.003 0.007 1.597-6.274-0.232-0.059c-0.014-0.032-0.022-0.069-0.022-0.108 0-0.056 0.017-0.109 0.046-0.152l-0.001 0.001z"></path>
<path fill="#6c63ff" d="M27.67 10.774l0.006-0.025c-0.012 0.006-0.024 0.012-0.036 0.018z"></path>
<path fill="#6c63ff" d="M27.12 22.488c0.117 0.179 0.255 0.96 0.255 0.96s0.092 0.179 0.087 0.331 0.087 0.43 0.087 0.43l0.304 1.122s-0.033 0.298 0.081 0.508 0.103 0.146 0.049 0.515 0.065 0.71 0.26 0.821-0.087 0.363-0.087 0.363 1.247 0.336 1.507 0.13-0.136-1.225-0.136-1.225 0.065-0.856 0.022-0.981-0.228-1.187-0.228-1.187-0.114-0.483-0.070-0.564-0.027-0.313-0.027-0.313-0.184-0.26-0.168-0.342-0.054-0.227-0.054-0.227 0.552-0.848 0.503-1.007 0.021-0.412 0.021-0.412l0.154-0.263c0.103-0.176 0.227-0.387 0.269-0.452 0.053-0.084 0.181-0.439 0.253-0.645l0.051-0.147s0.087 1.594 0.163 1.757 0.19 1.446 0.19 1.446c0.035 0.092 0.056 0.199 0.056 0.311 0 0.016-0 0.033-0.001 0.049l0-0.002c-0.011 0.201 0.174 1.073 0.174 1.073s0.081 0.618 0.027 0.782-0.011 1.361-0.011 1.361-0.298 0.235-0.374 0.412 0.011 0.664 0.011 0.664 0.867 0.434 1.251 0.32 0.227-0.77 0.227-0.77 0.26-0.433 0.26-0.602 0.095-0.681 0.095-0.681c0.331-0.607 0.201-2.081 0.255-2.201s-0.114-0.564-0.249-0.765-0.081-0.743 0-0.899-0.084-0.7-0.084-0.7 0.156-1.052 0.152-1.214 0.136-0.645 0.136-0.645 0.141-0.249 0.108-0.326 0.108-0.271 0.070-0.358 0.033-0.352 0.103-0.508c0.036-0.081 0.081-0.303 0.117-0.499 0.033-0.187 0.058-0.352 0.058-0.352l-0.895-0.721-2.233-0.586-0.84-0.271-0.819 1.29c-0.049 0.078-0.102 0.173-0.151 0.271l-0.009 0.019c-0.064 0.134-0.122 0.283-0.112 0.376 0.002 0.018 0.003 0.039 0.003 0.060 0 0.102-0.030 0.198-0.081 0.278l0.001-0.002s-0.488 1.545-0.477 1.99-0.174 1.42-0.174 1.42-0.201 0.629-0.080 0.808z"></path>
<path fill="#ceddf9" d="M30.422 9.922c0.034-0.014 2.393-0.988 2.068-1.182-0.193-0.115-0.43-0.602-0.593-0.983-0.113-0.266-0.19-0.481-0.19-0.481s-1.893-0.336-1.215 0.824c0.1 0.164 0.182 0.355 0.235 0.556l0.003 0.015c0.193 0.79-0.293 1.236-0.308 1.25z"></path>
<path fill="#fec2be" d="M30.491 8.1c0.1 0.164 0.182 0.355 0.235 0.556l0.003 0.015c0.5-0.036 0.92-0.345 1.114-0.777l0.003-0.008c0.016-0.034 0.032-0.077 0.047-0.12l0.003-0.009c-0.113-0.266-0.19-0.481-0.19-0.481s-1.893-0.336-1.215 0.824z"></path>
<path fill="#000" opacity="0.1" d="M29.315 7.309c0 0.73 0.592 1.322 1.322 1.322s1.322-0.592 1.322-1.322-0.592-1.322-1.322-1.322c-0.6 0-1.107 0.4-1.268 0.947l-0.002 0.009c-0.033 0.11-0.052 0.236-0.052 0.366 0 0 0 0 0 0v-0z"></path>
<path fill="#fec2be" d="M28.039 17.558c0.138 0.126 0.192 0.365 0.192 0.365s0.651 0.444 0.607 0.163 0.336-1.42 0.336-1.42l-0.043 1.551s2.081-0.098 2.233-0.249 1.041-0.442 1.041-0.442 0.274 0.218 0.522 0.384c0.033-0.187 0.058-0.352 0.058-0.352l-0.895-0.721-2.233-0.586-0.84-0.271-0.819 1.29c-0.049 0.078-0.102 0.173-0.151 0.27l-0.009 0.019z"></path>
<path fill="#000" opacity="0.1" d="M27.971 17.436c0.174 0.108 0.238 0.401 0.238 0.401s0.65 0.444 0.607 0.163 0.336-1.42 0.336-1.42l-0.043 1.551s2.082-0.097 2.233-0.249 1.041-0.444 1.041-0.444 0.77 0.618 0.911 0.564-0.249-1.106-0.249-1.106l-0.401-6.158s0.108-1.832-0.054-1.898c-0.026-0.011-0.049-0.025-0.069-0.043l0 0c-0.107-0.096-0.139-0.292-0.149-0.456-0.011-0.195-0.271-0.098-0.271-0.098l0.152 0.195-1.355 0.824c-0.043-0.024-0.097-0.048-0.151-0.070l-0.010-0.003c-0.117-0.046-0.277-0.089-0.381-0.046-0.059 0.030-0.107 0.074-0.141 0.127l-0.001 0.001c-0.072 0.107-0.134 0.229-0.179 0.359l-0.003 0.011-0.487 0.824s-0.249 1.094-0.249 1.139-0.076 1.041-0.163 1.149-0.174 0.65-0.141 0.813-0.054 0.77-0.054 0.77c-0.358 0.293-0.542 1.29-0.542 1.29s-0.565 1.118-0.61 1.247 0.012 0.457 0.186 0.564z"></path>
<path fill="#fff" d="M30.909 9.297c0.132 0.195 0.512 0.469 0.512 0.469l1.099-0.928c-0.107-0.096-0.139-0.292-0.149-0.456-0.011-0.195-0.271-0.097-0.271-0.097l0.032 0.039c0.023 0.029 0.037 0.067 0.037 0.107 0 0.063-0.033 0.118-0.083 0.149l-0.001 0z"></path>
<path fill="#000" opacity="0.1" d="M30.909 9.254c0.132 0.195 0.512 0.469 0.512 0.469l1.099-0.928c-0.107-0.096-0.139-0.292-0.149-0.456-0.011-0.195-0.271-0.098-0.271-0.098l0.032 0.039c0.023 0.029 0.037 0.067 0.037 0.107 0 0.063-0.033 0.118-0.083 0.149l-0.001 0z"></path>
<path fill="#fff" d="M30.401 9.4c0.142 0.17 0.343 0.362 0.334 0.266s0.12-0.31 0.202-0.405c-0.054-0.018-0.117-0.028-0.181-0.028-0.076 0-0.15 0.014-0.217 0.040l0.004-0.001c-0.059 0.030-0.107 0.074-0.141 0.127l-0.001 0.001z"></path>
<path fill="#000" opacity="0.1" d="M30.38 9.334c0.142 0.17 0.343 0.362 0.333 0.266s0.107-0.253 0.189-0.348c-0.117-0.046-0.277-0.089-0.381-0.046-0.059 0.030-0.107 0.073-0.141 0.126l-0.001 0.001z"></path>
<path fill="#fff" d="M30.822 10.15c0 0.048-0.039 0.087-0.087 0.087s-0.087-0.039-0.087-0.087c0-0.048 0.039-0.087 0.087-0.087s0.087 0.039 0.087 0.087z"></path>
<path fill="#ff718d" d="M30.164 12.492c0 0.048-0.039 0.087-0.087 0.087s-0.087-0.039-0.087-0.087c0-0.048 0.039-0.087 0.087-0.087s0.087 0.039 0.087 0.087z"></path>
<path fill="#ff718d" d="M29.42 14.863c0 0.048-0.039 0.087-0.087 0.087s-0.087-0.039-0.087-0.087c0-0.048 0.039-0.087 0.087-0.087s0.087 0.039 0.087 0.087z"></path>
<path fill="#ff718d" d="M29.398 17.443c0 0.048-0.039 0.087-0.087 0.087s-0.087-0.039-0.087-0.087c0-0.048 0.039-0.087 0.087-0.087s0.087 0.039 0.087 0.087z"></path>
<path fill="#ff718d" d="M30.439 11.256c0 0.048-0.039 0.087-0.087 0.087s-0.087-0.039-0.087-0.087c0-0.048 0.039-0.087 0.087-0.087s0.087 0.039 0.087 0.087z"></path>
<path fill="#ff718d" d="M29.853 13.663c0 0.048-0.039 0.087-0.087 0.087s-0.087-0.039-0.087-0.087c0-0.048 0.039-0.087 0.087-0.087s0.087 0.039 0.087 0.087z"></path>
<path fill="#ff718d" d="M29.282 16.026c0 0.048-0.039 0.087-0.087 0.087s-0.087-0.039-0.087-0.087c0-0.048 0.039-0.087 0.087-0.087s0.087 0.039 0.087 0.087z"></path>
<path fill="#ff718d" d="M29.412 17.732c0 0.048-0.039 0.087-0.087 0.087s-0.087-0.039-0.087-0.087c0-0.048 0.039-0.087 0.087-0.087s0.087 0.039 0.087 0.087z"></path>
<path fill="#ff718d" d="M32.521 8.847s-0.014-0.13 0.173 0.094 0.542 0.419 0.542 0.419 0.802 0.564 0.846 0.824 0.303 1.388 0.166 1.764-1.186 2.176-1.186 2.176 0.274 0.326 0.21 0.709-0.145 0.911-0.109 1.026-0.043 0.405 0.078 0.506 0.253 0.274-0.13 0.506c0 0-0.072 0.195-0.007 0.239s-0.961 0.491-1.368 0.253-1.134-2.147-1.149-2.573 0.224-1.837 0.354-2.169 0.521-1.626 0.687-1.915 0.894-1.858 0.894-1.858z"></path>
<path fill="#000" opacity="0.1" d="M32.564 8.847s-0.014-0.13 0.174 0.094 0.542 0.419 0.542 0.419 0.802 0.564 0.846 0.824 0.303 1.388 0.166 1.764-1.186 2.176-1.186 2.176 0.274 0.326 0.21 0.709-0.145 0.911-0.109 1.026-0.043 0.405 0.078 0.506 0.253 0.274-0.13 0.506c0 0-0.072 0.195-0.007 0.239s-0.961 0.491-1.368 0.253-1.134-2.147-1.149-2.573 0.224-1.837 0.354-2.169 0.521-1.626 0.687-1.915 0.892-1.858 0.892-1.858z"></path>
<path fill="#4c4981" d="M32.853 10.078s-0.621 0.687-0.6 1.142c0 0-0.007-0.738 0.6-1.142z"></path>
<path fill="#000" opacity="0.1" d="M31.993 11.205c0 0.021-0.419 1.583-0.398 1.778s-0.123 0.773-0.123 0.773l-0.195-0.050s0.152-0.802 0.181-1.099 0.535-1.402 0.535-1.402z"></path>
<path fill="#000" opacity="0.1" d="M31.826 15.658c0.014 0.021 0.99 1.127 0.716 1.207s-0.716-1.207-0.716-1.207z"></path>
<path fill="#000" opacity="0.1" d="M32.629 15.375c0.022 0.014 0.391 0.795 0.433 0.586s-0.318 0.571-0.376-0.007z"></path>
<path fill="#000" opacity="0.1" d="M30.755 9.094s-0.403-0.246-0.909 0.383c0 0-0.369 0.21-0.477 0.26s-0.231 1.395-0.231 1.395-0.238 0.578-0.174 0.911-0.188 1.474-0.188 1.474-0.42 2.052-0.406 2.111 0.426-0.643 0.419-0.99 0.347-1.431 0.398-1.496 0.398-1.922 0.398-1.922 0.282-0.788 0.462-1.048 0.405-0.752 0.499-0.838c0.065-0.056 0.138-0.105 0.218-0.142l0.006-0.002z"></path>
<path fill="#000" opacity="0.1" d="M30.761 9.094s-0.452-0.246-0.958 0.383c0 0-0.369 0.21-0.477 0.26s-0.231 1.395-0.231 1.395-0.238 0.578-0.174 0.911-0.188 1.474-0.188 1.474-0.419 2.053-0.405 2.111 0.426-0.643 0.419-0.99 0.347-1.431 0.398-1.496 0.399-1.922 0.399-1.922 0.282-0.788 0.462-1.048 0.405-0.752 0.499-0.838 0.267-0.145 0.267-0.145z"></path>
<path fill="#4c4981" d="M28.776 13.612s-0.86-0.564-1.276-0.285-1.094 0.672-0.426 0.958 1.594 0.231 1.594 0.231z"></path>
<path fill="#fec2be" d="M29.375 19.051c0.128 0.274 0.235 1.657 0.306 2.095 0.103-0.176 0.227-0.387 0.269-0.452 0.053-0.084 0.181-0.439 0.253-0.645-0.082-0.199-0.307-0.768-0.307-0.977 0-0.255-0.412-0.575-0.412-0.575s-0.26 0.229-0.108 0.554z"></path>
<path fill="#000" opacity="0.1" d="M32.139 23.296s-0.954-0.407-1.236-0.117 1.236 0.117 1.236 0.117z"></path>
<path fill="#000" opacity="0.1" d="M31.602 23.458s0.965 0.542 0.634 0.633-0.634-0.633-0.634-0.633z"></path>
<path fill="#000" opacity="0.1" d="M28.719 22.987s0.412 0.027 0.255 0.108-0.255-0.108-0.255-0.108z"></path>
<path fill="#000" opacity="0.1" d="M28.203 23.112c0.005 0.027 1.198 0.412 0.965 0.586s-0.965-0.586-0.965-0.586z"></path>
<path fill="#000" opacity="0.1" d="M31.998 26.429c-0.179-0.027-1.176-0.488-0.786-0.156s0.786 0.156 0.786 0.156z"></path>
<path fill="#000" opacity="0.1" d="M31.505 26.792s-0.087 0.336-0.417 0.293 0.417-0.293 0.417-0.293z"></path>
<path fill="#000" opacity="0.1" d="M31.782 27.475c-0.060-0.016-0.77-0.341-0.786-0.19s0.677 0.417 0.732 0.336c0.030-0.041 0.050-0.091 0.054-0.145l0-0.001z"></path>
<path fill="#000" opacity="0.1" d="M29.483 27.085c-0.087-0.005-0.899-0.266-1.062-0.033z"></path>
<path fill="#000" opacity="0.1" d="M28.746 27.237s-0.141-0.125-0.282-0.060 0.282 0.060 0.282 0.060z"></path>
<path fill="#000" opacity="0.1" d="M30.546 28.581c-0.019 0.094-0.091 0.168-0.183 0.189l-0.002 0z"></path>
<path fill="#000" opacity="0.1" d="M26.409 29.091c0.054 0.222 0.813 0.244 1.177 0.184s1.117-0.277 1.117-0.277 0.792-0.076 1.024-0.173 0.049-0.347 0.049-0.347 0-0.009 0-0.023c0.005-0.091 0.022-0.419-0.034-0.508-0.065-0.103-0.027-0.439-0.027-0.439s-1.122 0.217-1.144 0.114-0.195-0.249-0.276-0.282-0.141 0.271-0.141 0.271-0.508 0.434-0.542 0.591-0.391 0.238-0.391 0.238-0.542 0.152-0.683 0.227c-0.082 0.039-0.14 0.117-0.149 0.21l-0 0.001c-0.001 0.014-0.002 0.031-0.002 0.048 0 0.059 0.009 0.115 0.025 0.168l-0.001-0.004z"></path>
<path fill="#ca8496" d="M26.409 29.091c0.054 0.222 0.813 0.244 1.177 0.184s1.117-0.277 1.117-0.277 0.792-0.076 1.024-0.173 0.049-0.347 0.049-0.347 0-0.009 0-0.023l-1.134 0.251s-0.559 0.238-0.916 0.238c-0.313 0-1.012 0.128-1.337-0.066-0.001 0.016-0.002 0.034-0.002 0.052 0 0.057 0.008 0.112 0.023 0.164l-0.001-0.004z"></path>
<path fill="#000" opacity="0.1" d="M27.943 28.234s0.054 0.358 0.271 0.477z"></path>
<path fill="#000" opacity="0.1" d="M29.366 6.943c0.018 0.010 0.040 0.019 0.062 0.026l0.003 0.001c0.102 0.027 0.201-0.041 0.291-0.096s0.215-0.095 0.293-0.024c0.102 0.093 0.028 0.29 0.133 0.38 0.066 0.057 0.172 0.037 0.246 0.084s0.096 0.149 0.115 0.236 0.056 0.188 0.142 0.214 0.166-0.031 0.251-0.028c0.018 0 0.039 0.003 0.050-0.010 0.006-0.008 0.009-0.019 0.009-0.030 0-0.003-0-0.007-0.001-0.010l0 0c-0.003-0.025-0.004-0.054-0.004-0.084 0-0.082 0.012-0.16 0.033-0.235l-0.001 0.006c0.035-0.1 0.117-0.19 0.22-0.206 0.152-0.023 0.28 0.11 0.369 0.235 0.085 0.117 0.17 0.252 0.246 0.393l0.010 0.020c0.004 0.008 0.009 0.017 0.012 0.027l0.001 0.002c0.072-0.158 0.113-0.342 0.113-0.535 0-0.731-0.592-1.323-1.323-1.323-0.601 0-1.108 0.401-1.269 0.95l-0.002 0.009z"></path>
<path fill="#000" opacity="0.1" d="M31.578 7.38c-0.090-0.126-0.217-0.259-0.37-0.235-0.104 0.016-0.185 0.106-0.22 0.206-0.020 0.068-0.032 0.146-0.032 0.227 0 0.030 0.002 0.060 0.005 0.089l-0-0.004c0 0.003 0.001 0.006 0.001 0.009 0 0.011-0.003 0.022-0.009 0.031l0-0c-0.012 0.013-0.032 0.011-0.050 0.010-0.085-0.003-0.169 0.052-0.251 0.028s-0.124-0.126-0.142-0.214-0.039-0.188-0.115-0.236-0.179-0.027-0.246-0.084c-0.105-0.089-0.031-0.287-0.133-0.38-0.078-0.071-0.203-0.030-0.293 0.025s-0.19 0.123-0.292 0.096c-0.034-0.009-0.065-0.029-0.099-0.042-0.161-0.061-0.369 0.043-0.501-0.068-0.047-0.047-0.081-0.105-0.099-0.17l-0.001-0.003c-0.034-0.080-0.060-0.173-0.072-0.271l-0.001-0.006c-0.002-0.013-0.003-0.029-0.003-0.045 0-0.085 0.029-0.163 0.077-0.226l-0.001 0.001c0.086-0.101 0.231-0.127 0.341-0.201 0.093-0.064 0.156-0.161 0.218-0.257s0.122-0.195 0.212-0.263 0.217-0.101 0.318-0.050c0.030 0.021 0.065 0.038 0.102 0.049l0.003 0.001c0.001 0 0.002 0 0.003 0 0.042 0 0.081-0.012 0.113-0.032l-0.001 0.001c0.376-0.177 0.814-0.146 1.226-0.093 0.165 0.021 0.332 0.046 0.483 0.117s0.283 0.195 0.326 0.356c0.034 0.127 0.008 0.266 0.048 0.391 0.027 0.085 0.084 0.156 0.117 0.242 0.088 0.229-0.017 0.48-0.062 0.72-0.048 0.263-0.024 0.547-0.136 0.797-0.022 0.049-0.047 0.134-0.102 0.102-0.039-0.024-0.081-0.163-0.104-0.206-0.087-0.16-0.172-0.294-0.266-0.423l0.008 0.011z"></path>
<path fill="#9a5e7f" d="M33.961 11.617l0.195 0.557s-0.463 1.72-0.68 2.081-0.535 0.824-0.535 0.824-0.535 0.268-1.157 0.145-2.437-0.448-2.437-0.448-0.152 0.029-0.231-0.087-0.492-0.174-0.492-0.174-0.477-0.694 0.109-0.983c0 0 0.072 0.159 0.383 0.051s0.405 0.086 0.405 0.086 0.508 0.101 0.788 0.065 0.983-0.051 1.055-0.109c0.016-0.014 0.038-0.023 0.061-0.023 0.027 0 0.052 0.012 0.069 0.030l0 0s0.173-0.065 0.231-0.13 0.138 0.072 0.138 0.072 0.101-0.058 0.072-0.13 0.094-0.347 0.094-0.347 0.058-0.181 0.022-0.326 0.181-0.664 0.181-0.664c0-0.009 0-0.019 0-0.030 0-0.082-0.011-0.161-0.031-0.237l0.001 0.006c-0.036-0.13 0.274-0.391 0.274-0.391s0.303-1.475 0.947-0.99 0.538 1.151 0.538 1.151z"></path>
<path fill="#000" opacity="0.1" d="M34.002 11.617l0.195 0.557s-0.463 1.72-0.68 2.081-0.534 0.824-0.534 0.824-0.535 0.268-1.157 0.145-2.436-0.448-2.436-0.448-0.152 0.029-0.231-0.087-0.492-0.174-0.492-0.174-0.477-0.694 0.109-0.983c0 0 0.072 0.159 0.383 0.051s0.405 0.086 0.405 0.086 0.508 0.101 0.788 0.065 0.983-0.051 1.055-0.109c0.016-0.014 0.038-0.023 0.061-0.023 0.027 0 0.052 0.012 0.069 0.030l0 0s0.173-0.065 0.231-0.13 0.138 0.072 0.138 0.072 0.101-0.058 0.072-0.13 0.094-0.347 0.094-0.347 0.058-0.181 0.022-0.326 0.181-0.664 0.181-0.664c0-0.009 0-0.019 0-0.030 0-0.082-0.011-0.161-0.031-0.237l0.001 0.006c-0.036-0.13 0.274-0.391 0.274-0.391s0.303-1.475 0.947-0.99 0.536 1.151 0.536 1.151z"></path>
<path fill="#4c4981" d="M29.304 13.944c0.007 0.051 0.166 0.253 0.108 0.289s-0.152 0.014-0.065 0.13 0.078 0.289 0.021 0.267-0.152-0.282-0.152-0.383 0.087-0.304 0.087-0.304z"></path>
<path fill="#000" opacity="0.1" d="M31.451 13.829s0.043 0.506 0.399 0.651-0.399-0.651-0.399-0.651z"></path>
<path fill="#000" opacity="0.1" d="M32.188 13.655c0.022 0.007 0.506 0.268 0.289 0.419s-0.289-0.419-0.289-0.419z"></path>
<path fill="#000" opacity="0.1" d="M32.217 13.294s0.708 0.145 0.469 0.267-0.469-0.267-0.469-0.267z"></path>
<path fill="#000" opacity="0.1" d="M30.99 7.228c0.035-0.1 0.117-0.19 0.22-0.206 0.152-0.023 0.28 0.11 0.37 0.235 0.085 0.117 0.17 0.252 0.246 0.393l0.010 0.020c0.023 0.043 0.063 0.182 0.104 0.206 0.055 0.032 0.078-0.053 0.102-0.102 0.112-0.249 0.088-0.534 0.136-0.797 0.029-0.154 0.081-0.313 0.093-0.465 0.017 0.189-0.057 0.388-0.093 0.58-0.048 0.263-0.024 0.547-0.136 0.797-0.022 0.049-0.047 0.134-0.102 0.102-0.039-0.024-0.081-0.162-0.104-0.206-0.087-0.16-0.171-0.295-0.264-0.424l0.008 0.011c-0.090-0.125-0.217-0.259-0.37-0.235-0.104 0.016-0.185 0.106-0.22 0.206-0.017 0.048-0.027 0.104-0.029 0.162l-0 0.001c-0.002-0.019-0.003-0.040-0.003-0.062 0-0.077 0.012-0.151 0.033-0.221l-0.001 0.005z"></path>
<path fill="#000" opacity="0.1" d="M28.73 6.541c0.019 0.068 0.053 0.127 0.1 0.174v0c0.132 0.11 0.34 0.006 0.501 0.068 0.034 0.013 0.064 0.032 0.099 0.042 0.102 0.027 0.202-0.041 0.292-0.096s0.215-0.095 0.293-0.024c0.102 0.093 0.028 0.29 0.133 0.38 0.066 0.057 0.172 0.039 0.246 0.084s0.096 0.148 0.115 0.235 0.056 0.188 0.142 0.214 0.166-0.030 0.251-0.027c0.018 0 0.039 0.003 0.050-0.010 0.002-0.003 0.004-0.007 0.006-0.011l0-0c0 0.029 0 0.058 0.003 0.087 0 0.003 0.001 0.005 0.001 0.008 0 0.011-0.003 0.022-0.009 0.031l0-0c-0.012 0.013-0.032 0.011-0.050 0.010-0.085-0.003-0.169 0.052-0.251 0.028s-0.124-0.126-0.142-0.214-0.039-0.188-0.115-0.235-0.179-0.027-0.246-0.084c-0.105-0.090-0.031-0.288-0.133-0.38-0.078-0.071-0.203-0.030-0.293 0.024s-0.19 0.123-0.292 0.096c-0.034-0.009-0.065-0.029-0.099-0.042-0.161-0.061-0.369 0.043-0.501-0.068-0.047-0.047-0.081-0.105-0.099-0.171l-0.001-0.003c-0.034-0.080-0.059-0.173-0.072-0.27l-0.001-0.006c-0.001-0.011-0.002-0.024-0.002-0.038 0-0.021 0.001-0.041 0.004-0.062l-0 0.002c0.015 0.097 0.040 0.183 0.074 0.265l-0.003-0.008z"></path>
<path fill="#000" opacity="0.1" d="M3.9 28.4s-1.653-0.1-1.458 1.058c0 0-0.039 0.205 0.147 0.298 0 0 0.003-0.086 0.17-0.057 0.039 0.007 0.083 0.011 0.128 0.011 0.018 0 0.036-0.001 0.053-0.002l-0.002 0c0.085-0.006 0.16-0.039 0.22-0.091l-0 0s0.465-0.192 0.645-0.951c0 0 0.134-0.165 0.128-0.208l-0.279 0.117s0.095 0.201 0.020 0.369c0 0-0.009-0.361-0.063-0.352-0.011 0-0.145 0.070-0.145 0.070s0.164 0.352 0.039 0.605c0 0 0.047-0.432-0.091-0.58l-0.195 0.115s0.192 0.362 0.062 0.657c0 0 0.033-0.453-0.103-0.629l-0.178 0.139s0.18 0.356 0.070 0.602c0 0-0.014-0.527-0.109-0.567 0 0-0.156 0.137-0.179 0.195 0 0 0.123 0.259 0.046 0.396 0 0-0.047-0.352-0.085-0.352 0 0-0.156 0.233-0.171 0.391 0 0 0.007-0.237 0.134-0.415-0.093 0.018-0.174 0.062-0.237 0.123l0-0s0.024-0.165 0.276-0.179c0 0 0.128-0.177 0.162-0.187 0 0-0.25-0.021-0.402 0.046 0 0 0.134-0.156 0.448-0.084l0.175-0.143s-0.329-0.045-0.469 0.005c0 0 0.161-0.137 0.516-0.037l0.191-0.115s-0.281-0.061-0.448-0.039c0 0 0.176-0.095 0.504 0.008l0.136-0.061s-0.206-0.039-0.266-0.047-0.064-0.023-0.064-0.023c0.035-0.006 0.076-0.010 0.117-0.010 0.097 0 0.19 0.019 0.274 0.054l-0.005-0.002s0.29-0.109 0.286-0.127z"></path>
<path fill="#6c63ff" d="M3.931 29.857c0 0.109-0.524 0.198-1.17 0.198s-1.169-0.089-1.169-0.198c0-0.109 0.524-0.198 1.169-0.198s1.17 0.089 1.17 0.198z"></path>
<path fill="#6c63ff" opacity="0.1" d="M7.069 25.349s-0.932-0.056-0.821 0.597c-0.001 0.008-0.002 0.017-0.002 0.027 0 0.061 0.034 0.114 0.084 0.141l0.001 0s0-0.048 0.096-0.032c0.022 0.004 0.048 0.006 0.073 0.006 0.010 0 0.019-0 0.029-0.001l-0.001 0c0.048-0.004 0.090-0.022 0.124-0.051l-0 0s0.261-0.107 0.364-0.537c0 0 0.075-0.093 0.072-0.117l-0.156 0.067s0.054 0.114 0.011 0.208c0 0-0.005-0.204-0.035-0.199-0.006 0-0.082 0.039-0.082 0.039s0.092 0.195 0.023 0.341c0 0 0.026-0.244-0.052-0.327l-0.111 0.066s0.108 0.204 0.035 0.371c0 0 0.019-0.256-0.058-0.355l-0.1 0.078s0.101 0.201 0.039 0.339c0 0-0.008-0.297-0.061-0.32-0.038 0.032-0.071 0.068-0.1 0.107l-0.001 0.002s0.070 0.146 0.027 0.223c0 0-0.027-0.198-0.048-0.199 0 0-0.088 0.131-0.097 0.221 0.004-0.088 0.032-0.168 0.076-0.236l-0.001 0.002c-0.052 0.010-0.098 0.035-0.134 0.070l0-0s0.014-0.093 0.156-0.101c0 0 0.072-0.1 0.091-0.106 0 0-0.141-0.012-0.227 0.026 0 0 0.075-0.088 0.253-0.048l0.099-0.081s-0.186-0.025-0.264 0.003c0 0 0.091-0.078 0.291-0.021l0.107-0.064c-0.063-0.015-0.135-0.023-0.209-0.023-0.015 0-0.031 0-0.046 0.001l0.002-0s0.1-0.054 0.284 0.004l0.078-0.034s-0.117-0.023-0.15-0.027-0.036-0.013-0.036-0.013c0.020-0.003 0.043-0.005 0.066-0.005 0.055 0 0.107 0.011 0.155 0.031l-0.003-0.001s0.162-0.062 0.158-0.072z"></path>
<path fill="#6c63ff" d="M7.088 26.17c0 0.062-0.295 0.111-0.659 0.111s-0.659-0.050-0.659-0.111c0-0.062 0.295-0.111 0.659-0.111s0.659 0.050 0.659 0.111z"></path>
<path fill="#6c63ff" opacity="0.1" d="M1.571 25.915s-1.125-0.068-0.991 0.72c-0.002 0.010-0.003 0.021-0.003 0.032 0 0.073 0.041 0.137 0.102 0.17l0.001 0s0-0.059 0.115-0.039c0.026 0.005 0.055 0.007 0.086 0.007 0.013 0 0.026-0 0.038-0.001l-0.002 0c0.058-0.004 0.109-0.027 0.15-0.062l-0 0s0.316-0.131 0.439-0.647c0 0 0.091-0.113 0.087-0.142l-0.193 0.081s0.065 0.137 0.014 0.251c0 0-0.006-0.245-0.043-0.24-0.007 0-0.099 0.047-0.099 0.047s0.111 0.238 0.027 0.412c0 0 0.032-0.294-0.063-0.395l-0.133 0.078s0.13 0.246 0.042 0.447c0 0 0.023-0.308-0.070-0.43l-0.121 0.095s0.122 0.243 0.048 0.41c0 0-0.010-0.359-0.074-0.386 0 0-0.106 0.093-0.122 0.132 0 0 0.084 0.176 0.032 0.269 0 0-0.032-0.239-0.058-0.24 0 0-0.106 0.159-0.117 0.267 0.006-0.105 0.039-0.202 0.092-0.284l-0.001 0.002c-0.064 0.012-0.119 0.042-0.162 0.084l0-0s0.016-0.112 0.188-0.122c0 0 0.087-0.12 0.11-0.127 0 0-0.17-0.014-0.274 0.031 0 0 0.091-0.106 0.305-0.057l0.12-0.098s-0.224-0.030-0.319 0.004c0 0 0.109-0.094 0.352-0.025l0.13-0.078s-0.191-0.041-0.305-0.027c0 0 0.12-0.065 0.343 0.005l0.093-0.042s-0.14-0.027-0.181-0.032-0.043-0.016-0.043-0.016c0.024-0.004 0.052-0.007 0.081-0.007 0.066 0 0.128 0.013 0.185 0.037l-0.003-0.001s0.2-0.071 0.196-0.084z"></path>
<path fill="#6c63ff" d="M1.592 26.907c0 0.074-0.356 0.134-0.796 0.134s-0.796-0.060-0.796-0.134c0-0.074 0.356-0.134 0.796-0.134s0.796 0.060 0.796 0.134z"></path>
<path fill="#6c63ff" opacity="0.1" d="M24.924 31.802c0 0.109-0.524 0.198-1.169 0.198s-1.169-0.089-1.169-0.198c0-0.109 0.524-0.198 1.169-0.198s1.169 0.089 1.169 0.198z"></path>
<path fill="#6c63ff" opacity="0.1" d="M22.969 30.884s0.667-0.021 0.868-0.164 1.026-0.313 1.076-0.084 1.003 1.142 0.249 1.148-1.75-0.117-1.951-0.24-0.243-0.66-0.243-0.66z"></path>
<path fill="#a8a8a8" d="M25.176 31.703c-0.753 0.006-1.75-0.117-1.95-0.239-0.153-0.093-0.214-0.427-0.235-0.581h-0.022s0.042 0.538 0.243 0.66 1.198 0.245 1.951 0.24c0.217 0 0.292-0.078 0.288-0.195-0.030 0.072-0.113 0.115-0.275 0.116z"></path>
</svg>
