<!-- Generated by IcoMoon.io -->
<svg version="1.1" xmlns="http://www.w3.org/2000/svg" width="28" height="32" viewBox="0 0 28 32">
<title>maintenance</title>
<path fill="#b0bec5" d="M13.983 11.744h0.397v0.265h-0.397v-0.265z"></path>
<path fill="#b0bec5" d="M14.513 11.744h0.397v0.265h-0.397v-0.265z"></path>
<path fill="#b0bec5" d="M15.043 11.744h0.397v0.265h-0.397v-0.265z"></path>
<path fill="#b0bec5" d="M15.572 11.744h0.397v0.265h-0.397v-0.265z"></path>
<path fill="#b0bec5" d="M16.102 11.744h0.397v0.265h-0.397v-0.265z"></path>
<path fill="#b0bec5" d="M16.632 11.744h0.397v0.265h-0.397v-0.265z"></path>
<path fill="#b0bec5" d="M17.161 11.744h0.397v0.265h-0.397v-0.265z"></path>
<path fill="#b0bec5" d="M17.691 11.744h0.397v0.265h-0.397v-0.265z"></path>
<path fill="#b0bec5" d="M18.22 11.744h0.397v0.265h-0.397v-0.265z"></path>
<path fill="#b0bec5" d="M18.75 11.744h0.397v0.265h-0.397v-0.265z"></path>
<path fill="#d72a5a" d="M10.755 11.928h17.089v19.073h-17.089v-19.073z"></path>
<path fill="#eceff1" d="M11.037 24.663h16.524v5.924h-16.524v-5.924z"></path>
<path fill="#64ffda" d="M12.393 26.068h0.64v3.035h-0.64v-3.035z"></path>
<path fill="#64ffda" opacity="0.7" d="M13.658 26.068h0.64v3.035h-0.64v-3.035z"></path>
<path fill="#64ffda" opacity="0.6" d="M14.922 26.068h0.64v3.035h-0.64v-3.035z"></path>
<path fill="#64ffda" opacity="0.5" d="M16.186 26.068h0.64v3.035h-0.64v-3.035z"></path>
<path fill="#64ffda" opacity="0.5" d="M17.45 26.068h0.64v3.035h-0.64v-3.035z"></path>
<path fill="#64ffda" opacity="0.4" d="M18.714 26.068h0.64v3.035h-0.64v-3.035z"></path>
<path fill="#64ffda" opacity="0.3" d="M19.978 26.068h0.64v3.035h-0.64v-3.035z"></path>
<path fill="#6c63ff" d="M26.767 27.566c0 0.853-0.692 1.545-1.545 1.545s-1.545-0.692-1.545-1.545c0-0.853 0.692-1.545 1.545-1.545s1.545 0.692 1.545 1.545z"></path>
<path fill="#eceff1" d="M11.037 18.509h16.524v5.924h-16.524v-5.924z"></path>
<path fill="#64ffda" d="M12.393 19.914h0.64v3.035h-0.64v-3.035z"></path>
<path fill="#64ffda" opacity="0.7" d="M13.658 19.914h0.64v3.035h-0.64v-3.035z"></path>
<path fill="#64ffda" opacity="0.6" d="M14.922 19.914h0.64v3.035h-0.64v-3.035z"></path>
<path fill="#64ffda" opacity="0.5" d="M16.186 19.914h0.64v3.035h-0.64v-3.035z"></path>
<path fill="#64ffda" opacity="0.5" d="M17.45 19.914h0.64v3.035h-0.64v-3.035z"></path>
<path fill="#64ffda" opacity="0.4" d="M18.714 19.914h0.64v3.035h-0.64v-3.035z"></path>
<path fill="#64ffda" opacity="0.3" d="M19.978 19.914h0.64v3.035h-0.64v-3.035z"></path>
<path fill="#6c63ff" d="M26.767 21.412c0 0.853-0.692 1.545-1.545 1.545s-1.545-0.692-1.545-1.545c0-0.853 0.692-1.545 1.545-1.545s1.545 0.692 1.545 1.545z"></path>
<path fill="#eceff1" d="M11.037 12.355h16.524v5.924h-16.524v-5.924z"></path>
<path fill="#64ffda" d="M12.393 13.76h0.64v3.035h-0.64v-3.035z"></path>
<path fill="#64ffda" opacity="0.7" d="M13.658 13.76h0.64v3.035h-0.64v-3.035z"></path>
<path fill="#64ffda" opacity="0.6" d="M14.922 13.76h0.64v3.035h-0.64v-3.035z"></path>
<path fill="#64ffda" opacity="0.5" d="M16.186 13.76h0.64v3.035h-0.64v-3.035z"></path>
<path fill="#64ffda" opacity="0.5" d="M17.45 13.76h0.64v3.035h-0.64v-3.035z"></path>
<path fill="#64ffda" opacity="0.4" d="M18.714 13.76h0.64v3.035h-0.64v-3.035z"></path>
<path fill="#64ffda" opacity="0.3" d="M19.978 13.76h0.64v3.035h-0.64v-3.035z"></path>
<path fill="#7e9554" d="M26.887 15.258c0 0.92-0.746 1.666-1.666 1.666s-1.666-0.746-1.666-1.666c0-0.92 0.746-1.666 1.666-1.666s1.666 0.746 1.666 1.666z"></path>
<path fill="#1f7115" d="M26.887 21.453c0 0.92-0.746 1.666-1.666 1.666s-1.666-0.746-1.666-1.666c0-0.92 0.746-1.666 1.666-1.666s1.666 0.746 1.666 1.666z"></path>
<path fill="#bab1ef" d="M26.887 27.607c0 0.92-0.746 1.666-1.666 1.666s-1.666-0.746-1.666-1.666c0-0.92 0.746-1.666 1.666-1.666s1.666 0.746 1.666 1.666z"></path>
<path fill="#6c63ff" d="M26.767 15.258c0 0.853-0.692 1.545-1.545 1.545s-1.545-0.692-1.545-1.545c0-0.853 0.692-1.545 1.545-1.545s1.545 0.692 1.545 1.545z"></path>
<path fill="#311d0c" d="M19.81 12.627h-6.103c-0.116 0-0.21-0.094-0.21-0.21v0-0.333c0-0.116 0.094-0.21 0.21-0.21v0h6.103z"></path>
<path fill="#b0bec5" d="M19.81 12.539h-5.993c-0.116 0-0.21-0.094-0.21-0.21v0-0.2c0-0.116 0.094-0.21 0.21-0.21v0h5.993z"></path>
<path fill="#f10401" d="M4.258 8.536l4.408 3.9 5.122-1.082-0.397-1.154-3.969 0.469-3.971-3.485c-0.158-0.139-0.367-0.224-0.595-0.224-0.303 0-0.571 0.149-0.735 0.378l-0.002 0.003c-0.103 0.145-0.165 0.325-0.165 0.521 0 0.268 0.117 0.509 0.303 0.674l0.001 0.001z"></path>
<path fill="#634fc4" d="M13.786 11.354s1.307 0.036 1.789-0.685-2.186-0.469-2.186-0.469z"></path>
<path fill="#9b8271" d="M5.952 3.722c0 1.255-1.017 2.272-2.272 2.272s-2.272-1.017-2.272-2.272c0-1.255 1.017-2.272 2.272-2.272s2.272 1.017 2.272 2.272z"></path>
<path fill="#3586a6" d="M2.742 6.21s-2.918 1.965-2.177 8.039c0.025 0.195 0.040 0.42 0.040 0.649 0 0.548-0.083 1.077-0.237 1.575l0.010-0.038-0.378 1.243s6.42 0.144 6.6 0c0.112-0.089 0.025-2.378-0.288-5.554-0.192-1.945 0.41-4.651-1.659-6.13z"></path>
<path fill="#dd5c4d" d="M6.6 17.607l2.849 6.023 0.325 6.131h-2.019l-0.866-6.347-1.731-3.065-1.731 9.413h-2.019l0.613-6.996-2.019-5.085 6.6-0.072z"></path>
<path fill="#9de476" d="M9.774 29.76l0.613 0.938s2.057 0.794 1.154 1.298h-3.931v-2.236z"></path>
<path fill="#f7fb76" d="M3.391 29.76l0.613 0.938s2.057 0.794 1.154 1.298h-3.931v-2.236z"></path>
<path fill="#5066a8" opacity="0.2" d="M3.715 1.414c-0.001 0-0.003 0-0.005 0-0.41 0-0.794 0.109-1.126 0.3l0.011-0.006c0.267-0.119 0.579-0.189 0.907-0.189 1.255 0 2.272 1.017 2.272 2.272 0 0.845-0.461 1.582-1.145 1.973l-0.011 0.006c0.812-0.358 1.369-1.157 1.369-2.085 0-1.255-1.017-2.272-2.272-2.272v0z"></path>
<path fill="#371e61" d="M6.442 0.004l-0.632 0.966c-0.227 0.347-0.557 0.741-0.966 0.661-0.19-0.037-0.342-0.174-0.493-0.294-0.496-0.394-1.109-0.661-1.742-0.665s-1.281 0.281-1.637 0.804c-0.264 0.386-0.355 0.862-0.407 1.326-0.105 0.929 0 2.025 0.775 2.546 0.060 0.048 0.136 0.078 0.22 0.079h0c0.084-0.005 0.152-0.059 0.215-0.112 0.971-0.813 1.511-2.136 2.68-2.694 0.516-0.246 1.267-0.248 1.683-0.666 0.613-0.615-0.066-1.386 0.305-1.952z"></path>
<path fill="#10f878" opacity="0.2" d="M4.098 1.336c0.152 0.121 0.303 0.257 0.493 0.294 0.032 0.007 0.069 0.010 0.106 0.010 0.045 0 0.089-0.006 0.131-0.016l-0.004 0.001c-0.181-0.042-0.327-0.174-0.474-0.29-0.496-0.394-1.109-0.661-1.742-0.665-0.045 0-0.089 0-0.133 0.004 0.592 0.035 1.161 0.295 1.623 0.662z"></path>
<path fill="#37ff14" opacity="0.2" d="M6.442 0.004l-0.365 0.558c0.035 0.459 0.236 0.966-0.191 1.394-0.417 0.42-1.167 0.42-1.683 0.666-1.17 0.558-1.71 1.881-2.68 2.694-0.032 0.028-0.067 0.053-0.104 0.075l-0.003 0.002c0.039 0.022 0.086 0.035 0.135 0.035 0.003 0 0.007-0 0.010-0h-0c0.084-0.005 0.152-0.059 0.215-0.112 0.971-0.813 1.511-2.136 2.68-2.694 0.516-0.246 1.267-0.248 1.683-0.666 0.612-0.615-0.067-1.386 0.304-1.952z"></path>
<path fill="#18a852" opacity="0.2" d="M6.312 12.125c-0.192-1.945 0.41-4.651-1.659-6.13l-0.438 0.050c1.988 1.49 1.402 4.156 1.592 6.081 0.313 3.175 0.401 5.464 0.288 5.554-0.055 0.042-0.69 0.061-1.546 0.064 1.101 0.003 1.986-0.011 2.051-0.064 0.111-0.090 0.024-2.379-0.289-5.555z"></path>
<path fill="#eb6e69" d="M2.987 9.307l4.408 3.9 5.122-1.082-0.401-1.154-3.967 0.469-3.971-3.485c-0.158-0.139-0.367-0.224-0.595-0.224-0.303 0-0.571 0.149-0.735 0.378l-0.002 0.003c-0.103 0.145-0.164 0.325-0.164 0.519 0 0.269 0.117 0.51 0.304 0.675l0.001 0.001z"></path>
<path fill="#ca1af1" d="M12.515 12.125s1.307 0.036 1.789-0.685-2.187-0.469-2.187-0.469z"></path>
<path fill="#87e6af" d="M3.565 5.021h0.228c0.475 0 0.859 0.385 0.859 0.859v0.228c0 0.475-0.385 0.859-0.859 0.859h-0.228c-0.475 0-0.859-0.385-0.859-0.859v-0.228c0-0.475 0.385-0.859 0.859-0.859z"></path>
<path fill="#9310cc" opacity="0.2" d="M4.761 20.348l-1.731 9.413h0.397l1.634-8.883-0.299-0.53z"></path>
<path fill="#40a7ec" opacity="0.2" d="M9.449 23.63l-2.849-6.023-0.395 0.004 2.847 6.019 0.325 6.131h0.397l-0.325-6.131z"></path>
<path fill="#9872a2" opacity="0.2" d="M10.387 30.698l-0.613-0.938h-0.181l0.613 0.938s2.056 0.794 1.155 1.298h0.18c0.901-0.504-1.154-1.298-1.154-1.298z"></path>
<path fill="#25814e" opacity="0.2" d="M4.184 30.698l-0.613-0.938h-0.18l0.613 0.938s2.057 0.794 1.154 1.298h0.18c0.901-0.504-1.154-1.298-1.154-1.298z"></path>
<path fill="#f6db3a" opacity="0.2" d="M12.772 11.158l-0.077-0.223-3.68 0.435 3.757-0.212z"></path>
<path fill="#a12a63" d="M1.813 9.265l1.226-2.315 2.042 0.772-2.042 2.95-1.226-1.407z"></path>
<path fill="#ca7070" d="M4.355 8.74l4.286 3.793 4.981-1.052-0.386-1.122-3.858 0.456-3.863-3.391c-0.154-0.135-0.357-0.218-0.579-0.218-0.295 0-0.555 0.145-0.715 0.368l-0.002 0.003c-0.101 0.141-0.161 0.317-0.161 0.506 0 0.261 0.114 0.496 0.295 0.656l0.001 0.001z"></path>
<path fill="#ca7070" d="M13.622 11.481s1.271 0.035 1.74-0.666-2.126-0.456-2.126-0.456z"></path>
<path fill="#ca7070" d="M6.002 4.059c0 1.22-0.989 2.21-2.21 2.21s-2.21-0.989-2.21-2.21c0-1.22 0.989-2.21 2.21-2.21s2.21 0.989 2.21 2.21z"></path>
<path fill="#263238" d="M2.88 6.479s-2.838 1.911-2.117 7.819c0.025 0.19 0.039 0.409 0.039 0.631 0 0.533-0.081 1.048-0.231 1.532l0.010-0.037-0.366 1.209s6.244 0.14 6.419 0c0.109-0.087 0.024-2.313-0.28-5.402-0.186-1.892 0.398-4.524-1.613-5.962z"></path>
<path fill="#5caade" d="M6.634 17.563l2.771 5.858 0.315 5.963h-1.964l-0.842-6.173-1.684-2.982-1.684 9.155h-1.964l0.596-6.805-1.964-4.946 6.419-0.070z"></path>
<path fill="#263238" d="M9.721 29.383l0.596 0.912s1.999 0.772 1.122 1.263h-3.823v-2.175z"></path>
<path fill="#263238" d="M3.51 29.383l0.596 0.912s1.999 0.772 1.122 1.263h-3.821v-2.175z"></path>
<path fill="#fff" opacity="0.2" d="M3.828 1.814c-0.001 0-0.001 0-0.002 0-0.4 0-0.774 0.107-1.097 0.293l0.011-0.006c0.255-0.112 0.553-0.177 0.866-0.177 1.22 0 2.21 0.989 2.21 2.21 0 0.815-0.441 1.527-1.098 1.91l-0.011 0.006c0.789-0.349 1.33-1.125 1.33-2.027 0-1.22-0.989-2.209-2.209-2.21h-0z"></path>
<path fill="#263238" d="M6.479 0.442l-0.615 0.94c-0.221 0.336-0.542 0.721-0.938 0.643-0.185-0.037-0.332-0.168-0.479-0.287-0.483-0.383-1.079-0.643-1.693-0.647s-1.246 0.274-1.595 0.782c-0.257 0.375-0.345 0.84-0.396 1.29-0.102 0.903 0 1.97 0.756 2.477 0.058 0.047 0.132 0.075 0.213 0.077h0c0.080-0.005 0.148-0.057 0.21-0.109 0.944-0.791 1.469-2.077 2.607-2.62 0.502-0.239 1.232-0.241 1.637-0.648 0.592-0.598-0.068-1.349 0.292-1.899z"></path>
<path fill="#fff" opacity="0.2" d="M4.201 1.738c0.147 0.117 0.294 0.252 0.479 0.287 0.031 0.006 0.067 0.010 0.104 0.010 0.044 0 0.086-0.005 0.127-0.015l-0.004 0.001c-0.176-0.042-0.319-0.168-0.462-0.282-0.482-0.383-1.078-0.643-1.692-0.647-0.042 0-0.086 0-0.129 0.004 0.572 0.033 1.124 0.284 1.576 0.643z"></path>
<path fill="#fff" opacity="0.2" d="M6.479 0.442l-0.355 0.543c0.034 0.446 0.23 0.938-0.186 1.356-0.405 0.406-1.134 0.409-1.637 0.648-1.138 0.543-1.663 1.83-2.607 2.62-0.031 0.027-0.065 0.052-0.101 0.073l-0.003 0.002c0.038 0.021 0.083 0.034 0.132 0.034 0.003 0 0.006-0 0.009-0h-0c0.080-0.005 0.148-0.057 0.21-0.109 0.944-0.791 1.469-2.077 2.607-2.62 0.502-0.239 1.232-0.241 1.637-0.648 0.595-0.598-0.065-1.349 0.295-1.899z"></path>
<path fill="#fff" opacity="0.2" d="M6.353 12.231c-0.186-1.892 0.398-4.524-1.613-5.962l-0.426 0.048c1.933 1.449 1.364 4.044 1.548 5.915 0.304 3.088 0.389 5.315 0.28 5.402-0.053 0.042-0.672 0.060-1.504 0.062 1.071 0.003 1.931-0.011 1.995-0.062 0.109-0.088 0.025-2.314-0.281-5.403z"></path>
<path fill="#ca7070" d="M3.119 9.492l4.286 3.791 4.981-1.052-0.386-1.122-3.858 0.456-3.863-3.391c-0.154-0.135-0.357-0.218-0.579-0.218-0.295 0-0.555 0.145-0.715 0.368l-0.002 0.003c-0.101 0.141-0.162 0.317-0.162 0.507 0 0.261 0.114 0.496 0.296 0.657l0.001 0.001z"></path>
<path fill="#ca7070" d="M12.386 12.231s1.271 0.035 1.74-0.666-2.126-0.456-2.126-0.456z"></path>
<path fill="#ca7070" d="M3.705 5.321h0.175c0.475 0 0.859 0.385 0.859 0.859v0.175c0 0.475-0.385 0.859-0.859 0.859h-0.175c-0.475 0-0.859-0.385-0.859-0.859v-0.175c0-0.475 0.385-0.859 0.859-0.859z"></path>
<path fill="#fff" opacity="0.2" d="M4.845 20.228l-1.684 9.155h0.386l1.589-8.639-0.291-0.516z"></path>
<path fill="#fff" opacity="0.2" d="M9.405 23.42l-2.771-5.858-0.384 0.004 2.769 5.854 0.315 5.963h0.386l-0.315-5.963z"></path>
<path fill="#fff" opacity="0.2" d="M10.317 30.296l-0.596-0.912h-0.175l0.596 0.912s1.999 0.772 1.122 1.263h0.175c0.877-0.491-1.122-1.263-1.122-1.263z"></path>
<path fill="#fff" opacity="0.2" d="M4.284 30.296l-0.596-0.912h-0.178l0.596 0.912s1.999 0.772 1.122 1.263h0.175c0.877-0.491-1.12-1.263-1.12-1.263z"></path>
<path fill="#fff" opacity="0.2" d="M12.636 11.291l-0.074-0.217-3.579 0.423 3.654-0.206z"></path>
<path fill="#263238" d="M1.978 9.449l1.192-2.251 1.986 0.75-1.986 2.869-1.192-1.368z"></path>
<path fill="#249877" d="M19.391 11.985l3.611-4.91c0.039-0.052 0.1-0.086 0.169-0.086 0.047 0 0.090 0.015 0.125 0.042l-0.001-0 0.168 0.124c0.052 0.039 0.086 0.1 0.086 0.169 0 0.047-0.015 0.090-0.041 0.125l0-0.001-3.611 4.91z"></path>
<path fill="#b0bec5" d="M19.462 12.037l3.549-4.828c0.039-0.052 0.1-0.086 0.169-0.086 0.047 0 0.090 0.015 0.125 0.042l-0.001-0 0.017 0.013c0.052 0.039 0.086 0.1 0.086 0.169 0 0.047-0.015 0.090-0.041 0.125l0-0.001-3.549 4.828z"></path>
</svg>
