<!-- Generated by IcoMoon.io -->
<svg version="1.1" xmlns="http://www.w3.org/2000/svg" width="36" height="32" viewBox="0 0 36 32">
<title>mentions-legales</title>
<path fill="#6c63ff" opacity="0.1" d="M0.020 16.654c0.108 1.215 0.797 2.315 1.217 3.472 0.311 0.833 0.491 1.796 0.491 2.8 0 0.823-0.121 1.618-0.346 2.369l0.015-0.058c-0.1 0.345-0.224 0.691-0.224 1.044 0 1.217 1.387 2.025 2.647 2.563 2.85 1.25 6.189 2.292 9.66 2.962l0.303 0.049c1.118 0.211 2.515 0.302 3.223-0.492 0.34-0.381 0.422-0.88 0.671-1.308 0.636-1.091 2.184-1.515 3.572-1.758 1.439-0.267 3.178-0.475 4.945-0.577l0.117-0.005c1.709-0.096 3.649-0.18 4.782-1.302 0.72-0.713 0.929-1.698 0.958-2.627 0.094-3.050-1.363-6.35 0.507-8.991 0.784-1.108 2.065-1.917 2.843-3.028 1.127-1.61 1.030-3.654 0.267-5.37s-2.114-3.174-3.446-4.604c-0.443-0.473-0.913-0.965-1.575-1.184-0.689-0.228-1.469-0.123-2.207-0.015-3.357 0.49-6.843 1.024-9.659 2.708-1.399 0.836-2.567 1.92-3.815 2.918-2.694 2.155-5.817 4.145-9.376 4.996-2.891 0.691-5.833 2.555-5.571 5.441z"></path>
<path fill="#0bbb07" d="M15.992 16.831c0.014-0.007 0.031-0.015 0.049-0.022l0.004-0.001s-1.484-0.836-1.897-1.068c-0.162-0.097-0.301-0.196-0.432-0.305l0.006 0.005c0.516-0.187 1.238-0.521 1.62-1.024 0 0-0.108-0.090-0.247-0.221l0.149-0.174s0.778-0.627 0.243-0.952c-0.435-0.264-0.709 0.437-0.796 0.71l-0.031-0.036s-0.837 1.279-1.966 0.643c-0.066-0.092-0.125-0.196-0.17-0.307l-0.004-0.010c-0.090-0.221-0.224-0.407-0.394-0.553l-0.002-0.002-0.115-0.444-0.205-0.169c0-0.243 0.008-0.534 0.036-0.792q0.003-0.024 0.005-0.049c0.396-0.157 0.675-0.53 0.675-0.965 0-0 0-0 0-0.001 0-0.16-0.038-0.312-0.105-0.447l0.003 0.006c0.16-0.183 0.276-0.432 0.242-0.648-0.027-0.167-0.17-0.276-0.341-0.353-0.165-0.084-0.366-0.132-0.517-0.173-0.277-0.075-0.581-0.111-0.85-0.013-0.446 0.161-0.722 0.346-1.069 0.659-0.274 0.247-0.576 0.678-0.9 0.864s-0.641 0.427-0.767 0.765c-0.177 0.478 0.066 0.992 0.175 1.487 0.042 0.184 0.066 0.395 0.066 0.611 0 0.382-0.075 0.746-0.211 1.079l0.007-0.019c-0.212 0.531-0.592 1.049-0.499 1.611 0.072 0.426 0.409 0.756 0.824 0.946 0.169 0.085 0.365 0.151 0.571 0.185l0.012 0.002c0.349 0.057 0.723 0.039 1.046-0.093-0.147 0.413-0.344 0.77-0.59 1.089l0.007-0.009c-0.239 0.304-0.216 0.47-0.004 0.486q-0.011 0.043-0.021 0.091c-0.069 0.337-0.091 0.889 0.025 1.792 0.292 2.276-0.34 2.972-0.34 2.972s0.068 0.024 0.19 0.059q-0.008 0.020-0.015 0.042c-0.134 0.38-0.261 1.049-0.004 1.943 0.276 0.961 0.357 1.404 0.38 1.594v0.011c-0.028 0.011-0.129 0.059-0.203 0.208-0.037 0.075-0.059 0.164-0.059 0.257 0 0.15 0.056 0.287 0.148 0.391l-0.001-0.001v0.882h0.122v-0.743c0.102 0.121 0.193 0.257 0.267 0.402l0.005 0.012c0.14 0.277 0.406 0.472 0.72 0.513l0.005 0c0.313 0.042 0.659 0.058 0.803-0.045 0 0 0.108-0.203-0.409-0.45l-0.004-0.006c-0.17-0.248-0.432-0.677-0.471-1.015-0.024-0.226-0.071-0.432-0.139-0.628l0.006 0.020c-0.049-0.135-0.082-0.291-0.095-0.453l-0-0.006c-0.036-0.478-0.099-1.527-0.006-1.758 0.063-0.156 0.1-0.547 0.121-0.889 0-0.015 0.002-0.031 0.003-0.046 0.259 0.035 0.559 0.055 0.863 0.055 0.269 0 0.535-0.016 0.796-0.046l-0.032 0.003v0.227s-0.219 0.697 0.219 1.695c0 0 0.593 0.907 0.728 1.442q0.006 0.023 0.010 0.045c-0.080 0.009-0.43 0.092-0.3 0.835l-0.024 0.975h0.122l0.024-0.859s0.122-0.209 0.535 0.232q0.094 0.1 0.17 0.186c0.277 0.307 0.677 0.499 1.121 0.499 0.021 0 0.042-0 0.063-0.001l-0.003 0c0.266-0.009 0.519-0.036 0.619-0.104 0 0 0.243-0.186-0.365-0.279l-0.28-0.083h-0.010l-0.040-0.045c-0.212-0.24-0.521-0.648-0.6-1.062-0.031-0.157-0.077-0.296-0.137-0.427l0.005 0.012-0.227-0.512-0.535-2.737s0.028-0.12 0.055-0.267c0.003-0.016 0.006-0.033 0.009-0.050l0.081-0.031s0.487-0.348-0.243-2.461c0 0-0.284-1.177-0.427-2.114l0.354-0.068s-0.055-0.828-0.164-1.404c0.072-0.27 0.112-0.504 0.067-0.618-0.035-0.096-0.058-0.207-0.062-0.322l-0-0.002c-0.016-0.28-0.045-0.536-0.086-0.788l0.006 0.043 0.458 0.324 2.311 1.116c-0.089-0.182-0.103-0.331-0.077-0.452 0.168 0.241 0.615 0.778 1.001 0.336 0.394-0.447-0.358-0.671-0.66-0.739z"></path>
<path fill="#f8bdc5" d="M15.663 16.838s1.191 0.206 0.733 0.756-1.008-0.435-1.008-0.435z"></path>
<path fill="#575988" d="M11.701 13.289s0.595 0.275 0.802 0.847 1.145 1.42 1.534 1.649 1.786 1.053 1.786 1.053-0.595 0.229-0.298 0.87l-2.176-1.099-0.984-0.733z"></path>
<path fill="#000" opacity="0.1" d="M11.701 13.289s0.595 0.275 0.802 0.847 1.145 1.42 1.534 1.649 1.786 1.053 1.786 1.053-0.595 0.229-0.298 0.87l-2.176-1.099-0.984-0.733z"></path>
<path fill="#307dda" d="M20.94 0.089s-2.623-0.958-5.412 3.427c0 0-1.173 2.447-3.793 2.438l-0.281-0.64-0.529 0.208 7.090 16.196 0.535-0.172-3.339-7.671c1.108-0.085 3.576-0.882 5.828-5.854 0 0 2.023-3.775 4.985-3.329z"></path>
<path fill="#5d76b7" d="M11.304 6.023l3.437 7.772s3.333 0.813 6.284-5.702c0 0 1.979-3.693 4.876-3.256l-4.972-4.502s-2.566-0.936-5.294 3.352c-0 0-1.331 2.78-4.331 2.337z"></path>
<path fill="#ffd037" d="M15.681 5.126l0.167 0.466-0.321 0.319 0.375-0.046 0.14 0.426 0.111-0.484 0.349-0.028-0.309-0.251 0.072-0.456-0.273 0.305-0.309-0.251z"></path>
<path fill="#ffd037" d="M16.382 3.731l0.149 0.439-0.281 0.349 0.334-0.077 0.179 0.399 0.045-0.496 0.366-0.059-0.317-0.207 0.068-0.434-0.225 0.291-0.317-0.207z"></path>
<path fill="#ffd037" d="M17.441 2.882l0.161 0.373-0.276 0.385 0.33-0.112 0.161 0.373 0.107-0.461 0.379-0.068-0.353-0.202 0.12-0.47-0.294 0.358-0.334-0.175z"></path>
<path fill="#ffd037" d="M18.625 2.857l0.161 0.373-0.335 0.329 0.383-0.091 0.148 0.382 0.12-0.47 0.388-0.055-0.316-0.149 0.111-0.484-0.325 0.342-0.335-0.176z"></path>
<path fill="#ffd037" d="M19.609 3.552l0.161 0.373-0.334 0.329 0.383-0.091 0.148 0.382 0.12-0.47 0.388-0.055-0.316-0.149 0.111-0.484-0.326 0.342-0.334-0.176z"></path>
<path fill="#ffd037" d="M20.136 4.621l0.161 0.373-0.334 0.329 0.383-0.091 0.148 0.382 0.12-0.47 0.388-0.055-0.316-0.149 0.111-0.484-0.326 0.342-0.334-0.176z"></path>
<path fill="#ffd037" d="M19.882 6.327l0.179 0.399-0.319 0.492 0.386-0.17 0.165 0.351 0.080-0.501 0.408-0.166-0.361-0.157 0.076-0.478-0.246 0.344-0.369-0.113z"></path>
<path fill="#ffd037" d="M19.304 7.928l0.14 0.426-0.279 0.464 0.373-0.161 0.157 0.395 0.075-0.536 0.351-0.165-0.316-0.149 0.084-0.523-0.263 0.376-0.32-0.127z"></path>
<path fill="#ffd037" d="M18.198 8.906l0.145 0.461-0.338 0.408 0.334-0.077 0.148 0.382 0.111-0.484 0.347-0.143-0.273-0.199 0.075-0.536-0.254 0.389-0.295-0.203z"></path>
<path fill="#ffd037" d="M17.057 9.076l0.132 0.47-0.353 0.302 0.358-0.015 0.104 0.374 0.138-0.444 0.392-0.077-0.287-0.247 0.068-0.434-0.256 0.274-0.295-0.203z"></path>
<path fill="#ffd037" d="M16.021 8.223l0.136 0.448-0.433 0.299 0.456 0.014 0.087 0.462 0.172-0.507 0.428-0.025-0.322-0.242 0.136-0.559-0.383 0.343-0.278-0.234z"></path>
<path fill="#ffd037" d="M15.614 6.683l0.136 0.448-0.433 0.299 0.456 0.014 0.087 0.463 0.172-0.507 0.428-0.025-0.322-0.242 0.136-0.559-0.383 0.342-0.278-0.234z"></path>
<path fill="#7f05dd" d="M19.443 6.396l-0.792-0.881c-0.025-0.028-0.062-0.046-0.103-0.046-0.035 0-0.068 0.013-0.092 0.035l0-0-0.064 0.058-0.331-0.369c-0.064-0.072-0.158-0.116-0.261-0.116-0.090 0-0.173 0.034-0.235 0.090l0-0-0.432 0.388c-0.072 0.064-0.116 0.158-0.116 0.261 0 0.090 0.034 0.173 0.090 0.235l-0-0 0.331 0.369-0.064 0.058c-0.028 0.025-0.046 0.062-0.046 0.103 0 0.035 0.013 0.068 0.035 0.092l-0-0 0.792 0.881c0.025 0.028 0.062 0.046 0.103 0.046 0.035 0 0.068-0.013 0.092-0.035l-0 0 1.083-0.972c0.028-0.025 0.046-0.062 0.046-0.103 0-0.036-0.014-0.069-0.036-0.093l0 0zM17.262 6.031c-0.056-0.062-0.090-0.144-0.090-0.234 0-0.104 0.045-0.197 0.116-0.261l0-0 0.243-0.218c0.062-0.056 0.144-0.090 0.234-0.090 0.104 0 0.197 0.045 0.261 0.116l0 0 0.272 0.303-0.765 0.687zM18.489 6.529l0.128 0.144c0.012 0.014 0.020 0.032 0.020 0.052 0 0.043-0.035 0.077-0.077 0.077-0.023 0-0.043-0.010-0.057-0.026l-0-0-0.135-0.151c-0.013 0.003-0.028 0.005-0.044 0.005-0.103 0-0.187-0.084-0.187-0.187s0.084-0.187 0.187-0.187c0.103 0 0.187 0.084 0.187 0.187 0 0.032-0.008 0.061-0.022 0.088l0-0.001z"></path>
<path fill="#f0f5fa" d="M17.595 5.219l-0.41 0.368c-0.068 0.061-0.111 0.15-0.111 0.248 0 0.086 0.032 0.164 0.086 0.223l-0-0 0.347 0.387 0.090-0.081-0.291-0.324c-0.053-0.059-0.085-0.137-0.085-0.223 0-0.098 0.043-0.187 0.11-0.248l0-0 0.231-0.207c0.059-0.053 0.137-0.085 0.223-0.085 0.098 0 0.187 0.043 0.248 0.11l0 0 0.291 0.324 0.090-0.081-0.347-0.387c-0.061-0.068-0.15-0.111-0.248-0.111-0.086 0-0.164 0.032-0.223 0.086l0-0z"></path>
<path fill="#f0f5fa" d="M18.441 5.54l-1.028 0.922c-0.027 0.024-0.044 0.059-0.044 0.098 0 0.034 0.013 0.064 0.034 0.088l-0-0 0.751 0.836c0.024 0.027 0.059 0.044 0.098 0.044 0.034 0 0.064-0.013 0.088-0.034l-0 0 1.029-0.923c0.027-0.024 0.044-0.059 0.044-0.098 0-0.034-0.013-0.064-0.034-0.088l0 0-0.75-0.835c-0.024-0.027-0.059-0.044-0.098-0.044-0.034 0-0.065 0.013-0.088 0.034l0-0zM18.47 6.514l0.122 0.136c0.012 0.013 0.019 0.030 0.019 0.049 0 0.040-0.033 0.073-0.073 0.073-0.021 0-0.041-0.009-0.054-0.024l-0-0-0.128-0.144c-0.012 0.003-0.027 0.005-0.042 0.005-0.098 0-0.178-0.080-0.178-0.178s0.080-0.178 0.178-0.178c0.098 0 0.178 0.080 0.178 0.178 0 0.030-0.008 0.059-0.021 0.083l0-0.001z"></path>
<path fill="#f0f5fa" d="M11.131 5.648l6.91 15.783 0.523-0.168-6.915-15.819-0.518 0.203z"></path>
<path fill="#f8bdc5" d="M14.518 13.953s0.275-1.122 0.779-0.802-0.229 0.939-0.229 0.939l-0.206 0.252z"></path>
<path fill="#dedff7" d="M11.76 12.926l0.261 0.225 0.11 0.447-0.179-0.104v-0.343l-0.193-0.023 0-0.202z"></path>
<path fill="#000" opacity="0.1" d="M11.76 12.926l0.261 0.225 0.11 0.447-0.179-0.104v-0.343l-0.193-0.023 0-0.202z"></path>
<path fill="#575988" d="M12.537 17.457l0.152 1.97 0.455-0.092s-0.101-1.603-0.303-1.878-0.304 0-0.304 0z"></path>
<path fill="#000" opacity="0.1" d="M12.537 17.457l0.152 1.97 0.455-0.092s-0.101-1.603-0.303-1.878-0.304 0-0.304 0z"></path>
<path fill="#f8bdc5" d="M11.426 29.114l-0.733 0.114-0.412-0.321-0.298-0.939v-0.344c0-0.003 0-0.007 0-0.011 0-0.040-0.003-0.078-0.009-0.116l0.001 0.004c-0.022-0.186-0.098-0.624-0.36-1.572-0.242-0.881-0.122-1.541 0.004-1.915 0.043-0.134 0.096-0.251 0.161-0.359l-0.004 0.008h0.985s-0.005 0.273-0.024 0.589c-0.020 0.337-0.054 0.723-0.114 0.877-0.088 0.228-0.028 1.262 0.005 1.734 0.012 0.165 0.044 0.319 0.093 0.465l-0.004-0.013c0.058 0.174 0.103 0.377 0.125 0.587l0.001 0.012c0.036 0.333 0.284 0.756 0.444 1.001 0.081 0.122 0.139 0.199 0.139 0.199z"></path>
<path fill="#f8bdc5" d="M14.907 29.136l-0.321 0.092-0.618-0.252-0.779-0.824v-0.458c-0.004-0.058-0.013-0.112-0.026-0.164l0.001 0.006c-0.126-0.528-0.684-1.422-0.684-1.422-0.412-0.985-0.206-1.672-0.206-1.672v-0.71s1.076-0.366 1.122-0.229c0.026 0.077-0.006 0.306-0.039 0.492-0.026 0.144-0.052 0.263-0.052 0.263l0.504 2.703 0.214 0.504c0.052 0.117 0.095 0.254 0.122 0.397l0.002 0.012c0.075 0.407 0.365 0.81 0.565 1.047 0.112 0.135 0.195 0.216 0.195 0.216z"></path>
<path fill="#000" opacity="0.1" d="M11.426 29.114l-0.733 0.114-0.412-0.321-0.298-0.939v-0.344c0-0.003 0-0.007 0-0.011 0-0.040-0.003-0.078-0.009-0.116l0.001 0.004c0.009-0.005 0.019-0.010 0.030-0.014l0.001-0s0.092 0.344 0.046 0.504c-0.036 0.128 0.276 0.605 0.405 0.792 0.063 0.095 0.154 0.168 0.26 0.208l0.004 0.001c0.25 0.089 0.49-0.031 0.569-0.077 0.079 0.122 0.137 0.199 0.137 0.199z"></path>
<path fill="#575988" d="M11.293 28.92s-0.29 0.202-0.596 0.094c-0.11-0.041-0.2-0.113-0.263-0.206l-0.001-0.002c-0.129-0.188-0.441-0.665-0.405-0.792 0.046-0.16-0.046-0.504-0.046-0.504s-0.116 0.036-0.198 0.208c-0.035 0.074-0.056 0.162-0.056 0.254 0 0.147 0.053 0.282 0.14 0.387l-0.001-0.001v0.87h0.114v-0.732c0.096 0.119 0.182 0.253 0.251 0.396l0.005 0.012c0.127 0.27 0.379 0.463 0.679 0.505l0.005 0.001c0.295 0.042 0.62 0.057 0.756-0.045-0.002 0 0.099-0.2-0.387-0.446z"></path>
<path fill="#000" opacity="0.1" d="M14.907 29.136l-0.321 0.092-0.618-0.252-0.779-0.824v-0.458c-0.004-0.058-0.013-0.112-0.026-0.164l0.001 0.006c0.007-0.001 0.016-0.002 0.025-0.003h0c0 0.119 0.203 0.403 0.345 0.587 0.067 0.086 0.135 0.184 0.199 0.285l0.009 0.015c0.297 0.478 0.81 0.504 0.968 0.501 0.113 0.134 0.197 0.214 0.197 0.214z"></path>
<path fill="#575988" d="M13.189 27.579s-0.435 0-0.298 0.825l-0.023 0.962h0.114l0.023-0.847s0.114-0.206 0.504 0.229q0.089 0.099 0.16 0.184c0.257 0.302 0.637 0.492 1.062 0.492 0.018 0 0.036-0 0.053-0.001l-0.003 0c0.25-0.009 0.489-0.036 0.583-0.102 0 0 0.229-0.183-0.344-0.275l-0.263-0.080s-0.662 0.072-1.016-0.498c-0.072-0.117-0.141-0.215-0.214-0.31l0.006 0.008c-0.142-0.182-0.345-0.466-0.345-0.585z"></path>
<path fill="#000" opacity="0.1" d="M9.777 23.663h0.985s-0.005 0.273-0.024 0.589c-0.423-0.055-0.8-0.138-1.165-0.25l0.049 0.013c0.042-0.134 0.095-0.251 0.159-0.36l-0.004 0.008z"></path>
<path fill="#000" opacity="0.1" d="M13.356 23.995c-0.314 0.125-0.68 0.219-1.061 0.267l-0.022 0.002v-0.532s1.076-0.366 1.122-0.229c0.026 0.077-0.006 0.307-0.039 0.492z"></path>
<path fill="#575988" d="M13.441 23.915c-1.878 0.779-3.985 0-3.985 0s0.595-0.687 0.321-2.931c-0.108-0.89-0.089-1.434-0.024-1.767 0.098-0.506 0.298-0.523 0.298-0.523l2.703-0.321c-0.024 0.092-0.026 0.247-0.012 0.439 0.064 0.912 0.47 2.675 0.47 2.675 0.687 2.084 0.229 2.428 0.229 2.428z"></path>
<path fill="#f8bdc5" d="M11.998 11.64c-0.070 0.105-0.112 0.319-0.137 0.565-0.056 0.561-0.023 1.29-0.023 1.29s-1.397 0.756-1.076-0.229c0.068-0.215 0.107-0.462 0.107-0.718 0-0.407-0.099-0.79-0.273-1.128l0.006 0.014s1.626-0.137 1.397 0.206z"></path>
<path fill="#000" opacity="0.1" d="M11.998 11.64c-0.070 0.105-0.112 0.319-0.137 0.565-0.115 0.048-0.249 0.076-0.389 0.076-0.249 0-0.478-0.089-0.656-0.236l0.002 0.001c-0.048-0.231-0.122-0.435-0.222-0.625l0.006 0.013s1.626-0.138 1.397 0.206z"></path>
<path fill="#f8bdc5" d="M12.502 11.204c0 0.569-0.461 1.031-1.031 1.031s-1.031-0.461-1.031-1.031c0-0.569 0.461-1.031 1.031-1.031s1.031 0.461 1.031 1.031z"></path>
<path fill="#000" opacity="0.1" d="M12.742 18.812c-0.126 0.345-0.24 0.614-0.24 0.614s-1.076-0.916-1.901-0.481c-0.389 0.205-0.686 0.293-0.848 0.271 0.098-0.506 0.298-0.523 0.298-0.523l2.703-0.321c-0.024 0.092-0.026 0.246-0.013 0.439z"></path>
<path fill="#575988" d="M12.502 19.335s-1.076-0.916-1.901-0.481-1.237 0.344-0.825-0.206 0.962-1.718 0.55-2.588-0.573-2.244-0.252-2.611 0.618-0.779 0.618-0.87c0 0 1.168 0.847 1.397 1.191 0.066 0.099 0.173 0.351 0.293 0.66 0.064 0.167 0.133 0.351 0.2 0.536 0.092 0.241 0.18 0.539 0.247 0.844l0.008 0.045c0.076 0.34 0.132 0.741 0.154 1.15l0.001 0.019c0.004 0.115 0.025 0.224 0.061 0.327l-0.002-0.008c0.137 0.366-0.55 1.992-0.55 1.992z"></path>
<path fill="#dedff7" d="M12.021 13.174l-0.027 0.478-1.322-1.008s-0.025-0.202 0.319 0.004 1.031 0.526 1.031 0.526z"></path>
<path fill="#000" opacity="0.1" d="M12.838 15.854c-1.21 0.022-2.581-1.328-2.581-1.328-0.481-1.282 1.145-1.008 1.145-1.008s0.134 0.345 0.98 0.912c0.064 0.167 0.133 0.351 0.2 0.536 0.092 0.241 0.179 0.539 0.247 0.844l0.008 0.045z"></path>
<path fill="#575988" d="M10.258 14.365s1.557 1.534 2.817 1.305c0 0 1.489-0.366 2.084-1.191 0 0-0.389-0.344-0.641-0.664 0 0-0.802 1.282-1.878 0.618s-1.237-1.076-1.237-1.076-1.626-0.275-1.145 1.008z"></path>
<path fill="#000" opacity="0.1" d="M11.871 9.634c-0.261-0.074-0.547-0.108-0.801-0.013-0.42 0.159-0.68 0.342-1.008 0.65-0.258 0.244-0.543 0.668-0.847 0.851s-0.601 0.421-0.72 0.756c-0.167 0.471 0.062 0.978 0.165 1.467 0.040 0.181 0.062 0.389 0.062 0.603 0 0.376-0.070 0.735-0.199 1.066l0.007-0.020c-0.2 0.523-0.558 1.035-0.468 1.589 0.094 0.592 0.688 0.994 1.279 1.095 0.402 0.069 0.838 0.027 1.18-0.196 0.097-0.059 0.177-0.138 0.236-0.231l0.002-0.003c0.146-0.252 0.050-0.569-0.040-0.846-0.184-0.568-0.33-1.147-0.475-1.726-0.085-0.338-0.169-0.7-0.049-1.028 0.117-0.319 0.41-0.543 0.716-0.692 0.12-0.058 0.248-0.111 0.338-0.209 0.048-0.054 0.086-0.117 0.111-0.187l0.001-0.004c0.154-0.411-0.019-0.94 0.279-1.263 0.151-0.164 0.384-0.221 0.57-0.344 0.235-0.155 0.468-0.521 0.424-0.819-0.048-0.313-0.492-0.419-0.763-0.496z"></path>
<path fill="#eb6475" d="M11.825 9.611c-0.261-0.074-0.547-0.108-0.801-0.013-0.42 0.159-0.68 0.342-1.008 0.65-0.258 0.244-0.543 0.668-0.847 0.851s-0.601 0.421-0.72 0.756c-0.167 0.471 0.062 0.978 0.165 1.467 0.040 0.181 0.062 0.389 0.062 0.602 0 0.376-0.070 0.735-0.199 1.066l0.007-0.020c-0.2 0.523-0.558 1.035-0.468 1.589 0.094 0.592 0.688 0.994 1.279 1.095 0.402 0.069 0.838 0.027 1.18-0.196 0.097-0.059 0.177-0.138 0.236-0.231l0.002-0.003c0.146-0.252 0.050-0.569-0.040-0.846-0.184-0.568-0.33-1.147-0.475-1.726-0.085-0.338-0.169-0.7-0.049-1.028 0.117-0.319 0.41-0.543 0.716-0.692 0.12-0.058 0.248-0.111 0.338-0.209 0.048-0.054 0.086-0.117 0.111-0.187l0.001-0.004c0.154-0.411-0.019-0.94 0.279-1.263 0.151-0.164 0.384-0.221 0.57-0.344 0.235-0.155 0.468-0.521 0.424-0.819-0.048-0.313-0.492-0.419-0.763-0.496z"></path>
<path fill="#6c63ff" d="M4.479 18.582c0 0.199-0.36 0.774-0.36 0.774s-0.36-0.576-0.36-0.774c0-0.199 0.161-0.36 0.36-0.36s0.36 0.161 0.36 0.36v0z"></path>
<path fill="#6c63ff" d="M5.074 19.681c-0.108 0.167-0.723 0.455-0.723 0.455s0.011-0.679 0.119-0.845c0.066-0.092 0.173-0.151 0.293-0.151 0.199 0 0.36 0.161 0.36 0.36 0 0.067-0.018 0.13-0.050 0.183l0.001-0.002z"></path>
<path fill="#6c63ff" d="M5.048 21.561c-0.177 0.089-0.853 0.028-0.853 0.028s0.352-0.58 0.529-0.669c0.044-0.020 0.095-0.032 0.148-0.032 0.199 0 0.36 0.161 0.36 0.36 0 0.134-0.073 0.251-0.182 0.313l-0.002 0.001z"></path>
<path fill="#6c63ff" d="M4.708 22.978c-0.16 0.118-0.836 0.171-0.836 0.171s0.249-0.631 0.409-0.749c0.056-0.038 0.125-0.061 0.2-0.061 0.199 0 0.36 0.161 0.36 0.36 0 0.112-0.051 0.212-0.131 0.278l-0.001 0z"></path>
<path fill="#6c63ff" d="M3.597 20.175c0.144 0.138 0.806 0.282 0.806 0.282s-0.162-0.659-0.305-0.797c-0.066-0.071-0.16-0.116-0.264-0.116-0.199 0-0.36 0.161-0.36 0.36 0 0.108 0.048 0.205 0.123 0.271l0 0z"></path>
<path fill="#6c63ff" d="M3.22 21.837c0.177 0.089 0.853 0.028 0.853 0.028s-0.352-0.58-0.529-0.669c-0.051-0.029-0.111-0.046-0.176-0.046-0.199 0-0.36 0.161-0.36 0.36 0 0.145 0.086 0.27 0.209 0.327l0.002 0.001z"></path>
<path fill="#6c63ff" d="M3.076 23.503c0.16 0.118 0.836 0.171 0.836 0.171s-0.249-0.631-0.409-0.749c-0.056-0.038-0.125-0.061-0.2-0.061-0.199 0-0.36 0.161-0.36 0.36 0 0.112 0.051 0.212 0.131 0.278l0.001 0z"></path>
<path fill="#6c63ff" d="M17.319 29.127c0.065-0.053 0.113-0.124 0.137-0.205l0.001-0.003c0.018-0.083-0.017-0.182-0.096-0.212-0.089-0.034-0.183 0.027-0.255 0.090s-0.154 0.133-0.248 0.119c0.076-0.069 0.124-0.169 0.124-0.279 0-0.026-0.003-0.051-0.008-0.076l0 0.002c-0.004-0.028-0.016-0.052-0.033-0.072l0 0c-0.049-0.053-0.138-0.030-0.197 0.012-0.187 0.132-0.239 0.386-0.24 0.615-0.019-0.082-0.003-0.168-0.004-0.252s-0.024-0.18-0.095-0.224c-0.039-0.022-0.086-0.034-0.136-0.034-0.003 0-0.005 0-0.008 0h0c-0.084-0.003-0.178 0.005-0.235 0.067-0.072 0.076-0.053 0.205 0.009 0.288s0.157 0.137 0.244 0.195c0.071 0.042 0.129 0.098 0.173 0.164l0.001 0.002c0.005 0.008 0.009 0.018 0.013 0.028l0 0.001h0.527c0.124-0.064 0.231-0.139 0.326-0.227l-0.001 0.001z"></path>
<path fill="#6c63ff" d="M24.399 15.419s-1.506 1.506-0.656 3.74-1.457 5.95-1.457 5.95 0.025-0.004 0.072-0.012c3.093-0.546 4.629-4.083 2.909-6.71-0.641-0.977-1.165-2.123-0.868-2.968z"></path>
<path fill="#000" opacity="0.1" d="M24.399 15.444s-1.506 1.506-0.656 3.74-1.457 5.95-1.457 5.95 0.025-0.004 0.072-0.012c3.091-0.546 4.628-4.084 2.908-6.711-0.639-0.976-1.164-2.123-0.867-2.967z"></path>
<path fill="#6c63ff" d="M27.081 21.509s-1.718-0.274-1.875 1.266-3.304 1.754-3.304 1.754l0.059 0.039c2.599 1.706 5.083 1.087 4.708-1.179-0.139-0.843-0.128-1.688 0.411-1.881z"></path>
<path fill="#a8a8a8" d="M25.569 24.585s-1.353-0.271-1.714-0.631-1.985-0.992-2.165-0.54-2.436 1.983-0.903 2.254 3.609 0.36 4.060 0.18 0.723-1.263 0.723-1.263z"></path>
<path fill="#000" opacity="0.2" d="M20.787 25.501c1.534 0.271 3.609 0.36 4.060 0.18 0.344-0.137 0.582-0.798 0.677-1.105l0.045 0.009s-0.271 1.083-0.722 1.263-2.526 0.090-4.060-0.18c-0.443-0.078-0.569-0.262-0.521-0.494 0.039 0.15 0.193 0.267 0.521 0.326z"></path>
<path fill="#a8a8a8" d="M2.984 24.414s0.807-0.025 1.049-0.198 1.241-0.38 1.301-0.102 1.212 1.381 0.3 1.387-2.115-0.142-2.358-0.288-0.292-0.799-0.292-0.799z"></path>
<path fill="#000" opacity="0.2" d="M5.652 25.405c-0.911 0.007-2.115-0.142-2.358-0.288-0.185-0.113-0.258-0.516-0.283-0.703h-0.027s0.051 0.65 0.294 0.798 1.448 0.297 2.358 0.288c0.263-0.002 0.353-0.096 0.349-0.234-0.037 0.084-0.137 0.136-0.333 0.138z"></path>
</svg>
