<!-- Generated by IcoMoon.io -->
<svg version="1.1" xmlns="http://www.w3.org/2000/svg" width="49" height="32" viewBox="0 0 49 32">
<title>pair_programming</title>
<path fill="#6c63ff" opacity="0.1" d="M25.342 5.756c-3.094 0.523-6.184 0.299-9.156-0.027s-5.937-0.752-9.032-0.623c-1.991 0.082-4.208 0.477-5.599 1.623-1.338 1.103-1.547 2.591-1.549 3.935-0.003 1.011 0.084 2.056 0.8 2.861 0.498 0.558 1.264 0.959 1.841 1.474 2.008 1.79 1.397 4.609 0.080 7.006-0.618 1.125-1.374 2.23-1.795 3.381s-0.477 2.384 0.277 3.323c0.746 0.931 2.191 1.455 3.696 1.727 3.058 0.552 6.465 0.209 9.761-0.255 7.296-1.032 14.516-2.641 21.72-4.247 2.666-0.594 5.343-1.191 7.911-2.048 1.426-0.477 2.879-1.070 3.8-1.994 1.17-1.17 1.2-2.771 0.072-3.728-1.893-1.604-6.177-1.248-7.641-3.082-0.805-1.010-0.455-2.381 0.186-3.592 1.375-2.598 4.032-5.164 3.687-7.754-0.238-1.777-2.050-3.248-4.479-3.631-2.546-0.401-5.817 0.36-7.283 2.148-1.507 1.843-4.565 3.040-7.297 3.503z"></path>
<path fill="#565661" d="M15.61 15.574h12.287v2.845h-12.287v-2.845z"></path>
<path fill="#000" opacity="0.1" d="M15.61 15.574h12.287v2.845h-12.287v-2.845z"></path>
<path fill="#bcbec9" d="M17.080 18.513l0.086 7.596-1.182 2.983-0.091-10.579h1.187z"></path>
<path fill="#565661" d="M15.74 16.121l11.963 0.072v2.119h-11.963v-2.191z"></path>
<path fill="#bcbec9" d="M26.679 18.513l1.023 0.144v10.319l-1.023-3.156v-7.307z"></path>
<path fill="#efeff0" d="M28.091 15.688h5.765v12.251h-5.765v-12.251z"></path>
<path fill="#565661" d="M28.553 16.029h4.843v9.417h-4.843v-9.417z"></path>
<path fill="#000" opacity="0.1" d="M28.553 16.029h4.843v9.417h-4.843v-9.417z"></path>
<path fill="#565661" d="M28.553 16.222h4.843v2.090h-4.843v-2.090z"></path>
<path fill="#565661" d="M28.553 18.513h4.843v4.439h-4.843v-4.439z"></path>
<path fill="#565661" d="M28.553 23.226h4.843v4.439h-4.843v-4.439z"></path>
<path fill="#000" opacity="0.1" d="M28.553 23.226h4.843v4.439h-4.843v-4.439z"></path>
<path fill="#565661" d="M29.067 28.338c0 0.22-0.14 0.399-0.312 0.399s-0.312-0.179-0.312-0.399c0-0.22 0.14-0.399 0.312-0.399s0.312 0.179 0.312 0.399z"></path>
<path fill="#565661" d="M33.395 28.357c0 0.22-0.14 0.399-0.312 0.399s-0.312-0.179-0.312-0.399c0-0.22 0.14-0.399 0.312-0.399s0.312 0.179 0.312 0.399z"></path>
<path fill="#efeff0" d="M15.567 29.092h0.418l-0.115-13.297h-0.635l0.332 13.297z"></path>
<path fill="#efeff0" d="M27.703 15.688v13.288h0.389v-13.182l-0.389-0.106z"></path>
<path fill="#efeff0" d="M15.89 18.182v0.476h11.812v-0.346l-11.812-0.13z"></path>
<path fill="#fff" d="M16.691 14.795h14.975l2.176 0.72v0.418l-18.679-0.144v-0.425l1.528-0.569z"></path>
<path fill="#bcbec9" d="M15.163 15.364l18.679 0.151v0.418l-18.679-0.144v-0.425z"></path>
<path fill="#a340ed" d="M16.855 20.32l-0.087-0.013c0-0.004 0-0.007 0-0.011-0.003-0.020-0.006-0.040-0.009-0.061 0.036 0.028 0.069 0.056 0.101 0.085z"></path>
<path fill="#a26565" d="M14.971 27.014c0.056-0.013 0.114-0.024 0.171-0.032 0.087-0.013 0.188-0.021 0.29-0.021 0.314 0 0.611 0.070 0.877 0.196l-0.013-0.005c-0.036 0.268-0.072 0.545 0.005 0.804 0.054 0.182 0.162 0.347 0.185 0.537 0.119 0.021 0.214 0.106 0.249 0.218l0.001 0.002c0.016 0.045 0.025 0.098 0.025 0.152 0 0.001 0 0.002 0 0.003v-0c-0.001 0.069-0.009 0.135-0.026 0.198l0.001-0.006c-0.011 0.098-0.093 0.174-0.193 0.174-0.005 0-0.010-0-0.016-0.001l0.001 0c-0.336 0.038-0.665-0.094-0.977-0.224l-0.607-0.252c-0.071-0.029-0.143-0.059-0.211-0.096-0.132-0.072-0.244-0.165-0.336-0.274l-0.001-0.002c-0.019-0.020-0.033-0.044-0.040-0.072l-0-0.001c-0.011-0.076 0.078-0.122 0.135-0.173 0.016-0.015 0.031-0.033 0.043-0.052l0.001-0.001c0.067-0.101 0.074-0.241 0.114-0.361 0.095-0.284 0.39-0.467 0.494-0.744 0.006-0.015 0.011-0.030 0.015-0.046z"></path>
<path fill="#000" opacity="0.1" d="M16.759 28.867c-0.001 0.069-0.009 0.135-0.026 0.198l0.001-0.006c-0.011 0.098-0.093 0.174-0.193 0.174-0.005 0-0.010-0-0.016-0.001l0.001 0c-0.336 0.038-0.665-0.094-0.977-0.224l-0.607-0.252c-0.071-0.029-0.143-0.059-0.211-0.096-0.132-0.072-0.244-0.165-0.336-0.274l-0.001-0.002c-0.019-0.020-0.033-0.044-0.040-0.072l-0-0.001c-0.011-0.076 0.078-0.122 0.135-0.173 0.016-0.015 0.031-0.033 0.043-0.052l0.001-0.001c0.167 0.036 0.375 0.141 0.503 0.182 0.139 0.038 0.261 0.091 0.373 0.157l-0.007-0.004c0.16 0.102 0.274 0.26 0.41 0.39s0.31 0.248 0.499 0.232c0.106-0.016 0.202-0.051 0.288-0.1l-0.004 0.002z"></path>
<path fill="#454b69" d="M16.049 22.706c0.005 0.017 0.008 0.036 0.008 0.055 0 0.066-0.032 0.125-0.081 0.161l-0.001 0c-0.057 0.035-0.13 0.030-0.186 0.069-0.070 0.049-0.080 0.146-0.092 0.23-0.043 0.289-0.187 0.551-0.31 0.817s-0.226 0.556-0.181 0.844c0.031 0.196 0.127 0.405 0.037 0.581-0.022 0.043-0.055 0.082-0.080 0.124-0.124 0.206-0.053 0.468-0.058 0.708 0 0.003 0 0.006 0 0.009 0 0.025-0.006 0.048-0.018 0.068l0-0.001c-0.019 0.022-0.042 0.040-0.067 0.052l-0.001 0.001c-0.087 0.064-0.143 0.164-0.148 0.278l-0 0.001c-0 0.011-0.001 0.023-0.001 0.036 0 0.102 0.014 0.202 0.041 0.295l-0.002-0.008c0.005 0.044 0.024 0.083 0.053 0.113l-0-0c0.031 0.021 0.069 0.033 0.11 0.033 0.002 0 0.005-0 0.007-0h-0c0.291 0.024 0.56 0.093 0.809 0.199l-0.017-0.006c0.164 0.069 0.324 0.154 0.499 0.187 0.012 0.004 0.025 0.006 0.039 0.006 0.023 0 0.045-0.006 0.064-0.017l-0.001 0c0.021-0.019 0.037-0.045 0.043-0.074l0-0.001c0.067-0.221 0.135-0.449 0.112-0.679-0.010-0.099-0.036-0.196-0.043-0.294-0.030-0.39 0.234-0.742 0.317-1.127 0.038-0.173 0.038-0.353 0.065-0.528 0.073-0.48 0.337-0.91 0.439-1.385 0.016-0.099 0.039-0.187 0.069-0.271l-0.003 0.011c0.076-0.184 0.251-0.333 0.255-0.532 0-0.003 0-0.007 0-0.011 0-0.042-0.012-0.081-0.034-0.113l0 0.001c-0.040-0.044-0.093-0.075-0.153-0.086l-0.002-0c-0.199-0.058-0.442-0.108-0.69-0.142l-0.027-0.003c-0.079-0.016-0.169-0.026-0.262-0.026-0.026 0-0.053 0.001-0.079 0.002l0.004-0c-0.155 0.019-0.295 0.070-0.417 0.148l0.004-0.002c-0.167 0.103-0.060 0.128-0.023 0.277z"></path>
<path fill="#000" opacity="0.05" d="M16.049 22.706c0.005 0.017 0.008 0.036 0.008 0.055 0 0.066-0.032 0.125-0.081 0.161l-0.001 0c-0.057 0.035-0.13 0.030-0.186 0.069-0.070 0.049-0.080 0.146-0.092 0.23-0.043 0.289-0.187 0.551-0.31 0.817s-0.226 0.556-0.181 0.844c0.031 0.196 0.127 0.405 0.037 0.581-0.022 0.043-0.055 0.082-0.080 0.124-0.124 0.206-0.053 0.468-0.058 0.708 0 0.003 0 0.006 0 0.009 0 0.025-0.006 0.048-0.018 0.068l0-0.001c-0.019 0.022-0.042 0.040-0.067 0.052l-0.001 0.001c-0.087 0.064-0.143 0.164-0.148 0.278l-0 0.001c-0 0.011-0.001 0.023-0.001 0.036 0 0.102 0.014 0.202 0.041 0.295l-0.002-0.008c0.005 0.044 0.024 0.083 0.053 0.113l-0-0c0.031 0.021 0.069 0.033 0.11 0.033 0.002 0 0.005-0 0.007-0h-0c0.291 0.024 0.56 0.093 0.809 0.199l-0.017-0.006c0.164 0.069 0.324 0.154 0.499 0.187 0.012 0.004 0.025 0.006 0.039 0.006 0.023 0 0.045-0.006 0.064-0.017l-0.001 0c0.021-0.019 0.037-0.045 0.043-0.074l0-0.001c0.067-0.221 0.135-0.449 0.112-0.679-0.010-0.099-0.036-0.196-0.043-0.294-0.030-0.39 0.234-0.742 0.317-1.127 0.038-0.173 0.038-0.353 0.065-0.528 0.073-0.48 0.337-0.91 0.439-1.385 0.016-0.099 0.039-0.187 0.069-0.271l-0.003 0.011c0.076-0.184 0.251-0.333 0.255-0.532 0-0.003 0-0.007 0-0.011 0-0.042-0.012-0.081-0.034-0.113l0 0.001c-0.040-0.044-0.093-0.075-0.153-0.086l-0.002-0c-0.199-0.058-0.442-0.108-0.69-0.142l-0.027-0.003c-0.079-0.016-0.169-0.026-0.262-0.026-0.026 0-0.053 0.001-0.079 0.002l0.004-0c-0.155 0.019-0.295 0.070-0.417 0.148l0.004-0.002c-0.167 0.103-0.060 0.128-0.023 0.277z"></path>
<path fill="#565661" d="M15.201 29.24h-0.37l-0.242-4.97-0.017-0.283 0.314-0.111 0.021 0.3 0.293 5.063z"></path>
<path fill="#000" opacity="0.1" d="M14.908 24.177l-0.319 0.093-0.017-0.283 0.314-0.111 0.021 0.3z"></path>
<path fill="#565661" d="M19.84 30.291l-0.61 0.074-2.81-6.377-0.758-0.055-1.331 0.388-0.259 7.593h-0.61l0.24-7.87-1.46 0.037-2.606 6.488h-0.554l2.847-7.875 4.085-0.14 1.018 0.571 0.013 0.033 2.795 7.134z"></path>
<path fill="#000" opacity="0.1" d="M17.045 23.157c-0.878 0.264-1.789 0.553-1.789 0.553s-0.831 0.29-1.183 0c-0.042-0.033-0.091-0.061-0.143-0.080l-0.004-0.001c0.042 0.031 0.091 0.058 0.142 0.079l0.005 0.002-2.25-0.725 0.105-0.292 4.085-0.14 1.018 0.571z"></path>
<path fill="#fff" d="M12.89 21.899l1.663-0.37s3.974 0.74 4.27 1.035c0 0-3.179 0.647-3.53 0.867s-2.44 0.464-2.403-1.532z"></path>
<path fill="#6c63ff" d="M12.175 17.742c-0.13 0.412-0.485 0.784-0.917 0.802-0.006 0.001-0.012 0.001-0.019 0.001-0.027 0-0.052-0.006-0.074-0.018l0.001 0c-0.054-0.034-0.056-0.113-0.033-0.173s0.061-0.114 0.067-0.178c0-0.003 0.001-0.008 0.001-0.012 0-0.010-0.001-0.019-0.003-0.028l0 0.001c-0.011-0.052-0.053-0.098-0.103-0.087 0.040-0.032 0.065-0.081 0.065-0.135 0-0.035-0.011-0.068-0.029-0.095l0 0.001c-0.019-0.021-0.036-0.044-0.052-0.069l-0.001-0.002c-0.036-0.074 0.020-0.157 0.043-0.235 0.048-0.173-0.074-0.347-0.084-0.528-0.009-0.162 0.073-0.314 0.094-0.474 0.033-0.26-0.097-0.509-0.112-0.769-0.010-0.181 0.034-0.361 0.084-0.535 0.043-0.156 0.092-0.314 0.095-0.477 0-0.118-0.020-0.235-0.026-0.353-0.001-0.015-0.002-0.033-0.002-0.051 0-0.095 0.022-0.186 0.061-0.266l-0.002 0.004c0.030-0.057 0.080-0.1 0.141-0.121l0.002-0.001c0.142-0.048 0.235 0.026 0.256 0.161 0.035 0.229 0.015 0.463 0.060 0.694 0.047 0.239 0.113 0.449 0.198 0.649l-0.008-0.021c0.077 0.183 0.17 0.36 0.229 0.549 0.040 0.135 0.074 0.297 0.094 0.462l0.001 0.014c0.058 0.433 0.104 0.879-0.028 1.291z"></path>
<path fill="#a26565" d="M22.048 28.235c-0.109 0.152-0.277 0.257-0.471 0.279l-0.003 0c-0.188 0.023-0.384-0.024-0.566 0.028-0.058 0.010-0.106 0.048-0.13 0.099l-0 0.001c-0.004 0.031-0.007 0.067-0.008 0.105l-0 0.002c-0.021 0.116-0.173 0.142-0.292 0.141l-0.488-0.003c-0.101 0-0.214-0.006-0.287-0.076-0.034-0.038-0.055-0.088-0.055-0.143 0-0.053 0.019-0.101 0.051-0.138l-0 0c0.015-0.018 0.033-0.032 0.054-0.043l0.001-0c-0.062-0.021-0.107-0.074-0.117-0.138l-0-0.001c-0.003-0.021-0.005-0.046-0.005-0.071 0-0.043 0.005-0.084 0.015-0.123l-0.001 0.004c0-0.181 0.043-0.485 0.171-0.626 0.157-0.176 0.428-0.404 0.664-0.452 0.029-0.006 0.063-0.009 0.098-0.009 0.136 0 0.26 0.052 0.352 0.138l-0-0c0.112 0.104 0.193 0.267 0.347 0.285 0.084 0.010 0.164-0.029 0.247-0.043 0.018-0.002 0.038-0.004 0.059-0.004 0.178 0 0.332 0.101 0.409 0.249l0.001 0.003c0.020 0.039 0.035 0.085 0.043 0.133l0 0.003c0.005 0.027 0.007 0.058 0.007 0.090 0 0.117-0.036 0.226-0.097 0.316l0.001-0.002z"></path>
<path fill="#000" opacity="0.1" d="M22.048 28.235c-0.109 0.152-0.277 0.257-0.471 0.279l-0.003 0c-0.188 0.023-0.384-0.024-0.566 0.028-0.058 0.010-0.106 0.048-0.13 0.099l-0 0.001c-0.004 0.031-0.007 0.067-0.008 0.105l-0 0.002c-0.021 0.116-0.173 0.142-0.292 0.141l-0.488-0.003c-0.101 0-0.214-0.006-0.287-0.076-0.034-0.038-0.055-0.088-0.055-0.143 0-0.053 0.019-0.101 0.051-0.138l-0 0c0.282-0.012 0.559 0 0.84-0.058 0.114-0.023 0.226-0.053 0.342-0.069 0.25-0.036 0.515-0.005 0.745-0.111 0.191-0.087 0.328-0.263 0.409-0.46 0.005 0.028 0.008 0.060 0.008 0.093 0 0.116-0.035 0.224-0.095 0.314l0.001-0.002z"></path>
<path fill="#454b69" d="M20.76 27.549c-0.173 0.134-0.377 0.239-0.595 0.251s-0.45-0.087-0.557-0.277c-0.157-0.279-0.018-0.666-0.209-0.922-0.060-0.080-0.146-0.137-0.209-0.215s-0.1-0.194-0.043-0.277c-0.068 0.026-0.14-0.040-0.16-0.11s-0.007-0.146-0.020-0.217c-0.032-0.189-0.217-0.31-0.306-0.477s-0.077-0.385-0.087-0.583c-0.024-0.504-0.213-0.96-0.514-1.319l0.003 0.003c-0.059-0.070-0.134-0.142-0.226-0.138 0.016-0.159-0.090-0.31-0.227-0.39s-0.3-0.107-0.459-0.122c-1.601-0.158-3.269 0.437-4.798-0.063-0.425-0.139-0.835-0.372-1.095-0.737-0.155-0.21-0.247-0.474-0.247-0.759 0-0.076 0.007-0.151 0.019-0.223l-0.001 0.008v-0.006c0.060-0.308 0.223-0.384 0.492-0.524 0.274-0.148 0.595-0.286 0.929-0.395l0.042-0.012c0.65-0.203 1.35-0.277 2.021-0.127 0.313 0.070 0.616 0.186 0.929 0.254 0.124 0.027 0.248 0.046 0.373 0.062 0.195 0.024 0.39 0.040 0.586 0.063 0.686 0.081 1.309 0.226 1.903 0.433l-0.062-0.019c0.222 0.075 0.445 0.162 0.636 0.298 0.298 0.218 0.506 0.546 0.564 0.922l0.001 0.008c0.018 0.127 0.019 0.26 0.046 0.384 0.030 0.118 0.066 0.219 0.109 0.316l-0.005-0.012c0.325 0.772 0.636 1.712 0.876 2.679l0.029 0.139c0.014 0.077 0.040 0.145 0.074 0.207l-0.002-0.003c0.055 0.090 0.151 0.15 0.207 0.24 0.13 0.212 0.005 0.507 0.12 0.727 0.040 0.076 0.106 0.137 0.146 0.213 0.13 0.25-0.062 0.549-0.284 0.721z"></path>
<path fill="#000" opacity="0.1" d="M18.545 22.568c0.061-0.049 0.114-0.106 0.156-0.171l0.002-0.003c0.032-0.049 0.051-0.11 0.051-0.175 0-0.017-0.001-0.034-0.004-0.051l0 0.002c0.006 0.033 0.009 0.070 0.009 0.108 0 0.172-0.068 0.328-0.178 0.443l0-0c-0.109 0.111-0.313 0.221-0.472 0.183 0.023-0.127 0.335-0.251 0.436-0.336z"></path>
<path fill="#000" opacity="0.1" d="M15.837 20.408c-0.027 0.095-0.099 0.168-0.19 0.198l-0.002 0.001c-0.070 0.022-0.151 0.035-0.234 0.035-0.018 0-0.036-0.001-0.054-0.002l0.002 0h-0.087c-1.138-0.025-2.287-0.277-3.398-0.037-0.152 0.032-0.283 0.072-0.409 0.122l0.017-0.006c-0.173 0.069-0.322 0.157-0.455 0.263l0.004-0.003v-0.006c0.060-0.308 0.223-0.384 0.492-0.524 0.273-0.147 0.594-0.284 0.928-0.392l0.042-0.012c0.65-0.203 1.35-0.277 2.021-0.127 0.313 0.070 0.616 0.186 0.929 0.254 0.124 0.027 0.248 0.046 0.373 0.062 0.016 0.036 0.026 0.078 0.026 0.122 0 0.018-0.002 0.036-0.005 0.053l0-0.002z"></path>
<path fill="#a26565" d="M15.837 20.346c-0.027 0.095-0.099 0.169-0.19 0.198l-0.002 0.001c-0.069 0.022-0.149 0.035-0.232 0.035-0.019 0-0.038-0.001-0.056-0.002l0.002 0h-0.087c-1.138-0.025-2.287-0.277-3.398-0.037-0.152 0.032-0.283 0.071-0.41 0.121l0.017-0.006c-0.18 0.073-0.335 0.166-0.473 0.28l0.003-0.002q-0.050-0.137-0.099-0.274c-0.040-0.109 0.087-0.134 0.111-0.232 0.016-0.066-0.011-0.142-0.025-0.212-0.003-0.015-0.006-0.033-0.007-0.051l-0-0.001c-0.008-0.157 0.048-0.247 0.176-0.331 0.381-0.251 0.845-0.424 1.279-0.554 0.208-0.068 0.45-0.117 0.7-0.137l0.011-0.001c0.342-0.020 0.683 0.043 1.015 0.124 0.409 0.101 0.813 0.235 1.176 0.448 0.178 0.104 0.351 0.234 0.447 0.418 0.029 0.048 0.046 0.106 0.046 0.167 0 0.017-0.001 0.034-0.004 0.050l0-0.002z"></path>
<path fill="#000" opacity="0.1" d="M12.175 17.742c-0.13 0.412-0.485 0.784-0.917 0.802-0.006 0.001-0.012 0.001-0.019 0.001-0.027 0-0.052-0.006-0.074-0.018l0.001 0c-0.054-0.034-0.056-0.113-0.033-0.173s0.061-0.114 0.067-0.178c0-0.003 0.001-0.008 0.001-0.012 0-0.010-0.001-0.019-0.003-0.028l0 0.001c0.229-0.323 0.452-0.65 0.54-1.033 0.012-0.043 0.019-0.093 0.019-0.144 0-0.021-0.001-0.041-0.003-0.061l0 0.002c-0.012-0.078-0.051-0.149-0.073-0.224-0.038-0.134-0.020-0.275-0.010-0.413 0.007-0.084 0.010-0.183 0.010-0.282 0-0.542-0.113-1.057-0.317-1.524l0.010 0.025c-0.059-0.135-0.125-0.272-0.146-0.417 0.030-0.057 0.080-0.1 0.141-0.121l0.002-0.001c0.142-0.048 0.235 0.026 0.256 0.161 0.035 0.229 0.015 0.463 0.060 0.694 0.047 0.239 0.113 0.449 0.198 0.649l-0.008-0.021c0.077 0.183 0.17 0.36 0.229 0.549 0.040 0.135 0.074 0.297 0.094 0.462l0.001 0.014c0.059 0.43 0.105 0.876-0.026 1.288z"></path>
<path fill="#000" opacity="0.1" d="M15.837 20.346c-0.027 0.095-0.099 0.169-0.19 0.198l-0.002 0.001c-0.069 0.022-0.149 0.035-0.232 0.035-0.019 0-0.038-0.001-0.056-0.002l0.002 0h-0.087c-0.294-0.198-0.656-0.315-1.045-0.315-0.075 0-0.149 0.004-0.221 0.013l0.009-0.001c-0.141 0.017-0.283 0.050-0.424 0.037-0.286-0.026-0.517-0.232-0.772-0.363-0.209-0.106-0.456-0.167-0.717-0.167-0.415 0-0.793 0.156-1.080 0.412l0.002-0.001-0.025 0.022c-0.003-0.015-0.006-0.033-0.007-0.051l-0-0.001c-0.008-0.157 0.048-0.247 0.176-0.331 0.381-0.251 0.845-0.424 1.279-0.554 0.208-0.068 0.45-0.117 0.7-0.137l0.011-0.001c0.342-0.020 0.683 0.043 1.015 0.124 0.409 0.101 0.813 0.235 1.176 0.448 0.176 0.105 0.35 0.235 0.446 0.42 0.029 0.048 0.046 0.106 0.046 0.167 0 0.017-0.001 0.034-0.004 0.050l0-0.002z"></path>
<path fill="#6c63ff" d="M16.809 15.597l-0.006 0.016c-0.097 0.252-0.276 0.465-0.39 0.71-0.144 0.311-0.18 0.659-0.212 1.001-0.028 0.293-0.055 0.587-0.033 0.88 0.055 0.723 0.409 1.409 0.503 2.118 0.015 0.1 0.023 0.215 0.023 0.331 0 0.057-0.002 0.114-0.006 0.171l0-0.008c-0.008 0.104-0.027 0.217-0.096 0.294s-0.204 0.108-0.279 0.033c0.033-0.064 0.067-0.127 0.101-0.191-0.198-0.154-0.496-0.043-0.728-0.14-0.102-0.043-0.183-0.121-0.269-0.191-0.322-0.263-0.737-0.422-1.189-0.422-0.076 0-0.15 0.004-0.224 0.013l0.009-0.001c-0.141 0.017-0.283 0.050-0.424 0.037-0.286-0.026-0.517-0.232-0.772-0.363-0.209-0.106-0.456-0.167-0.718-0.167-0.415 0-0.793 0.156-1.080 0.412l0.002-0.001c-0.061 0.056-0.142 0.122-0.217 0.087-0.029-0.018-0.052-0.043-0.067-0.072l-0-0.001c-0.284-0.485-0.075-1.111 0.228-1.583s0.705-0.908 0.83-1.456c0.012-0.043 0.019-0.092 0.019-0.143 0-0.021-0.001-0.041-0.003-0.062l0 0.002c-0.012-0.078-0.051-0.149-0.073-0.224-0.038-0.134-0.020-0.275-0.010-0.413 0.007-0.085 0.011-0.184 0.011-0.284 0-0.541-0.113-1.056-0.316-1.522l0.010 0.025c-0.069-0.162-0.152-0.326-0.152-0.501 0-0.277 0.198-0.506 0.362-0.728 0.189-0.256 0.347-0.539 0.586-0.749 0.226-0.2 0.554-0.322 0.834-0.221 0.368-0.093 0.791-0.147 1.227-0.147 0.080 0 0.16 0.002 0.239 0.005l-0.011-0c0.169 0.008 0.344 0.026 0.492 0.107 0.159 0.087 0.273 0.241 0.429 0.333 0.114 0.068 0.245 0.1 0.369 0.148 0.346 0.138 0.623 0.387 0.792 0.704l0.004 0.008c0.173 0.336 0.217 0.722 0.255 1.098 0.036 0.354 0.071 0.722-0.052 1.056z"></path>
<path fill="#000" opacity="0.1" d="M16.168 18.204c0.055 0.723 0.409 1.409 0.503 2.118-0.189-0.16-0.452-0.321-0.487-0.507-0.039-0.201-0.164-0.465-0.185-0.668s0.122-0.452-0.028-0.591c-0.073-0.068 0.121-0.049 0.050-0.119-0.16-0.156-0.199-0.395-0.209-0.618-0.017-0.394 0.033-0.792-0.039-1.179-0.043-0.239-0.134-0.466-0.206-0.698-0.084-0.27-0.145-0.547-0.206-0.824-0.053-0.208-0.099-0.463-0.128-0.722l-0.002-0.026c-0.019-0.217-0.010-0.447 0.087-0.644s0.292-0.358 0.512-0.355c0.733 0.010 0.607 1.004 0.768 1.464 0.065 0.183 0.152 0.36 0.187 0.551 0.012 0.067 0.020 0.146 0.021 0.225v0.001c-0.097 0.252-0.276 0.465-0.39 0.71-0.144 0.311-0.18 0.659-0.212 1.001-0.029 0.294-0.057 0.588-0.035 0.881z"></path>
<path fill="#6c63ff" d="M16.645 14.824c0.065 0.183 0.152 0.36 0.187 0.551 0.059 0.319-0.032 0.659 0.066 0.968 0.022 0.054 0.044 0.122 0.062 0.191l0.003 0.012c0.017 0.098-0.003 0.199-0.003 0.299 0 0.161 0.051 0.317 0.096 0.472 0.141 0.467 0.248 1.014 0.299 1.578l0.002 0.033c0.008 0.158 0.033 0.306 0.072 0.448l-0.003-0.014c0.015 0.038 0.031 0.087 0.045 0.136l0.002 0.010c0.007 0.039 0.011 0.085 0.011 0.131 0 0.024-0.001 0.049-0.003 0.073l0-0.003c-0.012 0.212-0.036 0.426-0.012 0.637s0.101 0.426 0.26 0.568c-0.142 0.031-0.293 0.062-0.431 0.016-0.195-0.064-0.312-0.26-0.411-0.439-0.126-0.228-0.603-0.434-0.653-0.69-0.039-0.201-0.163-0.464-0.184-0.668s0.121-0.451-0.028-0.591c-0.072-0.068 0.121-0.049 0.050-0.119-0.16-0.156-0.199-0.395-0.209-0.618-0.017-0.393 0.033-0.791-0.039-1.178-0.043-0.239-0.134-0.466-0.206-0.699-0.084-0.27-0.145-0.546-0.206-0.824-0.054-0.209-0.099-0.463-0.128-0.723l-0.002-0.025c-0.019-0.217-0.010-0.447 0.087-0.645s0.293-0.358 0.512-0.355c0.73 0.013 0.605 1.008 0.766 1.467z"></path>
<path fill="#000" opacity="0.1" d="M14.554 14.993c0.069 0.080 0.156 0.168 0.26 0.153-0.010 0.016-0.028 0.026-0.048 0.026-0.011 0-0.021-0.003-0.029-0.008l0 0c-0.025-0.017-0.044-0.039-0.057-0.065l-0-0.001-0.148-0.25c-0.020-0.033-0.154-0.222-0.187-0.113-0.013 0.046 0.176 0.219 0.209 0.258z"></path>
<path fill="#000" opacity="0.1" d="M14.474 15.617c-0.005-0.085-0.041-0.161-0.097-0.217v0c-0.050-0.046-0.11-0.082-0.175-0.107l-0.004-0.001c-0.163-0.067-0.355-0.121-0.531-0.112 0.064 0.094 0.27 0.15 0.373 0.202q0.219 0.113 0.434 0.234z"></path>
<path fill="#000" opacity="0.1" d="M14.936 17.393c-0.030 0.222-0.212 0.39-0.395 0.52s-0.39 0.242-0.51 0.43c-0.083 0.13-0.121 0.281-0.191 0.417-0.078 0.15-0.195 0.275-0.288 0.416s-0.166 0.308-0.137 0.475c0.001 0.016 0.008 0.030 0.020 0.040l0 0c0.007 0.003 0.014 0.004 0.022 0.004 0.012 0 0.024-0.004 0.033-0.011l-0 0c0.189-0.099 0.264-0.325 0.343-0.52 0.099-0.234 0.193-0.424 0.297-0.608l-0.016 0.030c0.047-0.087 0.098-0.181 0.186-0.229 0.048-0.021 0.109-0.043 0.171-0.061l0.011-0.003c0.090-0.042 0.166-0.102 0.225-0.176l0.001-0.001c0.216-0.257 0.348-0.591 0.348-0.956 0-0.019-0-0.038-0.001-0.057l0 0.003c-0.003-0.078-0.007-0.451-0.124-0.336s0.026 0.473 0.006 0.623z"></path>
<path fill="#a26565" d="M15.222 8.88c0.373 0.163 0.694 0.52 0.682 0.926-0.010 0.426-0.366 0.827-0.244 1.235 0.071 0.237 0.285 0.395 0.455 0.575 0.645 0.683 0.644 1.876-0.003 2.558-0.248 0.26-0.567 0.445-0.829 0.694-0.925 0.871-0.964 2.379-0.469 3.549-0.345 0.078-0.743 0.125-1.151 0.13l-0.004 0c-0.182 0-0.404-0.031-0.47-0.2-0.061-0.157 0.043-0.368-0.076-0.484-0.056-0.054-0.141-0.062-0.217-0.074-0.488-0.079-0.889-0.469-1.072-0.928s-0.173-0.976-0.069-1.459c0.075-0.349 0.191-0.733 0.018-1.045-0.217-0.393-0.84-0.558-0.831-1.007 0.008-0.368 0.442-0.547 0.688-0.821 0.454-0.504 0.238-1.285 0.237-1.964 0-0.597 0.209-1.214 0.654-1.612 0.662-0.597 1.936-0.403 2.699-0.072z"></path>
<path fill="#000" opacity="0.1" d="M11.846 13.91c-0.19-0.343-0.69-0.513-0.806-0.851-0.056 0.075-0.091 0.169-0.094 0.271l-0 0.001c-0.010 0.449 0.613 0.615 0.831 1.008 0.057 0.109 0.090 0.237 0.090 0.374 0 0.027-0.001 0.054-0.004 0.081l0-0.003c0.069-0.302 0.129-0.616-0.017-0.88z"></path>
<path fill="#000" opacity="0.1" d="M15.71 10.484c0.078-0.228 0.191-0.457 0.197-0.694 0-0.006 0-0.013 0-0.020 0-0.020-0.001-0.040-0.003-0.059l0 0.002c-0.087 0.261-0.221 0.514-0.195 0.77z"></path>
<path fill="#000" opacity="0.1" d="M11.92 11.697c0.149-0.471 0.020-1.056 0.020-1.578 0-0.063 0.003-0.127 0.007-0.19-0.049 0.185-0.077 0.398-0.077 0.617 0 0.001 0 0.001 0 0.002v-0c0.001 0.373 0.066 0.778 0.050 1.151z"></path>
<path fill="#000" opacity="0.1" d="M16.184 13.729c-0.248 0.26-0.567 0.445-0.829 0.694-0.468 0.441-0.709 1.045-0.769 1.685 0.112-0.477 0.338-0.916 0.7-1.257 0.26-0.247 0.581-0.431 0.829-0.694 0.285-0.309 0.465-0.719 0.483-1.169l0-0.004c-0.080 0.291-0.223 0.541-0.415 0.746l0.001-0.001z"></path>
<path fill="#000" opacity="0.1" d="M13.732 18.1c-0.182 0-0.404-0.031-0.47-0.201-0.061-0.156 0.043-0.368-0.076-0.484-0.056-0.054-0.141-0.062-0.217-0.074-0.488-0.078-0.888-0.469-1.071-0.927-0.135-0.339-0.164-0.709-0.13-1.074-0.003 0.014-0.007 0.029-0.010 0.043-0.103 0.483-0.114 1 0.069 1.459s0.584 0.849 1.071 0.927c0.077 0.013 0.162 0.020 0.217 0.074 0.121 0.116 0.016 0.328 0.076 0.484 0.066 0.169 0.288 0.203 0.47 0.201 0.411-0.005 0.809-0.052 1.192-0.137l-0.038 0.007c-0.044-0.1-0.092-0.228-0.133-0.36l-0.007-0.027c-0.281 0.053-0.607 0.085-0.939 0.088l-0.003 0z"></path>
<path fill="#000" opacity="0.1" d="M15.152 16.21c0.107 0.081 0.223-0.227 0.157-0.303-0.018 0.020-0.173 0.292-0.157 0.303z"></path>
<path fill="#000" opacity="0.1" d="M15.608 21.774c0.126-0.043 0.26-0.087 0.342-0.191 0.068-0.084 0.124-0.416-0.020-0.257-0.122 0.137-0.18 0.316-0.323 0.447z"></path>
<path fill="#000" opacity="0.1" d="M16.893 21.425c-0.015 0.102-0.043 0.209-0.116 0.282-0.013 0.014-0.043 0.023-0.047 0.004 0.085-0.046 0.159-0.098 0.225-0.159l-0.001 0.001c0.147-0.145 0.166-0.503-0.057-0.598-0.002 0.157 0.020 0.31-0.004 0.47z"></path>
<path fill="#454b69" d="M18.435 20.781s-1.23-0.483-1.675-0.434 0.504 0.751 0.504 0.751l0.567 0.382s0.347-0.13 0.37-0.14 0.235-0.56 0.235-0.56z"></path>
<path fill="#565661" d="M9.969 15.595s0.924-0.536 2.144 0.13 1.423 4.584 1.423 4.584-0.499 3.992 1.425 3.104c0 0 3.511-1.090 3.863-0.85 0 0 0.333 0-0.332 0.148s-3.236 0.962-3.236 0.962-0.831 0.29-1.183 0-1.35 0.037-1.479-1.959c-0.098-1.417-0.262-2.703-0.495-3.966l0.033 0.213-0.343-1.017z"></path>
<path fill="#fff" d="M9.858 21.769s0.407-4.048-0.26-5.509c-0.58-1.273 1.663-0.678 2.248-0.504 0.093 0.028 0.17 0.085 0.224 0.159l0.001 0.001c0.347 0.488 1.591 2.442 1.224 5.058 0 0-0.148 2.329 0.776 2.699l-2.848-0.917c-0.231-0.075-0.466-0.137-0.702-0.19-0.302-0.069-0.793-0.263-0.663-0.796z"></path>
<path fill="#565661" d="M30.112 29.327h0.37l0.242-4.97 0.016-0.283-0.314-0.111-0.021 0.3-0.294 5.063z"></path>
<path fill="#000" opacity="0.1" d="M30.406 24.264l0.319 0.093 0.016-0.283-0.314-0.111-0.021 0.3z"></path>
<path fill="#a26565" d="M27.025 27.407c-0.010 0.074-0.028 0.141-0.054 0.204l0.002-0.006c-0.027 0.085-0.083 0.154-0.157 0.197l-0.002 0.001c-0.047 0.020-0.102 0.032-0.16 0.032-0 0-0 0-0 0h0c-0.204 0.012-0.42 0.009-0.596-0.095-0.077-0.050-0.144-0.106-0.204-0.17l-0.001-0.001c-0.386-0.383-0.738-0.8-1.052-1.245l-0.020-0.029c-0.053-0.077-0.108-0.167-0.085-0.26 0.441-0.124 0.827-0.306 1.175-0.54l-0.014 0.009c0.047-0.036 0.101-0.066 0.159-0.086l0.004-0.001c0.056-0.012 0.12-0.020 0.185-0.020 0.043 0 0.085 0.003 0.126 0.009l-0.005-0.001c0.098 0.016 0.103 0.019 0.14 0.13 0.062 0.188 0.052 0.39 0.122 0.578 0.049 0.114 0.104 0.211 0.166 0.303l-0.004-0.006c0.181 0.303 0.32 0.661 0.272 0.997z"></path>
<path fill="#000" opacity="0.1" d="M27.025 27.407c-0.010 0.074-0.028 0.141-0.054 0.204l0.002-0.006c-0.027 0.085-0.083 0.154-0.157 0.197l-0.002 0.001c-0.047 0.020-0.102 0.032-0.16 0.032-0 0-0 0-0 0h0c-0.204 0.012-0.42 0.009-0.596-0.095-0.077-0.050-0.144-0.106-0.204-0.17l-0.001-0.001c-0.386-0.383-0.738-0.8-1.052-1.245l-0.020-0.029c-0.053-0.077-0.108-0.167-0.085-0.26 0.163-0.045 0.295-0.091 0.424-0.142l-0.027 0.010 0.006 0.005c0.133 0.095 0.23 0.231 0.324 0.365l0.303 0.427c0.056 0.087 0.119 0.162 0.19 0.229l0.001 0c0.085 0.069 0.182 0.128 0.286 0.174l0.008 0.003c0.143 0.069 0.285 0.138 0.434 0.193 0.096 0.039 0.258 0.054 0.377 0.108z"></path>
<path fill="#454b69" d="M27.305 22.778c-0.033 0.080-0.070 0.148-0.111 0.212l0.003-0.005c-0.377 0.622-0.693 1.34-0.909 2.1l-0.015 0.062c-0.060-0.013-0.094 0.068-0.093 0.13s0 0.14-0.057 0.163c-0.017 0.006-0.036 0.006-0.052 0.014-0.036 0.016-0.047 0.063-0.052 0.103l-0.051 0.375c-0.018 0.13-0.033 0.271 0.030 0.386 0.045 0.069 0.101 0.127 0.166 0.172l0.002 0.001 0.846 0.668c0.035 0.027 0.078 0.056 0.119 0.041 0.095-0.035 0.011-0.205 0.087-0.274 0.050-0.047 0.13-0.012 0.2-0.017 0.091-0.007 0.16-0.091 0.183-0.179 0.009-0.045 0.013-0.097 0.013-0.15 0-0.043-0.003-0.085-0.009-0.126l0.001 0.005c-0.002-0.010-0.002-0.022-0.002-0.034 0-0.032 0.006-0.062 0.017-0.090l-0.001 0.002c0.026-0.041 0.061-0.075 0.102-0.099l0.001-0.001c0.278-0.205 0.456-0.531 0.456-0.898 0-0.014-0-0.028-0.001-0.042l0 0.002c-0.003-0.019-0.004-0.042-0.004-0.064 0-0.036 0.004-0.071 0.011-0.105l-0.001 0.003c0.019-0.053 0.046-0.098 0.079-0.138l-0.001 0.001c0.307-0.416 0.564-0.867 0.818-1.317 0.147-0.26 0.296-0.524 0.347-0.817 0.004-0.008 0.006-0.018 0.006-0.029 0-0.039-0.030-0.071-0.068-0.075l-0-0c-0.106-0.035-0.236-0.067-0.37-0.090l-0.018-0.003c-0.398-0.081-0.783-0.205-1.17-0.325s-0.385 0.124-0.501 0.437z"></path>
<path fill="#565661" d="M25.473 30.378l0.61 0.074 2.81-6.377 0.758-0.055 1.331 0.388 0.258 7.593h0.61l-0.24-7.87 1.46 0.037 2.606 6.488h0.554l-2.846-7.875-4.085-0.14-1.018 0.571-0.013 0.033-2.795 7.134z"></path>
<path fill="#000" opacity="0.1" d="M28.268 23.244c0.878 0.264 1.789 0.553 1.789 0.553s0.831 0.29 1.183 0c0.042-0.033 0.091-0.061 0.143-0.080l0.004-0.001c-0.042 0.031-0.091 0.058-0.142 0.079l-0.005 0.002 2.25-0.725-0.104-0.292-4.085-0.14-1.018 0.571z"></path>
<path fill="#fff" d="M32.423 21.986l-1.663-0.37s-3.974 0.74-4.27 1.035c0 0 3.179 0.647 3.53 0.867s2.44 0.464 2.403-1.532z"></path>
<path fill="#a26565" d="M26.251 27.928c-0.1 0.191-0.347 0.244-0.564 0.248-0.009 0-0.019 0-0.029 0-0.306 0-0.599-0.058-0.868-0.163l0.016 0.006c-0.16-0.062-0.314-0.141-0.48-0.186-0.247-0.068-0.52-0.062-0.737-0.198-0.115-0.077-0.208-0.178-0.275-0.296l-0.002-0.004c-0.013-0.021-0.025-0.043-0.036-0.066-0.104-0.202-0.152-0.436-0.094-0.654s0.267-0.457 0.51-0.454c0.288 0.004 0.632 0.141 0.91 0.212 0.347 0.087 0.694 0.187 1 0.37 0.257 0.154 0.483 0.376 0.604 0.646 0.021 0.045 0.040 0.098 0.055 0.154l0.002 0.008c0.038 0.125 0.046 0.264-0.013 0.378z"></path>
<path fill="#000" opacity="0.1" d="M26.251 27.928c-0.1 0.191-0.347 0.244-0.564 0.248-0.009 0-0.019 0-0.029 0-0.306 0-0.599-0.058-0.868-0.163l0.016 0.006c-0.16-0.062-0.314-0.141-0.48-0.186-0.247-0.068-0.52-0.062-0.737-0.198-0.115-0.077-0.208-0.178-0.275-0.296l-0.002-0.004c-0.013-0.021-0.025-0.043-0.036-0.066 0.043 0.003 0.083 0.008 0.105 0.010 0.266 0.026 0.52 0.123 0.774 0.196 0.322 0.097 0.693 0.158 1.077 0.169l0.006 0c0.26 0.007 0.531-0.012 0.759-0.139 0.058-0.038 0.127-0.076 0.199-0.111l0.012-0.005c0.021 0.045 0.040 0.098 0.055 0.154l0.002 0.008c0.036 0.125 0.045 0.264-0.015 0.378z"></path>
<path fill="#454b69" d="M28.113 19.685c-0.564-0.092-1.138-0.115-1.709-0.137l-0.699-0.028c-0.011-0.001-0.024-0.002-0.036-0.002-0.040 0-0.078 0.007-0.113 0.021l0.002-0.001c-0.043 0.028-0.081 0.056-0.116 0.088l0.001-0.001c-0.070 0.048-0.16 0.053-0.244 0.058-0.656 0.037-1.268 0.119-1.864 0.246l0.080-0.014c-0.303 0.062-0.619 0.143-0.847 0.352-0.241 0.222-0.347 0.559-0.355 0.886s0.078 0.648 0.168 0.962c0.11 0.346 0.178 0.745 0.189 1.158l0 0.006c-0.001 0.024-0.002 0.052-0.002 0.081 0 0.087 0.005 0.173 0.015 0.258l-0.001-0.010c0.023 0.115 0.054 0.217 0.095 0.314l-0.004-0.010 0.319 0.852c0.028 0.075 0.056 0.149 0.087 0.222s0.060 0.13 0.087 0.199c0.039 0.094 0.070 0.191 0.101 0.287l0.212 0.667 0.028 0.087c0.077 0.24 0.155 0.485 0.3 0.691s0.369 0.373 0.621 0.385c0.021-0.001 0.046-0.001 0.071-0.001 0.061 0 0.121 0.003 0.18 0.008l-0.008-0.001c0.076 0.019 0.143 0.044 0.206 0.075l-0.006-0.003c0.173 0.074 0.374 0.117 0.585 0.117 0.004 0 0.008-0 0.013-0h-0.001c0.189 0 0.398-0.052 0.5-0.211 0.056-0.087 0.071-0.193 0.087-0.296 0.027-0.206 0.054-0.42-0.016-0.615-0.043-0.117-0.116-0.217-0.166-0.332-0.070-0.157-0.093-0.329-0.139-0.495-0.104-0.367-0.305-0.679-0.574-0.915l-0.002-0.002c-0.088-0.33-0.164-0.733-0.213-1.144l-0.004-0.043c-0.007-0.095-0.026-0.184-0.055-0.267l0.002 0.007c-0.051-0.13-0.153-0.235-0.196-0.368-0.040-0.123-0.028-0.265-0.101-0.372 0.61 0.168 1.214 0.13 1.847 0.12 0.005 0 0.010 0 0.016 0 0.208 0 0.413-0.013 0.615-0.037l-0.024 0.002c0.084-0.016 0.181-0.027 0.281-0.030l0.003-0c0.196 0 0.38 0.087 0.56 0.163 0.509 0.217 1.044 0.387 1.597 0.411 0.57 0.024 1.134-0.11 1.691-0.243 0.245-0.059 0.499-0.122 0.694-0.283s0.303-0.451 0.184-0.671c-0.091-0.166-0.28-0.248-0.456-0.317-0.487-0.192-0.977-0.38-1.447-0.613-0.717-0.349-1.253-1.13-2.039-1.26z"></path>
<path fill="#a1616a" d="M27.109 17.724c-0.068 0.147-0.183 0.268-0.267 0.407-0.097 0.154-0.154 0.342-0.154 0.543 0 0.079 0.009 0.156 0.026 0.23l-0.001-0.007c0.064 0.266 0.244 0.481 0.482 0.591l0.005 0.002c0.099 0.041 0.213 0.070 0.333 0.081l0.005 0c0.153 0.019 0.315 0.023 0.45-0.051 0.101-0.061 0.182-0.146 0.238-0.247l0.002-0.003c0.117-0.195 0.183-0.415 0.244-0.634 0.112-0.404 0.208-0.818 0.194-1.238-0.005-0.144-0.033-0.307-0.153-0.39-0.058-0.034-0.126-0.057-0.199-0.066l-0.002-0-0.572-0.102c-0.111-0.020-0.303-0.101-0.399-0.021s-0.103 0.316-0.12 0.426c-0.026 0.163-0.042 0.329-0.111 0.48z"></path>
<path fill="#a1616a" d="M34.059 16.047l-0.15 1.254c-0.029 0.198-0.048 0.432-0.053 0.668l-0 0.006c0 0.126 0.004 0.265-0.079 0.359-0.040 0.042-0.090 0.073-0.147 0.089l-0.002 0.001c-0.182 0.056-0.38 0.006-0.553-0.072-0.101-0.043-0.205-0.106-0.251-0.207-0.021-0.054-0.034-0.118-0.034-0.183 0-0.013 0-0.025 0.001-0.038l-0 0.002c0-0.748 0.071-1.528 0.461-2.165 0.034-0.064 0.081-0.117 0.136-0.158l0.001-0.001c0.108-0.069 0.25-0.050 0.373-0.012 0.075 0.023 0.279 0.049 0.327 0.116s-0.020 0.255-0.031 0.341z"></path>
<path fill="#a1616a" d="M31.652 9.953c0 0.862-0.699 1.561-1.561 1.561s-1.561-0.699-1.561-1.561c0-0.862 0.699-1.561 1.561-1.561s1.561 0.699 1.561 1.561z"></path>
<path fill="#a1616a" d="M29.674 12.279c-0.006 0.128-0.041 0.247-0.099 0.351l0.002-0.004q1.195-0.182 2.384-0.406c-0.261-0.136-0.459-0.365-0.551-0.642l-0.002-0.008c-0.041-0.138-0.066-0.297-0.070-0.461l-0-0.002c-0.004-0.081-0.007-0.175-0.007-0.271 0-0.167 0.008-0.333 0.023-0.496l-0.002 0.021c-0.277 0.029-0.54 0.133-0.805 0.222-0.209 0.075-0.48 0.153-0.757 0.216l-0.053 0.010c-0.132 0.029-0.265 0.055-0.399 0.078-0.156 0.028-0.231 0.027-0.123 0.164 0.291 0.366 0.499 0.738 0.458 1.227z"></path>
<path fill="#6c63ff" d="M30.153 12.070c-0.206 0.031-0.422 0.065-0.586 0.193-0.064 0.055-0.122 0.111-0.177 0.17l-0.001 0.001c-0.326 0.317-0.787 0.444-1.183 0.668-0.066 0.033-0.122 0.078-0.168 0.131l-0.001 0.001c-0.043 0.060-0.065 0.137-0.111 0.197-0.053 0.069-0.137 0.113-0.178 0.189s-0.032 0.158-0.036 0.24c-0.010 0.179-0.078 0.349-0.13 0.52-0.241 0.82-0.109 1.734-0.473 2.508 0.035 0.091 0.103 0.162 0.189 0.199l0.002 0.001c0.083 0.031 0.18 0.053 0.281 0.061l0.004 0 0.807 0.1c0.115 0.014 0.238 0.028 0.343-0.020-0.089 0.236-0.16 0.513-0.201 0.799l-0.003 0.021c-0.023 0.195-0.055 0.368-0.097 0.536l0.006-0.028c-0.111 0.381-0.39 0.699-0.721 0.916-0.042 0.022-0.077 0.054-0.101 0.093l-0.001 0.001c-0.043 0.087 0.021 0.184 0.066 0.269 0.132 0.246 0.114 0.542 0.112 0.821s0.026 0.586 0.222 0.786c0.115 0.118 0.273 0.183 0.427 0.244l1.262 0.504c0.177 0.078 0.391 0.153 0.612 0.21l0.031 0.007c0.332 0.076 0.678 0.073 1.019 0.058q0.338-0.014 0.675-0.043c0.094-0 0.182-0.025 0.258-0.069l-0.003 0.001c0.066-0.053 0.117-0.121 0.148-0.2l0.001-0.003c0.176-0.382 0.235-0.828 0.507-1.148 0.187-0.22 0.477-0.395 0.498-0.683 0.010-0.143-0.054-0.282-0.055-0.426 0-0.176 0.092-0.344 0.087-0.52-0.012-0.287-0.282-0.505-0.325-0.789-0.109-0.719 0.256-1.437 0.48-2.128 0.040-0.124 0.092-0.26 0.211-0.313s0.286-0.025 0.329-0.142c0.107-0.294 0.133-0.639 0.119-0.951-0.008-0.181-0.072-0.358-0.065-0.539 0.005-0.127 0.046-0.251 0.057-0.378 0.016-0.192-0.034-0.383-0.087-0.568-0.017-0.073-0.040-0.137-0.070-0.197l0.002 0.005c-0.034-0.059-0.071-0.109-0.113-0.156l0.001 0.001-0.211-0.251c-0.099-0.117-0.203-0.239-0.347-0.299-0.046-0.115-0.195-0.194-0.301-0.258-0.090-0.053-0.199-0.107-0.311-0.155l-0.020-0.008-1.194-0.527c-0.041-0.021-0.089-0.037-0.139-0.046l-0.003-0c-0.005-0-0.010-0-0.015-0-0.071 0-0.138 0.016-0.198 0.045l0.003-0.001c-0.364 0.144-0.744 0.288-1.134 0.346z"></path>
<path fill="#464353" d="M28.889 10.224c-0.046-0.162-0.163-0.301-0.181-0.469-0.016-0.149 0.049-0.293 0.087-0.437s0.036-0.322-0.079-0.418c-0.019-0.016-0.043-0.031-0.050-0.056-0.014-0.043 0.030-0.083 0.043-0.127 0.025-0.087-0.082-0.182-0.043-0.266 0.022-0.046 0.078-0.062 0.126-0.076 0.186-0.055 0.374-0.177 0.414-0.367 0.145 0.061 0.3-0.053 0.411-0.164s0.248-0.237 0.402-0.203l-0.034 0.070c0.113-0.042 0.243-0.067 0.379-0.067 0.127 0 0.249 0.021 0.363 0.061l-0.008-0.002h-0.073c0.219 0.004 0.42 0.077 0.583 0.198l-0.003-0.002c-0.019 0-0.020 0.028-0.013 0.043 0.061 0.142 0.217 0.217 0.367 0.252 0.091 0.022 0.189 0.037 0.255 0.102s0.068 0.201-0.020 0.232c0.192 0.076 0.358 0.168 0.51 0.278l-0.007-0.005c0.043 0.032 0.092 0.075 0.087 0.13-0.007 0.031-0.016 0.058-0.028 0.084l0.001-0.003c-0.003 0.015-0.005 0.033-0.005 0.052 0 0.031 0.005 0.061 0.014 0.089l-0.001-0.002 0.048 0.199c0.053 0.221 0.094 0.486-0.066 0.646 0.044 0.081 0.070 0.178 0.070 0.28 0 0.164-0.067 0.313-0.175 0.421l-0 0c0.009 0.027 0.014 0.058 0.014 0.090 0 0.139-0.098 0.255-0.229 0.283l-0.002 0c0.053 0.083 0.004 0.202-0.080 0.254s-0.19 0.052-0.288 0.043-0.197-0.031-0.295-0.016c-0.143 0.022-0.282 0.119-0.42 0.076-0.057-0.024-0.105-0.051-0.15-0.081l0.003 0.002c-0.096-0.052-0.208-0.063-0.315-0.087-0.193-0.042-0.363-0.117-0.514-0.22l0.005 0.003c-0.102-0.062-0.182-0.151-0.232-0.257l-0.002-0.004c-0.095-0.241 0.065-0.557-0.104-0.753-0.099-0.114-0.295-0.116-0.405-0.018-0.055 0.049-0.062 0.152-0.12 0.189-0.056 0.015-0.12 0.023-0.186 0.023-0.021 0-0.041-0.001-0.062-0.002l0.003 0z"></path>
<path fill="#000" opacity="0.1" d="M26.768 22.655c-0.061-0.049-0.114-0.106-0.156-0.171l-0.002-0.003c-0.032-0.049-0.051-0.11-0.051-0.175 0-0.017 0.001-0.034 0.004-0.051l-0 0.002c-0.006 0.033-0.009 0.070-0.009 0.108 0 0.172 0.068 0.328 0.178 0.443l-0-0c0.109 0.111 0.313 0.221 0.472 0.183-0.023-0.127-0.335-0.251-0.436-0.336z"></path>
<path fill="#565661" d="M35.344 15.682s-0.924-0.536-2.144 0.13-1.423 4.584-1.423 4.584 0.499 3.992-1.425 3.104c0 0-3.511-1.090-3.863-0.85 0 0-0.333 0 0.332 0.148s3.236 0.962 3.236 0.962 0.831 0.29 1.183 0 1.35 0.037 1.479-1.959c0.098-1.417 0.262-2.703 0.495-3.966l-0.033 0.213 0.343-1.017z"></path>
<path fill="#fff" d="M35.455 21.856s-0.407-4.048 0.26-5.509c0.58-1.273-1.663-0.678-2.248-0.504-0.093 0.028-0.17 0.085-0.224 0.159l-0.001 0.001c-0.347 0.488-1.591 2.442-1.224 5.058 0 0 0.148 2.329-0.776 2.699l2.848-0.917c0.231-0.075 0.466-0.137 0.702-0.19 0.302-0.069 0.793-0.263 0.663-0.796z"></path>
<path fill="#6c63ff" opacity="0.1" d="M47.144 29.049c0 0.375-1.891 0.678-4.224 0.678s-4.224-0.304-4.224-0.678c0-0.375 1.891-0.678 4.224-0.678s4.224 0.304 4.224 0.678z"></path>
<path fill="#535461" d="M42.784 16.052h0.272v6.12h-0.272v-6.12z"></path>
<path fill="#565661" d="M44.764 22.153l-0.017 0.276-0.024 0.39-0.010 0.162-0.024 0.39-0.010 0.162-0.024 0.39-0.274 4.425c-0.027 0.392-0.351 0.7-0.748 0.701h-1.425c-0.397-0-0.722-0.31-0.747-0.701l-0-0.002-0.275-4.425-0.024-0.39-0.010-0.162-0.025-0.39-0.010-0.162-0.024-0.39-0.017-0.276c-0-0.007-0.001-0.014-0.001-0.022 0-0.215 0.174-0.389 0.388-0.39h2.914c0.215 0.001 0.388 0.175 0.388 0.39 0 0.009-0 0.018-0.001 0.026l0-0.001z"></path>
<path fill="#9d9cb5" d="M44.747 22.429l-0.024 0.389h-3.606l-0.024-0.389h3.654z"></path>
<path fill="#9d9cb5" d="M44.713 22.98l-0.024 0.389h-3.538l-0.024-0.389h3.586z"></path>
<path fill="#9d9cb5" d="M44.679 23.532l-0.024 0.389h-3.469l-0.024-0.389h3.517z"></path>
<path fill="#6c63ff" d="M40.678 18.346c1.583 1.145 2.243 2.937 2.243 2.937s-1.907-0.065-3.491-1.211-2.242-2.936-2.242-2.936 1.908 0.065 3.491 1.21z"></path>
<path fill="#6c63ff" d="M41.699 16.039c0.862 0.623 1.221 1.598 1.221 1.598s-1.040-0.036-1.9-0.659-1.218-1.598-1.218-1.598 1.036 0.036 1.897 0.659z"></path>
<path fill="#6c63ff" d="M44.172 17.587c-0.99 1.088-1.199 2.509-1.199 2.509s1.395-0.342 2.384-1.431 1.199-2.509 1.199-2.509-1.395 0.343-2.384 1.431z"></path>
<path fill="#dfe6f5" d="M24.149 14.969v0.099h-2.931v-0.080c0.086-0.033 0.161-0.073 0.229-0.123l-0.003 0.002c0.245-0.177 0.402-0.461 0.402-0.783 0-0 0-0 0-0v0c0-0 0-0 0-0.001 0-0.084-0.011-0.166-0.031-0.243l0.002 0.007c-0.074-0.286-0.27-0.516-0.526-0.636l-0.006-0.002h2.845c-0.263 0.123-0.458 0.352-0.531 0.632l-0.002 0.007c-0.019 0.070-0.029 0.151-0.029 0.235 0 0.001 0 0.002 0 0.002v-0c0 0 0 0 0 0.001 0 0.321 0.157 0.606 0.399 0.78l0.003 0.002c0.052 0.038 0.111 0.072 0.174 0.099l0.006 0.002z"></path>
<path fill="#000" opacity="0.1" d="M24.13 13.208c-0.263 0.123-0.458 0.352-0.531 0.632l-0.002 0.007h-1.78c-0.074-0.286-0.27-0.516-0.526-0.636l-0.006-0.002z"></path>
<path fill="#dfe6f5" d="M17.863 12.703v0.557c0 0.307 0.225 0.556 0.502 0.556h8.623c0.277 0 0.502-0.249 0.502-0.556v-0.557z"></path>
<path fill="#000" opacity="0.1" d="M24.149 14.969v0.099h-2.931v-0.080c0.086-0.033 0.161-0.073 0.229-0.123l-0.003 0.002h2.525c0.052 0.038 0.111 0.072 0.174 0.099l0.006 0.002z"></path>
<path fill="#dfe6f5" d="M20.397 14.898h4.574c0.081 0 0.147 0.066 0.147 0.147v-0c0 0.081-0.066 0.147-0.147 0.147h-4.574c-0.081 0-0.147-0.066-0.147-0.147v0c0-0.081 0.066-0.147 0.147-0.147z"></path>
<path fill="#474157" d="M27.49 6.607c0-0.277-0.225-0.502-0.502-0.502-0 0-0 0-0 0h-8.623c-0 0-0 0-0 0-0.277 0-0.502 0.225-0.502 0.502 0 0 0 0 0 0v-0 6.205h9.627z"></path>
<path fill="#4c4c78" d="M27.227 6.831v5.332c0 0 0 0 0 0 0 0.136-0.111 0.247-0.247 0.247 0 0 0 0 0 0h-8.608c0 0 0 0 0 0-0.136 0-0.247-0.111-0.247-0.247 0-0 0-0 0-0v0-5.332c0-0 0-0.001 0-0.001 0-0.045 0.012-0.087 0.034-0.123l-0.001 0.001c0.044-0.074 0.123-0.124 0.214-0.124 0 0 0 0 0 0h8.608c0.136 0 0.247 0.111 0.247 0.247v0z"></path>
<path fill="#fff" d="M22.792 6.344c0 0.064-0.052 0.116-0.116 0.116s-0.116-0.052-0.116-0.116c0-0.064 0.052-0.116 0.116-0.116s0.116 0.052 0.116 0.116z"></path>
<path fill="#fff" d="M22.962 13.283c0 0.158-0.128 0.286-0.286 0.286s-0.286-0.128-0.286-0.286c0-0.158 0.128-0.286 0.286-0.286s0.286 0.128 0.286 0.286z"></path>
<path fill="#c8cad7" d="M27.227 6.831h-9.101c0-0.136 0.111-0.247 0.247-0.247h8.607c0.136 0 0.247 0.111 0.247 0.247v0z"></path>
<path fill="#ededf4" d="M18.435 6.707c0 0.034-0.028 0.062-0.062 0.062s-0.062-0.028-0.062-0.062c0-0.034 0.028-0.062 0.062-0.062s0.062 0.028 0.062 0.062z"></path>
<path fill="#ededf4" d="M18.62 6.707c0 0.034-0.028 0.062-0.062 0.062s-0.062-0.028-0.062-0.062c0-0.034 0.028-0.062 0.062-0.062s0.062 0.028 0.062 0.062z"></path>
<path fill="#ededf4" d="M18.806 6.707c0 0.034-0.028 0.062-0.062 0.062s-0.062-0.028-0.062-0.062c0-0.034 0.028-0.062 0.062-0.062s0.062 0.028 0.062 0.062z"></path>
</svg>
