<!-- Generated by IcoMoon.io -->
<svg version="1.1" xmlns="http://www.w3.org/2000/svg" width="54" height="32" viewBox="0 0 54 32">
<title>responsive</title>
<path fill="#6c63ff" opacity="0.2" d="M7.914 0.007c-0.421-0.012-0.853 0-1.248 0.121-1.075 0.33-1.585 1.411-1.419 2.346s0.847 1.748 1.555 2.492 1.474 1.479 1.862 2.369c0.193 0.444 0.284 0.941 0.087 1.384-0.303 0.683-1.218 1.065-2.095 1.144s-1.759-0.075-2.64-0.127c-0.37-0.021-0.75-0.024-1.098 0.076-0.382 0.109-0.7 0.331-0.993 0.563-1.142 0.909-2.057 2.148-1.909 3.45 0.167 1.476 1.659 2.642 3.293 3.268 0.541 0.209 1.113 0.375 1.59 0.671 1.255 0.78 1.536 2.244 1.411 3.536s-0.55 2.585-0.314 3.865c0.279 1.489 1.512 2.835 3.175 3.463 1.482 0.56 3.337 0.523 4.652-0.267 0.641-0.386 1.127-0.922 1.548-1.476 0.595-0.77 1.111-1.648 1.51-2.588l0.029-0.078c0.183-0.444 0.356-0.921 0.784-1.23 0.261-0.19 0.6-0.296 0.935-0.378 1.010-0.249 2.074-0.317 3.093-0.538s2.045-0.636 2.599-1.373c0.784-1.046 0.418-2.385 0.422-3.614 0.006-2.805 2.044-5.316 2.797-8.050 0.246-0.893 0.337-1.882-0.212-2.679-0.373-0.541-1.002-0.932-1.662-1.233-1.454-0.663-3.106-0.959-4.731-1.246-2.259-0.399-5.002-0.451-6.752-1.743-1.68-1.24-3.979-2.126-6.27-2.126z"></path>
<path fill="#f5f5f5" d="M54.157 25.487c0 3.595-10.883 6.509-24.308 6.509s-24.308-2.914-24.308-6.509c0-3.595 10.883-6.509 24.308-6.509s24.308 2.914 24.308 6.509z"></path>
<path fill="#6c63ff" d="M50.036 9.772s-1.873 1.873-0.816 4.652-1.813 7.402-1.813 7.402 0.031-0.005 0.088-0.015c3.847-0.68 5.759-5.079 3.62-8.348-0.795-1.215-1.448-2.639-1.079-3.692z"></path>
<path fill="#6c63ff" d="M53.373 17.348s-2.138-0.34-2.332 1.575-4.11 2.181-4.11 2.181l0.073 0.049c3.233 2.122 6.325 1.352 5.855-1.464-0.171-1.050-0.157-2.102 0.514-2.341z"></path>
<path fill="#f5f5f5" opacity="0.2" d="M53.373 17.348s-2.138-0.34-2.332 1.575-4.11 2.181-4.11 2.181l0.073 0.049c3.233 2.122 6.325 1.352 5.855-1.464-0.171-1.050-0.157-2.102 0.514-2.341z"></path>
<path fill="#deacd4" d="M48.426 21.955h-3.358c0.074-0.145 0.117-0.317 0.117-0.499 0-0.001 0-0.001 0-0.002v0-15.294c0-0.621-0.503-1.124-1.124-1.124v0h-25.999c-0 0-0 0-0.001 0-0.621 0-1.124 0.503-1.124 1.124v0 15.294c0 0.001 0 0.001 0 0.002 0 0.182 0.043 0.353 0.12 0.505l-0.003-0.006h-3.477c-0.164 0-0.297 0.133-0.297 0.297v0 0.24c0.001 0.918 0.745 1.662 1.663 1.662h32.117c0.919 0 1.663-0.745 1.663-1.663v0-0.24c-0.001-0.164-0.134-0.296-0.297-0.296 0 0 0 0 0 0v0zM27.731 22.907l-0.286-0.327h7.147l-0.319 0.327z"></path>
<path fill="#535461" d="M18.472 5.253h25.176c0.672 0 1.216 0.544 1.216 1.216v14.714c0 0.672-0.544 1.216-1.216 1.216h-25.176c-0.672 0-1.216-0.544-1.216-1.216v-14.714c0-0.672 0.544-1.216 1.216-1.216z"></path>
<path fill="#fff" d="M17.837 7.753h26.387v14.007h-26.387v-14.007z"></path>
<path fill="#fff" d="M31.263 6.532c0 0.128-0.104 0.233-0.233 0.233s-0.233-0.104-0.233-0.233c0-0.128 0.104-0.233 0.233-0.233s0.233 0.104 0.233 0.233z"></path>
<path fill="#535461" d="M35.105 21.788l-0.907 0.93h-6.393l-0.819-0.93h-13.013c-0.161 0-0.291 0.13-0.291 0.291v0 0.234c0 0.898 0.728 1.626 1.626 1.626v0h31.389c0.898 0 1.626-0.728 1.626-1.626v0-0.234c0-0.161-0.13-0.291-0.291-0.291v0z"></path>
<path fill="#a1de9c" d="M26.054 8.245h-11.131c-0 0-0.001 0-0.001 0-0.563 0-1.019 0.456-1.020 1.018v15.421c0.001 0.563 0.457 1.018 1.020 1.018 0 0 0.001 0 0.001 0h11.131c0 0 0.001 0 0.001 0 0.563 0 1.019-0.456 1.020-1.018v-15.421c-0.001-0.563-0.457-1.018-1.020-1.018-0 0-0.001 0-0.001 0h0z"></path>
<path fill="#535461" d="M15.104 8.454h10.769c0.577 0 1.046 0.468 1.046 1.046v15.003c0 0.577-0.468 1.046-1.046 1.046h-10.769c-0.577 0-1.046-0.468-1.046-1.046v-15.003c0-0.577 0.468-1.046 1.046-1.046z"></path>
<path fill="#fff" d="M14.712 10.071h11.553v13.86h-11.553v-13.86z"></path>
<path fill="#fff" d="M20.593 9.238c0 0.087-0.070 0.157-0.157 0.157s-0.157-0.070-0.157-0.157c0-0.087 0.070-0.157 0.157-0.157s0.157 0.070 0.157 0.157z"></path>
<path fill="#fff" d="M20.907 24.712c0 0.26-0.211 0.47-0.47 0.47s-0.47-0.211-0.47-0.47c0-0.26 0.211-0.47 0.47-0.47s0.47 0.211 0.47 0.47z"></path>
<path fill="#33ead0" d="M17.57 13.473h-5.715c-0 0-0.001 0-0.001 0-0.312 0-0.565 0.252-0.565 0.564v12.516c0.001 0.312 0.253 0.564 0.565 0.564 0 0 0.001 0 0.001 0h5.715c0 0 0.001 0 0.001 0 0.312 0 0.564-0.252 0.565-0.564v-12.516c-0.001-0.312-0.253-0.564-0.565-0.564-0 0-0.001 0-0.001 0h0z"></path>
<path fill="#535461" d="M11.915 13.577h5.593c0.318 0 0.575 0.257 0.575 0.575v12.337c0 0.318-0.257 0.575-0.575 0.575h-5.593c-0.318 0-0.575-0.257-0.575-0.575v-12.337c0-0.318 0.257-0.575 0.575-0.575z"></path>
<path fill="#fff" d="M11.837 14.832h5.75v10.978h-5.75v-10.978z"></path>
<path fill="#fff" d="M14.085 14.204c0 0.029-0.023 0.052-0.052 0.052s-0.052-0.023-0.052-0.052c0-0.029 0.023-0.052 0.052-0.052s0.052 0.023 0.052 0.052z"></path>
<path fill="#fff" d="M14.346 14.152h1.046c0.029 0 0.052 0.023 0.052 0.052s-0.023 0.052-0.052 0.052h-1.046c-0.029 0-0.052-0.023-0.052-0.052s0.023-0.052 0.052-0.052z"></path>
<path fill="#fff" d="M15.052 26.332c0 0.202-0.164 0.366-0.366 0.366s-0.366-0.164-0.366-0.366c0-0.202 0.164-0.366 0.366-0.366s0.366 0.164 0.366 0.366z"></path>
<path fill="#6c63ff" d="M11.262 19.431c0 0.289-0.523 1.124-0.523 1.124s-0.523-0.836-0.523-1.124c0-0.289 0.234-0.523 0.523-0.523s0.523 0.234 0.523 0.523v0z"></path>
<path fill="#6c63ff" d="M12.127 21.028c-0.157 0.242-1.050 0.66-1.050 0.66s0.016-0.986 0.173-1.228c0.092-0.156 0.26-0.259 0.451-0.259 0.289 0 0.523 0.234 0.523 0.523 0 0.114-0.037 0.219-0.098 0.305l0.001-0.002z"></path>
<path fill="#6c63ff" d="M12.088 23.758c-0.258 0.13-1.239 0.040-1.239 0.040s0.512-0.843 0.769-0.972c0.063-0.029 0.137-0.046 0.215-0.046 0.289 0 0.523 0.234 0.523 0.523 0 0.195-0.107 0.365-0.265 0.455l-0.003 0.001z"></path>
<path fill="#6c63ff" d="M11.594 25.817c-0.232 0.172-1.215 0.249-1.215 0.249s0.362-0.917 0.594-1.088c0.082-0.055 0.182-0.088 0.29-0.088 0.289 0 0.523 0.234 0.523 0.523 0 0.163-0.074 0.308-0.191 0.404l-0.001 0.001z"></path>
<path fill="#6c63ff" d="M9.979 21.745c0.209 0.201 1.17 0.409 1.17 0.409s-0.236-0.957-0.443-1.158c-0.096-0.102-0.231-0.165-0.381-0.165-0.289 0-0.523 0.234-0.523 0.523 0 0.156 0.068 0.295 0.176 0.391l0.001 0z"></path>
<path fill="#6c63ff" d="M9.433 24.16c0.258 0.13 1.239 0.040 1.239 0.040s-0.512-0.843-0.769-0.972c-0.073-0.042-0.162-0.067-0.255-0.067-0.289 0-0.523 0.234-0.523 0.523 0 0.211 0.125 0.392 0.304 0.475l0.003 0.001z"></path>
<path fill="#6c63ff" d="M9.224 26.58c0.232 0.172 1.215 0.249 1.215 0.249s-0.362-0.917-0.594-1.088c-0.082-0.055-0.182-0.088-0.29-0.088-0.289 0-0.523 0.234-0.523 0.523 0 0.163 0.074 0.308 0.191 0.404l0.001 0.001z"></path>
<path fill="#9a5964" d="M52.013 20.553c-0.579-0.702-1.28-1.509-1.181-2.443 0.079-0.756-0.111-1.456-0.073-2.215 0.052-1.078-0.164-1.923-0.941-2.614-0.454-0.404-1.212-0.721-1.438-0.64-0.447 0.16-0.936 0.099-1.396 0.209-0.35 0.082-0.582 0.209-0.727 0.366-0.29 0.261-0.295 0.627-0.163 1.017-0.132 0.238-0.21 0.521-0.21 0.823 0 0.711 0.432 1.321 1.047 1.582l0.011 0.004c-0.323 0.135-0.601 0.445-0.71 1.076-0.086 0.485-0.204 0.912-0.358 1.322l0.017-0.051c-0.055 0.027-0.124 0.055-0.195 0.080l-0.015 0.004c0.016 0.006 0.032 0.010 0.048 0.016-0.034 0.013-0.067 0.026-0.105 0.038 0.054 0.022 0.118 0.041 0.184 0.054l0.007 0.001c-0.418 1.056-0.941 1.711-0.941 1.711s-0.975 0.215-1.354-0.162c0 0 0.062 0.072 0.145 0.18-0.371-0.154-0.979-0.405-1.499-0.611-0.377-0.15-0.474 0-0.47 0.209-0.098 0.013-0.186 0.044-0.265 0.090l0.003-0.002c-0.099-0.065-0.214-0.128-0.334-0.182l-0.016-0.006c-0.216-0.052-0.921-0.431-1.625 0.861-0.41 0.751-1.461 2.122-2.268 3.136-1.571 0.722-3.616 1.637-4.376 1.867h-0.487c-0.064-0.105-0.108-0.17-0.108-0.17l-0.038 0.025-0.016-0.025s-0.957 0.662-1.928 0.668c-0.146-0.002-0.287-0.021-0.422-0.055l0.013 0.003c-0.446-0.112-0.761-0.163-0.986-0.157-0.266-0.005-0.418 0.059-0.51 0.178v0c-0.011 0.014-0.023 0.030-0.033 0.047l-0.001 0.002c-0.009 0.014-0.018 0.031-0.027 0.049l-0.002 0.003c-0.008 0.019-0.017 0.039-0.024 0.059-0.001 0.006-0.002 0.013-0.002 0.020 0 0.032 0.012 0.061 0.032 0.082l-0-0c0.014 0.019 0.028 0.037 0.043 0.053l-0-0 0.027 0.029c0.122 0.127 0.345 0.294 0.622 0.481 0.080 0.052 0.165 0.11 0.253 0.167l0.378 0.235 0.067 0.041 0.12 0.073 0.071 0.043 0.134 0.080 0.109 0.064c0.284 0.168 0.568 0.33 0.823 0.475l0.179 0.107 0.017 0.009 0.115 0.064 0.199 0.11 0.282 0.155 0.119 0.065c0.009 0.002 0.018 0.002 0.029 0.002 0.042 0 0.081-0.015 0.111-0.040l-0 0c0.035-0.146 0.119-0.46 0.209-0.484s0.482-0.708 0.592-1.166h1.057c0.233-0.020 0.444-0.054 0.65-0.101l-0.031 0.006c-0.273 0.195-0.543 0.317-0.753 0.265-0.444-0.11-0.865 0.16-0.907 0.428 0 0.006-0.004 0.011-0.005 0.017s-0.003 0.011-0.004 0.016-0.003 0.013-0.004 0.020 0 0.011 0 0.017 0 0.013 0 0.020 0 0.011 0 0.016 0 0.014 0 0.020 0 0.010 0 0.016 0.003 0.014 0.005 0.021 0 0.009 0.004 0.014c0.004 0.011 0.008 0.020 0.012 0.029l-0.001-0.002 0.003 0.007c0.007 0.013 0.013 0.024 0.020 0.034l-0.001-0.001 0.008 0.011c0.005 0.007 0.011 0.015 0.017 0.021l0.012 0.012c0.006 0.006 0.013 0.013 0.020 0.019l0.015 0.012 0.024 0.017 0.017 0.012 0.028 0.017 0.019 0.010 0.036 0.017 0.018 0.008c0.019 0.008 0.039 0.015 0.060 0.022 0.034 0.011 0.074 0.022 0.12 0.034l0.046 0.011 0.066 0.015 0.035 0.008q0.068 0.015 0.144 0.029l0.071 0.013 0.058 0.010 0.132 0.023c0.083 0.014 0.169 0.028 0.261 0.042l0.228 0.035 0.297 0.042 0.066 0.009 0.105 0.015 0.153 0.020 0.105 0.014 0.356 0.045 0.171 0.021c0.225 0.027 0.442 0.052 0.642 0.075l0.349 0.039 0.052 0.005 0.218 0.024 0.232 0.024h0.015l0.087 0.009c0.003 0 0.005 0 0.008 0 0.043 0 0.078-0.034 0.079-0.077v-0c0-0.003 0-0.006 0-0.009 0.008-0.012 0.012-0.026 0.013-0.041v-0c0.003-0.137 0.020-0.269 0.051-0.395l-0.003 0.012c0.006-0.021 0.013-0.043 0.020-0.065l0.008-0.025c0.009-0.027 0.019-0.052 0.030-0.081 0.007-0.015 0.014-0.035 0.019-0.056l0.001-0.004c0-0.006 0.004-0.013 0.006-0.019s0.005-0.021 0.007-0.032c0.109-0.372-0.022-1.065-0.060-1.337-0.014-0.097-0.034-0.183-0.063-0.266l0.003 0.010c0.003 0 0.007 0.001 0.010 0.001s0.007-0 0.011-0.001l-0 0c0.060-0.022 0.112-0.051 0.158-0.086l-0.002 0.001c0.799-0.285 1.472-0.611 1.685-0.937 0.112-0.031 0.24-0.048 0.372-0.048 0.239 0 0.465 0.058 0.665 0.16l-0.008-0.004c0.413 0.205 3.542 1.226 4.998 1.698 0.261 0.225 0.466 0.357 0.58 0.347 0 0 1.854 0.3 2.6-0.285 0.066 0.046 0.108 0.071 0.108 0.071s1.083-0.538 1.246-1.238c0.052-0.227 0.1-0.561 0.148-0.932 0.242-0.244 0.392-0.581 0.393-0.952v-0c0.034-1.175 0.489-2.518 0.827-3.712 0.41 0.032 0.568-0.045 0.944-0.231l-0.017-0.021c0.027-0.016 0.050-0.026 0.074-0.038zM45.804 22.313l-0.209-0.070c0.066-0.087 0.126-0.186 0.176-0.29l0.004-0.010zM44.638 22.808l1.255 0.753 0.011 0.153c-0.006 0.043-0.009 0.092-0.009 0.143 0 0.073 0.007 0.145 0.021 0.214l-0.001-0.007c-0.553-0.491-1.2-1.088-1.277-1.257zM44.126 21.71c-0.137-0.056-0.25-0.108-0.328-0.15 0.105 0.007 0.204 0.014 0.291 0.018 0.016 0.038 0.029 0.082 0.037 0.128l0.001 0.004zM40.766 22.937s0.216-0.484 0.704 0.323c0.076 0.125 0.215 0.325 0.4 0.572l-1.42-0.19c0.167-0.259 0.28-0.5 0.316-0.705z"></path>
<path fill="#f7c4a7" d="M43.885 20.992s-0.993-0.418-1.777-0.732-0.314 0.732-0.314 0.732 1.307 0.366 1.307 0.418 1.098 0.105 1.098 0.105z"></path>
<path fill="#000" opacity="0.05" d="M43.885 20.992s-0.993-0.418-1.777-0.732-0.314 0.732-0.314 0.732 1.307 0.366 1.307 0.418 1.098 0.105 1.098 0.105z"></path>
<path fill="#575988" d="M48.119 16.863s-1.777-0.941-2.091 0.889-1.307 3.084-1.307 3.084-0.941 0.209-1.307-0.157c0 0 0.889 1.046 0.47 1.15 0 0 0.941 0.68 1.359 0.47s0.732-1.621 0.889-1.986 0.732-3.555 1.986-3.45z"></path>
<path fill="#000" opacity="0.1" d="M48.119 16.863s-1.777-0.941-2.091 0.889-1.307 3.084-1.307 3.084-0.941 0.209-1.307-0.157c0 0 0.889 1.046 0.47 1.15 0 0 0.941 0.68 1.359 0.47s0.732-1.621 0.889-1.986 0.732-3.555 1.986-3.45z"></path>
<path fill="#f7c4a7" d="M47.126 16.235s1.098 1.255 1.15 2.3 1.255-1.098 1.359-1.15-1.045-1.83-1.15-2.405-1.359 1.255-1.359 1.255z"></path>
<path fill="#f7c4a7" d="M47.884 16.771l-0.693 0.627 0.327 1.32 0.889-0.836-0.105-0.836-0.418-0.274z"></path>
<path fill="#f7c4a7" d="M33.43 26.063h-1.202l0.47 1.15 1.15-0.314-0.418-0.836z"></path>
<path fill="#000" opacity="0.1" d="M32.505 25.897s-1.245 0.867-2.309 0.598-1.353-0.169-1.477 0.179c-0.114 0.32 2.971 2.015 3.463 2.283 0.008 0.004 0.017 0.007 0.027 0.007 0.027 0 0.049-0.018 0.055-0.043l0-0c0.033-0.142 0.114-0.447 0.201-0.47 0.113-0.030 0.627-0.993 0.599-1.372s-0.56-1.181-0.56-1.181z"></path>
<path fill="#f3b5b7" d="M32.453 25.897s-1.245 0.867-2.309 0.598-1.353-0.169-1.477 0.179c-0.114 0.32 2.971 2.015 3.463 2.283 0.008 0.004 0.017 0.007 0.027 0.007 0.027 0 0.049-0.018 0.055-0.043l0-0c0.033-0.142 0.114-0.447 0.201-0.47 0.113-0.030 0.627-0.993 0.599-1.372s-0.56-1.181-0.56-1.181z"></path>
<path fill="#575988" d="M42.735 23.815l-3.502-0.47s-5.698 2.718-6.378 2.771l0.157 1.202h1.045c0.418 0 4.496-0.889 5.071-1.777 0.108-0.030 0.232-0.047 0.36-0.047 0.231 0 0.449 0.056 0.641 0.155l-0.008-0.004c0.523 0.261 5.541 1.882 5.541 1.882z"></path>
<path fill="#000" opacity="0.1" d="M42.735 23.815l-3.502-0.47s-5.698 2.718-6.378 2.771l0.157 1.202h1.045c0.418 0 4.496-0.889 5.071-1.777 0.108-0.030 0.232-0.047 0.36-0.047 0.231 0 0.449 0.056 0.641 0.155l-0.008-0.004c0.523 0.261 5.541 1.882 5.541 1.882z"></path>
<path fill="#f7c4a7" d="M36.514 25.436l-0.575 0.732 0.575 0.314 0.836-0.627-0.836-0.418z"></path>
<path fill="#575988" d="M46.498 24.599s-1.882-1.611-2.012-1.903-3.215-2.279-3.425-2.331-0.889-0.418-1.568 0.836-3.189 4.287-3.189 4.287 0.784 1.098 1.045 1.046 3.189-2.509 3.398-3.712c0 0 0.209-0.47 0.68 0.314s3.502 4.548 4.077 4.496c0 0 2.248 0.366 2.718-0.523s-1.725-2.509-1.725-2.509z"></path>
<path fill="#dddbe2" d="M47.57 16.941s-0.653 0.288-0.706 1.49-1.202 3.241-1.202 3.241l0.105 2.405s1.255 1.255 1.359 2.039 0.993 1.307 0.993 1.307 1.045-0.523 1.202-1.202 0.261-2.352 0.523-2.98 0.105-4.548 0.105-4.548l-0.784-1.359-0.418-0.47-1.098 1.255s-0.601-0.81-0.078-1.176z"></path>
<path fill="#000" opacity="0.1" d="M46.028 23.292s-0.157-1.882 0.314-2.3l0.941-2.666s0.34-1.281 0.288-1.385-1.228 1.019-1.228 1.019l-0.784 2.771 0.209 2.927z"></path>
<path fill="#575988" d="M45.976 23.292s-0.157-1.882 0.314-2.3l0.941-2.666s0.366-1.307 0.314-1.411-1.255 1.046-1.255 1.046l-0.784 2.771 0.209 2.927z"></path>
<path fill="#f7c4a7" d="M46.342 22.456s-2.614-0.836-2.771-1.046-1.83-1.568-2.405-0.627 2.143 1.202 2.143 1.202l2.771 1.673z"></path>
<path fill="#000" opacity="0.1" d="M36.627 26.163l-0.774-0.139s-1.267 1.623-1.927 1.458-1.268 0.546-0.57 0.774c0.63 0.206 3.35 0.494 3.868 0.547 0.002 0 0.005 0 0.008 0 0.042 0 0.075-0.033 0.076-0.075v-0c0.004-0.213 0.048-0.415 0.124-0.6l-0.004 0.011c0.14-0.342 0-1.078-0.039-1.359-0.023-0.176-0.077-0.334-0.156-0.477l0.004 0.007z"></path>
<path fill="#f3b5b7" d="M36.614 26.214l-0.774-0.139s-1.267 1.623-1.926 1.459-1.268 0.546-0.57 0.774c0.63 0.206 3.35 0.494 3.868 0.547 0.002 0 0.005 0 0.008 0 0.042 0 0.075-0.033 0.076-0.075v-0c0.003-0.212 0.045-0.414 0.12-0.6l-0.004 0.011c0.14-0.342 0-1.078-0.039-1.359-0.023-0.176-0.077-0.334-0.156-0.477l0.004 0.007z"></path>
<path fill="#000" opacity="0.1" d="M49.191 15.164c0 0.924-0.749 1.673-1.673 1.673s-1.673-0.749-1.673-1.673c0-0.924 0.749-1.673 1.673-1.673s1.673 0.749 1.673 1.673z"></path>
<path fill="#f7c4a7" d="M49.034 15.164c0 0.924-0.749 1.673-1.673 1.673s-1.673-0.749-1.673-1.673c0-0.924 0.749-1.673 1.673-1.673s1.673 0.749 1.673 1.673z"></path>
<path fill="#575988" d="M49.008 16.81s1.986 0.68 1.986 2.091-1.098 3.659-1.15 5.489-2.927 1.568-2.927 1.568-0.418-6.168 0-6.639 2.3-2.3 2.091-2.509z"></path>
<path fill="#000" opacity="0.1" d="M48.642 19.738s-0.732 3.241-2.457 2.666c0 0-0.889 1.307-0.261 1.882 0 0 1.516 0.366 2.509-0.627s1.725-1.359 1.882-2.561 0.261-2.875-0.261-2.718-1.411 1.359-1.411 1.359z"></path>
<path fill="#575988" d="M48.694 19.685s-0.732 3.241-2.457 2.666c0 0-0.889 1.307-0.261 1.882 0 0 1.516 0.366 2.509-0.627s1.725-1.359 1.882-2.561 0.261-2.875-0.261-2.718-1.411 1.359-1.411 1.359z"></path>
<path fill="#dddbe2" d="M37.457 28.023c0 0.005-0.003 0.010-0.005 0.015-0.033 0.078-0.061 0.171-0.080 0.267l-0.002 0.010c0.013-0.041 0.027-0.083 0.044-0.124 0.019-0.048 0.034-0.104 0.042-0.163l0-0.004z"></path>
<path fill="#dddbe2" d="M33.382 28.154c-0.215-0.071-0.306-0.187-0.309-0.309-0.089 0.17-0.033 0.362 0.271 0.461 0.63 0.206 3.351 0.494 3.868 0.547 0.002 0 0.005 0 0.008 0 0.042 0 0.076-0.034 0.076-0.075v-0c0-0 0-0.001 0-0.002 0-0.040-0.030-0.072-0.068-0.076l-0-0c-0.568-0.061-3.224-0.344-3.846-0.547z"></path>
<path fill="#dddbe2" d="M28.739 26.582c0.016-0.043 0.033-0.079 0.054-0.114l-0.002 0.003c-0.055 0.055-0.097 0.123-0.122 0.199l-0.001 0.004c-0.114 0.32 2.971 2.015 3.463 2.283 0.008 0.004 0.017 0.007 0.027 0.007 0.027 0 0.049-0.019 0.055-0.044l0-0c0.001-0.004 0.002-0.009 0.002-0.013 0-0.021-0.012-0.040-0.029-0.049l-0-0c-0.544-0.297-3.56-1.958-3.447-2.275z"></path>
<path fill="#dddbe2" d="M32.486 28.358c-0.028 0.007-0.055 0.044-0.081 0.095l0.008-0.003c0.023-0.006 0.062-0.052 0.11-0.12-0.010 0.012-0.023 0.022-0.037 0.028l-0.001 0z"></path>
<path fill="#000" opacity="0.1" d="M47.129 16.636c-0.147 0.325-0.178 0.692-0.286 1.032-0.215 0.676-0.754 1.235-1.399 1.451 0.543 0.216 1.184-0.048 1.604-0.487s0.666-1.024 0.902-1.592c0.61 0.41 0.535 1.352 0.74 2.085 0.184 0.654 0.632 1.18 1.217 1.466l0.014 0.006c0.265 0.122 0.576 0.193 0.902 0.193 0.358 0 0.697-0.085 0.996-0.237l-0.013 0.006c-0.559-0.68-1.354-1.617-1.26-2.524 0.077-0.735-0.451-1.296-0.415-2.034 0.052-1.046-0.348-1.577-1.098-2.248-0.438-0.393 0.251-0.946-0.314-0.784-0.222 0.064-0.456-0.174-0.674-0.096-0.432 0.157-0.903 0.096-1.348 0.201-2.31 0.543 0.647 3.088 0.431 3.563z"></path>
<path fill="#fc6681" d="M47.181 16.584c-0.147 0.325-0.178 0.692-0.286 1.032-0.215 0.676-0.754 1.235-1.399 1.451 0.543 0.216 1.184-0.048 1.604-0.487s0.666-1.024 0.902-1.592c0.61 0.41 0.535 1.352 0.74 2.085 0.184 0.654 0.632 1.18 1.217 1.466l0.014 0.006c0.265 0.122 0.576 0.193 0.902 0.193 0.358 0 0.697-0.085 0.996-0.237l-0.013 0.006c-0.559-0.68-1.302-1.46-1.208-2.368 0.077-0.735-0.038-1.49 0-2.227 0.052-1.046-0.461-2.055-1.211-2.727-0.438-0.393-1.122-0.443-1.341-0.366-0.432 0.157-0.903 0.096-1.348 0.201-2.311 0.544 0.646 3.089 0.43 3.564z"></path>
</svg>
