<!-- Generated by IcoMoon.io -->
<svg version="1.1" xmlns="http://www.w3.org/2000/svg" width="45" height="32" viewBox="0 0 45 32">
<title>site-securise</title>
<path fill="#6c63ff" opacity="0.1" d="M44.002 21.513c-1.037 2.139-3.143 3.57-5.325 4.513-2.938 1.27-6.173 1.774-9.363 1.561q-0.839-0.056-1.672-0.178c-2.088-0.311-3.97-0.88-5.723-1.682l0.132 0.054q-0.77-0.347-1.51-0.758c-0.904-0.504-1.675-1.015-2.405-1.577l0.045 0.034q-0.282-0.215-0.557-0.442c-0.127-0.105-0.253-0.212-0.38-0.315-0.269-0.219-0.546-0.427-0.855-0.583-0.075-0.039-0.169-0.082-0.266-0.119l-0.021-0.007c-0.979-0.372-2.108-0.232-3.127 0.059-0.775 0.221-1.531 0.523-2.305 0.739-0.291 0.088-0.646 0.166-1.009 0.218l-0.041 0.005c-0.211 0.028-0.454 0.044-0.702 0.044-0.592 0-1.162-0.092-1.697-0.262l0.040 0.011-0.065-0.020q-0.164-0.052-0.325-0.113l-0.065-0.025q-0.156-0.060-0.306-0.129l-0.065-0.030q-0.156-0.073-0.306-0.153c-0.036-0.019-0.071-0.039-0.107-0.058-0.587-0.331-1.090-0.727-1.526-1.187l-0.003-0.003c-0.013-0.013-0.025-0.026-0.039-0.039-0.062-0.067-0.123-0.135-0.182-0.205-0.022-0.026-0.044-0.052-0.065-0.078q-0.105-0.128-0.203-0.262c-0.010-0.013-0.019-0.026-0.029-0.039-0.251-0.344-0.472-0.735-0.644-1.152l-0.014-0.037c-0.005-0.013-0.011-0.026-0.015-0.039q-0.078-0.201-0.142-0.409c-0.018-0.058-0.034-0.117-0.049-0.175-0.005-0.017-0.010-0.035-0.014-0.052-0.215-0.848-0.24-1.73-0.24-2.606q0-0.153 0-0.306c0.006-1.418 0.028-2.86 0.237-4.258 0-0.010 0.003-0.020 0.004-0.029 0.083-0.555 0.183-1.028 0.306-1.491l-0.021 0.093c0.146-0.558 0.31-1.029 0.506-1.484l-0.026 0.067c0.481-1.132 1.181-2.162 1.958-3.116 1.957-2.402 4.524-4.419 7.529-5.174 3.237-0.813 6.835-0.034 9.447 2.045 0.796 0.634 1.512 1.384 2.406 1.87 0.781 0.423 1.694 0.598 2.53 0.265 0.691-0.275 1.14-0.412 1.916-0.37 1.713 0.099 3.314 0.452 4.808 1.021l-0.11-0.037c0.061 0.022 0.122 0.045 0.182 0.068 3.931 1.504 7.309 4.491 9.066 8.331q0.070 0.152 0.135 0.307c1.047 2.446 1.426 5.313 0.27 7.696z"></path>
<path fill="#6c63ff" opacity="0.1" d="M8.141 28.445c0 0.306-1.543 0.553-3.445 0.553s-3.445-0.248-3.445-0.553c0-0.306 1.543-0.553 3.445-0.553s3.445 0.248 3.445 0.553z"></path>
<path fill="#6c63ff" opacity="0.1" d="M41.713 31.407c0 0.328-2.735 0.593-6.109 0.593s-6.109-0.266-6.109-0.593c0-0.328 2.735-0.593 6.109-0.593s6.109 0.266 6.109 0.593z"></path>
<path fill="#2f6979" d="M5.020 4.205h36.115c0.269 0 0.487 0.218 0.487 0.487v20.035c0 0.269-0.218 0.487-0.487 0.487h-36.115c-0.269 0-0.487-0.218-0.487-0.487v-20.035c0-0.269 0.218-0.487 0.487-0.487z"></path>
<path fill="#fff" d="M5.079 4.501h36.002c0.269 0 0.487 0.218 0.487 0.487v19.67c0 0.269-0.218 0.487-0.487 0.487h-36.002c-0.269 0-0.487-0.218-0.487-0.487v-19.67c0-0.269 0.218-0.487 0.487-0.487z"></path>
<path fill="#fff" opacity="0.04" d="M5.079 4.501h36.002c0.269 0 0.487 0.218 0.487 0.487v19.67c0 0.269-0.218 0.487-0.487 0.487h-36.002c-0.269 0-0.487-0.218-0.487-0.487v-19.67c0-0.269 0.218-0.487 0.487-0.487z"></path>
<path fill="#5a5773" d="M41.381 4.264h-36.601c-0.104 0-0.188 0.084-0.188 0.188v0 0.793h36.975v-0.793c0 0 0 0 0 0 0-0.103-0.083-0.187-0.186-0.188h-0z"></path>
<path fill="#fff" d="M5.584 4.754c0 0.14-0.114 0.254-0.254 0.254s-0.254-0.114-0.254-0.254c0-0.14 0.114-0.254 0.254-0.254s0.254 0.114 0.254 0.254z"></path>
<path fill="#fff" d="M6.267 4.754c0 0.14-0.114 0.254-0.254 0.254s-0.254-0.114-0.254-0.254c0-0.14 0.114-0.254 0.254-0.254s0.254 0.114 0.254 0.254z"></path>
<path fill="#fff" d="M6.95 4.754c0 0.14-0.114 0.254-0.254 0.254s-0.254-0.114-0.254-0.254c0-0.14 0.114-0.254 0.254-0.254s0.254 0.114 0.254 0.254z"></path>
<path fill="#6c63ff" opacity="0.2" d="M7.637 7.090h9.923v0.842h-9.923v-0.842z"></path>
<path fill="#5a5773" opacity="0.1" d="M7.637 10.467h30.886v12.956h-30.886v-12.956z"></path>
<path fill="#000" opacity="0.1" d="M25.721 11.312h-0.529v-1.027c0-1.159-0.924-2.123-2.083-2.14-0.007-0-0.014-0-0.022-0-1.168 0-2.115 0.945-2.118 2.112v1.056h-0.528c-0.485 0.002-0.879 0.395-0.88 0.88v4.224c0.002 0.485 0.395 0.879 0.88 0.88h5.281c0.485-0.002 0.878-0.395 0.88-0.88v-4.224c-0.001-0.485-0.394-0.879-0.88-0.88h-0zM23.389 14.058v1.513c0 0.001 0 0.001 0 0.002 0 0.166-0.129 0.303-0.292 0.315l-0.001 0c-0.004 0-0.009 0-0.014 0-0.17 0-0.309-0.138-0.309-0.309v0-1.522c-0.236-0.117-0.395-0.356-0.395-0.631 0-0.388 0.315-0.703 0.703-0.703s0.703 0.315 0.703 0.703c0 0.276-0.159 0.515-0.39 0.63l-0.004 0.002zM24.577 11.312h-2.993v-1.056c0-0.826 0.67-1.496 1.496-1.496s1.496 0.67 1.496 1.496v0z"></path>
<path fill="#6c63ff" d="M25.721 11.234h-0.529v-1.027c0-1.159-0.924-2.123-2.083-2.14-0.007-0-0.014-0-0.022-0-1.168 0-2.115 0.945-2.118 2.112v1.056h-0.528c-0.485 0.002-0.879 0.395-0.88 0.88v4.224c0.002 0.485 0.395 0.879 0.88 0.88h5.281c0.485-0.002 0.878-0.395 0.88-0.88v-4.224c-0.001-0.485-0.394-0.879-0.88-0.88h-0zM23.389 13.98v1.513c0 0.001 0 0.001 0 0.002 0 0.166-0.129 0.303-0.292 0.315l-0.001 0c-0.004 0-0.009 0-0.014 0-0.17 0-0.309-0.138-0.309-0.309v0-1.522c-0.236-0.117-0.395-0.356-0.395-0.631 0-0.388 0.315-0.703 0.703-0.703s0.703 0.315 0.703 0.703c0 0.276-0.159 0.515-0.39 0.63l-0.004 0.002zM24.577 11.234h-2.993v-1.056c0-0.826 0.67-1.496 1.496-1.496s1.496 0.67 1.496 1.496v0z"></path>
<path fill="#5a5773" opacity="0.1" d="M35.397 9.221h3.126v0.738h-3.126v-0.738z"></path>
<path fill="#2563b9" d="M39.587 31.585c-0.023-0.112-0.059-0.211-0.108-0.303l0.003 0.006-0.468-0.699h0.003s-0.074-0.351 0-0.524-0.263-0.597-0.263-0.597-0.041-0.107 0.066-0.238-0.066-0.515-0.066-0.515-0.082-0.802-0.090-0.925-0.074-0.802-0.074-0.802l-0.156-1.44-0.278-3.816-0.005-0.071c0.034-0.017 0.053-0.027 0.053-0.027l-0.055-2.11 0.048-0.043c0.419-0.379 1.386-1.258 1.376-1.277s-0.117-1.466-0.13-1.828c-0.012-0.273-0.072-0.528-0.172-0.763l0.005 0.014c-0.024-0.048-0.094-0.365-0.123-0.498-0.008-0.037-0.013-0.060-0.013-0.060s-0.283-0.54-0.259-0.786 0.074-0.429-0.53-0.515c0 0-0.507-0.076-0.809-0.282-0.167-0.117-0.359-0.215-0.564-0.286l-0.016-0.005s-0.169-0.312-0.287-0.206c-0.046-0.1-0.084-0.216-0.109-0.337l-0.002-0.011-0.004-0.022c0.22-0.155 0.381-0.38 0.452-0.642l0.002-0.008c0.004-0.015 0.007-0.030 0.011-0.045 0.011 0.004 0.023 0.006 0.036 0.007h0c0.103 0 0.166-0.114 0.262-0.151 0.039-0.015 0.087-0.018 0.117-0.048 0.017-0.020 0.026-0.045 0.026-0.073 0-0.005-0-0.009-0.001-0.014l0 0.001c0-0.005 0.001-0.010 0.001-0.016s-0-0.011-0.001-0.017l0 0.001c0-0.002 0-0.004 0-0.006s-0-0.004-0-0.006v0.004c-0.026-0.142-0.136-0.268-0.124-0.413 0.012-0.136 0.131-0.255 0.121-0.388-0-0.011-0.001-0.022-0.003-0.032l0 0.001v0.005c-0.015-0.054-0.042-0.1-0.078-0.138l0 0c-0.042-0.057-0.096-0.102-0.158-0.134l-0.003-0.001c-0.054-0.024-0.117-0.029-0.168-0.058-0.149-0.081-0.149-0.293-0.237-0.437-0.070-0.109-0.19-0.181-0.327-0.181-0.012 0-0.024 0.001-0.036 0.002l0.002-0c-0.111 0.011-0.211 0.070-0.321 0.089-0.15 0.027-0.302-0.022-0.445-0.078s-0.286-0.117-0.439-0.117-0.318 0.078-0.364 0.222c-0.025 0.078-0.013 0.162-0.031 0.241-0.034 0.14-0.156 0.24-0.283 0.309-0.078 0.043-0.171 0.093-0.195 0.175 0-0.002 0-0.004 0-0.006-0.002 0.005-0.003 0.012-0.004 0.019l-0 0.001c-0 0.004-0.001 0.008-0.001 0.013s0 0.009 0.001 0.014l-0-0.001c0 0.056 0.030 0.11 0.050 0.163 0.017 0.046 0.027 0.099 0.027 0.154 0 0.058-0.011 0.113-0.031 0.164l0.001-0.003c-0.029 0.074-0.078 0.139-0.106 0.213-0.012 0.031-0.022 0.067-0.026 0.105l-0 0.002v-0.006c-0 0.007-0.001 0.016-0.001 0.025s0 0.018 0.001 0.026l-0-0.001c0 0.001 0 0.002 0 0.003 0 0.059 0.014 0.114 0.040 0.163l-0.001-0.002c0.036 0.070 0.098 0.123 0.173 0.147l0.002 0.001c0.078 0.018 0.127-0.059 0.209-0.039 0.017 0.004 0.032 0.009 0.046 0.014l-0.002-0.001c0.003 0.018 0.005 0.035 0.009 0.052 0.053 0.271 0.195 0.503 0.394 0.669l0.002 0.002c0 0.009 0.003 0.019 0.004 0.028v0c0.021 0.125 0.033 0.268 0.033 0.415 0 0.020-0 0.039-0.001 0.059l0-0.003s-0.123-0.18-0.292 0.167c0 0-0.44 0.254-0.592 0.283s-0.691 0.217-0.691 0.217c-0.077 0.056-0.174 0.090-0.279 0.090-0 0-0.001 0-0.001 0h0c-0.168 0-0.308 0.368-0.288 0.568s-0.012 0.348-0.169 0.356-0.071 0.325-0.070 0.331l-0.014 0.068c-0.030 0.14-0.097 0.439-0.12 0.486-0.095 0.22-0.155 0.476-0.166 0.744l-0 0.005c-0.012 0.362-0.117 1.804-0.129 1.828-0.008 0.016 0.654 0.621 1.12 1.044l0.068 0.061-0.214 2.001c0.013 0.161 0.096 0.3 0.219 0.389l0.002 0.001c0 0.023 0 0.047-0.002 0.072-0.009 0.234-0.028 0.518-0.066 0.592-0.066 0.131-0.049 0.834-0.049 0.834s-0.066 1.432-0.148 1.587-0.099 0.482-0.074 0.546-0.082 1.783-0.082 1.783l-0.082 0.769s0.025 0.736-0.050 0.752-0.115 0.524-0.115 0.524-0.263 0.36-0.148 0.491-0.017 0.189-0.029 0.221-0.251 0.156-0.078 0.614c0.002 0.005 0.004 0.010 0.006 0.014l-0-0.001c-0.162 0.224-0.674 0.948-0.642 1.058 0.024 0.071 0.072 0.128 0.135 0.163l0.002 0.001c0.121 0.072 0.327 0.106 0.656 0 0.546-0.176 0.507-0.303 0.507-0.303 0.006-0.123 0.107-0.22 0.23-0.221h0c0.226-0.016 0.395-0.225 0.395-0.225l-0.027-0.099-0.036-0.137c0.004-0.039 0.032-0.107 0.156-0.145 0.189-0.057 0.14-0.417 0.14-0.417s-0.016-0.376 0.066-0.425 0.050-0.671 0.050-0.671 0.091-0.45 0.222-0.753 0.288-2.102 0.288-2.102 0.107-0.884 0.205-1.137 0.189-0.965 0.189-0.965 0.608-1.178 0.616-1.44c0 0 0.078-0.245 0.156 0.025s0.297 0.916 0.297 0.916l0.214 0.793 0.255 1.186 0.165 0.998s-0.025 0.376 0.039 0.507 0.156 0.433 0.107 0.491 0.098 0.327 0.14 0.384 0 1.268 0 1.268 0.189 1.031 0.46 1.21c0.017 0.012 0.037 0.022 0.058 0.030l0.002 0.001c-0.004 0.112-0.008 0.261-0.003 0.339-0 0.001-0 0.003-0 0.004 0 0.017 0.003 0.033 0.009 0.048l-0-0.001c0.025 0.033 0.304 0.254 0.362 0.254s0.263 0.143 0.271 0.213 0.601 0.364 0.685 0.372 0.491 0.082 0.546-0.033c0.009-0.021 0.014-0.046 0.014-0.072 0-0.012-0.001-0.023-0.003-0.035l0 0.001zM38.132 16.844l0.042 0.036s0.043 0.338 0.074 0.439-0.006 0.298-0.006 0.298c0.003 0.078 0.019 0.151 0.045 0.219l-0.002-0.005c0.037 0.074-0.074 0.234-0.074 0.234h-0.099l-0.031-1.264zM35.196 13.070v-0.007c-0.001 0.002-0.001 0.005-0.001 0.007zM33.68 17.935c-0.008-0.018-0.013-0.038-0.013-0.060 0-0.016 0.003-0.031 0.007-0.045l-0 0.001c0.008-0.016 0.015-0.036 0.020-0.056l0-0.002c0.011-0.046 0.019-0.099 0.023-0.154l0-0.002c0-0 0-0.001 0-0.001s-0-0.001-0-0.001v0c-0.004-0.019-0.035-0.2-0.006-0.296s0.074-0.439 0.074-0.439l0.028-0.024 0.065-0.057s0-0.021 0.005-0.056c0.014 0.297 0.025 0.624 0.007 0.641-0.033 0.032-0.152 0.351-0.123 0.364 0.009 0.004-0.004 0.132-0.025 0.304-0.023-0.034-0.043-0.072-0.060-0.113l-0.001-0.004z"></path>
<path fill="#c37098" d="M36.825 13.382v0.486l-0.996 0.501s-0.989-0.598-0.745-0.836c0.156-0.151 0.126-0.564 0.084-0.849v0c-0.025-0.165-0.053-0.287-0.053-0.287s1.777-0.507 1.508-0.122c-0.090 0.129-0.097 0.295-0.067 0.461 0.061 0.327 0.269 0.648 0.269 0.648z"></path>
<path fill="#3f3d56" d="M34.097 18.13l-0.128 1.581s-0.192-0.174-0.441-0.402c-0.462-0.421-1.117-1.023-1.11-1.039 0.012-0.025 0.117-1.459 0.128-1.82 0.012-0.271 0.071-0.525 0.17-0.759l-0.005 0.014c0.023-0.047 0.089-0.345 0.117-0.484 0.009-0.043 0.015-0.071 0.015-0.071l0.215-0.087s0.898 1.001 0.898 1.020-0.061 0.788-0.061 0.788l-0.064 0.055-0.028 0.024s-0.043 0.336-0.073 0.437 0.002 0.276 0.006 0.294v0c-0.003 0.057-0.011 0.111-0.023 0.162l0.001-0.006c-0.006 0.022-0.013 0.041-0.022 0.059l0.001-0.002c-0.004 0.013-0.007 0.028-0.007 0.044 0 0.022 0.005 0.042 0.014 0.061l-0-0.001c0.019 0.049 0.042 0.091 0.069 0.131l-0.001-0.002z"></path>
<path fill="#3f3d56" d="M39.537 18.27c0.009 0.019-0.948 0.893-1.363 1.27l-0.188 0.171-0.127-1.581h0.33s0.11-0.159 0.073-0.232c-0.024-0.063-0.040-0.136-0.042-0.212l-0-0.001s0.036-0.195 0.006-0.296-0.073-0.437-0.073-0.437l-0.042-0.036-0.050-0.043s-0.061-0.769-0.061-0.788 0.898-1.020 0.898-1.020l0.214 0.085s0.005 0.023 0.013 0.060c0.029 0.133 0.098 0.448 0.122 0.496 0.094 0.219 0.153 0.473 0.165 0.74l0 0.005c0.010 0.361 0.115 1.795 0.127 1.82z"></path>
<path fill="#3f3d56" d="M39.541 31.694c-0.057 0.114-0.46 0.039-0.543 0.033s-0.67-0.302-0.678-0.371-0.212-0.212-0.269-0.212-0.334-0.22-0.358-0.253c-0.005-0.013-0.008-0.029-0.008-0.045 0-0.002 0-0.004 0-0.006v0c-0.009-0.134 0.008-0.479 0.008-0.479l1.181 0.065 0.574 0.863c0.045 0.085 0.081 0.184 0.103 0.288l0.001 0.007c0.002 0.011 0.004 0.024 0.004 0.037 0 0.025-0.005 0.050-0.014 0.072l0-0.001z"></path>
<path fill="#000" opacity="0.1" d="M39.541 31.694c-0.057 0.114-0.46 0.039-0.543 0.033s-0.67-0.302-0.678-0.371-0.212-0.212-0.269-0.212-0.334-0.22-0.358-0.253c-0.005-0.013-0.008-0.029-0.008-0.045 0-0.002 0-0.004 0-0.006v0c-0.009-0.134 0.008-0.479 0.008-0.479l1.181 0.065 0.574 0.863c0.045 0.085 0.081 0.184 0.103 0.288l0.001 0.007c0.002 0.011 0.004 0.024 0.004 0.037 0 0.025-0.005 0.050-0.014 0.072l0-0.001z"></path>
<path fill="#000" opacity="0.1" d="M39.541 31.694c-0.057 0.114-0.46 0.039-0.543 0.033s-0.67-0.302-0.678-0.371-0.212-0.212-0.269-0.212-0.334-0.22-0.358-0.253c-0.005-0.013-0.008-0.029-0.008-0.045 0-0.002 0-0.004 0-0.006v0l0.382 0.242s0.244 0.156 0.309 0.249 0.579 0.285 0.621 0.289c0.032 0.003 0.369-0.062 0.553-0.034 0.002 0.011 0.004 0.024 0.004 0.037 0 0.025-0.005 0.050-0.014 0.072l0-0.001z"></path>
<path fill="#3f3d56" d="M33.96 30.982s-0.167 0.208-0.39 0.224c-0.123 0.001-0.222 0.098-0.228 0.219l-0 0s0.039 0.126-0.501 0.302c-0.326 0.105-0.531 0.072-0.65 0-0.064-0.036-0.112-0.093-0.135-0.161l-0.001-0.002c-0.037-0.13 0.684-1.119 0.684-1.119l0.656-0.039 0.468 0.212 0.072 0.268z"></path>
<path fill="#000" opacity="0.1" d="M33.96 30.982s-0.167 0.208-0.39 0.224c-0.123 0.001-0.222 0.098-0.228 0.219l-0 0s0.039 0.126-0.501 0.302c-0.326 0.105-0.531 0.072-0.65 0-0.064-0.036-0.112-0.093-0.135-0.161l-0.001-0.002c-0.037-0.13 0.684-1.119 0.684-1.119l0.656-0.039 0.468 0.212 0.072 0.268z"></path>
<path fill="#000" opacity="0.1" d="M33.96 30.982s-0.167 0.208-0.39 0.224c-0.123 0.001-0.222 0.098-0.228 0.219l-0 0s0.039 0.126-0.501 0.302c-0.326 0.105-0.531 0.072-0.65 0 0.307-0.032 0.986-0.226 1.054-0.293 0.082-0.082 0.183-0.306 0.252-0.309 0.048-0.003 0.292-0.15 0.438-0.241z"></path>
<path fill="#3f3d56" d="M38.987 30.074c-0.073 0.171 0 0.521 0 0.521s-1.093 0.057-1.36-0.122-0.456-1.205-0.456-1.205 0.039-1.205 0-1.262-0.187-0.326-0.139-0.382-0.039-0.358-0.106-0.489-0.039-0.505-0.039-0.505l-0.163-0.994-0.252-1.18-0.214-0.79s-0.22-0.643-0.294-0.912-0.153-0.025-0.153-0.025c-0.008 0.261-0.61 1.433-0.61 1.433s-0.090 0.708-0.187 0.96-0.204 1.132-0.204 1.132-0.156 1.791-0.285 2.092-0.217 0.749-0.217 0.749 0.033 0.619-0.049 0.668-0.068 0.423-0.068 0.423 0.049 0.358-0.139 0.415-0.156 0.179-0.156 0.179-1.042 0.171-1.213-0.285 0.065-0.578 0.078-0.61 0.143-0.089 0.029-0.22 0.146-0.488 0.146-0.488 0.041-0.505 0.114-0.521 0.049-0.749 0.049-0.749l0.081-0.765s0.106-1.71 0.082-1.775-0.008-0.39 0.073-0.546 0.146-1.58 0.146-1.58-0.016-0.7 0.049-0.83c0.039-0.074 0.055-0.358 0.065-0.589 0.007-0.177 0.009-0.323 0.009-0.323l0.912-0.342 1.171-0.374 0.985 0.472 1.441 0.277 0.018 0.249 0.275 3.798 0.156 1.433s0.065 0.676 0.073 0.798 0.089 0.92 0.089 0.92 0.171 0.382 0.065 0.513-0.065 0.234-0.065 0.234 0.336 0.427 0.263 0.598z"></path>
<path fill="#000" opacity="0.1" d="M36.624 12.274c-0.090 0.129-0.097 0.295-0.067 0.461-0.184 0.131-0.413 0.209-0.66 0.209-0.277 0-0.532-0.099-0.73-0.263l0.002 0.002c-0.025-0.165-0.053-0.287-0.053-0.287s1.777-0.507 1.508-0.122z"></path>
<path fill="#c37098" d="M37.039 11.776c0 0.632-0.512 1.144-1.144 1.144s-1.144-0.512-1.144-1.144c0-0.632 0.512-1.144 1.144-1.144v0c0.002 0 0.004 0 0.005 0 0.629 0 1.138 0.51 1.138 1.138 0 0.002 0 0.004 0 0.006v-0z"></path>
<path fill="#000" opacity="0.1" d="M37.277 13.676l-0.375 6.672-2.035-0.427-0.403-2.675 0.399-3.591 0.831 0.106 0.525 0.032 1.058-0.118z"></path>
<path fill="#6c63ff" d="M37.277 13.725l-0.375 6.672-2.035-0.427-0.403-2.675 0.399-3.59 0.831 0.106 0.525 0.032 1.058-0.118z"></path>
<path fill="#3f3d56" d="M35.604 13.904l0.733 0.025-0.206 0.288s0.014 0.583 0.112 0.75 0.069 2.748 0.069 2.748l-0.195 0.37-0.334-0.415 0.004-3.407z"></path>
<path fill="#000" opacity="0.1" d="M35.604 13.904l0.733 0.025-0.206 0.288s0.014 0.583 0.112 0.75 0.069 2.748 0.069 2.748l-0.195 0.37-0.334-0.415 0.004-3.407z"></path>
<path fill="#000" opacity="0.1" d="M36.752 13.147l-0.684 0.757 0.391 0.407 0.648-0.631-0.354-0.533z"></path>
<path fill="#6c63ff" d="M36.752 13.098l-0.684 0.757 0.391 0.407 0.648-0.631-0.354-0.533z"></path>
<path fill="#000" opacity="0.1" d="M35.78 13.868l-0.692-0.692-0.065 0.362 0.318 0.794 0.44-0.464z"></path>
<path fill="#6c63ff" d="M35.804 13.819l-0.692-0.692-0.065 0.362 0.318 0.794 0.439-0.464z"></path>
<path fill="#000" opacity="0.1" d="M38.134 21.782c-0.306 0.15-0.662 0.257-1.037 0.303l-0.016 0.002c-0.672 0.085-1.111-0.769-1.111-0.769l-0.256 0.334c-0.082 0.354-1.323 0.444-1.828 0.309-0.111-0.028-0.208-0.075-0.292-0.138l0.002 0.002c0.007-0.177 0.009-0.323 0.009-0.323l0.912-0.342 1.171-0.374 0.985 0.472 1.441 0.277z"></path>
<path fill="#000" opacity="0.1" d="M37.277 13.726l-0.374 6.672-2.036-0.427-0.404-2.674 0.399-3.591 0.301 0.039c-0.009 0.146-0.024 0.28-0.047 0.412l0.003-0.022c-0.049 0.228 0.252 1.848 0.252 1.848s0.573 1.817 0.83 1.555 0.624-1.645 0.624-1.645c0.249-0.513 0.004-1.951-0.014-1.98-0.012-0.038-0.020-0.083-0.023-0.129l-0-0.002z"></path>
<path fill="#000" opacity="0.1" d="M38.157 18.888l0.017 0.654-0.188 0.171-0.127-1.583h0.281z"></path>
<path fill="#000" opacity="0.1" d="M33.736 17.682v0c-0.003 0.057-0.011 0.111-0.023 0.162l0.001-0.006c0-0.014 0-0.023-0.003-0.024-0.012-0.003 0.002-0.063 0.025-0.132z"></path>
<path fill="#000" opacity="0.1" d="M34.097 18.13l-0.128 1.581s-0.192-0.174-0.441-0.402l0.030-0.28s0.105-0.688 0.143-1.028c0.019 0.049 0.042 0.091 0.069 0.131l-0.001-0.002z"></path>
<path fill="#3f3d56" d="M35.201 13.151s-0.122-0.179-0.289 0.167c0 0-0.436 0.252-0.585 0.281s-0.683 0.216-0.683 0.216c-0.077 0.056-0.172 0.089-0.276 0.089-0 0-0 0-0.001 0h0c-0.167 0-0.306 0.366-0.285 0.566s-0.012 0.346-0.167 0.354-0.069 0.329-0.069 0.329l1.030 1.181s0.065 1.087 0.033 1.12-0.151 0.351-0.122 0.362-0.156 1.213-0.156 1.213l-0.248 2.333s0 0.39 0.505 0.525 1.747 0.046 1.827-0.309l0.256-0.334s0.439 0.855 1.111 0.77 1.099-0.33 1.099-0.33l-0.073-2.796-0.049-2.015 1.049-1.723s-0.281-0.537-0.256-0.781 0.073-0.427-0.525-0.513c0 0-0.505-0.075-0.802-0.281-0.165-0.116-0.355-0.214-0.558-0.284l-0.016-0.005s-0.168-0.312-0.285-0.205c0 0 0.117 0.441 0.107 0.507s0.018 0.364 0.037 0.395 0.263 1.467 0.014 1.98c0 0-0.365 1.383-0.624 1.645s-0.83-1.555-0.83-1.555-0.301-1.62-0.252-1.848 0.084-1.055 0.084-1.055z"></path>
<path fill="#3f3d56" d="M36.251 18.309c0 0.099-0.080 0.179-0.179 0.179s-0.179-0.080-0.179-0.179c0-0.099 0.080-0.179 0.179-0.179s0.179 0.080 0.179 0.179z"></path>
<path fill="#3f3d56" d="M36.251 19.154c0 0.099-0.080 0.179-0.179 0.179s-0.179-0.080-0.179-0.179c0-0.099 0.080-0.179 0.179-0.179s0.179 0.080 0.179 0.179z"></path>
<path fill="#000" opacity="0.1" d="M36.251 18.309c0 0.099-0.080 0.179-0.179 0.179s-0.179-0.080-0.179-0.179c0-0.099 0.080-0.179 0.179-0.179s0.179 0.080 0.179 0.179z"></path>
<path fill="#000" opacity="0.1" d="M36.251 19.154c0 0.099-0.080 0.179-0.179 0.179s-0.179-0.080-0.179-0.179c0-0.099 0.080-0.179 0.179-0.179s0.179 0.080 0.179 0.179z"></path>
<path fill="#000" opacity="0.1" d="M37.682 29.83s0.735 0.057 0.808 0.114-0.808-0.114-0.808-0.114z"></path>
<path fill="#000" opacity="0.1" d="M33.304 29.252s0.156 0.195 0.090 0.285-0.090-0.285-0.090-0.285z"></path>
<path fill="#000" opacity="0.1" d="M33.492 29.955s0.285-0.187 0.399-0.063-0.399 0.063-0.399 0.063z"></path>
<path fill="#000" opacity="0.1" d="M37.039 11.776c0 0.001 0 0.002 0 0.003 0 0.102-0.013 0.201-0.038 0.295l0.002-0.008c-0.045-0.021-0.076-0.066-0.076-0.118 0-0.003 0-0.006 0-0.009l-0 0c0.005-0.046 0.036-0.089 0.029-0.135-0.010-0.071-0.096-0.1-0.141-0.156-0.056-0.068-0.044-0.167-0.039-0.254s-0.018-0.195-0.1-0.225c-0.025-0.009-0.052-0.010-0.075-0.020-0.065-0.027-0.085-0.108-0.128-0.163-0.087-0.112-0.259-0.109-0.39-0.056-0.045 0.023-0.103 0.047-0.163 0.069l-0.013 0.004c-0.023 0.008-0.049 0.013-0.076 0.013-0.039 0-0.076-0.010-0.109-0.027l0.001 0.001c-0.026-0.016-0.046-0.039-0.073-0.055-0.088-0.053-0.204 0-0.28 0.068s-0.138 0.16-0.234 0.202c-0.043 0.020-0.097 0.031-0.117 0.073-0.008 0.018-0.013 0.039-0.013 0.062 0 0.004 0 0.008 0 0.012l-0-0.001c0 0.152 0.018 0.306-0.014 0.455-0.020 0.096-0.087 0.204-0.185 0.192-0.013-0.002-0.025-0.005-0.037-0.009l0.001 0c-0.012-0.063-0.020-0.136-0.020-0.21 0-0.632 0.512-1.144 1.144-1.144s1.143 0.511 1.144 1.142v0z"></path>
<path fill="#3f3d56" d="M34.721 11.922c0.029 0.007 0.057 0.022 0.087 0.026 0.097 0.012 0.164-0.097 0.185-0.192 0.032-0.149 0.015-0.303 0.014-0.455-0-0.004-0.001-0.008-0.001-0.013 0-0.022 0.005-0.042 0.013-0.061l-0 0.001c0.022-0.042 0.076-0.054 0.117-0.073 0.094-0.042 0.156-0.132 0.234-0.202s0.192-0.121 0.28-0.068c0.026 0.016 0.047 0.039 0.073 0.055 0.031 0.017 0.069 0.026 0.108 0.026 0.027 0 0.053-0.005 0.078-0.013l-0.002 0.001c0.060-0.018 0.117-0.050 0.175-0.073 0.13-0.053 0.303-0.055 0.39 0.056 0.043 0.056 0.063 0.136 0.128 0.163 0.024 0.010 0.051 0.011 0.075 0.020 0.082 0.031 0.103 0.137 0.1 0.225s-0.015 0.187 0.039 0.254c0.045 0.055 0.131 0.084 0.141 0.156 0.006 0.046-0.024 0.089-0.029 0.135-0 0.003-0 0.006-0 0.009 0 0.069 0.054 0.126 0.122 0.129h0c0.101 0 0.164-0.114 0.259-0.15 0.039-0.015 0.086-0.018 0.117-0.048 0.017-0.022 0.027-0.049 0.027-0.079 0-0.009-0.001-0.019-0.003-0.028l0 0.001c-0.019-0.149-0.139-0.279-0.126-0.429 0.012-0.144 0.145-0.269 0.117-0.41-0.015-0.054-0.042-0.101-0.078-0.139l0 0c-0.042-0.056-0.095-0.102-0.157-0.133l-0.003-0.001c-0.054-0.023-0.117-0.029-0.167-0.057-0.148-0.081-0.147-0.292-0.234-0.435-0.069-0.108-0.188-0.179-0.323-0.179-0.011 0-0.023 0.001-0.034 0.002l0.001-0c-0.11 0.011-0.209 0.069-0.318 0.089-0.149 0.027-0.299-0.022-0.44-0.078s-0.283-0.117-0.434-0.117-0.315 0.078-0.361 0.221c-0.024 0.078-0.012 0.162-0.031 0.24-0.033 0.139-0.156 0.238-0.28 0.308-0.085 0.048-0.188 0.102-0.198 0.199-0.007 0.062 0.027 0.117 0.049 0.177 0.017 0.046 0.027 0.098 0.027 0.153 0 0.057-0.011 0.112-0.030 0.162l0.001-0.003c-0.029 0.074-0.076 0.139-0.105 0.212-0.018 0.043-0.029 0.093-0.029 0.145 0 0.061 0.014 0.119 0.040 0.17l-0.001-0.002c0.037 0.071 0.1 0.123 0.176 0.146l0.002 0.001c0.077 0.018 0.125-0.058 0.207-0.040z"></path>
<path fill="#000" opacity="0.1" d="M34.993 11.67c-0.020 0.096-0.088 0.204-0.185 0.192-0.030-0.004-0.057-0.019-0.087-0.026-0.082-0.018-0.13 0.059-0.207 0.039-0.078-0.023-0.142-0.076-0.178-0.145l-0.001-0.002c-0.019-0.037-0.032-0.080-0.036-0.126l-0-0.001c-0.001 0.012-0.002 0.026-0.002 0.040 0 0.059 0.014 0.114 0.039 0.163l-0.001-0.002c0.037 0.071 0.1 0.123 0.177 0.146l0.002 0.001c0.078 0.018 0.125-0.059 0.207-0.039 0.022 0.008 0.051 0.017 0.081 0.024l0.006 0.001c0.097 0.012 0.165-0.096 0.185-0.192 0.013-0.063 0.020-0.136 0.020-0.21 0-0.016-0-0.033-0.001-0.049l0 0.002c-0 0.065-0.007 0.128-0.020 0.189l0.001-0.006z"></path>
<path fill="#000" opacity="0.1" d="M34.458 11.083c0.001-0.010 0.001-0.023 0.001-0.035 0-0.055-0.010-0.108-0.028-0.157l0.001 0.003c-0.015-0.033-0.031-0.074-0.043-0.116l-0.002-0.007c-0.001 0.005-0.003 0.012-0.004 0.019l-0 0.001c-0.007 0.061 0.028 0.117 0.049 0.177 0.013 0.034 0.022 0.073 0.026 0.113l0 0.002z"></path>
<path fill="#000" opacity="0.1" d="M37.44 10.877c-0.018 0.111-0.108 0.215-0.117 0.332-0.001 0.009-0.002 0.019-0.002 0.030s0.001 0.021 0.002 0.031l-0-0.001c0.020-0.136 0.14-0.257 0.117-0.392z"></path>
<path fill="#000" opacity="0.1" d="M37.447 11.7c-0.004 0.017-0.011 0.032-0.022 0.044l0-0c-0.029 0.031-0.078 0.033-0.117 0.048-0.095 0.036-0.156 0.151-0.259 0.15-0.055-0.003-0.1-0.040-0.117-0.090l-0-0.001c-0.002 0.007-0.004 0.016-0.005 0.025l-0 0.001c-0 0.002-0 0.005-0 0.008 0 0.069 0.054 0.125 0.122 0.129h0c0.102 0 0.164-0.114 0.259-0.149 0.039-0.015 0.087-0.018 0.117-0.048 0.017-0.022 0.027-0.049 0.027-0.079 0-0.009-0.001-0.019-0.003-0.028l0 0.001c-0-0.005-0.001-0.008-0.002-0.011z"></path>
<path fill="#000" opacity="0.1" d="M36.957 11.668c-0.010-0.071-0.096-0.1-0.141-0.156-0.027-0.035-0.043-0.080-0.043-0.128v-0c-0.003 0.073-0.002 0.147 0.043 0.201s0.113 0.078 0.135 0.134c0.004-0.012 0.006-0.025 0.006-0.040 0-0.004-0-0.008-0.001-0.012l0 0.001z"></path>
<path fill="#000" opacity="0.1" d="M36.776 11.259c0.003-0.088-0.018-0.195-0.1-0.225-0.024-0.009-0.051-0.010-0.075-0.020-0.065-0.027-0.085-0.108-0.128-0.163-0.087-0.111-0.259-0.109-0.39-0.056-0.059 0.024-0.114 0.055-0.175 0.073-0.023 0.008-0.049 0.013-0.076 0.013-0.039 0-0.076-0.010-0.109-0.027l0.001 0.001c-0.026-0.016-0.047-0.039-0.073-0.055-0.089-0.053-0.204 0-0.28 0.068s-0.138 0.16-0.234 0.202c-0.044 0.020-0.097 0.031-0.119 0.073-0.008 0.018-0.013 0.039-0.013 0.061 0 0.004 0 0.008 0.001 0.013l-0-0.001c0 0.015 0 0.030 0 0.046 0.001-0.017 0.005-0.032 0.012-0.046l-0 0.001c0.023-0.042 0.076-0.054 0.119-0.073 0.094-0.042 0.156-0.132 0.234-0.202s0.192-0.121 0.28-0.068c0.026 0.016 0.047 0.039 0.073 0.055 0.031 0.017 0.068 0.027 0.107 0.027 0.027 0 0.054-0.005 0.078-0.014l-0.002 0.001c0.072-0.026 0.13-0.050 0.186-0.078l-0.011 0.005c0.131-0.053 0.303-0.055 0.39 0.056 0.043 0.055 0.063 0.136 0.128 0.163 0.024 0.010 0.051 0.011 0.075 0.020 0.067 0.025 0.093 0.1 0.099 0.174z"></path>
<path fill="#000" opacity="0.1" d="M34.854 11.668c0.005-0.135 0.098-0.247 0.224-0.279l0.002-0c0.067-0.017 0.143-0.027 0.222-0.027 0.109 0 0.213 0.019 0.31 0.053l-0.007-0.002c0.37 0.123-0.047 0.564-0.047 0.564s-0.278 0.273-0.536 0.082c-0.075-0.057-0.129-0.138-0.151-0.231l-0.001-0.003c-0.011-0.043-0.018-0.093-0.018-0.144 0-0.004 0-0.008 0-0.012v0.001z"></path>
<path fill="#000" opacity="0.1" d="M36.89 11.668c-0.005-0.135-0.098-0.247-0.224-0.279l-0.002-0c-0.067-0.017-0.143-0.027-0.222-0.027-0.109 0-0.213 0.018-0.31 0.053l0.007-0.002c-0.37 0.123 0.047 0.564 0.047 0.564s0.277 0.273 0.536 0.082c0.075-0.057 0.129-0.138 0.151-0.231l0.001-0.003c0.011-0.043 0.018-0.093 0.018-0.144 0-0.004-0-0.008-0-0.012v0.001z"></path>
<path fill="#000" opacity="0.1" d="M35.536 11.376v0.018h0.676v-0.022l-0.676 0.004z"></path>
<path fill="#000" opacity="0.1" d="M35.751 11.572h0.021v-0.062s0.069-0.053 0.183 0v0.055h0.039v-0.036h-0.019s0.008-0.075-0.119-0.063c0 0-0.102-0.010-0.1 0.055h-0.023z"></path>
<path fill="#6c63ff" d="M34.854 11.643c0.005-0.135 0.098-0.247 0.224-0.279l0.002-0c0.067-0.017 0.143-0.027 0.222-0.027 0.109 0 0.213 0.018 0.311 0.052l-0.007-0.002c0.37 0.123-0.047 0.564-0.047 0.564s-0.278 0.273-0.536 0.082c-0.075-0.057-0.129-0.138-0.151-0.231l-0.001-0.003c-0.011-0.043-0.018-0.093-0.018-0.144 0-0.004 0-0.008 0-0.013v0.001z"></path>
<path fill="#6c63ff" d="M36.89 11.643c-0.005-0.135-0.098-0.247-0.224-0.279l-0.002-0c-0.067-0.017-0.143-0.027-0.222-0.027-0.109 0-0.213 0.018-0.31 0.052l0.007-0.002c-0.37 0.123 0.047 0.564 0.047 0.564s0.277 0.273 0.536 0.082c0.075-0.057 0.129-0.138 0.151-0.231l0.001-0.003c0.011-0.043 0.018-0.093 0.018-0.144 0-0.004-0-0.008-0-0.013v0.001z"></path>
<path fill="#6c63ff" d="M35.536 11.351v0.019h0.676v-0.022l-0.676 0.004z"></path>
<path fill="#6c63ff" d="M35.751 11.547h0.021v-0.062s0.069-0.053 0.183 0v0.056h0.039v-0.037h-0.019s0.008-0.075-0.119-0.063c0 0-0.102-0.009-0.1 0.055h-0.023z"></path>
<path fill="#535461" d="M4.584 17.844h0.222v4.992h-0.222v-4.992z"></path>
<path fill="#3f3d56" d="M6.199 22.82l-0.014 0.225-0.019 0.317-0.008 0.132-0.019 0.318-0.009 0.132-0.019 0.317-0.224 3.609c-0.020 0.321-0.286 0.574-0.61 0.574h-1.162c-0.324-0-0.59-0.253-0.61-0.572l-0-0.002-0.225-3.609-0.019-0.317-0.008-0.132-0.019-0.318-0.008-0.132-0.019-0.317-0.014-0.225c-0-0.006-0.001-0.013-0.001-0.020 0-0.175 0.142-0.317 0.317-0.317 0 0 0 0 0 0h2.376c0 0 0 0 0 0 0.175 0 0.316 0.142 0.316 0.316 0 0.007-0 0.015-0.001 0.022l0-0.001z"></path>
<path fill="#9d9cb5" d="M6.185 23.045l-0.019 0.317h-2.942l-0.019-0.317h2.981z"></path>
<path fill="#9d9cb5" d="M6.158 23.494l-0.019 0.318h-2.886l-0.020-0.318h2.925z"></path>
<path fill="#9d9cb5" d="M6.129 23.944l-0.019 0.317h-2.83l-0.020-0.317h2.869z"></path>
<path fill="#6c63ff" d="M2.866 19.715c1.291 0.934 1.829 2.395 1.829 2.395s-1.556-0.053-2.849-0.987-1.829-2.395-1.829-2.395 1.558 0.053 2.849 0.987z"></path>
<path fill="#6c63ff" d="M3.7 17.835c0.703 0.507 0.996 1.304 0.996 1.304s-0.847-0.029-1.55-0.537-0.995-1.304-0.995-1.304 0.847 0.027 1.549 0.537z"></path>
<path fill="#6c63ff" d="M5.717 19.096c-0.808 0.887-0.978 2.046-0.978 2.046s1.138-0.279 1.945-1.166 0.978-2.047 0.978-2.047-1.138 0.279-1.945 1.167z"></path>
</svg>
