<!-- Generated by IcoMoon.io -->
<svg version="1.1" xmlns="http://www.w3.org/2000/svg" width="31" height="32" viewBox="0 0 31 32">
<title>star</title>
<path fill="none" stroke="#ff1c00" stroke-linejoin="round" stroke-linecap="butt" stroke-miterlimit="4" stroke-width="1.7753" d="M16.797 24.81l-3.44 0.178 10.097 6.125 1.931-1.309-1.931-10.208 7.035-7.323-0.799-2.508-11.562-0.355 2.619 2.374-3.884-7.345-3.129-3.551-4.327 9.542-8.521 2.352 5.681 6.524-2.019 10.741 4.705-0.954 7.545-4.283z"></path>
<path fill="#eec229" d="M16.797 24.81l-3.44 0.178 10.097 6.125 1.931-1.309-1.931-10.208 7.035-7.323-0.799-2.508-11.562-0.355 2.619 2.374-3.884-7.345-3.129-3.551-4.327 9.542-8.521 2.352 5.681 6.524-2.019 10.741 4.705-0.954 7.545-4.283z"></path>
<path fill="#fff239" d="M13.357 24.988l-8.81 5.060 1.576-3.928 6.436-3.817 0.799 2.685z"></path>
<path fill="#fff239" d="M3.238 13.381l4.349 4.882-1.021 1.043-5.681-6.524 2.352 0.599z"></path>
<path fill="#eeb129" d="M12.891 4.66l-3.218 7.057-0.266-1.287 4.327-9.542-0.843 3.773z"></path>
<path fill="#eec229" d="M23.454 31.112l-10.097-6.125-0.799-2.685 7.012 4.083z"></path>
<path fill="#eec229" d="M6.123 26.119l-1.576 3.928 2.019-10.741 1.021-1.043-1.465 7.856z"></path>
<path fill="#fff239" d="M21.235 18.707l8.455-8.943-5.659 1.642-5.903 6.325z"></path>
<path fill="#fff918" d="M12.559 22.302l-6.436 3.817 1.465-7.856-4.349-4.882 6.436-1.664 3.218-7.057zM12.559 22.302l7.012 4.083-1.442-8.655 5.903-6.325-8.011-0.377-3.129-6.369z"></path>
<path fill="#ffd539" d="M19.571 26.386l3.884 4.727-2.219-12.405-3.107-0.976 1.442 8.655z"></path>
<path fill="#ffd539" d="M13.735 0.888l-0.843 3.773 3.129 6.369 2.108-1.62-4.394-8.521z"></path>
<path fill="#ffd539" d="M9.407 10.43l-8.521 2.352 2.352 0.599 6.436-1.664-0.266-1.287z"></path>
<path fill="#ffd539" d="M24.031 11.406l-8.011-0.377 2.108-1.62 11.562 0.355-5.659 1.642z"></path>
</svg>
