<!-- Generated by IcoMoon.io -->
<svg version="1.1" xmlns="http://www.w3.org/2000/svg" width="41" height="32" viewBox="0 0 41 32">
<title>tabs</title>
<path fill="#f5f5f5" d="M0.244 9.466l34.387-9.388 4.633 16.971-34.387 9.388-4.633-16.971z"></path>
<path fill="#d37255" d="M-0 9.51l34.821-9.506 4.746 17.386-34.821 9.506-4.747-17.386z"></path>
<path fill="#fff" d="M0.712 11.178l34.387-9.388 4.163 15.247-34.387 9.388-4.163-15.247z"></path>
<path fill="#ff5252" d="M1.628 9.909c0.065 0.238-0.076 0.484-0.314 0.548s-0.484-0.076-0.548-0.314c-0.065-0.238 0.076-0.484 0.314-0.548s0.484 0.076 0.548 0.314z"></path>
<path fill="#ff0" d="M3.022 9.594c0.065 0.239-0.076 0.486-0.315 0.552s-0.486-0.076-0.552-0.315c-0.065-0.239 0.076-0.486 0.315-0.552s0.486 0.076 0.552 0.315z"></path>
<path fill="#69f0ae" d="M4.322 9.239c0.065 0.239-0.076 0.486-0.315 0.552s-0.486-0.076-0.552-0.315c-0.065-0.239 0.076-0.486 0.315-0.552s0.486 0.076 0.552 0.315z"></path>
<path fill="#6c63ff" d="M0.706 11.158l9.054-2.472 4.168 15.267-9.054 2.472-4.168-15.267z"></path>
<path fill="#da1505" d="M8.945 14.032c-0.345-1.263-1.703-1.993-3.032-1.631s-2.127 1.683-1.784 2.947c0.271 0.992 1.165 1.654 2.181 1.718l-0.161-0.59c-0.117-0.426 0.156-0.875 0.606-0.997v0c0.448-0.123 0.911 0.126 1.025 0.552l0.161 0.59c0.842-0.572 1.275-1.599 1.005-2.589z"></path>
<path fill="#5d7610" d="M6.639 15.128l0.032-0.009c0.071-0.019 0.144 0.022 0.164 0.093l0.195 0.713c0.019 0.071-0.022 0.144-0.093 0.164l-0.032 0.009c-0.071 0.019-0.144-0.022-0.164-0.093l-0.195-0.713c-0.019-0.071 0.022-0.144 0.093-0.164z"></path>
<path fill="#70351d" d="M7.378 14.122c0.133 0.486-0.174 0.992-0.686 1.132s-1.033-0.141-1.166-0.627c-0.133-0.486 0.174-0.992 0.686-1.132s1.033 0.141 1.166 0.627z"></path>
<path fill="#f5e260" d="M6.752 15.479v0c-0.448 0.123-0.72 0.571-0.606 0.997l0.161 0.59c0.048 0.003 0.104 0.005 0.16 0.005 0.549 0 1.058-0.168 1.48-0.456l-0.009 0.006-0.161-0.59c-0.115-0.426-0.577-0.674-1.025-0.552z"></path>
<path fill="#ab4a44" d="M5.506 14.581c-0.107-0.111-0.185-0.252-0.218-0.41l-0.001-0.006c-0.007-0.035-0.011-0.074-0.011-0.115 0-0.128 0.040-0.247 0.108-0.344l-0.001 0.002c0.105-0.146 0.28-0.233 0.45-0.296s0.354-0.103 0.519-0.182c0.271-0.133 0.478-0.361 0.58-0.64l0.003-0.008c0.049 0.113 0.085 0.244 0.101 0.382l0.001 0.006c0.002 0.015 0.002 0.032 0.002 0.049 0 0.127-0.048 0.242-0.126 0.329l0-0c0.123-0.1 0.148 0.047 0.14 0.144 0.093 0.061 0.264 0.028 0.301 0.129 0.032 0.073 0.050 0.159 0.050 0.249 0 0.023-0.001 0.046-0.004 0.069l0-0.003c-0.016 0.107 0.075 0.263-0.032 0.3z"></path>
<path fill="#6c63ff" d="M8.731 13.728c-0.284-1.014-1.2-1.746-2.288-1.746-1.31 0-2.372 1.062-2.372 2.372 0 1.244 0.958 2.264 2.176 2.364l0.008 0.001-0.161-0.59c-0.018-0.063-0.028-0.135-0.028-0.21 0-0.368 0.247-0.679 0.585-0.775l0.006-0.001c0.063-0.018 0.135-0.028 0.21-0.028 0.368 0 0.679 0.247 0.775 0.585l0.001 0.006 0.161 0.59c0.614-0.435 1.010-1.142 1.010-1.942 0-0.222-0.031-0.437-0.088-0.641l0.004 0.017z"></path>
<path fill="#fff" d="M6.553 14.79l0.018-0.005c0.071-0.019 0.144 0.022 0.164 0.093l0.195 0.713c0.019 0.071-0.022 0.144-0.093 0.164l-0.018 0.005c-0.071 0.019-0.144-0.022-0.164-0.093l-0.195-0.713c-0.019-0.071 0.022-0.144 0.093-0.164z"></path>
<path fill="#fff" d="M7.238 13.798c0.133 0.486-0.154 0.987-0.639 1.119s-0.987-0.154-1.119-0.639c-0.133-0.486 0.154-0.987 0.639-1.119s0.987 0.154 1.119 0.639z"></path>
<path fill="#fff" d="M6.658 15.142v0c-0.343 0.097-0.591 0.408-0.591 0.776 0 0.075 0.010 0.147 0.029 0.216l-0.001-0.006 0.16 0.59c0.055 0.005 0.119 0.007 0.184 0.007 0.511 0 0.985-0.161 1.372-0.435l-0.007 0.005-0.161-0.59c-0.097-0.343-0.408-0.591-0.776-0.591-0.074 0-0.147 0.010-0.215 0.029l0.006-0.001z"></path>
<path fill="#fff" d="M5.458 14.229c-0.104-0.113-0.179-0.254-0.213-0.411l-0.001-0.006c-0.008-0.037-0.012-0.079-0.012-0.122 0-0.123 0.036-0.238 0.099-0.334l-0.001 0.002c0.098-0.144 0.261-0.23 0.425-0.289s0.336-0.097 0.493-0.175c0.259-0.132 0.455-0.358 0.545-0.631l0.002-0.008c0.048 0.113 0.084 0.244 0.101 0.381l0.001 0.007c0.002 0.016 0.003 0.035 0.003 0.054 0 0.122-0.044 0.233-0.117 0.319l0.001-0.001c0.117-0.098 0.14 0.050 0.137 0.145 0.088 0.062 0.253 0.031 0.289 0.132 0.033 0.077 0.052 0.166 0.052 0.26 0 0.019-0.001 0.038-0.002 0.057l0-0.002c-0.014 0.106 0.075 0.263-0.027 0.298"></path>
<path fill="#fff" d="M6.826 12.986s0.628-0.114 0.44 0.916z"></path>
<path fill="#000" opacity="0.1" d="M2.766 18.798l9.054-2.472 2.077 7.609-9.054 2.472-2.077-7.609z"></path>
<path fill="#fff" d="M4.947 19.963l4.431-1.21 0.118 0.433-4.431 1.21-0.118-0.433z"></path>
<path fill="#fff" d="M5.223 20.974l5.491-1.499 0.118 0.433-5.491 1.499-0.118-0.433z"></path>
<path fill="#f5f5f5" d="M11.559 9.2l6.55-1.788 0.881 3.227-6.55 1.788-0.881-3.227z"></path>
<path fill="#e0e0e0" d="M12.414 12.331l6.55-1.788 0.881 3.227-6.55 1.788-0.881-3.227z"></path>
<path fill="#f5f5f5" d="M27.115 4.954l6.55-1.788 0.881 3.227-6.55 1.788-0.881-3.227z"></path>
<path fill="#e0e0e0" d="M27.969 8.084l6.55-1.788 0.881 3.227-6.55 1.788-0.881-3.227z"></path>
<path fill="#f5f5f5" d="M19.313 7.083l6.55-1.788 0.881 3.227-6.55 1.788-0.881-3.227z"></path>
<path fill="#e0e0e0" d="M20.167 10.214l6.55-1.788 0.881 3.227-6.55 1.788-0.881-3.227z"></path>
<path fill="#e0e0e0" d="M13.388 16.496l6.518-1.765 0.87 3.211-6.518 1.765-0.87-3.211z"></path>
<path fill="#bdbdbd" d="M14.412 19.651l6.55-1.788 0.881 3.227-6.55 1.788-0.881-3.227z"></path>
<path fill="#f5f5f5" d="M29.113 12.274l6.55-1.788 0.881 3.227-6.55 1.788-0.881-3.227z"></path>
<path fill="#bdbdbd" d="M29.968 15.405l6.55-1.788 0.881 3.227-6.55 1.788-0.881-3.227z"></path>
<path fill="#f5f5f5" d="M21.311 14.404l6.55-1.788 0.881 3.227-6.55 1.788-0.881-3.227z"></path>
<path fill="#bdbdbd" d="M22.166 17.534l6.55-1.788 0.881 3.227-6.55 1.788-0.881-3.227z"></path>
<path fill="#527ca7" d="M14.112 11.919c0.102 0.372-0.139 0.763-0.538 0.872s-0.805-0.105-0.907-0.477c-0.102-0.372 0.139-0.763 0.538-0.872s0.805 0.105 0.907 0.477z"></path>
<path fill="#6c63ff" d="M13.845 11.889c0.093 0.344-0.11 0.699-0.454 0.792s-0.699-0.11-0.792-0.454c-0.093-0.344 0.11-0.699 0.454-0.792s0.699 0.11 0.792 0.454z"></path>
<path fill="#e3abb2" d="M21.77 9.828c0.102 0.372-0.139 0.763-0.538 0.872s-0.805-0.105-0.907-0.477c-0.102-0.372 0.139-0.763 0.538-0.872s0.805 0.105 0.907 0.477z"></path>
<path fill="#6c63ff" d="M21.661 9.806c0.094 0.346-0.109 0.703-0.455 0.797s-0.703-0.109-0.797-0.455c-0.094-0.346 0.109-0.703 0.455-0.797s0.703 0.109 0.797 0.455z"></path>
<path fill="#b220ad" d="M29.668 7.672c0.102 0.372-0.139 0.763-0.538 0.872s-0.805-0.105-0.907-0.477c-0.102-0.372 0.139-0.763 0.538-0.872s0.805 0.105 0.907 0.477z"></path>
<path fill="#6c63ff" d="M29.559 7.65c0.094 0.346-0.109 0.703-0.455 0.797s-0.703-0.109-0.797-0.455c-0.094-0.346 0.109-0.703 0.455-0.797s0.703 0.109 0.797 0.455z"></path>
<path fill="#e94588" d="M16.124 19.287c0.102 0.372-0.139 0.763-0.538 0.872s-0.805-0.105-0.907-0.477c-0.102-0.372 0.139-0.763 0.538-0.872s0.805 0.105 0.907 0.477z"></path>
<path fill="#2196f3" d="M16.015 19.266c0.094 0.346-0.109 0.703-0.455 0.797s-0.703-0.109-0.797-0.455c-0.094-0.346 0.109-0.703 0.455-0.797s0.703 0.109 0.797 0.455z"></path>
<path fill="#48e64a" d="M23.782 17.197c0.102 0.372-0.139 0.763-0.538 0.872s-0.805-0.105-0.907-0.477c-0.102-0.372 0.139-0.763 0.538-0.872s0.805 0.105 0.907 0.477z"></path>
<path fill="#2196f3" d="M23.672 17.175c0.094 0.346-0.109 0.703-0.455 0.797s-0.703-0.109-0.797-0.455c-0.094-0.346 0.109-0.703 0.455-0.797s0.703 0.109 0.797 0.455z"></path>
<path fill="#5c9855" d="M31.68 15.040c0.102 0.372-0.139 0.763-0.538 0.872s-0.805-0.105-0.907-0.477c-0.102-0.372 0.139-0.763 0.538-0.872s0.805 0.105 0.907 0.477z"></path>
<path fill="#2196f3" d="M31.57 15.019c0.094 0.346-0.109 0.703-0.455 0.797s-0.703-0.109-0.797-0.455c-0.094-0.346 0.109-0.703 0.455-0.797s0.703 0.109 0.797 0.455z"></path>
<path fill="#f5f5f5" d="M5.278 13.996h35.646v17.592h-35.646v-17.592z"></path>
<path fill="#678098" d="M5.030 13.974h36.095v18.022h-36.095v-18.022z"></path>
<path fill="#fff" d="M5.278 15.771h35.646v15.805h-35.646v-15.805z"></path>
<path fill="#ff5252" d="M6.576 14.851c0 0.248-0.201 0.449-0.449 0.449s-0.449-0.201-0.449-0.449c0-0.248 0.201-0.449 0.449-0.449s0.449 0.201 0.449 0.449z"></path>
<path fill="#ff0" d="M7.924 14.851c0 0.248-0.201 0.449-0.449 0.449s-0.449-0.201-0.449-0.449c0-0.248 0.201-0.449 0.449-0.449s0.449 0.201 0.449 0.449z"></path>
<path fill="#69f0ae" d="M9.272 14.851c0 0.248-0.201 0.449-0.449 0.449s-0.449-0.201-0.449-0.449c0-0.248 0.201-0.449 0.449-0.449s0.449 0.201 0.449 0.449z"></path>
<path fill="#6c63ff" d="M5.278 15.75h9.386v15.826h-9.386v-15.826z"></path>
<path fill="#7d79de" d="M12.469 20.693c0-1.309-1.118-2.372-2.496-2.372s-2.496 1.062-2.496 2.372c0 1.028 0.688 1.903 1.651 2.232v-0.611c0-0.442 0.38-0.803 0.845-0.803v0c0.466 0 0.845 0.361 0.845 0.803v0.611c0.962-0.329 1.651-1.204 1.651-2.232z"></path>
<path fill="#19fb9e" d="M9.956 21.143h0.034c0.074 0 0.133 0.060 0.133 0.133v0.739c0 0.074-0.060 0.133-0.133 0.133h-0.034c-0.074 0-0.133-0.060-0.133-0.133v-0.739c0-0.074 0.060-0.133 0.133-0.133z"></path>
<path fill="#b984d7" d="M10.934 20.367c0 0.503-0.43 0.912-0.96 0.912s-0.96-0.408-0.96-0.912c0-0.503 0.43-0.912 0.96-0.912s0.96 0.408 0.96 0.912z"></path>
<path fill="#6fa8e8" d="M9.973 21.511v0c-0.466 0-0.845 0.361-0.845 0.803v0.611c0.252 0.088 0.543 0.14 0.845 0.14s0.593-0.051 0.864-0.145l-0.018 0.006v-0.611c0-0.442-0.38-0.803-0.845-0.803z"></path>
<path fill="#8fad6a" d="M9.005 20.316c-0.066-0.117-0.104-0.258-0.104-0.407 0-0.018 0.001-0.036 0.002-0.054l-0 0.002c0.013-0.167 0.092-0.314 0.212-0.415l0.001-0.001c0.14-0.113 0.329-0.153 0.513-0.167s0.369-0.006 0.549-0.039c0.305-0.058 0.562-0.23 0.73-0.468l0.002-0.004c0.008 0.056 0.012 0.121 0.012 0.186 0 0.076-0.006 0.15-0.018 0.223l0.001-0.008c-0.024 0.14-0.105 0.257-0.217 0.33l-0.002 0.001c0.146-0.064 0.13 0.086 0.098 0.176 0.072 0.083 0.248 0.096 0.257 0.204 0.004 0.026 0.006 0.056 0.006 0.087 0 0.083-0.016 0.162-0.044 0.235l0.002-0.004c-0.044 0.099 0.003 0.273-0.11 0.28z"></path>
<path fill="#6c63ff" d="M12.342 20.344c-0-1.31-1.062-2.371-2.372-2.371s-2.372 1.062-2.372 2.372c0 1.022 0.646 1.893 1.552 2.226l0.016 0.005v-0.61c0.001-0.443 0.36-0.802 0.803-0.803h0c0 0 0 0 0 0 0.444 0 0.804 0.359 0.805 0.803v0.611c0.921-0.34 1.566-1.21 1.566-2.231 0-0.001 0-0.001 0-0.002v0z"></path>
<path fill="#fff" d="M9.962 20.794h0.019c0.074 0 0.133 0.060 0.133 0.133v0.739c0 0.074-0.060 0.133-0.133 0.133h-0.019c-0.074 0-0.133-0.060-0.133-0.133v-0.739c0-0.074 0.060-0.133 0.133-0.133z"></path>
<path fill="#fff" d="M10.884 20.017c0 0.503-0.408 0.912-0.912 0.912s-0.912-0.408-0.912-0.912c0-0.503 0.408-0.912 0.912-0.912s0.912 0.408 0.912 0.912z"></path>
<path fill="#fff" d="M9.971 21.161v0c-0.443 0.001-0.802 0.361-0.803 0.804v0.611c0.239 0.088 0.515 0.14 0.803 0.14s0.564-0.051 0.819-0.145l-0.017 0.005v-0.611c-0.001-0.443-0.36-0.803-0.803-0.804h-0z"></path>
<path fill="#fff" d="M9.052 19.967c-0.062-0.118-0.099-0.258-0.099-0.407 0-0.018 0.001-0.036 0.002-0.054l-0 0.002c0.011-0.166 0.087-0.312 0.202-0.415l0.001-0c0.133-0.113 0.313-0.153 0.486-0.167s0.35-0.006 0.521-0.039c0.293-0.061 0.538-0.232 0.694-0.468l0.003-0.004c0.008 0.056 0.012 0.121 0.012 0.187 0 0.076-0.006 0.15-0.017 0.222l0.001-0.008c-0.022 0.138-0.098 0.255-0.206 0.33l-0.002 0.001c0.14-0.064 0.123 0.086 0.093 0.176 0.069 0.083 0.233 0.096 0.244 0.204 0.004 0.026 0.006 0.056 0.006 0.087 0 0.083-0.015 0.162-0.042 0.235l0.002-0.005c-0.042 0.099 0.003 0.273-0.104 0.28"></path>
<path fill="#fff" d="M10.701 19.123s0.636 0.055 0.183 1z"></path>
<path fill="#000" opacity="0.1" d="M5.253 23.663h9.386v7.888h-9.386v-7.888z"></path>
<path fill="#fff" d="M7.051 25.361h4.593v0.449h-4.593v-0.449z"></path>
<path fill="#bdbdbd" d="M18.183 18.421h4.593v0.449h-4.593v-0.449z"></path>
<path fill="#e0e0e0" d="M18.183 21.117h16.425v0.449h-16.425v-0.449z"></path>
<path fill="#e0e0e0" d="M18.183 23.813h16.425v0.449h-16.425v-0.449z"></path>
<path fill="#64ffda" d="M18.183 26.509h4.593v0.449h-4.593v-0.449z"></path>
<path fill="#f5f5f5" d="M24.074 26.509h4.593v0.449h-4.593v-0.449z"></path>
<path fill="#64ffda" d="M30.015 26.509h4.593v0.449h-4.593v-0.449z"></path>
<path fill="#fff" d="M7.051 26.409h5.691v0.449h-5.691v-0.449z"></path>
</svg>
