<!-- Generated by IcoMoon.io -->
<svg version="1.1" xmlns="http://www.w3.org/2000/svg" width="38" height="32" viewBox="0 0 38 32">
<title>tailored_functionalities</title>
<path fill="#6c63ff" opacity="0.1" d="M3.871 0.959c-1.436 0.257-3.085 0.715-3.665 2.124-0.531 1.288 0.092 2.738 0.511 4.071 0.395 1.213 0.627 2.61 0.636 4.060l0 0.005c0.011 1.94-0.367 3.985 0.4 5.747 0.866 1.988 3.010 3.139 3.761 5.177 0.315 0.855 0.353 1.79 0.503 2.693 0.333 2.001 1.242 3.891 2.577 5.355 0.888 0.973 2.043 1.79 3.323 1.81 0.971 0.015 1.888-0.425 2.787-0.811 0.854-0.382 1.923-0.776 3.020-1.104l0.201-0.052c0.462-0.135 0.937-0.259 1.415-0.217 0.92 0.079 1.688 0.755 2.561 1.073 2.367 0.858 4.813-1.007 7.31-1.203 2.141-0.169 4.291 0.907 6.394 0.458 0.31-0.066 0.641-0.187 0.804-0.473 0.269-0.474-0.065-1.13 0.174-1.621s0.885-0.542 1.264-0.916c0.386-0.381 0.417-1.038 0.221-1.555s-0.576-0.928-0.941-1.331c-1.725-1.899-3.359-3.967-4.847-6.144l-0.127-0.196c-1.537-2.272-2.975-4.945-2.543-7.698 0.149-0.948 0.516-1.844 0.683-2.789s0.098-2.014-0.512-2.727c-0.365-0.426-0.876-0.672-1.373-0.906-4.632-2.186-9.594-4.425-14.609-3.597-0.816 0.135-1.625 0.351-2.45 0.38-1.195 0.043-2.321-0.491-3.488-0.318-1.326 0.196-2.665 0.47-3.99 0.707z"></path>
<path fill="#6c63ff" d="M3.254 1.821c0.155 0.155 0.321 0.886 0.321 0.886s-0.729-0.171-0.884-0.327c-0.063-0.070-0.102-0.163-0.102-0.266 0-0.219 0.178-0.397 0.397-0.397 0.103 0 0.197 0.039 0.268 0.104l-0-0z"></path>
<path fill="#6c63ff" d="M4.575 2.22c0.045 0.215-0.212 0.918-0.212 0.918s-0.519-0.54-0.565-0.755c-0.003-0.019-0.005-0.042-0.005-0.064 0-0.219 0.178-0.397 0.397-0.397 0.184 0 0.339 0.125 0.384 0.295l0.001 0.003z"></path>
<path fill="#6c63ff" d="M6.017 3.711c-0.069 0.208-0.646 0.686-0.646 0.686s-0.176-0.728-0.106-0.936c0.054-0.16 0.203-0.272 0.377-0.272 0.22 0 0.398 0.178 0.398 0.398 0 0.045-0.007 0.088-0.021 0.128l0.001-0.003z"></path>
<path fill="#6c63ff" d="M6.856 5.085c-0.033 0.217-0.521 0.785-0.521 0.785s-0.296-0.688-0.263-0.905c0.021-0.201 0.19-0.357 0.395-0.357 0.219 0 0.397 0.178 0.397 0.397 0 0.028-0.003 0.055-0.008 0.081l0-0.003z"></path>
<path fill="#6c63ff" d="M3.802 3.756c0.219-0.002 0.85-0.407 0.85-0.407s-0.64-0.389-0.859-0.387c-0.217 0.003-0.393 0.179-0.393 0.397 0 0.219 0.178 0.397 0.397 0.397 0.002 0 0.003 0 0.005-0h-0z"></path>
<path fill="#6c63ff" d="M4.801 5.35c0.208-0.068 0.689-0.642 0.689-0.642s-0.727-0.18-0.936-0.112c-0.153 0.058-0.26 0.203-0.26 0.373 0 0.219 0.178 0.397 0.397 0.397 0.039 0 0.076-0.006 0.112-0.016l-0.003 0.001z"></path>
<path fill="#6c63ff" d="M5.985 6.767c0.217-0.032 0.788-0.516 0.788-0.516s-0.686-0.3-0.903-0.269c-0.201 0.021-0.357 0.19-0.357 0.395 0 0.219 0.178 0.397 0.397 0.397 0.026 0 0.052-0.003 0.077-0.007l-0.003 0z"></path>
<path fill="#6c63ff" d="M1.784 7.304c0.155 0.155 0.321 0.886 0.321 0.886s-0.729-0.171-0.884-0.327c-0.063-0.070-0.102-0.163-0.102-0.266 0-0.219 0.178-0.397 0.397-0.397 0.103 0 0.197 0.039 0.268 0.104l-0-0z"></path>
<path fill="#6c63ff" d="M3.105 7.702c0.045 0.215-0.212 0.918-0.212 0.918s-0.519-0.54-0.565-0.755c-0.003-0.019-0.005-0.042-0.005-0.064 0-0.219 0.178-0.397 0.397-0.397 0.184 0 0.339 0.125 0.384 0.295l0.001 0.003z"></path>
<path fill="#6c63ff" d="M4.547 9.194c-0.069 0.208-0.646 0.686-0.646 0.686s-0.176-0.728-0.106-0.936c0.054-0.16 0.203-0.272 0.377-0.272 0.22 0 0.398 0.178 0.398 0.398 0 0.045-0.007 0.088-0.021 0.128l0.001-0.003z"></path>
<path fill="#6c63ff" d="M5.386 10.568c-0.033 0.217-0.521 0.785-0.521 0.785s-0.296-0.688-0.263-0.905c0.021-0.201 0.19-0.357 0.395-0.357 0.219 0 0.397 0.178 0.397 0.397 0 0.028-0.003 0.055-0.008 0.081l0-0.003z"></path>
<path fill="#6c63ff" d="M2.332 9.238c0.219-0.002 0.85-0.407 0.85-0.407s-0.64-0.389-0.859-0.387c-0.217 0.003-0.393 0.179-0.393 0.397 0 0.219 0.178 0.397 0.397 0.397 0.002 0 0.003 0 0.005-0h-0z"></path>
<path fill="#6c63ff" d="M3.331 10.833c0.208-0.068 0.689-0.642 0.689-0.642s-0.727-0.18-0.936-0.112c-0.168 0.049-0.288 0.201-0.288 0.382 0 0.219 0.178 0.397 0.397 0.397 0.049 0 0.096-0.009 0.14-0.025l-0.003 0.001z"></path>
<path fill="#6c63ff" d="M4.515 12.25c0.217-0.032 0.788-0.516 0.788-0.516s-0.686-0.3-0.903-0.269c-0.201 0.021-0.357 0.19-0.357 0.395 0 0.219 0.178 0.397 0.397 0.397 0.026 0 0.052-0.003 0.077-0.007l-0.003 0z"></path>
<path fill="#b90cb4" d="M25.007 0h-18.457c-0.001 0-0.002 0-0.002 0-0.933 0-1.69 0.756-1.691 1.688v25.575c0.001 0.933 0.758 1.689 1.691 1.689 0.001 0 0.002 0 0.003 0h18.457c0.001 0 0.002 0 0.002 0 0.933 0 1.69-0.756 1.691-1.688v-25.576c-0.002-0.933-0.758-1.688-1.691-1.688-0.001 0-0.002 0-0.003 0h0z"></path>
<path fill="#535461" d="M5.912 0.347h19.734c0.439 0 0.795 0.356 0.795 0.795v26.755c0 0.439-0.356 0.795-0.795 0.795h-19.734c-0.439 0-0.795-0.356-0.795-0.795v-26.755c0-0.439 0.356-0.795 0.795-0.795z"></path>
<path fill="#f1f1f4" d="M6.2 3.028h19.157v22.982h-19.157v-22.982z"></path>
<path fill="#fff" d="M15.952 1.647c0 0.144-0.117 0.26-0.26 0.26s-0.26-0.117-0.26-0.26c0-0.144 0.117-0.26 0.26-0.26s0.26 0.117 0.26 0.26z"></path>
<path fill="#fff" d="M16.472 27.304c0 0.431-0.349 0.78-0.78 0.78s-0.78-0.349-0.78-0.78c0-0.431 0.349-0.78 0.78-0.78s0.78 0.349 0.78 0.78z"></path>
<path fill="#6c63ff" d="M8.979 6.013h2.793c0.26 0 0.471 0.211 0.471 0.471v2.793c0 0.26-0.211 0.471-0.471 0.471h-2.793c-0.26 0-0.471-0.211-0.471-0.471v-2.793c0-0.26 0.211-0.471 0.471-0.471z"></path>
<path fill="#6c63ff" opacity="0.2" d="M22.578 9.748h-2.793c-0.26 0-0.471-0.211-0.471-0.471v-2.793c0-0.26 0.211-0.471 0.471-0.471h2.793c0.26 0 0.471 0.211 0.471 0.471v2.793c0 0.26-0.211 0.471-0.471 0.471z"></path>
<path fill="#6c63ff" d="M14.382 6.013h2.793c0.26 0 0.471 0.211 0.471 0.471v2.793c0 0.26-0.211 0.471-0.471 0.471h-2.793c-0.26 0-0.471-0.211-0.471-0.471v-2.793c0-0.26 0.211-0.471 0.471-0.471z"></path>
<path fill="#6c63ff" d="M8.979 12.609h2.793c0.26 0 0.471 0.211 0.471 0.471v2.793c0 0.26-0.211 0.471-0.471 0.471h-2.793c-0.26 0-0.471-0.211-0.471-0.471v-2.793c0-0.26 0.211-0.471 0.471-0.471z"></path>
<path fill="#6c63ff" opacity="0.2" d="M22.578 16.343h-2.793c-0.26 0-0.471-0.211-0.471-0.471v-2.793c0-0.26 0.211-0.471 0.471-0.471h2.793c0.26 0 0.471 0.211 0.471 0.471v2.793c0 0.26-0.211 0.471-0.471 0.471z"></path>
<path fill="#6c63ff" opacity="0.2" d="M14.382 12.609h2.793c0.26 0 0.471 0.211 0.471 0.471v2.793c0 0.26-0.211 0.471-0.471 0.471h-2.793c-0.26 0-0.471-0.211-0.471-0.471v-2.793c0-0.26 0.211-0.471 0.471-0.471z"></path>
<path fill="#6c63ff" d="M8.979 19.204h2.793c0.26 0 0.471 0.211 0.471 0.471v2.793c0 0.26-0.211 0.471-0.471 0.471h-2.793c-0.26 0-0.471-0.211-0.471-0.471v-2.793c0-0.26 0.211-0.471 0.471-0.471z"></path>
<path fill="#6c63ff" d="M22.578 22.938h-2.793c-0.26 0-0.471-0.211-0.471-0.471v-2.793c0-0.26 0.211-0.471 0.471-0.471h2.793c0.26 0 0.471 0.211 0.471 0.471v2.793c0 0.26-0.211 0.471-0.471 0.471z"></path>
<path fill="#6c63ff" d="M14.382 19.204h2.793c0.26 0 0.471 0.211 0.471 0.471v2.793c0 0.26-0.211 0.471-0.471 0.471h-2.793c-0.26 0-0.471-0.211-0.471-0.471v-2.793c0-0.26 0.211-0.471 0.471-0.471z"></path>
<path fill="#fe4ca1" d="M31.388 11.041c-0.008-0.045-0.025-0.085-0.048-0.12l0.001 0.001c-0.028-0.033-0.059-0.063-0.092-0.089l-0.001-0.001c-0.188-0.176-0.087-0.494-0.159-0.739-0.079-0.262-0.358-0.462-0.599-0.596-0.036-0.021-0.077-0.038-0.121-0.050l-0.003-0.001c-0.049-0.008-0.107-0.013-0.165-0.013-0 0-0 0-0.001 0h0c-0.092-0.006-0.178-0.026-0.257-0.059l0.005 0.002c-0.115-0.047-0.217-0.119-0.335-0.159-0.017-0.007-0.038-0.010-0.059-0.010-0.005 0-0.009 0-0.013 0.001l0.001-0c-0.128-0.012-0.133 0.148-0.271 0.24-0.057 0.040-0.112 0.095-0.112 0.163 0 0.093 0.095 0.155 0.18 0.196s0.105 0.033 0.121 0.033h0.007c0.012 0.002 0.024 0.012 0.057 0.048-0.522 0.084-0.917 0.529-0.92 1.068v0c0 0 0 0.001 0 0.001 0 0.158 0.034 0.308 0.096 0.443l-0.003-0.007c-0.004 0.025-0.008 0.052-0.012 0.079-0.042 0.256-0.119 0.565-0.252 0.821-0.109 0.022-0.178 0.040-0.178 0.040 0.001 0.005 0.002 0.010 0.002 0.016v0l-0.040 0.029-0.167 0.119c-0.329-0.545-0.664-1.221-0.678-1.729 0 0-0.040 0.027-0.107 0.070v-0.361l-0.021-0.004 0.021-0.040 0.155-0.293c0.056-0.104 0.090-0.226 0.092-0.357v-0.001c0.007-0.461-0.008-1.597-0.327-1.786-0.402-0.238-0.482 0.792-0.696 1.32-0.159 0.394-0.079 0.964-0.031 1.228 0.004 0.018 0.007 0.034 0.010 0.049-0.15 0.057-0.275 0.116-0.396 0.182l0.015-0.008c0.085 0.033 0.148 0.298 0.183 0.489 0.004 0.020 0.007 0.040 0.010 0.058-0.067 0.022-0.15 0.043-0.235 0.059l-0.012 0.002 0.691 1.507c-0.147 0.171-0.455 0.47-0.691 0.315-0.321-0.211-1.311-0.106-1.311-0.106s-0.566-1.502-0.539-1.952c0 0-0.030 0.015-0.079 0.040v-0.41c-0.016 0.011-0.035 0.022-0.055 0.032l-0.003 0.001 0.021-0.037 0.031-0.054c0.056-0.097 0.092-0.211 0.102-0.333l0-0.003c0.033-0.462 0.082-1.648-0.283-1.797-0.455-0.185-0.589 1.135-0.589 1.135l0.097 1.195 0.002 0.027c-0.216 0.019-0.394 0.019-0.394 0.019 0.054 0.054 0.072 0.35 0.079 0.535 0 0.019 0 0.037 0 0.053-0.11 0.019-0.205 0.021-0.267-0.007l0.723 1.954s0.054 0.477 0.991 0.687c0.551 0.124 0.935 0.238 1.159 0.313-0.382 0.906-1.708 4.172-1.319 4.966 0 0 0.208-0.079 0.421-0.149 0.049 0.685 0.135 1.722 0.238 2.387-0.113 0.35-0.199 0.644-0.226 0.812-0.002 0.014-0.004 0.027-0.006 0.040-0.079 0.634-0.723 1.848 0.241 2.878 0 0 0.669 0.397 0.723 0.871 0.045 0.4 0.752 1.396 0.977 1.704-0.179 0.308-0.685 1.12-1.137 1.333-0.562 0.264-0.107 0.634 0.428 0.556s2.304-1.346 2.304-1.346-0.012-0.83-0.18-0.89v0l-0.161-0.332c0.098-0.015 0.186-0.040 0.269-0.074l-0.008 0.003c0.723-0.29 1.714-0.818 1.714-0.818s0.019-0.62-0.261-0.847c-0.144-0.444-0.81-0.842-0.81-0.842s-0.483-1.242-1.661-1.586c0 0-0.19-0.268-0.183-0.575 0.077-0.149 0.13-0.243 0.13-0.243l0.609-1.446c0.156-0.139 0.288-0.3 0.392-0.48l0.005-0.009q0.014-0.025 0.026-0.050c0.367 0.043 0.656 0.087 0.656 0.087l-0.027-1.267c-0.243-2.615 0.507-3.381 0.507-3.381s1.073-1.294 1.178-2.218c0.099-0.853-0.623-0.896-0.735-0.897-0.008-0.047-0.013-0.101-0.013-0.157 0-0.080 0.010-0.157 0.028-0.231l-0.001 0.007 0.013 0.009c0.022 0.018 0.049 0.030 0.079 0.033l0.001 0c0.003 0 0.006 0 0.009 0s0.006-0 0.009-0l-0 0h0.010c0.028-0.001 0.053-0.010 0.075-0.023l-0.001 0c0.28-0.147 0.498-0.413 0.806-0.489 0.064-0.016 0.131-0.023 0.195-0.044 0.144-0.052 0.257-0.159 0.316-0.294l0.001-0.004c0.035-0.082 0.055-0.177 0.055-0.277 0-0.057-0.007-0.113-0.019-0.166l0.001 0.005zM27.455 25.026c0.054 0.185 0.911 0.818 0.911 0.818l0.033 0.228c-0.211 0.2-0.437 0.392-0.673 0.571l-0.020 0.015-0.305-0.629s-0.455-1.452-0.857-1.61c-0.074-0.029-0.098-0.119-0.088-0.245 0.261 0.191 0.954 0.704 0.997 0.853z"></path>
<path fill="#575988" d="M25.857 14.325s-1.821 4.215-1.379 5.125c0 0 0.729-0.286 0.834-0.234s1.145-5.437 1.145-5.437z"></path>
<path fill="#000" opacity="0.05" d="M25.857 14.325s-1.821 4.215-1.379 5.125c0 0 0.729-0.286 0.834-0.234s1.145-5.437 1.145-5.437z"></path>
<path fill="#575988" d="M26.846 27.749s-0.625 1.171-1.171 1.43-0.104 0.625 0.416 0.546 2.238-1.327 2.238-1.327-0.012-0.817-0.175-0.877-1.308 0.227-1.308 0.227z"></path>
<path fill="#575988" d="M28.485 25.85s-0.884 0.884-1.275 0.963 0.338 0.598 1.041 0.312 1.665-0.806 1.665-0.806 0.026-0.834-0.416-0.911-1.014 0.442-1.014 0.442z"></path>
<path fill="#67647e" d="M24.843 18.617s0.182 3.174 0.416 3.615 1.119 1.795 1.119 1.795 1.015 0.729 1.067 0.911 0.884 0.806 0.884 0.806l0.052 0.364s1.379-0.079 1.301-0.546-0.806-0.911-0.806-0.911-0.468-1.223-1.613-1.561c0 0-0.364-0.52-0.052-0.936 0 0 0.781-1.951 1.223-2.185s-0.182-1.586-0.182-1.586z"></path>
<path fill="#000" opacity="0.05" d="M24.843 18.617s0.182 3.174 0.416 3.615 1.119 1.795 1.119 1.795 1.015 0.729 1.067 0.911 0.884 0.806 0.884 0.806l0.052 0.364s1.379-0.079 1.301-0.546-0.806-0.911-0.806-0.911-0.468-1.223-1.613-1.561c0 0-0.364-0.52-0.052-0.936 0 0 0.781-1.951 1.223-2.185s-0.182-1.586-0.182-1.586z"></path>
<path fill="#67647e" d="M27.392 25.928l0.834 1.743c-0.13 0.442-1.379 0.286-1.379 0.286s-0.963-1.301-1.015-1.769-0.702-0.859-0.702-0.859c-0.936-1.015-0.312-2.211-0.234-2.836 0-0.012 0.004-0.025 0.006-0.040 0.069-0.419 0.49-1.623 0.818-2.526 0.221-0.608 0.399-1.078 0.399-1.078s1.743 0.079 2.106 0.702c0.167 0.286 0.092 0.584-0.038 0.822-0.106 0.186-0.234 0.345-0.383 0.481l-0.002 0.001-0.592 1.428s-1.040 1.901-0.648 2.057 0.831 1.587 0.831 1.587z"></path>
<path fill="#f7c4a7" d="M24.285 10.502c-0.009 0.123-0.044 0.236-0.101 0.335l0.002-0.004-0.030 0.054-0.147 0.264h-0.468l-0.010-0.123-0.094-1.178s0.13-1.301 0.573-1.119c0.355 0.146 0.308 1.315 0.275 1.77z"></path>
<path fill="#000" opacity="0.1" d="M24.157 10.886l-0.147 0.264h-0.468l-0.010-0.123c0.218-0.019 0.478-0.059 0.625-0.141z"></path>
<path fill="#e6e6f0" d="M24.192 10.891v0.598l-0.963 0.26s0-0.062-0.003-0.149c-0.006-0.183-0.023-0.474-0.076-0.527 0 0.001 0.781 0.001 1.041-0.182z"></path>
<path fill="#000" opacity="0.1" d="M24.192 11.241v0.248l-0.963 0.26s0-0.062-0.003-0.149c0.321-0.056 0.783-0.27 0.965-0.359z"></path>
<path fill="#f7c4a7" d="M29.807 12.229c-0.19 0.548 0.057 0.795 0.057 0.795s-2.342 0.156-1.769-0.26c0.334-0.243 0.482-0.779 0.547-1.183 0.026-0.147 0.044-0.321 0.051-0.498l0-0.008s1.871-0.027 1.483 0.494c-0.149 0.19-0.274 0.408-0.364 0.644l-0.006 0.017z"></path>
<path fill="#000" opacity="0.1" d="M30.177 11.567c-0.191 0.257-0.253 0.294-0.318 0.48-0.053 0.009-0.113 0.015-0.175 0.015-0.001 0-0.002 0-0.003 0h0c-0.446 0-0.88-0.092-1.040-0.481 0.026-0.147 0.044-0.322 0.051-0.499l0-0.008s1.871-0.029 1.483 0.493z"></path>
<path fill="#f7c4a7" d="M30.696 11.073c0 0.589-0.478 1.067-1.067 1.067s-1.067-0.478-1.067-1.067c0-0.589 0.478-1.067 1.067-1.067s1.067 0.478 1.067 1.067z"></path>
<path fill="#575988" d="M24.27 11.255s-1.015 0.52-1.301 0.39l0.702 1.925s0.052 0.468 0.963 0.675 1.353 0.39 1.353 0.39l1.691-2.003-0.859 0.234s-0.442 0.625-0.755 0.416-1.274-0.103-1.274-0.103-0.546-1.482-0.52-1.925z"></path>
<path fill="#000" opacity="0.05" d="M24.27 11.255s-1.015 0.52-1.301 0.39l0.702 1.925s0.052 0.468 0.963 0.675 1.353 0.39 1.353 0.39l1.691-2.003-0.859 0.234s-0.442 0.625-0.755 0.416-1.274-0.103-1.274-0.103-0.546-1.482-0.52-1.925z"></path>
<path fill="#000" opacity="0.1" d="M28.225 12.483s1.375-0.393 1.52 0.337c0 0-0.636-0.31-1.546 0.238-0.068 0.040-0.135 0.085-0.199 0.13-0.801 0.561-1.361 1.43-1.586 2.417l-0.581 2.547-0.052 0.685s-0.834 0.164-0.988-0.082-0.052-1.068 0.182-1.342 0.597-1.453 0.597-1.453l0.228-0.683c0.203-0.603 0.507-1.123 0.896-1.568l-0.005 0.005 0.055-0.066c0.339-0.405 0.764-0.727 1.247-0.94l0.022-0.009c0.133-0.058 0.23-0.13 0.211-0.217z"></path>
<path fill="#e6e6f0" d="M28.225 12.431s1.375-0.393 1.52 0.337c0 0-0.636-0.31-1.546 0.238-0.068 0.040-0.135 0.085-0.199 0.13-0.801 0.561-1.361 1.43-1.586 2.417l-0.581 2.547-0.052 0.685s-0.834 0.164-0.988-0.082-0.052-1.068 0.182-1.342 0.598-1.452 0.598-1.452l0.228-0.683c0.203-0.603 0.507-1.123 0.896-1.568l-0.005 0.005 0.055-0.066c0.339-0.405 0.764-0.727 1.247-0.94l0.022-0.009c0.132-0.058 0.228-0.131 0.21-0.217z"></path>
<path fill="#000" opacity="0.1" d="M24.766 17.675l0.012 0.448 0.364-0.234s0.649-2.361 1.106-3.005c0.054-0.076 0.079-0.189 0.13-0.208l1.86-1.795v-0.417s-0.95 0.702-1.028 0.834c-0.033 0.055-0.532 0.328-0.834 0.755-0.245 0.353-0.483 0.758-0.691 1.18l-0.025 0.056-0.625 1.405z"></path>
<path fill="#787c9c" d="M28.238 12.438v0.403l-1.886 1.808c-0.050 0.019-0.076 0.132-0.13 0.208-0.457 0.644-1.106 3.005-1.106 3.005l-0.364 0.234-0.012-0.448 0.272-0.982 0.625-1.405c0.232-0.478 0.47-0.883 0.736-1.267l-0.021 0.031c0.3-0.427 0.799-0.699 0.834-0.755 0.068-0.112 0.801-0.649 1.003-0.795z"></path>
<path fill="#000" opacity="0.1" d="M29.274 9.94c-0.082-0.040-0.175-0.101-0.175-0.193 0-0.067 0.053-0.123 0.108-0.159 0.149-0.101 0.137-0.284 0.308-0.227 0.114 0.040 0.214 0.111 0.325 0.157 0.072 0.031 0.155 0.051 0.243 0.056l0.002 0c0 0 0 0 0 0 0.056 0 0.111 0.005 0.165 0.014l-0.006-0.001c0.045 0.012 0.085 0.029 0.121 0.051l-0.002-0.001c0.235 0.133 0.41 0.348 0.489 0.606l0.002 0.007c0.071 0.242 0.064 0.528 0.246 0.701 0.033 0.027 0.063 0.056 0.090 0.088l0.001 0.001c0.022 0.034 0.038 0.074 0.045 0.117l0 0.002c0.011 0.048 0.018 0.103 0.018 0.159 0 0.098-0.020 0.192-0.055 0.277l0.002-0.005c-0.059 0.137-0.169 0.242-0.307 0.292l-0.004 0.001c-0.062 0.020-0.126 0.027-0.189 0.043-0.299 0.075-0.511 0.338-0.783 0.482-0.021 0.013-0.045 0.021-0.072 0.023h-0c-0.029-0.003-0.055-0.015-0.076-0.033l0 0c-0.105-0.075-0.192-0.192-0.189-0.321 0.009-0.086 0.034-0.164 0.071-0.235l-0.002 0.004c0.052-0.119 0.097-0.259 0.128-0.404l0.003-0.015c0.005-0.017 0.008-0.036 0.008-0.056 0-0.016-0.002-0.032-0.005-0.047l0 0.001c-0.020-0.063-0.090-0.093-0.138-0.137-0.092-0.085-0.103-0.231-0.069-0.352s0.106-0.228 0.159-0.342c0.018-0.032 0.029-0.070 0.031-0.11l0-0.001c0-0.152-0.206-0.235-0.292-0.335-0.113-0.137-0.039-0.029-0.199-0.108z"></path>
<path fill="#b96b6b" d="M29.301 9.94c-0.082-0.040-0.175-0.101-0.175-0.193 0-0.067 0.053-0.123 0.108-0.159 0.149-0.101 0.137-0.284 0.308-0.227 0.114 0.040 0.214 0.111 0.325 0.157 0.072 0.031 0.155 0.051 0.243 0.056l0.002 0c0.054 0.003 0.227-0.079 0.278-0.067 0.045 0.012 0.085 0.029 0.121 0.051l-0.002-0.001c0.235 0.133 0.41 0.348 0.489 0.606l0.002 0.007c0.071 0.242 0.021 0.543 0.203 0.715 0.031 0.029-0.011 0.119 0.014 0.152 0.022 0.034 0.038 0.074 0.045 0.117l0 0.002c0.011 0.048 0.018 0.103 0.018 0.159 0 0.098-0.020 0.192-0.055 0.277l0.002-0.005c-0.059 0.137-0.169 0.242-0.307 0.292l-0.004 0.001c-0.062 0.020-0.126 0.027-0.189 0.043-0.299 0.075-0.511 0.338-0.783 0.482-0.021 0.013-0.045 0.021-0.072 0.023h-0c-0.029-0.003-0.055-0.015-0.076-0.033l0 0c-0.105-0.075-0.192-0.192-0.189-0.321 0.009-0.086 0.034-0.164 0.071-0.235l-0.002 0.004c0.052-0.119 0.097-0.259 0.128-0.404l0.003-0.015c0.005-0.017 0.008-0.036 0.008-0.056 0-0.016-0.002-0.032-0.005-0.047l0 0.001c-0.020-0.063-0.090-0.093-0.138-0.137-0.092-0.085-0.103-0.231-0.069-0.352s0.106-0.228 0.159-0.342c0.018-0.032 0.029-0.070 0.031-0.11l0-0.001c0-0.152-0.206-0.235-0.292-0.335-0.113-0.135-0.039-0.027-0.199-0.106z"></path>
<path fill="#000" opacity="0.1" d="M28.187 20.376c-0.477-0.056-1.077-0.112-1.341-0.068-0.425 0.071-1.021-0.308-1.128-0.379 0.221-0.608 0.399-1.078 0.399-1.078s1.743 0.079 2.106 0.702c0.169 0.286 0.094 0.584-0.036 0.822z"></path>
<path fill="#575988" d="M30.462 13.648c-0.104 0.911-1.145 2.185-1.145 2.185s-0.729 0.755-0.494 3.33l0.026 1.249s-1.535-0.234-2.003-0.156-1.145-0.39-1.145-0.39-0.261-4.501 0.86-5.437c0.152-0.234 0.299-0.434 0.457-0.625l-0.009 0.011c0.3-0.364 0.709-0.773 1.091-0.874 0.045-0.013 0.096-0.021 0.149-0.023l0.001-0s1.171-0.65 1.483-0.156c-0 0.002 0.832-0.024 0.728 0.886z"></path>
<path fill="#000" opacity="0.1" d="M25.714 18.5s0.416-0.182 1.119-0.13 1.953-0.573 1.953-0.573z"></path>
<path fill="#000" opacity="0.05" d="M26.469 24.304s0.026 0.079-0.312 0.182-0.442 0.208-0.442 0.208z"></path>
<path fill="#6c63ff" d="M26.843 10.29h-2.793c-0.26 0-0.471-0.211-0.471-0.471v-2.793c0-0.26 0.211-0.471 0.471-0.471h2.793c0.26 0 0.471 0.211 0.471 0.471v2.793c0 0.26-0.211 0.471-0.471 0.471z"></path>
<path fill="#f7c4a7" d="M27.501 9.918c-0.002 0.129-0.035 0.25-0.091 0.357l0.002-0.004-0.15 0.289-0.104 0.199-0.65 0.052s-0.014-0.054-0.030-0.142c-0.048-0.26-0.125-0.822 0.030-1.211 0.208-0.52 0.286-1.535 0.675-1.301 0.311 0.187 0.325 1.307 0.318 1.761z"></path>
<path fill="#000" opacity="0.1" d="M27.262 10.552v0.008l-0.104 0.199-0.65 0.052s-0.014-0.054-0.030-0.142c0.233-0.089 0.538-0.171 0.785-0.116z"></path>
<path fill="#e6e6f0" d="M27.262 10.604v0.47l-0.936 0.494s-0.011-0.085-0.031-0.194c-0.034-0.188-0.095-0.449-0.178-0.482 0-0.001 0.676-0.392 1.145-0.288z"></path>
<path fill="#000" opacity="0.05" d="M29.795 14.857c-0.193 0.171-0.449 0.275-0.729 0.275-0.040 0-0.079-0.002-0.118-0.006l0.005 0c-1.647-0.167-1.692-0.749-1.692-0.749l-0.253-0.562c0.3-0.364 0.709-0.773 1.091-0.874 0.273 0.44 0.516 0.757 0.516 0.757s1.223-0.936 1.587-0.052c0.211 0.517-0.107 0.944-0.409 1.211z"></path>
<path fill="#000" opacity="0.1" d="M27.262 10.891v0.183l-0.936 0.494s-0.011-0.085-0.031-0.194c0.404-0.131 0.803-0.376 0.967-0.483z"></path>
<path fill="#575988" d="M27.366 10.891s-0.702 0.494-1.301 0.598l1.223 2.706s0.045 0.582 1.692 0.749c0.034 0.004 0.073 0.006 0.112 0.006 0.28 0 0.535-0.104 0.73-0.276l-0.001 0.001c0.302-0.267 0.619-0.694 0.407-1.209-0.364-0.884-1.587 0.052-1.587 0.052s-1.249-1.639-1.275-2.627z"></path>
<path fill="#6c63ff" d="M31.521 28.381h5.986c0.059 0 0.106 0.047 0.106 0.106v0.344c0 0.059-0.047 0.106-0.106 0.106h-5.986c-0.059 0-0.106-0.047-0.106-0.106v-0.344c0-0.059 0.047-0.106 0.106-0.106z"></path>
<path fill="#6c63ff" d="M30.846 27.824h5.986c0.059 0 0.106 0.047 0.106 0.106v0.344c0 0.059-0.047 0.106-0.106 0.106h-5.986c-0.059 0-0.106-0.047-0.106-0.106v-0.344c0-0.059 0.047-0.106 0.106-0.106z"></path>
<path fill="#000" opacity="0.05" d="M30.846 27.824h5.986c0.059 0 0.106 0.047 0.106 0.106v0.344c0 0.059-0.047 0.106-0.106 0.106h-5.986c-0.059 0-0.106-0.047-0.106-0.106v-0.344c0-0.059 0.047-0.106 0.106-0.106z"></path>
</svg>
