<!-- Generated by IcoMoon.io -->
<svg version="1.1" xmlns="http://www.w3.org/2000/svg" width="42" height="32" viewBox="0 0 42 32">
<title>team-spirit</title>
<path fill="#6c63ff" opacity="0.1" d="M41.576 2.841h-4.302c-0.205 0-0.372-0.153-0.372-0.339s0.167-0.339 0.372-0.339h0.744c-0.205 0-0.372-0.153-0.372-0.339s0.167-0.339 0.372-0.339h-0.531c-0.205 0-0.372-0.153-0.372-0.339s0.167-0.339 0.372-0.339h2.245c-0.498-0.211-1.079-0.361-1.752-0.44-6.123-0.717-8.309-0.243-9.082 0.245-0.901 0.585-1.957 1.023-3.090 1.248l-0.057 0.010c-3.778 0.711-10.843 1.565-17.246-0.274-3.183-0.914-5.548 0.633-6.966 3.212h40.783c-0.053-0.75-0.213-1.443-0.505-2.050-0.066 0.052-0.149 0.083-0.24 0.083-0.001 0-0.001 0-0.002 0h0z"></path>
<path fill="#6c63ff" opacity="0.1" d="M0.092 9.681c-0.059 0.512-0.092 1.104-0.092 1.705 0 1.008 0.094 1.993 0.275 2.948l-0.015-0.098 37.773 1.259c1.011-1.055 1.884-2.254 2.582-3.561l0.042-0.087zM15.031 12.931h-0.744c0.204 0 0.372 0.153 0.372 0.339s-0.168 0.339-0.372 0.339h-4.3c-0.204 0-0.372-0.152-0.372-0.339s0.168-0.339 0.372-0.339h0.744c-0.204 0-0.372-0.153-0.372-0.339s0.168-0.339 0.372-0.339h-0.532c-0.204 0-0.372-0.152-0.372-0.339s0.168-0.339 0.372-0.339h4.302c0.205 0 0.372 0.153 0.372 0.339s-0.167 0.339-0.372 0.339h0.53c0.205 0 0.372 0.153 0.372 0.339s-0.166 0.339-0.372 0.339z"></path>
<path fill="#6c63ff" opacity="0.1" d="M42.325 4.832l-41.239 0.914c-0.502 1.176-0.835 2.505-0.988 3.883h41.505c0.244-0.698 0.453-1.532 0.588-2.391l0.011-0.084c0.124-0.81 0.173-1.593 0.124-2.322zM8.471 7.829h-0.744c0.204 0 0.372 0.153 0.372 0.339s-0.168 0.339-0.372 0.339h-4.302c-0.204 0-0.372-0.153-0.372-0.339s0.167-0.339 0.372-0.339h0.744c-0.204 0-0.372-0.152-0.372-0.339s0.167-0.339 0.372-0.339h-0.532c-0.204 0-0.372-0.153-0.372-0.339s0.167-0.339 0.372-0.339h4.302c0.205 0 0.372 0.153 0.372 0.339s-0.167 0.339-0.372 0.339h0.532c0.204 0 0.372 0.153 0.372 0.339s-0.168 0.339-0.372 0.339z"></path>
<path fill="#6c63ff" opacity="0.1" d="M27.527 27.913c0 0.347-1.254 0.629-2.8 0.629s-2.8-0.281-2.8-0.629c0-0.347 1.254-0.629 2.8-0.629s2.8 0.281 2.8 0.629z"></path>
<path fill="#6c63ff" opacity="0.1" d="M36.284 29.91c0 0.229-2.262 0.415-5.051 0.415s-5.051-0.186-5.051-0.415c0-0.229 2.262-0.415 5.051-0.415s5.051 0.186 5.051 0.415z"></path>
<path fill="#6c63ff" opacity="0.1" d="M16.002 29.281c0 0.347-2.262 0.629-5.051 0.629s-5.051-0.281-5.051-0.629c0-0.347 2.262-0.629 5.051-0.629s5.051 0.281 5.051 0.629z"></path>
<path fill="#6c63ff" opacity="0.1" d="M22.454 26.134c0 0.347-1.702 0.629-3.801 0.629s-3.801-0.281-3.801-0.629c0-0.347 1.702-0.629 3.801-0.629s3.801 0.281 3.801 0.629z"></path>
<path fill="#6c63ff" opacity="0.1" d="M22.757 31.37c0 0.347-1.362 0.629-3.043 0.629s-3.043-0.281-3.043-0.629c0-0.347 1.362-0.629 3.043-0.629s3.043 0.281 3.043 0.629z"></path>
<path fill="#1d1d90" d="M21.493 11.179c-0.080-0.541-0.572-1.804-0.572-1.804v0c-0.009-0.037-0.018-0.074-0.029-0.112-0.349-1.198-0.831-1.303-0.831-1.303l-1.729-0.372c0.015 0.009 0.027 0.021 0.037 0.034l0 0c-0.010 0.001-0.020 0.002-0.029 0.004l0.002-0c-0.076-0.090-0.13-0.201-0.151-0.324l-0.001-0.004c-0.003-0.018-0.006-0.037-0.009-0.055 0.227-0.221 0.367-0.53 0.367-0.871 0-0.388-0.181-0.733-0.464-0.956l-0.003-0.002c-0.018-0.014-0.037-0.028-0.055-0.041 0.082-0.087 0.084-0.207 0.023-0.328-0.136-0.283-0.433-0.462-0.737-0.549-0.233-0.067-0.484-0.088-0.715-0.015-0.131 0.042-0.251 0.112-0.374 0.174-0.23 0.115-0.484 0.205-0.655 0.394-0.040 0.044-0.077 0.1-0.066 0.158 0.009 0.043 0.043 0.077 0.065 0.115 0.050 0.086 0.037 0.194 0.003 0.288s-0.083 0.181-0.107 0.277-0.015 0.209 0.058 0.278c0.031 0.024 0.066 0.049 0.103 0.071l0.005 0.003c0.039 0.034 0.073 0.072 0.102 0.114l0.001 0.002q0.103 0.138 0.205 0.277c0.090 0.114 0.175 0.241 0.249 0.375l0.007 0.015c0.051 0.101 0.090 0.208 0.159 0.298 0.020 0.027 0.043 0.050 0.067 0.071l0.001 0.001-0.020-0.008c0.056 0.057 0.135 0.093 0.221 0.093 0.002 0 0.004-0 0.007-0h-0c0.004 0 0.007 0 0.010 0 0.016-0 0.031-0.007 0.042-0.017l-0 0c0 0.013 0 0.025 0 0.037 0.004 0.133 0.003 0.274-0.006 0.407l-0.016-0.008c-0.018-0.009-0.040-0.015-0.062-0.015-0.033 0-0.063 0.011-0.087 0.030l0-0-1.592 1.277s-0.346 0.473-0.298 1.291l-0.279 1.226s-0.349 1.040-0.080 1.782 0.424 1.167 0.424 1.167 0.107 0.844 0.268 0.913 0.231 0.106 0.231 0.106l0.032 0.202s0.011 0.020 0.030 0.053c0.117 0.204 0.552 0.924 0.804 0.847 0.027 0.156 0.042 0.335 0.042 0.518 0 0.026-0 0.052-0.001 0.078l0-0.004 0.25 1.677s0.174 0.456 0.163 0.695 0.203 0.579 0.203 0.579c-0.085 0.153-0.136 0.336-0.136 0.531 0 0.088 0.010 0.174 0.030 0.256l-0.002-0.008c0.102 0.447 0.231 2.504 0.231 2.504l0.186 0.499-0.005 0.585c-0.016 0.1-0.057 0.188-0.116 0.262l0.001-0.001c-0.121 0.131-0.112 0.282-0.402 0.462s-0.475 0.247-0.475 0.484c-0 0.035-0.004 0.069-0.009 0.102l0.001-0.004c-0.027 0.174-0.079 0.269 0.456 0.319 0.628 0.060 1.047-0.35 1.047-0.35s0.092-0.168 0.527-0.235c0 0 0.149-0.008 0.157-0.139 0.003-0.045 0.002-0.132 0-0.228-0.007-0.182-0.025-0.395-0.048-0.405-0.029-0.013-0.080-0.196-0.097-0.262h0.121s0.112-0.844 0-1.39-0.011-0.934-0.011-0.934l-0.022-1.443s-0.149-0.159-0.032-0.441 0-1.671 0-1.671 0.043-0.499 0.166-0.616 0.006-0.731 0-0.763l0.22 0.737s0.096 1.464 0.301 1.729l0.059 0.663s0.418 0.61 0.338 0.939 0.086 1.517 0.086 1.517v1.215s-0.188 0.488 0.074 0.663l0.112-0.004c-0.037 0.035-0.066 0.087-0.109 0.132-0.050 0.052-0.079 0.249-0.095 0.418-0.013 0.143-0.018 0.266-0.018 0.266s0.112 0.179 0.322 0.191 0.903 0.539 0.903 0.539 0.684 0 0.862-0.037l0.010-0.003c0.058-0.019 0.105-0.057 0.133-0.108l0.001-0.001c0.024-0.040 0.038-0.089 0.038-0.141 0-0.021-0.002-0.041-0.007-0.061l0 0.002c-0.022-0.105-0.105-0.219-0.289-0.317-0.457-0.241-0.526-0.467-0.526-0.467l-0.3-0.451h0.043s-0.026-0.478 0.3-1.014l-0.021-2.361s0.134-0.812-0.096-1.252c0 0-0.019-0.467 0.135-0.61s-0.205-1.591-0.205-1.591-0.074-0.777-0.162-1.487v0c0.362 0.344 0.738-0.893 0.801-1.113h0.009l-0.004-0.016c0.003-0.010 0.004-0.016 0.004-0.016v0s-0.080-0.286-0.022-0.228 0.204-0.159 0.204-0.159-0.022-1.183 0.231-1.779-0.112-2.049-0.112-2.049zM20.414 11.932l0.002-0.003c0.037 0.722-0.007 2.264-0.007 2.264s-0.050 0.198-0.103 0.43l-0.037-1.465-0.037-1.38zM15.794 11.434s0.182 2.281 0 2.61c-0.052 0.094-0.095 0.261-0.131 0.451-0.060-0.158-0.188-0.53-0.142-0.727 0.059-0.255-0.118-0.923-0.118-0.939s-0.016-0.372 0.112-0.645 0.044-0.39 0.044-0.39 0.107-0.447 0.236-0.36z"></path>
<path fill="#d38884" d="M16.239 16.572c-0.159 0.699-0.791-0.358-0.935-0.611-0.019-0.033-0.029-0.052-0.029-0.052l0.069-0.321 0.362-0.149c0.062 0.033 0.115 0.068 0.164 0.107l-0.002-0.002c0.198 0.156 0.494 0.487 0.371 1.028z"></path>
<path fill="#d38884" d="M21.142 15.429s0 0.005-0.004 0.016c0 0.004-0.003 0.010-0.005 0.017-0.062 0.218-0.431 1.446-0.786 1.105-0.389-0.372-0.2-1.233-0.2-1.233h0.003l0.819-0.084 0.162 0.167s0 0 0 0z"></path>
<path fill="#444053" d="M20.668 21.471l0.021 2.345c-0.321 0.532-0.295 1.005-0.295 1.005l-1.059 0.042c-0.258-0.174-0.074-0.658-0.074-0.658v-1.207s-0.163-1.18-0.084-1.506-0.332-0.93-0.332-0.93l-0.058-0.658c-0.2-0.263-0.295-1.717-0.295-1.717l-0.215-0.734c0.006 0.032 0.118 0.644 0 0.757s-0.163 0.611-0.163 0.611 0.116 1.38 0 1.659 0.031 0.437 0.031 0.437l0.021 1.433s-0.1 0.384 0.010 0.927 0 1.38 0 1.38h-1.136l0.005-0.585-0.184-0.495s-0.127-2.043-0.227-2.486c-0.018-0.074-0.028-0.16-0.028-0.247 0-0.193 0.049-0.374 0.136-0.533l-0.003 0.006s-0.21-0.337-0.2-0.574-0.162-0.689-0.162-0.689l-0.245-1.664c0-0.020 0.001-0.044 0.001-0.068 0-0.313-0.045-0.616-0.128-0.903l0.006 0.023c-0.142-0.474-0.353-1.096-0.353-1.096l1.438 0.128s2.918-0.196 3.048-0.033c0.026 0.049 0.045 0.107 0.055 0.167l0 0.003c0.131 0.588 0.304 2.432 0.304 2.432s0.353 1.438 0.201 1.58-0.133 0.605-0.133 0.605c0.227 0.437 0.095 1.245 0.095 1.245z"></path>
<path fill="#b07473" d="M18.201 25.544c-0.008 0.131-0.154 0.138-0.154 0.138-0.427 0.067-0.517 0.233-0.517 0.233s-0.409 0.407-1.027 0.348c-0.525-0.051-0.474-0.144-0.447-0.317 0.005-0.029 0.008-0.063 0.009-0.097v-0c0-0.237 0.182-0.304 0.466-0.484s0.277-0.328 0.395-0.458 0.131-0.383 0.131-0.383c0.134-0.233 0.474 0.037 0.474 0.037 0.016 0.083 0.521 0.071 0.521 0.071s0.067 0.269 0.102 0.284c0.023 0.010 0.040 0.221 0.047 0.402 0.004 0.095 0.004 0.181 0.002 0.226z"></path>
<path fill="#000" opacity="0.1" d="M18.201 25.544c-0.008 0.131-0.154 0.138-0.154 0.138-0.427 0.067-0.517 0.233-0.517 0.233s-0.409 0.407-1.027 0.348c-0.525-0.051-0.474-0.144-0.447-0.317 0.235 0.058 0.683 0.139 0.944-0.003 0.364-0.197 0.625-0.335 0.625-0.335l0.575-0.289c0.003 0.094 0.004 0.18 0.001 0.225z"></path>
<path fill="#b07473" d="M21.416 26.247c-0.028 0.051-0.074 0.090-0.129 0.108l-0.002 0-0.010 0.003c-0.174 0.037-0.846 0.037-0.846 0.037s-0.679-0.525-0.885-0.537-0.316-0.19-0.316-0.19 0.004-0.122 0.017-0.264c0.016-0.168 0.044-0.364 0.093-0.415 0.091-0.095 0.112-0.223 0.316-0.142 0 0 0.292-0.514 0.636-0.117l0.356 0.54s0.067 0.223 0.518 0.466c0.18 0.097 0.261 0.211 0.283 0.314 0.004 0.017 0.006 0.037 0.006 0.058 0 0.051-0.014 0.1-0.038 0.141l0.001-0.001z"></path>
<path fill="#000" opacity="0.1" d="M21.416 26.247c-0.040 0.034-0.084 0.070-0.131 0.108l-0.010 0.003c-0.174 0.037-0.846 0.037-0.846 0.037s-0.679-0.525-0.885-0.537-0.316-0.19-0.316-0.19 0.004-0.122 0.017-0.264c0.209 0.063 0.526 0.173 0.611 0.292 0.13 0.181 0.526 0.434 0.526 0.434s0.738-0.071 1.065-0.081c0.004 0.017 0.006 0.037 0.006 0.058 0 0.051-0.014 0.1-0.038 0.141l0.001-0.001z"></path>
<path fill="#d38884" d="M18.545 7.869l-0.971 1.027s-1.177-0.087-0.972-0.434c0.105-0.177 0.121-0.548 0.112-0.87-0.009-0.311-0.041-0.575-0.041-0.575s1.651-0.822 1.526-0.055c-0.014 0.070-0.021 0.15-0.021 0.231 0 0.073 0.006 0.144 0.018 0.213l-0.001-0.007c0.070 0.387 0.351 0.471 0.351 0.471z"></path>
<path fill="#000" opacity="0.1" d="M18.198 6.96c-0.014 0.070-0.021 0.15-0.021 0.231 0 0.073 0.006 0.144 0.018 0.213l-0.001-0.007c-0.22 0.223-0.525 0.361-0.863 0.361-0.001 0-0.001 0-0.002 0h0c-0.223 0-0.465-0.183-0.645-0.29-0.009-0.311-0.010-0.453-0.010-0.453s1.651-0.822 1.524-0.055z"></path>
<path fill="#d38884" d="M18.545 6.478c0 0 0 0 0 0 0 0.672-0.545 1.217-1.217 1.217s-1.217-0.545-1.217-1.217c0-0.672 0.545-1.217 1.217-1.217 0.288 0 0.553 0.1 0.761 0.268l-0.002-0.002c0.28 0.225 0.458 0.567 0.458 0.951v0z"></path>
<path fill="#000" opacity="0.1" d="M20.2 15.609c-0.303 0.721-2.252 0.736-2.252 0.736v-0.786l-0.118-0.008c0.051 0.225-0.071 0.774-0.071 0.774-1.54 0.217-1.916-0.66-1.916-0.66l0.054-0.3 1.2 0.107s2.918-0.196 3.048-0.033c0.026 0.050 0.045 0.107 0.055 0.168l0 0.003z"></path>
<path fill="#6c63ff" d="M17.949 16.25v-0.786l-0.118-0.007c0.051 0.223-0.071 0.774-0.071 0.774-1.159 0.163-1.659-0.293-1.835-0.529-0.030-0.038-0.057-0.081-0.079-0.127l-0.002-0.004 0.47-2.646 0.112-3.895 0.169-0.683 0.039-0.328v-0.004h0.004l0.12 0.051 0.717 0.31 0.867-0.655 0.235 0.188 0.537 3.469s0.93 2.671 1.105 3.748c0.007 0.043 0.013 0.083 0.017 0.121 0.115 0.984-2.287 1.002-2.287 1.002z"></path>
<path fill="#67647e" d="M17.631 8.453c0 0.038-0.031 0.069-0.069 0.069s-0.069-0.031-0.069-0.069c0-0.038 0.031-0.069 0.069-0.069s0.069 0.031 0.069 0.069z"></path>
<path fill="#67647e" d="M17.663 9.085c0 0.038-0.031 0.069-0.069 0.069s-0.069-0.031-0.069-0.069c0-0.038 0.031-0.069 0.069-0.069s0.069 0.031 0.069 0.069z"></path>
<path fill="#67647e" d="M17.732 10.108c0 0.038-0.031 0.069-0.069 0.069s-0.069-0.031-0.069-0.069c0-0.038 0.031-0.069 0.069-0.069s0.069 0.031 0.069 0.069z"></path>
<path fill="#67647e" d="M17.846 11.21c0 0.038-0.031 0.069-0.069 0.069s-0.069-0.031-0.069-0.069c0-0.038 0.031-0.069 0.069-0.069s0.069 0.031 0.069 0.069z"></path>
<path fill="#67647e" d="M17.915 12.245c0 0.038-0.031 0.069-0.069 0.069s-0.069-0.031-0.069-0.069c0-0.038 0.031-0.069 0.069-0.069s0.069 0.031 0.069 0.069z"></path>
<path fill="#67647e" d="M17.985 13.347c0 0.038-0.031 0.069-0.069 0.069s-0.069-0.031-0.069-0.069c0-0.038 0.031-0.069 0.069-0.069s0.069 0.031 0.069 0.069z"></path>
<path fill="#67647e" d="M17.957 14.437c0 0.038-0.031 0.069-0.069 0.069s-0.069-0.031-0.069-0.069c0-0.038 0.031-0.069 0.069-0.069s0.069 0.031 0.069 0.069z"></path>
<path fill="#000" opacity="0.1" d="M16.679 13.309s-0.077 1.014-0.22 1.308-0.205 1.122-0.205 1.122l-0.33-0.037c-0.030-0.038-0.057-0.081-0.079-0.127l-0.002-0.004 0.47-2.646 0.112-3.895 0.169-0.684 0.039-0.328 0.004-0.002c0.017-0.008 0.036-0.013 0.057-0.013 0.022 0 0.043 0.005 0.061 0.015l-0.001-0 0.016 0.008q-0.007 0.020-0.013 0.041c-0.129 0.403-0.177 1.146-0.177 1.146s0.186 1.359 0.205 1.991-0.107 2.104-0.107 2.104z"></path>
<path fill="#000" opacity="0.1" d="M15.868 15.545c-0.004 0.010-0.008 0.018-0.013 0.025l0-0.001c-0.128 0.216-0.453 0.354-0.551 0.391-0.019-0.033-0.029-0.052-0.029-0.052l0.069-0.321 0.362-0.149c0.062 0.033 0.115 0.068 0.164 0.108l-0.002-0.001z"></path>
<path fill="#67647e" d="M14.99 10.373l-0.3 0.179-0.274 1.217s-0.342 1.032-0.079 1.769 0.416 1.159 0.416 1.159 0.105 0.837 0.264 0.906 0.226 0.105 0.226 0.105l0.032 0.2s0.429-0.146 0.58-0.402-0.112-0.893-0.112-0.893-0.226-0.543-0.168-0.795-0.116-0.916-0.116-0.93-0.016-0.369 0.112-0.64 0.042-0.387 0.042-0.387l-0.079-0.774z"></path>
<path fill="#000" opacity="0.1" d="M20.225 15.382s-0.795 0.3-1.048 0.037-0.227-1.496-0.227-1.496-0.242-2.275-0.395-2.649-0.074-3.071-0.074-3.071-0.103-0.349-0.192-0.44c-0.006-0.006-0.012-0.011-0.019-0.015l-0-0 0.031 0.007 0.108 0.023 0.168 0.134 0.537 3.469s0.93 2.671 1.105 3.748z"></path>
<path fill="#000" opacity="0.1" d="M21.142 15.46h-0.009c-0.1 0.013-0.984 0.12-0.987-0.064 0-0.001 0-0.002 0-0.004 0-0.021 0.001-0.042 0.004-0.063l-0 0.002 0.819-0.084 0.162 0.167s0 0 0 0c0.003 0.011 0.005 0.020 0.007 0.028z"></path>
<path fill="#67647e" d="M20.294 9.154l0.581 0.303s0.484 1.253 0.561 1.79c0 0 0.358 1.439 0.112 2.031s-0.226 1.766-0.226 1.766-0.142 0.216-0.2 0.158 0.021 0.226 0.021 0.226-0.993 0.132-0.997-0.063 0.228-1.127 0.228-1.127 0.063-2.217-0.026-2.565-0.053-2.519-0.053-2.519z"></path>
<path fill="#000" opacity="0.1" d="M18.068 23.593c0 0.005-0.579 0.116-0.558 0.19s0.618 0.063 0.639-0.053c0.002-0.009 0.004-0.018 0.004-0.029 0-0.052-0.036-0.096-0.084-0.108l-0.001-0z"></path>
<path fill="#000" opacity="0.1" d="M18.087 5.528c-0.018 0.017-0.037 0.032-0.059 0.044l-0.001 0.001c-0.149 0.087-0.19 0.22-0.261 0.374-0.066 0.141-0.138 0.29-0.271 0.37-0.172 0.103-0.398 0.066-0.576 0.156-0.144 0.076-0.24 0.225-0.24 0.396 0 0.016 0.001 0.031 0.002 0.046l-0-0.002c0.013 0.077 0.031 0.145 0.053 0.211l-0.003-0.009c0.035 0.118 0.055 0.254 0.055 0.394 0 0.016-0 0.031-0.001 0.046l0-0.002c0 0.002 0 0.004 0 0.006s-0 0.005-0 0.007l0-0c-0.402-0.204-0.673-0.614-0.673-1.088 0-0.672 0.545-1.216 1.216-1.216 0.288 0 0.553 0.1 0.761 0.268l-0.002-0.002z"></path>
<path fill="#585268" d="M18.056 5.161c-0.134-0.281-0.424-0.459-0.723-0.545-0.228-0.066-0.476-0.087-0.702-0.015-0.129 0.041-0.246 0.112-0.367 0.172-0.226 0.114-0.473 0.204-0.643 0.391-0.040 0.044-0.074 0.099-0.064 0.157 0.009 0.043 0.042 0.074 0.064 0.114 0.049 0.086 0.037 0.193 0.003 0.286s-0.082 0.179-0.105 0.275-0.014 0.208 0.057 0.276c0.032 0.030 0.072 0.049 0.106 0.074 0.038 0.033 0.072 0.071 0.1 0.113l0.001 0.002 0.201 0.275c0.088 0.113 0.172 0.239 0.244 0.372l0.007 0.015c0.050 0.1 0.089 0.206 0.156 0.295s0.171 0.16 0.282 0.151c0 0 0.001 0 0.001 0 0.018 0 0.033-0.008 0.043-0.021l0-0c0.004-0.007 0.006-0.016 0.006-0.025 0-0.001-0-0.002-0-0.003v0c0-0.014 0.001-0.031 0.001-0.048 0-0.139-0.020-0.272-0.057-0.399l0.003 0.010c-0.020-0.057-0.038-0.124-0.050-0.194l-0.001-0.007c-0.001-0.013-0.002-0.028-0.002-0.043 0-0.172 0.096-0.321 0.238-0.396l0.002-0.001c0.179-0.090 0.405-0.052 0.576-0.155 0.133-0.080 0.206-0.23 0.271-0.372 0.072-0.154 0.112-0.288 0.261-0.374s0.166-0.23 0.092-0.378z"></path>
<path fill="#000" opacity="0.1" d="M20.029 25.64s0.041-0.318 0.207-0.321 0.174-0.017 0.3 0.032 0.245 0.124 0.207 0.136-0.218-0.182-0.402-0.083c-0.12 0.066-0.222 0.145-0.312 0.236l-0 0z"></path>
<path fill="#67647e" d="M16.708 7.995l-0.016-0.008c-0.018-0.009-0.039-0.015-0.061-0.015-0.032 0-0.062 0.011-0.085 0.030l0-0-1.563 1.268s-0.34 0.47-0.293 1.281l0.922 1.306s0.105-0.442 0.232-0.358c0 0 0.179 2.265 0 2.591s-0.258 1.548-0.258 1.548l0.606 0.069s0.063-0.827 0.205-1.122 0.22-1.308 0.22-1.308 0.128-1.472 0.107-2.104-0.205-1.991-0.205-1.991 0.052-0.796 0.19-1.187z"></path>
<path fill="#67647e" d="M18.306 7.679l1.723 0.372s0.474 0.105 0.817 1.296-0.469 2.649-0.469 2.649l-0.179-0.152 0.090 3.476s-0.795 0.3-1.048 0.037-0.226-1.497-0.226-1.497-0.242-2.275-0.395-2.649-0.074-3.070-0.074-3.070-0.141-0.482-0.237-0.461z"></path>
<path fill="#000" opacity="0.1" d="M19.883 9.894c-0.024 0.022-0.052 1.074 0.053 1.875 0.074 0.553 0.178 1.041 0.316 1.515l-0.018-0.072-0.156-3.207s-0.121-0.179-0.194-0.111z"></path>
<path fill="#000" opacity="0.1" d="M18.046 5.161c-0.087-0.168-0.216-0.303-0.374-0.394l-0.005-0.002c0.12 0.087 0.216 0.199 0.282 0.33l0.002 0.005c0.074 0.149 0.052 0.298-0.092 0.379s-0.19 0.22-0.261 0.374c-0.066 0.141-0.138 0.29-0.272 0.372-0.171 0.103-0.397 0.065-0.576 0.155-0.144 0.077-0.24 0.226-0.24 0.398 0 0.015 0.001 0.030 0.002 0.045l-0-0.002c0.013 0.077 0.031 0.145 0.054 0.21l-0.003-0.009c0.035 0.118 0.055 0.254 0.055 0.394 0 0.015-0 0.031-0.001 0.046l0-0.002c0 0.001 0 0.001 0 0.002 0 0.009-0.002 0.018-0.006 0.026l0-0c-0.010 0.013-0.025 0.021-0.043 0.021-0.001 0-0.001 0-0.002-0h0c-0.006 0-0.013 0.001-0.020 0.001-0.040 0-0.078-0.009-0.112-0.026l0.002 0.001c0.055 0.054 0.13 0.088 0.213 0.088 0.004 0 0.007-0 0.011-0h-0.001c0.002 0 0.004 0 0.006 0 0.024 0 0.044-0.020 0.044-0.044 0-0.002-0-0.004-0-0.006l0 0c0-0.014 0.001-0.030 0.001-0.047 0-0.139-0.020-0.274-0.057-0.402l0.003 0.010c-0.020-0.057-0.038-0.125-0.050-0.195l-0.001-0.007c-0.001-0.013-0.002-0.028-0.002-0.043 0-0.172 0.096-0.321 0.238-0.396l0.002-0.001c0.179-0.090 0.405-0.052 0.576-0.155 0.133-0.080 0.206-0.23 0.271-0.372 0.072-0.154 0.112-0.288 0.261-0.374s0.169-0.233 0.094-0.381z"></path>
<path fill="#842575" d="M28.648 9.835c-0.513-0.010-0.965-0.372-1.222-0.815-0.064-0.099-0.108-0.218-0.123-0.345l-0-0.004c0.002-0.030 0.007-0.059 0.015-0.086l-0.001 0.003c0.014-0.035 0.027-0.078 0.036-0.122l0.001-0.006c0.001-0.008 0.002-0.017 0.002-0.026s-0.001-0.018-0.002-0.027l0 0.001s0 0 0-0.003c0.012-0.094-0.043-0.186-0.112-0.251s-0.154-0.112-0.226-0.176c-0.22-0.194-0.287-0.504-0.291-0.799v-0.016c0.003-0.127 0.013-0.253 0.012-0.38 0-0.012 0-0.025 0-0.039 0-0.062-0.004-0.123-0.010-0.184l0.001 0.007c-0.021-0.179-0.089-0.361-0.23-0.476-0.367-0.298-0.984 0.012-1.364-0.269-0.092-0.069-0.167-0.17-0.279-0.197-0.084-0.020-0.172 0.007-0.255 0.035-0.28 0.092-0.592 0.214-0.702 0.484-0.063 0.155-0.045 0.332-0.102 0.489-0.037 0.105-0.108 0.196-0.16 0.295-0.038 0.066-0.060 0.144-0.060 0.228 0 0.007 0 0.013 0 0.020l-0-0.001c-0.001 0.009-0.001 0.018-0.001 0.029 0 0.037 0.007 0.072 0.020 0.105l-0.001-0.002c0.020 0.052 0.052 0.096 0.091 0.13l0 0c-0.016 0.033-0.034 0.062-0.055 0.088l0.001-0.001c-0.071 0.087-0.181 0.149-0.256 0.236-0.138 0.16-0.133 0.377-0.065 0.564s0.19 0.358 0.275 0.541c0.037 0.079 0.066 0.168 0.028 0.247-0.026 0.055-0.081 0.096-0.124 0.144-0.060 0.067-0.1 0.153-0.111 0.247l-0 0.002c-0.838 0.191-0.839 0.865-0.839 0.865v0l-0.453 1.138s-0.073 0.192-0.158 0.445l-0.536-0.096 0.372 0.623c-0.070 0.254-0.12 0.489-0.104 0.607 0 0-0.166 0.782 0.13 0.918l0.653 0.294c0.026 0.016 0.056 0.030 0.088 0.040l0.003 0.001 0.026 0.012c0.009 0.004 0.019 0.007 0.031 0.007s0.022-0.003 0.031-0.007l-0 0h0.009c0.002 0 0.004 0 0.006 0 0.011 0 0.022-0.002 0.032-0.006l-0.001 0c0.015-0.008 0.026-0.020 0.033-0.035l0-0c-0-0.001-0-0.001-0-0.002s0-0.001 0-0.002v0l0.195-0.057 0.166 0.196c0.074 0.052 0.149 0.098 0.219 0.139l-0.256 2.547s-0.041 3.387-0.166 4.159c-0.046 0.286-0.047 0.481-0.029 0.613l-0.005 0.008c0.031 0.218 0.112 0.261 0.112 0.261v-0.003c0.001 0.001 0.003 0.002 0.005 0.003l0 0c0.043-0.113 0.088-0.208 0.14-0.298l-0.006 0.011c0 0.018 0 0.037 0 0.056-0.003 0.287-0.012 0.69-0.041 0.951-0.051 0.447 0.13 1.919 0.13 1.919l0.062 1.34c0.001 0.016 0.001 0.036 0.001 0.055 0 0.219-0.057 0.425-0.157 0.604l0.003-0.006c-0.149 0.268-0.339 0.644-0.353 0.811-0 0.004-0.001 0.009-0.001 0.014s0 0.010 0.001 0.014l-0-0.001-0.319 0.384s-0.125 0.193 0.157 0.271c0.151 0.042 0.413 0 0.623-0.049 0.186-0.044 0.322-0.209 0.323-0.405v-0c0.057-0.194 0.147-0.363 0.266-0.508l-0.002 0.003 0.052 0.309 0.351 0.087 0.045-0.846c0.016-0.039 0.025-0.085 0.025-0.133 0-0.006-0-0.011-0-0.017l0 0.001c0.069-0.601-0.163-0.547-0.163-0.547 0.006 0.005 0.010 0.012 0.011 0.021v0l-0.011-0.020c-0.143-0.281-0.074-0.744-0.074-0.744s0.186-1.34 0.25-1.694c0.046-0.25 0.027-1.069 0.012-1.526 0-0.019 0-0.037-0.002-0.055 0.545-0.007 1.213-0.025 1.681-0.071v0.055l-0.086 3.166c-0.006 0.213-0.050 0.415-0.125 0.6l0.004-0.012c0 0.004-0.003 0.007-0.004 0.011-0.098 0.245-0.16 0.528-0.171 0.825l-0 0.005-0.040 1.005v0.028c-0.070 0.027-0.181 0.105-0.183 0.33-0.005 0.331 0.578 0.22 0.578 0.22 0.582 0 0.587-0.606 0.587-0.606s0.018-0.556 0.046-0.927-0.088-0.29-0.088-0.29l-0.009 1.058c0 0.003 0 0.005 0 0.008v-0.927l0.009-0.134v-0.032l0.073-1.091s0.536-1.818 0.619-2.167c0.059-0.248 0.035-0.994 0.015-1.407 0-0.019 0-0.037-0.003-0.055 0.166-0.015 0.313-0.016 0.372-0.016h0.027s-0.028-2.919-0.097-4.020-0.18-2.107-0.457-2.41c-0.168-0.183-0.401-0.748-0.558-1.167 0.289 0.129 0.632 0.245 0.987 0.327l0.039 0.008c0.878 0.184 0.758-0.578 0.758-0.578l-0.089-1.441h0.006c-0.004-0.401-0.039-0.79-0.103-1.17l0.006 0.043c-0.047-0.286-0.118-0.581-0.226-0.819 0.095-0.037 0.189-0.077 0.282-0.118 0.239-0.105 0.507-0.255 0.542-0.512h-0.012c0.004-0.016 0.007-0.036 0.009-0.056l0-0.001zM23.206 11.92v0c0.002 0.149-0.004 0.407-0.013 0.693l-0.279-0.372 0.279-0.453zM27.057 13.239l-0.465-0.149c0.086-0.134 0.181-0.25 0.287-0.355l0-0 0.040-0.037-0.015 0.003 0.022-0.020 0.013-0.003-0.021 0.020 0.025-0.005c0.030 0.123 0.085 0.229 0.159 0.32l-0.001-0.001c0.167 0.182-0.046 0.228-0.046 0.228z"></path>
<path fill="#a27772" d="M24.236 26.637l-0.054 1.030-0.346-0.087-0.073-0.428 0.474-0.515z"></path>
<path fill="#000" opacity="0.1" d="M24.236 26.637l-0.054 1.030-0.346-0.087-0.073-0.428 0.474-0.515z"></path>
<path fill="#cc818c" d="M25.507 27.804l0.529 0.109 0.392-0.346v-0.976l0.009-0.133v-0.032l0.073-1.084s0.529-1.805 0.611-2.151c0.058-0.246 0.034-0.987 0.015-1.397-0.008-0.168-0.015-0.28-0.015-0.28l-1.167-0.282-0.025 0.897-0.085 3.143c-0.006 0.212-0.050 0.412-0.124 0.596l0.004-0.012-0.004 0.011c-0.097 0.243-0.158 0.524-0.169 0.818l-0 0.005-0.039 0.999v0.028z"></path>
<path fill="#000" opacity="0.1" d="M25.507 27.804l0.529 0.109 0.392-0.346v-0.083c-0.003 0.038-0.024 0.071-0.056 0.089l-0.001 0-0.006 0.003c-0.143 0.077-0.312 0.122-0.492 0.122-0.036 0-0.071-0.002-0.105-0.005l0.004 0-0.206-0.017c-0.020 0.002-0.039 0.007-0.056 0.014l0.001-0v0.028z"></path>
<path fill="#b07473" d="M26.366 27.604l0.006-0.003c0.034-0.019 0.057-0.055 0.057-0.097v-0l0.009-1.050s0.114-0.082 0.086 0.288-0.045 0.921-0.045 0.921-0.004 0.601-0.579 0.601c0 0-0.574 0.109-0.57-0.219s0.237-0.342 0.237-0.342l0.206 0.018c0.030 0.003 0.065 0.005 0.101 0.005 0.18 0 0.35-0.045 0.498-0.125l-0.006 0.003z"></path>
<path fill="#cc818c" d="M22.755 27.581c0.013 0.237 0.711 0.1 0.711 0.1l0.469-0.911s0.392-0.301 0.196-0.565c-0.010-0.013-0.019-0.028-0.028-0.043l-0.001-0.002s0 0-0.002-0.002v0c-0.004-0.007-0.008-0.014-0.012-0.021v0c-0.141-0.279-0.071-0.737-0.071-0.737s0.182-1.331 0.246-1.682c0.045-0.248 0.026-1.061 0.012-1.516-0.006-0.189-0.012-0.316-0.012-0.316l-1.158-0.31s0 0.144 0 0.345c-0.003 0.285-0.012 0.685-0.041 0.945-0.050 0.442 0.128 1.905 0.128 1.905l0.061 1.331c0.001 0.017 0.001 0.038 0.001 0.058 0 0.216-0.056 0.419-0.153 0.596l0.003-0.006c-0.145 0.266-0.335 0.64-0.348 0.806-0.001 0.007-0.002 0.016-0.002 0.025 0 0 0 0.001 0 0.001v-0z"></path>
<path fill="#000" opacity="0.1" d="M22.755 27.581c0.013 0.237 0.711 0.1 0.711 0.1l0.469-0.911s0.392-0.301 0.196-0.565c-0.010-0.013-0.019-0.028-0.028-0.043l-0.001-0.002c-0.006 0.138-0.158 0.484-0.158 0.484s-0.387 0.775-0.511 0.953-0.658-0.033-0.679-0.041c-0 0.005-0.001 0.010-0.001 0.015 0 0.004 0 0.007 0 0.011l-0-0z"></path>
<path fill="#b07473" d="M24.089 26.135s0.229-0.053 0.161 0.544v0c0 0.004 0 0.010 0 0.015 0 0.137-0.072 0.258-0.18 0.326l-0.002 0.001c-0.164 0.103-0.417 0.325-0.545 0.756v0c0 0 0 0 0 0 0 0.194-0.134 0.357-0.315 0.401l-0.003 0.001c-0.207 0.048-0.465 0.091-0.614 0.049-0.278-0.077-0.155-0.269-0.155-0.269l0.319-0.378s0.556 0.219 0.679 0.041 0.511-0.952 0.511-0.952 0.213-0.483 0.144-0.534z"></path>
<path fill="#000" opacity="0.1" d="M25.954 21.342l-0.025 0.897c0.311-0.030 0.533-0.072 0.571-0.131 0.082-0.127 0.381-0.181 0.635-0.203-0.008-0.168-0.015-0.28-0.015-0.28z"></path>
<path fill="#000" opacity="0.1" d="M23.105 22.030c0.031-0.062 0.074-0.114 0.127-0.153l0.001-0.001c0.123-0.068 0.109 0.438 0.109 0.438s0.409 0.004 0.932-0.003c-0.006-0.189-0.012-0.316-0.012-0.316l-1.158-0.31s0.002 0.144 0 0.345z"></path>
<path fill="#444053" d="M22.973 22.149s0.137-0.372 0.261-0.438 0.109 0.437 0.109 0.437 3.008 0.028 3.158-0.205 1.025-0.219 1.025-0.219-0.027-2.899-0.096-3.992-0.178-2.092-0.451-2.393c-0.177-0.195-0.428-0.824-0.584-1.244-0.084-0.229-0.141-0.396-0.141-0.396l-2.871 0.164-0.023 0.233-0.305 3.049s-0.041 3.364-0.164 4.129 0.081 0.876 0.081 0.876z"></path>
<path fill="#000" opacity="0.1" d="M26.268 21.943c0.149-0.232 1.025-0.219 1.025-0.219s-0.027-2.899-0.096-3.992-0.178-2.092-0.451-2.393c-0.178-0.195-0.428-0.824-0.584-1.244-0.071-0.193-0.122-0.341-0.136-0.384l0.223-0.013s0.056 0.167 0.141 0.396c0.156 0.42 0.407 1.050 0.584 1.244 0.274 0.301 0.383 1.299 0.451 2.393s0.096 3.992 0.096 3.992-0.875-0.013-1.026 0.219c-0.128 0.198-2.342 0.208-2.984 0.206 0.824-0.002 2.64-0.026 2.756-0.206z"></path>
<path fill="#000" opacity="0.1" d="M23 21.711c0.055-0.031 0.083 0.055 0.097 0.159-0.044 0.078-0.087 0.17-0.124 0.265l-0.005 0.015s-0.079-0.043-0.112-0.261c0.045-0.078 0.096-0.151 0.144-0.178z"></path>
<path fill="#585268" d="M23.86 6.686c-0.199 0.271 0.002 0.656-0.211 0.92-0.070 0.087-0.179 0.149-0.252 0.234-0.136 0.159-0.131 0.374-0.064 0.56s0.186 0.356 0.271 0.537c0.037 0.079 0.065 0.167 0.028 0.245-0.026 0.054-0.080 0.096-0.122 0.143-0.137 0.153-0.141 0.366-0.067 0.546s0.214 0.335 0.353 0.488c0.055 0.060 0.124 0.126 0.215 0.124 0.050-0.004 0.097-0.020 0.136-0.045l-0.001 0.001c0.449-0.233 0.751-0.694 0.751-1.226 0-0.207-0.046-0.403-0.127-0.579l0.004 0.008c-0.115-0.277-0.308-0.542-0.31-0.834 0-0.232 0.119-0.453 0.14-0.684 0.026-0.281-0.14-0.726-0.479-0.849 0.022 0.18-0.163 0.272-0.264 0.411z"></path>
<path fill="#000" opacity="0.1" d="M23.86 6.686c-0.199 0.271 0.002 0.656-0.211 0.92-0.070 0.087-0.179 0.149-0.252 0.234-0.136 0.159-0.131 0.374-0.064 0.56s0.186 0.356 0.271 0.537c0.037 0.079 0.065 0.167 0.028 0.245-0.026 0.054-0.080 0.096-0.122 0.143-0.137 0.153-0.141 0.366-0.067 0.546s0.214 0.335 0.353 0.488c0.055 0.060 0.124 0.126 0.215 0.124 0.050-0.004 0.097-0.020 0.136-0.045l-0.001 0.001c0.449-0.233 0.751-0.694 0.751-1.226 0-0.207-0.046-0.403-0.127-0.579l0.004 0.008c-0.115-0.277-0.308-0.542-0.31-0.834 0-0.232 0.119-0.453 0.14-0.684 0.026-0.281-0.14-0.726-0.479-0.849 0.022 0.18-0.163 0.272-0.264 0.411z"></path>
<path fill="#000" opacity="0.1" d="M25.817 17.479c-0.409 0.040-0.768 0.225-1.032 0.502l-0.001 0.001c-0.097 0.102-0.18 0.217-0.281 0.315-0.15 0.146-0.337 0.255-0.545 0.312l-0.009 0.002z"></path>
<path fill="#000" opacity="0.1" d="M25.899 18.193c-0.329 0.093-0.61 0.267-0.83 0.5l-0.001 0.001c-0.061 0.066-0.116 0.136-0.178 0.202-0.329 0.354-0.795 0.541-1.244 0.719z"></path>
<path fill="#cc818c" d="M25.865 8.298c0.010 0.345 0.039 0.673 0.087 0.995l-0.006-0.045c0.037 0.223 0.089 0.424 0.164 0.513 0.219 0.261-1.066 0.609-1.066 0.609l-0.759-0.588s0.601-0.554 0.321-1.094 1.258-0.39 1.258-0.39z"></path>
<path fill="#6c63ff" d="M23.165 14.040h3.245c-0.091-0.326 0-0.628 0.13-0.861 0.095-0.169 0.208-0.314 0.339-0.44l0.001-0.001 0.022-0.020 1.194-0.264s0.009-2.060-0.72-2.343-1.167-0.665-1.167-0.665l-1.002 0.31-0.738-0.372c-0.237 0.255-0.866 0.155-0.866 0.155-1.030 0.118-1.030 0.893-1.030 0.893s0.601 1.404 0.647 1.404-0.055 2.205-0.055 2.205z"></path>
<path fill="#000" opacity="0.1" d="M27.622 11.962l-0.767 0.629c0.006 0.058 0.015 0.108 0.027 0.158l-0.002-0.009 0.022-0.020 1.133-0.251z"></path>
<path fill="#000" opacity="0.1" d="M25.544 13.822s0.168 0.095 0.425 0.219h0.441c-0.091-0.326 0-0.628 0.13-0.861l-0.777-0.252c0.265 0.246-0.218 0.893-0.218 0.893z"></path>
<path fill="#6c63ff" d="M23.028 10.185l-0.456 0.246-0.447 1.13s-0.465 1.239-0.419 1.568c0 0-0.164 0.775 0.128 0.912l0.759 0.344c0.008 0.004 0.018 0.006 0.029 0.006 0.039 0 0.071-0.032 0.071-0.071 0-0.012-0.003-0.023-0.008-0.033l0 0c-0.108-0.205-0.227-0.526-0.037-0.702l-0.219-0.456 0.791-1.294 0.264-0.447z"></path>
<path fill="#000" opacity="0.1" d="M24.041 12.472c0.039 0.161 0.173 0.409 0.614 0.502l0.484 0.396 0.725 0.328 0.089-0.643-0.202-0.112-0.236-0.129s-0.532-0.963-1.373-0.558c-0.063 0.031-0.106 0.094-0.106 0.168 0 0.017 0.002 0.033 0.006 0.048l-0-0.001z"></path>
<path fill="#cc818c" d="M24.069 12.417c0.039 0.161 0.172 0.409 0.613 0.502l0.484 0.396 0.725 0.328 0.089-0.643-0.202-0.112-0.234-0.128s-0.532-0.963-1.373-0.556c-0.064 0.030-0.107 0.094-0.107 0.168 0 0.015 0.002 0.030 0.005 0.045l-0-0.001z"></path>
<path fill="#000" opacity="0.1" d="M26.193 7.956c0 0.649-0.526 1.176-1.176 1.176s-1.176-0.526-1.176-1.176c0-0.649 0.526-1.176 1.176-1.176s1.176 0.526 1.176 1.176z"></path>
<path fill="#cc818c" d="M26.193 7.929c0 0.649-0.526 1.176-1.176 1.176s-1.176-0.526-1.176-1.176c0-0.649 0.526-1.176 1.176-1.176s1.176 0.526 1.176 1.176z"></path>
<path fill="#000" opacity="0.1" d="M25.746 10.441l-0.354-0.687s0.517-0.209 0.555-0.451 0.496 0.284 0.397 0.459-0.598 0.68-0.598 0.68z"></path>
<path fill="#6c63ff" d="M25.746 10.386l-0.354-0.687s0.517-0.209 0.555-0.451 0.496 0.284 0.397 0.459-0.598 0.68-0.598 0.68z"></path>
<path fill="#f6f8fb" d="M22.852 12.161l1.954 2.627s-0.72 0.392-1.712-0.31l-0.428-0.511-1.223-2.062z"></path>
<path fill="#cc818c" d="M22.467 13.589l0.178-0.005s1.087-1.055 1.354-0.521-0.677 1.032-0.677 1.032l-0.287 0.155-0.374 0.112-0.239-0.321z"></path>
<path fill="#000" opacity="0.1" d="M22.73 14.159c0.016 0.061 0.032 0.128 0.004 0.184-0.007 0.015-0.018 0.027-0.032 0.035l-0 0c-0.009 0.004-0.019 0.006-0.030 0.006-0.003 0-0.005-0-0.008-0l0 0c-0.098-0.009-0.184-0.053-0.245-0.121l-0-0c-0.060-0.067-0.113-0.142-0.156-0.224l-0.003-0.006c-0.048-0.085-0.099-0.178-0.082-0.274 0.019-0.105 0.112-0.177 0.202-0.236 0.18-0.119 0.186 0.020 0.226 0.173s0.082 0.309 0.123 0.464z"></path>
<path fill="#6c63ff" d="M22.703 14.159c0.016 0.061 0.032 0.128 0.004 0.184-0.007 0.015-0.018 0.027-0.032 0.035l-0 0c-0.009 0.004-0.019 0.006-0.030 0.006-0.003 0-0.005-0-0.008-0l0 0c-0.098-0.008-0.184-0.053-0.245-0.121l-0-0c-0.060-0.067-0.113-0.142-0.156-0.224l-0.003-0.006c-0.048-0.085-0.099-0.178-0.081-0.274 0.019-0.105 0.112-0.177 0.202-0.236 0.181-0.119 0.186 0.020 0.226 0.173s0.082 0.309 0.123 0.464z"></path>
<path fill="#000" opacity="0.1" d="M25.683 13.549l0.21 0.095 0.089-0.643-0.202-0.112c0.14 0.16 0.017 0.456-0.096 0.66z"></path>
<path fill="#000" opacity="0.1" d="M26.44 13.235c0.095-0.169 0.208-0.314 0.339-0.441l0.001-0.001c0.028-0.018 0.061-0.036 0.095-0.052l0.006-0.002 1.116-0.23s0.009-2.060-0.72-2.343c-0.435-0.168-0.811-0.384-1.147-0.648l0.009 0.007 0.080-0.025s0.437 0.383 1.167 0.665 0.72 2.343 0.72 2.343h-0.109l-1.079 0.207s-0.047 0.045-0.061 0.058c-0.132 0.132-0.247 0.282-0.34 0.446l-0.005 0.010c-0.086 0.157-0.137 0.344-0.137 0.543 0 0.115 0.017 0.226 0.048 0.331l-0.002-0.008h-0.112c-0.090-0.326 0.003-0.628 0.131-0.861z"></path>
<path fill="#000" opacity="0.1" d="M23.559 9.598c0.017-0.003 0.034-0.005 0.052-0.007 0.066 0.010 0.143 0.016 0.221 0.018l0.002 0c-0.017 0.001-0.036 0.001-0.056 0.001-0.077 0-0.154-0.004-0.229-0.013l0.009 0.001z"></path>
<path fill="#000" opacity="0.1" d="M25.106 9.811l-0.668-0.338c0.014-0.011 0.026-0.023 0.037-0.035l0-0 0.697 0.352z"></path>
<path fill="#6c63ff" d="M27.648 11.906l0.447 0.547 0.091 1.486s0.118 0.756-0.747 0.574-1.868-0.746-1.868-0.746 0.484-0.647 0.219-0.893l1.24 0.401s0.21-0.046 0.045-0.228-0.193-0.511-0.193-0.511z"></path>
<path fill="#000" opacity="0.1" d="M23.613 7.389c-0.042-0.103-0.010-0.223 0.041-0.32s0.12-0.189 0.158-0.294c0.056-0.156 0.039-0.332 0.101-0.484 0.108-0.27 0.416-0.39 0.692-0.484 0.082-0.027 0.168-0.054 0.252-0.034 0.112 0.026 0.184 0.128 0.275 0.196 0.374 0.279 0.983-0.028 1.345 0.267 0.138 0.112 0.206 0.294 0.227 0.472s0 0.358-0.002 0.537c-0.006 0.313 0.053 0.656 0.287 0.864 0.071 0.063 0.154 0.109 0.223 0.174s0.124 0.155 0.112 0.249c-0.011 0.049-0.023 0.092-0.039 0.132l0.002-0.006c-0.047 0.163 0.023 0.335 0.108 0.484 0.253 0.438 0.699 0.799 1.205 0.809-0.034 0.255-0.298 0.403-0.534 0.508-0.298 0.134-0.615 0.265-0.943 0.248s-0.67-0.227-0.727-0.55c-0.020-0.112-0.017-0.246-0.112-0.304-0.058-0.035-0.133-0.026-0.196-0.053-0.090-0.037-0.135-0.139-0.165-0.232-0.058-0.177-0.093-0.382-0.097-0.594l-0-0.002c-0.004-0.24 0.028-0.501-0.108-0.699-0.126-0.183-0.349-0.275-0.494-0.443-0.134-0.156-0.279-0.343-0.499-0.372-0.304-0.043-0.932 0.37-1.111-0.070z"></path>
<path fill="#585268" d="M23.613 7.334c-0.042-0.103-0.010-0.223 0.041-0.32s0.12-0.189 0.158-0.294c0.056-0.156 0.039-0.332 0.101-0.484 0.108-0.27 0.416-0.391 0.692-0.484 0.082-0.027 0.168-0.054 0.252-0.034 0.112 0.026 0.184 0.128 0.275 0.196 0.374 0.279 0.983-0.028 1.345 0.267 0.138 0.112 0.206 0.294 0.227 0.472s0 0.357-0.002 0.536c-0.006 0.313 0.053 0.656 0.287 0.864 0.071 0.063 0.154 0.109 0.223 0.174s0.124 0.155 0.112 0.249c-0.011 0.049-0.023 0.092-0.039 0.132l0.002-0.006c-0.047 0.163 0.023 0.335 0.108 0.484 0.254 0.437 0.698 0.799 1.204 0.809-0.034 0.255-0.298 0.403-0.534 0.508-0.298 0.133-0.615 0.264-0.943 0.248s-0.67-0.227-0.727-0.55c-0.020-0.112-0.017-0.246-0.112-0.304-0.058-0.035-0.133-0.026-0.196-0.053-0.090-0.037-0.135-0.139-0.165-0.232-0.058-0.177-0.093-0.382-0.097-0.594l-0-0.002c-0.004-0.24 0.028-0.501-0.108-0.699-0.126-0.183-0.349-0.275-0.494-0.443-0.134-0.156-0.279-0.343-0.499-0.372-0.303-0.042-0.931 0.371-1.11-0.069z"></path>
<path fill="#000" opacity="0.1" d="M24.447 10.356l0.674-0.547s-0.462-0.25-0.517-0.463-0.424 0.101-0.387 0.293 0.229 0.718 0.229 0.718z"></path>
<path fill="#6c63ff" d="M24.474 10.273l0.674-0.547s-0.462-0.25-0.514-0.463-0.424 0.101-0.387 0.293 0.227 0.718 0.227 0.718z"></path>
<path fill="#000" opacity="0.1" d="M25.228 10.185c0 0.030-0.024 0.054-0.054 0.054s-0.054-0.024-0.054-0.054c0-0.030 0.024-0.054 0.054-0.054s0.054 0.024 0.054 0.054z"></path>
<path fill="#000" opacity="0.1" d="M25.228 10.482c0 0.030-0.024 0.054-0.054 0.054s-0.054-0.024-0.054-0.054c0-0.030 0.024-0.054 0.054-0.054s0.054 0.024 0.054 0.054z"></path>
<path fill="#000" opacity="0.1" d="M25.228 10.78c0 0.030-0.024 0.054-0.054 0.054s-0.054-0.024-0.054-0.054c0-0.030 0.024-0.054 0.054-0.054s0.054 0.024 0.054 0.054z"></path>
<path fill="#000" opacity="0.1" d="M23.885 6.574c0.053-0.146 0.042-0.31 0.092-0.458-0.022 0.030-0.041 0.065-0.056 0.102l-0.001 0.003c-0.062 0.154-0.044 0.33-0.101 0.484l-0.004 0.009c0.025-0.040 0.049-0.086 0.068-0.134l0.002-0.006z"></path>
<path fill="#000" opacity="0.1" d="M28.137 10.259c-0.298 0.133-0.615 0.264-0.943 0.248s-0.67-0.227-0.727-0.549c-0.020-0.112-0.017-0.246-0.112-0.304-0.058-0.035-0.133-0.026-0.196-0.053-0.090-0.037-0.135-0.139-0.165-0.232-0.058-0.177-0.093-0.382-0.097-0.594l-0-0.002c-0.004-0.239 0.028-0.501-0.108-0.699-0.126-0.183-0.349-0.275-0.495-0.443-0.134-0.155-0.279-0.343-0.499-0.372-0.301-0.041-0.93 0.372-1.108-0.068-0.012-0.034-0.019-0.072-0.019-0.113 0-0.051 0.011-0.1 0.031-0.144l-0.001 0.002c-0.013 0.022-0.026 0.044-0.037 0.066-0.051 0.099-0.083 0.218-0.041 0.321 0.179 0.439 0.807 0.026 1.108 0.068 0.22 0.030 0.365 0.218 0.499 0.372 0.145 0.168 0.368 0.261 0.494 0.444 0.136 0.197 0.104 0.459 0.108 0.698 0.004 0.214 0.039 0.418 0.101 0.61l-0.004-0.015c0.030 0.094 0.074 0.194 0.165 0.232 0.063 0.026 0.138 0.018 0.196 0.053 0.096 0.058 0.093 0.194 0.112 0.304 0.058 0.323 0.4 0.533 0.727 0.549s0.643-0.114 0.943-0.248c0.216-0.096 0.456-0.229 0.521-0.447-0.103 0.141-0.287 0.239-0.455 0.314z"></path>
<path fill="#422858" d="M34.715 12.359c-0.788-0.453-1.086-0.565-1.087-0.565l-0.016-0.012c-0.085-0.066-0.152-0.15-0.197-0.247l-0.002-0.004c-0-0.008-0.001-0.018-0.001-0.027s0-0.019 0.001-0.028l-0 0.001c-0 0.001-0 0.002-0 0.003s0 0.002 0 0.003v-0c0.012-0.24 0.183-0.459 0.345-0.649l0.414-0.487c0.046-0.047 0.082-0.103 0.106-0.166l0.001-0.003c0.007-0.028 0.011-0.060 0.011-0.093 0-0.004-0-0.007-0-0.011v0.001c0-0.014 0-0.028 0-0.042-0.002-0.121-0.006-0.242-0.010-0.363-0.004-0.106-0.031-0.239-0.137-0.261-0.055-0.011-0.128 0.009-0.157-0.037-0.006-0.012-0.010-0.026-0.010-0.041 0-0.008 0.001-0.015 0.003-0.023l-0 0.001c-0 0.001-0 0.002-0 0.003s0 0.002 0 0.003v-0.006c0.019-0.072 0.033-0.157 0.039-0.245l0-0.004c0-0.005 0.001-0.012 0.001-0.018 0-0.039-0.006-0.076-0.018-0.11l0.001 0.002c-0.061-0.175-0.272-0.248-0.459-0.281s-0.396-0.061-0.513-0.207c-0.035-0.053-0.068-0.099-0.104-0.143l0.002 0.003c-0.052-0.046-0.117-0.079-0.188-0.094l-0.003-0c-0.078-0.020-0.167-0.031-0.258-0.031-0.157 0-0.307 0.034-0.442 0.094l0.007-0.003c-0.090 0.040-0.181 0.095-0.279 0.089s-0.191-0.077-0.292-0.095c-0.164-0.028-0.32 0.092-0.401 0.235-0.046 0.080-0.073 0.175-0.074 0.277v0.017c-0 0.003-0 0.006-0 0.009 0 0.106 0.041 0.202 0.107 0.274l-0-0c0.071 0.074 0.176 0.124 0.205 0.22 0.012 0.039 0.009 0.082 0.020 0.121 0.001 0.006 0.003 0.011 0.005 0.015l-0-0.001-0.005 0.007c-0.162 0.206-0.261 0.47-0.261 0.756 0 0 0 0 0 0.001v-0c0.004 0.557 0.37 1.028 0.874 1.189l0.009 0.002c0 0.012 0 0.025 0 0.037 0 0.149-0.043 0.304-0.171 0.417l-1.116 0.446s-0.673-0.080-0.916 0.903c-0.029 0.116-0.045 0.25-0.045 0.387 0 0.039 0.001 0.078 0.004 0.116l-0-0.005c0.009 0.149-0.012 0.409-0.186 0.747-0.276 0.54-0.213 1.781 0.351 1.904 0.533 0.116 0.741 0.068 0.763 0.062v0.022c-0.009 0.233-0.093 2.241-0.4 2.483-0.085 0.067-0.069 0.112 0 0.143 0 0 0 0.013-0.002 0.037-0.009 0.149-0.057 0.707-0.261 1.024-0.239 0.368-0.214 2.494-0.214 2.494l-0.163 1.253s0.1 0.774 0 0.909c-0.090 0.12-0.209 2.983-0.234 3.604h-0.010c-0.103 0.007-0.191 0.064-0.24 0.148l-0.001 0.001c-0.132 0.214-0.593 0.61-0.593 0.61-0.1 0.142-0.47 0.278-0.666 0.342-0.029 0.009-0.053 0.021-0.076 0.034l0.002-0.001c-0.073 0.041-0.131 0.101-0.167 0.175l-0.001 0.002c-0.016 0.027-0.026 0.060-0.026 0.095 0 0.019 0.003 0.038 0.008 0.055l-0-0.001c0.050 0.122 1.091 0.209 1.354 0.086 0.207-0.096 1.027-0.223 1.368-0.273 0.127-0.016 0.227-0.116 0.243-0.242l0-0.001c0.001-0.007 0.002-0.016 0.002-0.024 0-0.037-0.012-0.071-0.033-0.098l0 0c-0.065-0.081-0.098-0.301-0.112-0.447 0.029-0.012 0.055-0.027 0.077-0.046l-0.001 0c-0.004-0.062-0.007-0.135-0.007-0.208 0-0.397 0.071-0.777 0.2-1.129l-0.007 0.023c0.251-0.663 0.326-1.892 0.264-2.69 0 0 0.765-3.292 1.367-3.599v0c0.009 0.012 0.301 0.387 0.339 1.548 0.037 1.179 0.464 1.953 0.464 1.953s-0.188 2.002 0 2.751l-0.246 1.182c-0.018-0.015-0.030-0.027-0.030-0.027s0.007 0.033 0.017 0.085l-0.005 0.025 0.011 0.002c0.028 0.149 0.069 0.405 0.052 0.558-0.010 0.086-0.034 0.204-0.050 0.32-0.026 0.182-0.033 0.358 0.063 0.397 0.157 0.063 1.079 0.149 1.236-0.054 0.043-0.050 0.069-0.116 0.069-0.188 0-0.042-0.009-0.081-0.025-0.117l0.001 0.002c-0.012-0.030-0.027-0.055-0.046-0.078l0 0.001s-0.245-0.4-0.176-0.682c0.003-0.014 0.005-0.030 0.005-0.047 0-0.043-0.013-0.083-0.035-0.116l0 0.001c0.011-0.138 0.067-0.779 0.211-1.323 0.157-0.591 0.488-1.887 0.245-2.739v0q-0.014-0.050-0.031-0.098c-0.1-0.318-0.157-0.684-0.157-1.064 0-0.132 0.007-0.261 0.020-0.389l-0.001 0.016c-0.043-0.188-0.068-0.404-0.068-0.626s0.025-0.438 0.071-0.646l-0.004 0.020c0.151-0.688 0.256-1.363 0.256-1.363s0.083-0.909 0.010-1.466c0-0.012-0.003-0.024-0.005-0.037l0.039-0.009s-0.213-0.946-0.288-1.548c-0.018-0.142-0.041-0.322-0.066-0.514 0.078-0.013 0.147-0.031 0.214-0.054l-0.009 0.003c0.677-0.233 0.89-2.345 0.89-2.345v-0.67s0.228-1.030-0.562-1.484zM29.67 28.67c-0.021-0.010-0.033-0.017-0.033-0.017v0z"></path>
<path fill="#65617d" d="M34.307 24.55c0.294 0.845-0.049 2.215-0.208 2.829s-0.208 1.347-0.208 1.347c-0.624 0.098-1.077-0.025-1.077-0.025l0.257-1.261c-0.184-0.747 0-2.742 0-2.742s-0.416-0.771-0.453-1.946c-0.037-1.156-0.321-1.53-0.33-1.542v0c-0.587 0.306-1.334 3.586-1.334 3.586 0.061 0.795-0.013 2.020-0.257 2.68-0.12 0.329-0.19 0.709-0.19 1.105 0 0.072 0.002 0.143 0.007 0.214l-0-0.010c-0.086 0.074-0.205 0.085-0.335 0.064-0.349-0.057-0.769-0.358-0.769-0.358s0.134-3.573 0.233-3.709 0-0.906 0-0.906l0.159-1.248s-0.025-2.118 0.208-2.485c0.201-0.317 0.247-0.875 0.256-1.021 0-0.023 0-0.037 0-0.037l0.354-0.424s3.427-0.257 3.685 0c0.063 0.063 0.102 0.207 0.125 0.387 0.071 0.555-0.010 1.461-0.010 1.461s-0.103 0.673-0.25 1.358c-0.042 0.188-0.066 0.403-0.066 0.624s0.024 0.437 0.070 0.644l-0.004-0.020c-0.011 0.109-0.018 0.236-0.018 0.365 0 0.381 0.057 0.749 0.163 1.095l-0.007-0.026z"></path>
<path fill="#a27772" d="M34.092 29.917c-0.153 0.202-1.053 0.116-1.206 0.054-0.093-0.037-0.086-0.215-0.061-0.396 0.016-0.115 0.039-0.233 0.049-0.318 0.024-0.22-0.074-0.667-0.074-0.667s0.202 0.214 0.251 0c0.022-0.094 0.097-0.142 0.175-0.166 0.040-0.012 0.085-0.020 0.132-0.020 0.067 0 0.131 0.014 0.188 0.041l-0.003-0.001c0.159 0.069 0.424 0.216 0.377 0.415-0.067 0.281 0.171 0.68 0.171 0.68 0.018 0.022 0.033 0.047 0.044 0.075l0.001 0.002c0.015 0.034 0.024 0.074 0.024 0.116 0 0.071-0.025 0.137-0.068 0.188l0-0z"></path>
<path fill="#000" opacity="0.1" d="M34.092 29.917c-0.153 0.202-1.053 0.116-1.206 0.054-0.093-0.037-0.086-0.215-0.061-0.396 0.097 0.045 0.261 0.083 0.535 0.058 0.043-0.004 0.093-0.007 0.143-0.007 0.017 0 0.035 0 0.052 0.001l-0.002-0c0.060 0.003 0.13 0.005 0.201 0.005 0.135 0 0.268-0.006 0.4-0.018l-0.017 0.001c0.015 0.034 0.023 0.073 0.023 0.115 0 0.072-0.026 0.137-0.068 0.188l0-0z"></path>
<path fill="#000" opacity="0.1" d="M30.953 24.795c0.061 0.795-0.013 2.020-0.257 2.68-0.12 0.329-0.19 0.709-0.19 1.105 0 0.072 0.002 0.143 0.007 0.214l-0-0.010c-0.086 0.074-0.205 0.085-0.335 0.064 0.074-0.516 0.389-2.741 0.59-4.498 0.23-2.001 1.303-3.378 1.303-3.378l0.214 0.236c-0.584 0.307-1.331 3.587-1.331 3.587z"></path>
<path fill="#fbbebe" d="M33.725 11.93l-0.149 0.734-0.732 1.23-0.903-0.386s-1.228-1.285-0.456-1.469c0.098-0.021 0.183-0.061 0.258-0.115l-0.002 0.001c0.151-0.114 0.199-0.28 0.2-0.443-0.006-0.192-0.051-0.372-0.128-0.535l0.003 0.008 1.579-0.496c-0.061 0.189-0.101 0.408-0.111 0.634l-0 0.006c-0.012 0.43 0.149 0.642 0.279 0.744 0.046 0.037 0.1 0.066 0.159 0.084l0.003 0.001z"></path>
<path fill="#000" opacity="0.1" d="M33.394 10.461c-0.061 0.189-0.101 0.408-0.111 0.634l-0 0.006c-0.030 0.035-0.060 0.067-0.091 0.097l-0 0c-0.224 0.214-0.528 0.346-0.863 0.346-0.138 0-0.27-0.022-0.394-0.064l0.009 0.003c-0.007-0.192-0.052-0.372-0.129-0.535l0.003 0.008z"></path>
<path fill="#fbbebe" d="M33.576 10.259c0 0 0 0 0 0 0 0.69-0.559 1.249-1.249 1.249s-1.249-0.559-1.249-1.249c0-0.69 0.559-1.249 1.249-1.249v0c0.002 0 0.004 0 0.006 0 0.686 0 1.243 0.556 1.243 1.243 0 0.002 0 0.004 0 0.006v-0z"></path>
<path fill="#000" opacity="0.1" d="M33.725 11.93l-0.149 0.734-0.732 1.23-0.903-0.386s-1.228-1.285-0.456-1.469c0.098-0.021 0.183-0.061 0.258-0.115l-0.002 0.001c-0.139 0.383 0.435 1.179 0.435 1.179 0.067 0.099 0.22 0.037 0.22 0.037 0.37-0.056 1.052-1.121 1.163-1.298 0.046 0.038 0.101 0.067 0.161 0.085l0.003 0.001z"></path>
<path fill="#000" opacity="0.1" d="M34.432 19.049c-0.217 0.049-1.42 0.316-1.876 0.249-0.502-0.074-1.477-0.122-1.477-0.122s-0.621 0.034-0.813-0.054c0-0.023 0-0.037 0-0.037l0.354-0.424s3.427-0.257 3.685 0c0.064 0.064 0.103 0.208 0.127 0.389z"></path>
<path fill="#6c63ff" d="M32.176 13.142s-0.646-0.893-0.402-1.243l-1.091 0.447s-0.657-0.080-0.893 0.9c-0.028 0.116-0.044 0.249-0.044 0.386 0 0.039 0.001 0.078 0.004 0.117l-0-0.005c0.009 0.149-0.011 0.409-0.18 0.744-0.269 0.539-0.208 1.775 0.343 1.898s0.746 0.061 0.746 0.061-0.074 2.24-0.392 2.497 0.811 0.196 0.811 0.196 0.976 0.049 1.478 0.122 1.909-0.257 1.909-0.257-0.208-0.942-0.282-1.542-0.245-1.877-0.245-1.877l1.248-1.691s0.22-1.022-0.551-1.475-1.061-0.564-1.061-0.564-0.775 1.262-1.179 1.323c0.001 0-0.153 0.062-0.22-0.036z"></path>
<path fill="#000" opacity="0.1" d="M30.744 13.497s-0.012 0.404 0.061 0.563 0.343 1.042 0.343 1.042h-0.612s0.331-0.355 0.306-0.527-0.098-1.079-0.098-1.079z"></path>
<path fill="#fbbebe" d="M32.556 16.545s-1.352-0.331-1.478-0.612-0.473-0.912-0.473-0.912l0.143-0.192 0.657 0.516s0.782 0.624 1.151 0.686 0 0.514 0 0.514z"></path>
<path fill="#000" opacity="0.05" d="M32.556 16.545s-1.352-0.331-1.478-0.612-0.473-0.912-0.473-0.912l0.143-0.192 0.657 0.516s0.782 0.624 1.151 0.686 0 0.514 0 0.514z"></path>
<path fill="#fbbebe" d="M33.725 14.953v0.733h-0.118c-0 0-0 0-0.001 0-0.611 0-1.184 0.16-1.681 0.44l0.017-0.009-0.221 0.122-0.059 0.033-0.38-0.856 0.355-0.318h0.018c0.087 0.009 0.462 0.040 0.622-0.014 0.151-0.051 0.339-0.214 0.784-0.101 0.219 0.056 0.407 0.302 0.619 0.225z"></path>
<path fill="#000" opacity="0.1" d="M34.906 13.618l0.245 0.275v0.667s-0.208 2.105-0.869 2.338-1.841-0.135-1.841-0.135-0.305-0.808-0.162-0.856 1.26-0.344 1.26-0.344-0.016-1.235 0.229-1.602c0 0-0.159-1.15 0.392-1.175s0.747 0.831 0.747 0.831z"></path>
<path fill="#6c63ff" d="M34.943 13.618l0.245 0.275v0.667s-0.208 2.105-0.869 2.338-1.841-0.135-1.841-0.135-0.305-0.808-0.162-0.856 1.26-0.344 1.26-0.344-0.016-1.235 0.229-1.602c0 0-0.159-1.15 0.392-1.175s0.747 0.831 0.747 0.831z"></path>
<path fill="#000" opacity="0.1" d="M33.233 10.789c0.003-0.019 0.004-0.041 0.004-0.064 0-0.063-0.012-0.123-0.033-0.178l0.001 0.003c-0.035-0.074-0.115-0.131-0.194-0.112-0.105 0.025-0.149 0.161-0.252 0.194-0.087 0.028-0.181-0.034-0.223-0.115s-0.042-0.176-0.042-0.266c0-0.102 0-0.204 0-0.307 0-0.112-0.004-0.232-0.072-0.319-0.085-0.109-0.286-0.156-0.42-0.152-0.093 0.001-0.177 0.038-0.24 0.097l0-0c-0.071 0.061-0.154 0.106-0.252 0.090-0.084-0.013-0.151-0.072-0.175-0.15l-0-0.002v-0.004c0.23-0.304 0.591-0.498 0.998-0.498 0.689 0 1.248 0.559 1.248 1.248 0 0.357-0.15 0.679-0.39 0.906l-0.001 0.001c0.020-0.105 0.035-0.233 0.043-0.362l0.001-0.010z"></path>
<path fill="#7c5c5c" d="M31.509 9.624c-0.084-0.013-0.151-0.072-0.176-0.151l-0-0.002c-0.010-0.039-0.007-0.082-0.019-0.121-0.029-0.096-0.131-0.146-0.2-0.22-0.138-0.146-0.129-0.387-0.031-0.563 0.079-0.142 0.232-0.261 0.392-0.234 0.099 0.017 0.186 0.087 0.285 0.094s0.186-0.048 0.273-0.088c0.125-0.058 0.271-0.092 0.425-0.092 0.090 0 0.177 0.012 0.26 0.033l-0.007-0.002c0.072 0.015 0.136 0.048 0.186 0.094l-0-0c0.032 0.040 0.065 0.086 0.096 0.133l0.004 0.006c0.114 0.145 0.318 0.174 0.5 0.207s0.388 0.105 0.447 0.28c0.040 0.116 0 0.242-0.022 0.363-0.003 0.009-0.004 0.020-0.004 0.031 0 0.016 0.003 0.031 0.009 0.045l-0-0.001c0.029 0.047 0.1 0.027 0.153 0.037 0.103 0.022 0.13 0.155 0.134 0.261q0.006 0.181 0.010 0.362c0.001 0.009 0.001 0.020 0.001 0.030 0 0.037-0.004 0.072-0.012 0.107l0.001-0.003c-0.024 0.066-0.059 0.122-0.104 0.169l0-0-0.404 0.486c-0.179 0.215-0.37 0.466-0.335 0.744-0.085 0.037-0.186-0.035-0.214-0.124s-0.006-0.186 0.013-0.276c0.030-0.137 0.053-0.301 0.064-0.468l0.001-0.010c0.003-0.019 0.004-0.041 0.004-0.064 0-0.063-0.012-0.123-0.033-0.178l0.001 0.003c-0.035-0.074-0.115-0.131-0.194-0.112-0.105 0.025-0.149 0.161-0.252 0.194-0.087 0.028-0.181-0.034-0.223-0.115s-0.042-0.175-0.042-0.266v-0.307c0-0.112-0.004-0.232-0.072-0.319-0.085-0.109-0.286-0.156-0.42-0.152-0.093 0.001-0.177 0.038-0.24 0.097l0-0c-0.072 0.061-0.155 0.106-0.252 0.090z"></path>
<path fill="#000" opacity="0.1" d="M31.722 16.24l-0.059 0.033-0.38-0.856 0.355-0.318h0.018c-0.006 0.042-0.105 0.778 0.066 1.141z"></path>
<path fill="#a27772" d="M30.579 29.396c-0.015 0.126-0.113 0.225-0.236 0.243l-0.001 0c-0.332 0.049-1.133 0.176-1.335 0.272-0.257 0.122-1.273 0.037-1.322-0.086-0.005-0.016-0.008-0.034-0.008-0.054 0-0.035 0.009-0.068 0.026-0.096l-0 0.001c0.036-0.075 0.092-0.136 0.162-0.175l0.002-0.001c0.021-0.012 0.046-0.023 0.071-0.032l0.003-0.001c0.191-0.064 0.553-0.199 0.65-0.341 0 0 0.451-0.394 0.579-0.607 0.049-0.083 0.135-0.14 0.234-0.147l0.001-0c0.107-0.005 0.227 0.049 0.276 0.284 0 0 0.587 0.335 0.744 0.041 0 0 0.025 0.451 0.122 0.575v0c0.021 0.027 0.034 0.062 0.034 0.1 0 0.008-0.001 0.017-0.002 0.025l0-0.001z"></path>
<path fill="#000" opacity="0.1" d="M30.579 29.396c-0.015 0.126-0.113 0.225-0.236 0.243l-0.001 0c-0.332 0.049-1.133 0.176-1.335 0.272-0.257 0.122-1.273 0.037-1.322-0.086-0.005-0.016-0.008-0.034-0.008-0.054 0-0.035 0.009-0.068 0.026-0.096l-0 0.001c0.036-0.075 0.092-0.136 0.162-0.175l0.002-0.001c0.166 0.112 0.533 0.217 1.342 0.091 0.772-0.121 1.154-0.239 1.34-0.319v0c0.021 0.027 0.033 0.061 0.033 0.099 0 0.009-0.001 0.017-0.002 0.026l0-0.001z"></path>
<path fill="#000" opacity="0.1" d="M33.919 9.381v-0.006c0.017-0.092 0.044-0.186 0.037-0.278-0.009 0.086-0.022 0.162-0.040 0.236l0.002-0.012c-0.002 0.009-0.003 0.020-0.003 0.030s0.001 0.021 0.004 0.031l-0-0.001z"></path>
<path fill="#000" opacity="0.1" d="M33.205 10.526c0.019 0.041 0.030 0.089 0.030 0.14v0c0.001-0.010 0.001-0.023 0.001-0.035 0-0.058-0.012-0.113-0.033-0.163l0.001 0.003c-0.034-0.074-0.115-0.131-0.194-0.112-0.105 0.025-0.149 0.161-0.253 0.194-0.086 0.028-0.181-0.034-0.223-0.115s-0.042-0.176-0.042-0.266c0-0.102 0-0.204 0-0.307 0-0.112-0.004-0.232-0.072-0.319-0.086-0.109-0.286-0.156-0.42-0.152-0.093 0.001-0.177 0.038-0.24 0.097l0-0c-0.072 0.061-0.154 0.106-0.252 0.090-0.084-0.013-0.151-0.072-0.175-0.15l-0-0.002c-0.010-0.039-0.007-0.082-0.019-0.121-0.029-0.096-0.131-0.146-0.2-0.219-0.062-0.069-0.101-0.16-0.103-0.26v-0c-0.001 0.011-0.002 0.024-0.002 0.037 0 0.106 0.040 0.203 0.105 0.277l-0-0c0.069 0.074 0.172 0.123 0.2 0.219 0.012 0.037 0.009 0.082 0.019 0.121 0.025 0.080 0.092 0.139 0.174 0.152l0.001 0c0.098 0.016 0.181-0.029 0.252-0.090 0.063-0.059 0.147-0.096 0.239-0.097h0c0.134-0.004 0.335 0.043 0.42 0.152 0.069 0.087 0.072 0.208 0.072 0.319 0 0.102 0 0.204 0 0.307 0 0.091 0 0.186 0.042 0.266s0.136 0.143 0.223 0.115c0.103-0.033 0.149-0.169 0.253-0.194 0.079-0.017 0.16 0.042 0.194 0.114z"></path>
<path fill="#000" opacity="0.1" d="M34.211 10.189c-0.024 0.066-0.059 0.122-0.104 0.168l0-0-0.404 0.486c-0.17 0.204-0.35 0.441-0.335 0.702 0.012-0.239 0.179-0.457 0.335-0.647l0.404-0.486c0.045-0.047 0.080-0.103 0.103-0.165l0.001-0.003c0.008-0.031 0.012-0.067 0.012-0.104 0-0.011-0-0.021-0.001-0.032l0 0.001c-0.001 0.028-0.005 0.056-0.011 0.082l0.001-0.002z"></path>
<path fill="#000" opacity="0.1" d="M33.157 11.463c-0.006-0.019-0.011-0.042-0.012-0.065l-0-0.001c-0.001 0.008-0.001 0.018-0.001 0.027 0 0.033 0.005 0.065 0.014 0.096l-0.001-0.002c0.028 0.089 0.128 0.162 0.214 0.124-0.002-0.015-0.004-0.034-0.004-0.053l-0-0.001c-0.085 0.034-0.183-0.038-0.209-0.125z"></path>
<path fill="#000" opacity="0.1" d="M34.283 24.471c-0.094 0.079-0.215 0.129-0.347 0.136l-0.001 0c-0.211 0.009-0.194 0.285-0.055 0.202s0.403-0.338 0.403-0.338z"></path>
<path fill="#cb632b" d="M8.163 29.638s0.85 0.233 1.26-0.077 0.587-0.211 0.587-0.211 0.976-0.054 1.057-0.285-0.374-1.069-0.374-1.069c-0.032-0.074-0.080-0.169-0.101-0.169l0.004-0.354 0.141-1.479c0.326-0.837 0.006-1.919 0.006-1.919l-0.058-0.268c-0.010-0.043-0.016-0.093-0.016-0.144 0-0.11 0.026-0.214 0.073-0.306l-0.002 0.004 0.593-1.191c0.036-0.090 0.074-0.165 0.116-0.237l-0.005 0.008c0.037-0.068 0.087-0.152 0.149-0.253 0.018-0.029 0.037-0.059 0.058-0.091 0.072-0.112 0.159-0.238 0.264-0.384 0.262-0.364 0.4-0.819 0.472-1.154l0.032 0.105h0.007l0.009 0.002h0.014l0.015 0.003h0.006l0.182 2.321c0.011 0.905 0.344 1.406 0.344 1.406l-0.046 1.998c0.063 0.481-0.074 1.123-0.137 1.379l-0.144 0.324c-0.113 0.057-0.193 0.165-0.212 0.293l-0 0.002c-0.028 0.239-0.28 0.755-0.28 0.755-0.098 0.124-0.309 0.457-0.309 0.457s-0.1 0.322-0.038 0.443 0.578 0.108 0.578 0.108c0.59 0.131 1.042-0.186 1.014-0.404s0.092-0.274 0.092-0.274c0.235-0.074 0.212-0.233 0.212-0.233 0.011-0.067 0.017-0.144 0.017-0.222 0-0.268-0.072-0.519-0.198-0.735l0.004 0.007-0.037 0.086c-0.001-0.023-0.002-0.050-0.002-0.076 0-0.154 0.027-0.302 0.076-0.44l-0.003 0.009-0.022 0.015-0.007 0.004h-0.002c0.037-0.326 0.38-0.93 0.38-0.93 0.63-1.105 0.401-2.602 0.401-2.602l-0.098-0.467-0.006-0.176c-0.002-0.056-0.003-0.121-0.003-0.186 0-0.378 0.036-0.747 0.104-1.105l-0.006 0.037c0.034-0.183 0.069-0.404 0.096-0.648 0.057-0.515 0.239-1.047 0.323-1.272l0.025-0.004h0.003c0.034-0.006 0.069-0.012 0.104-0.019h0.007s0.020-0.109 0.037-0.294c0.010-0.118 0.018-0.268 0.018-0.44 0-0.007 0-0.016 0-0.024 0-0.538-0.086-1.056-0.245-1.541l0.010 0.035 0.019-0.027s0.045-0.061 0.127-0.167v0c0.151-0.192 0.386-0.484 0.676-0.813 0.519-0.592 0.367-1.191 0.367-1.191s-0.376-1.377-0.543-2.205c-0.096-0.471-0.275-0.792-0.412-0.981 0.029-0.118 0.048-0.255 0.052-0.395l0-0.003c0.011-0.245 0.003-0.5-0.108-0.72s-0.345-0.394-0.59-0.364c-0.016 0.004-0.034 0.006-0.053 0.006s-0.037-0.002-0.054-0.007l0.002 0c-0.029-0.013-0.053-0.034-0.069-0.060l-0-0.001c-0.143-0.198-0.153-0.463-0.108-0.703s0.136-0.469 0.177-0.709 0.022-0.507-0.131-0.698c-0.18-0.223-0.493-0.286-0.727-0.454-0.164-0.118-0.287-0.287-0.46-0.392s-0.335-0.065-0.523-0.025c-0.316 0.067-0.616 0.097-0.915 0.233-0.313 0.144-0.578 0.339-0.796 0.578l-0.002 0.002c-0.077 0.077-0.138 0.171-0.176 0.275l-0.002 0.005c-0.074 0.246 0.071 0.508 0.041 0.763-0.022 0.181-0.128 0.338-0.213 0.499s-0.149 0.352-0.083 0.521c0.104 0.264 0.444 0.319 0.691 0.46 0.034 0.017 0.061 0.041 0.081 0.070l0 0.001c0.061 0.106-0.064 0.217-0.142 0.312-0.043 0.053-0.076 0.116-0.092 0.186l-0.001 0.003c-0.206 0.086-0.358 0.265-0.404 0.484l-0.001 0.004c-0.084 0.375 0.045 0.848 0.159 1.161-0.124 0.696 0.037 0.971 0.156 1.076 0.117 0.1 0.194 0.244 0.207 0.405l0 0.002v0.013c0.008 0.127 0.021 0.253 0.039 0.379v0c-0.004-0.029-0.008-0.061-0.010-0.074-0.097 0.18-0.282 0.639-0.386 1.412-0.025 0.192-0.058 0.358-0.101 0.521l0.007-0.029c-0.055 0.203-0.087 0.436-0.087 0.677 0 0.071 0.003 0.142 0.008 0.212l-0.001-0.009 0.019 0.25c-0.001 0-0.001 0-0.002 0-0.018 0-0.035-0.006-0.049-0.017l0 0 0.131 0.239v0.404c-0 0.192-0.037 0.375-0.102 0.543l0.004-0.010c-0.009 0.025-0.019 0.049-0.030 0.074-0.028 0.056-0.045 0.122-0.045 0.192 0 0.010 0 0.019 0.001 0.029l-0-0.001c-0.281 0.431-0.925 2.844-0.925 2.844-0.349 0.791 0.029 1.303 0.029 1.303s0.183 2.203 0.217 2.317 0.11 1.457 0.11 1.457v0c0 0.035 0 0.072 0 0.107-0.018-0.008-0.040-0.015-0.062-0.018l-0.001-0c-0.306-0.017-0.389 0.467-0.389 0.467l-0.627 0.599s-0.286-0.048-0.707 0.268 0.272 0.604 0.272 0.604zM14.422 16.906l-0.002-0.007-0.017 0.010-0.007 0.004-0.003 0.002-0.289-1.019c-0.041-0.138-0.064-0.297-0.064-0.461 0-0.134 0.016-0.264 0.045-0.389l-0.002 0.011 0.223-0.978v-0.235l0.71 1.892c0.045 0.255-0.376 0.872-0.594 1.17z"></path>
<path fill="#fdc2cc" d="M14.733 19.983s-0.287 0.697-0.36 1.366c-0.026 0.241-0.061 0.459-0.094 0.64-0.060 0.315-0.095 0.678-0.095 1.048 0 0.067 0.001 0.134 0.003 0.2l-0-0.010 0.006 0.174 0.093 0.46s0.223 1.479-0.393 2.568c0 0-0.366 0.652-0.377 0.961l-0.248 0.096-0.5-0.14s0.242-0.866 0.163-1.473l0.045-1.973s-0.325-0.494-0.336-1.387l-0.191-2.451z"></path>
<path fill="#fdc2cc" d="M12.45 19.633s-0.061 0.956-0.534 1.615-0.573 0.945-0.573 0.945l-0.582 1.177c-0.044 0.087-0.070 0.19-0.070 0.299 0 0.050 0.005 0.099 0.016 0.146l-0.001-0.004 0.057 0.265s0.315 1.068-0.006 1.895l-0.152 1.597h-0.888s-0.074-1.327-0.107-1.439-0.214-2.288-0.214-2.288-0.372-0.506-0.028-1.287c0 0 0.776-2.924 0.984-2.873s2.097-0.045 2.097-0.045z"></path>
<path fill="#000" opacity="0.1" d="M10.673 24.077l-0.057-0.265c-0.010-0.043-0.016-0.093-0.016-0.144 0-0.109 0.026-0.211 0.072-0.302l-0.002 0.004 0.582-1.178s0.101-0.287 0.573-0.945c0.454-0.633 0.529-1.539 0.534-1.609l0.090-0.004s-0.061 0.956-0.534 1.615-0.573 0.945-0.573 0.945l-0.582 1.177c-0.044 0.087-0.070 0.19-0.070 0.299 0 0.050 0.005 0.099 0.016 0.146l-0.001-0.004 0.057 0.265s0.315 1.068-0.006 1.895l-0.152 1.597h-0.090l0.152-1.597c0.32-0.827 0.006-1.893 0.006-1.893z"></path>
<path fill="#000" opacity="0.1" d="M13.428 27.392c0.011-0.309 0.377-0.961 0.377-0.961 0.619-1.091 0.393-2.568 0.393-2.568l-0.095-0.461-0.006-0.174c-0.002-0.057-0.003-0.123-0.003-0.19 0-0.37 0.034-0.733 0.1-1.084l-0.006 0.036c0.033-0.181 0.067-0.399 0.094-0.64 0.070-0.644 0.339-1.314 0.358-1.363l0.092-0.004s-0.287 0.697-0.36 1.366c-0.026 0.241-0.061 0.459-0.094 0.64-0.060 0.315-0.095 0.678-0.095 1.048 0 0.067 0.001 0.134 0.003 0.2l-0-0.010 0.006 0.174 0.093 0.46s0.223 1.479-0.393 2.568c0 0-0.366 0.652-0.377 0.961l-0.248 0.096-0.052-0.015z"></path>
<path fill="#d39999" d="M13.141 27.381c0.047 0.019 0.101 0.030 0.158 0.030 0.094 0 0.181-0.030 0.252-0.082l-0.001 0.001c-0.045 0.128-0.071 0.275-0.071 0.428 0 0.111 0.014 0.22 0.040 0.323l-0.002-0.009c0.101 0.405-0.945-0.326-0.945-0.326l0.223-0.51s0.087 0.162 0.345 0.145z"></path>
<path fill="#000" opacity="0.1" d="M13.219 27.403c0.025 0.005 0.053 0.008 0.083 0.008 0.094 0 0.181-0.031 0.251-0.084l-0.001 0.001c-0.045 0.128-0.071 0.275-0.071 0.428 0 0.111 0.014 0.22 0.040 0.323l-0.002-0.009c0.101 0.405-0.945-0.326-0.945-0.326l0.223-0.51s0.065 0.124 0.255 0.144c0.058 0.007 0.113 0.015 0.168 0.025z"></path>
<path fill="#fdc2cc" d="M10.769 17.922h0.437v-2.479l-0.328-0.059-0.109 2.538z"></path>
<path fill="#000" opacity="0.05" d="M10.769 17.922h0.437v-2.479l-0.328-0.059-0.109 2.538z"></path>
<path fill="#7e5659" d="M12.894 27.572s0.275-0.017 0.399 0.23l0.152 0.118 0.074-0.174c0.119 0.206 0.189 0.453 0.189 0.716 0 0.079-0.006 0.156-0.018 0.231l0.001-0.008s0.022 0.157-0.208 0.23c0 0-0.118 0.056-0.090 0.27s-0.416 0.529-0.995 0.399c0 0-0.506 0.012-0.568-0.107s0.039-0.433 0.039-0.433 0.208-0.33 0.303-0.451c0 0 0.248-0.51 0.276-0.744s0.299-0.406 0.445-0.277z"></path>
<path fill="#d39999" d="M10.614 27.78l0.004-0.349s-0.503 0.145-0.91-0.019c0 0 0.034 0.351-0.022 0.399s0.188 0.5 0.188 0.5l0.274 0.287 0.47-0.171 0.128-0.402s-0.099-0.245-0.132-0.245z"></path>
<path fill="#000" opacity="0.1" d="M10.614 27.78l0.004-0.349s-0.503 0.145-0.91-0.019c0 0 0.034 0.351-0.022 0.399s0.188 0.5 0.188 0.5l0.274 0.287 0.47-0.171 0.128-0.402s-0.099-0.245-0.132-0.245z"></path>
<path fill="#7e5659" d="M9.655 27.654s0.267 0.031 0.233 0.372 0.014 0 0.014 0 0.284 0.115 0.385 0.275 0.284-0.143 0.298-0.23 0.128-0.123 0.128-0.123 0.447 0.828 0.368 1.056-1.038 0.28-1.038 0.28-0.175-0.098-0.577 0.208-1.237 0.074-1.237 0.074-0.68-0.284-0.267-0.596 0.694-0.264 0.694-0.264l0.616-0.593s0.082-0.477 0.382-0.46z"></path>
<path fill="#865a61" d="M12.847 8.076c0.17 0.103 0.291 0.271 0.452 0.387 0.229 0.166 0.537 0.227 0.713 0.448 0.149 0.188 0.168 0.451 0.128 0.689s-0.13 0.464-0.174 0.701-0.035 0.499 0.106 0.694c0.016 0.026 0.040 0.047 0.067 0.060l0.001 0c0.016 0.004 0.034 0.006 0.052 0.006s0.036-0.002 0.053-0.006l-0.002 0c0.24-0.029 0.471 0.143 0.579 0.36s0.117 0.469 0.105 0.711c-0.009 0.198-0.032 0.401-0.119 0.579-0.149 0.304-0.459 0.491-0.764 0.635-0.16 0.078-0.362 0.162-0.569 0.234l-0.042 0.013c-0.143 0.048-0.294 0.092-0.442 0.067-0.254-0.044-0.434-0.275-0.676-0.366-0.198-0.074-0.417-0.048-0.627-0.029-0.179 0.016-0.384 0.015-0.508-0.116-0.159-0.168-0.087-0.44-0.006-0.656-0.245-0.016-0.438-0.219-0.438-0.466 0-0.113 0.040-0.217 0.108-0.298l-0.001 0.001c0.077-0.093 0.199-0.203 0.139-0.308-0.020-0.030-0.047-0.054-0.079-0.069l-0.001-0.001c-0.242-0.138-0.576-0.194-0.678-0.454-0.066-0.167-0.002-0.356 0.081-0.515s0.186-0.315 0.209-0.492c0.030-0.252-0.112-0.51-0.040-0.753 0.039-0.108 0.099-0.201 0.175-0.278l-0 0c0.215-0.238 0.475-0.431 0.767-0.567l0.015-0.006c0.294-0.134 0.588-0.165 0.898-0.23 0.186-0.039 0.34-0.081 0.515 0.025z"></path>
<path fill="#fdc2cc" d="M10.751 13.629l0.27 0.214 1.259 0.056 0.786-0.54 0.799-1.372c-0.489-0.125-0.686-0.462-0.76-0.778-0.025-0.11-0.040-0.236-0.040-0.365 0-0.101 0.009-0.199 0.025-0.295l-0.001 0.010s-1.282-0.664-1.124 0.372c0.013 0.071 0.020 0.152 0.020 0.236 0 0.053-0.003 0.105-0.008 0.156l0.001-0.006c-0.074 0.607-0.663 0.492-0.663 0.492l-0.226 0.348-0.259 0.856z"></path>
<path fill="#000" opacity="0.1" d="M11.966 10.93c0.013 0.071 0.020 0.152 0.020 0.236 0 0.053-0.003 0.105-0.008 0.156l0.001-0.006c0.139 0.065 0.301 0.103 0.472 0.103 0.246 0 0.473-0.078 0.659-0.211l-0.003 0.002c-0.025-0.11-0.040-0.236-0.040-0.365 0-0.101 0.009-0.199 0.025-0.295l-0.001 0.010s-1.282-0.664-1.124 0.371z"></path>
<path fill="#fdc2cc" d="M13.586 10.237c0 0.627-0.508 1.136-1.136 1.136s-1.136-0.508-1.136-1.136c0-0.627 0.508-1.136 1.136-1.136s1.136 0.508 1.136 1.136z"></path>
<path fill="#6c63ff" d="M11.647 13.413c0.028 0 0.055 0.004 0.082 0.007 0.149 0.015 0.771 0.048 1.125-0.375 0.396-0.473 0.924-1.058 0.946-1.082l0.537 0.162s-0.425-0.151-0.707 0.639c-0.033 0.085-0.052 0.184-0.052 0.286 0 0.267 0.128 0.505 0.326 0.654l0.002 0.002c0.099 0.072 0.218 0.125 0.346 0.148l0.005 0.001c0 0 0 0.001 0 0.001s-0 0.001-0 0.001v0 0.347l-0.22 0.968c-0.027 0.112-0.042 0.241-0.042 0.373 0 0.162 0.023 0.319 0.066 0.467l-0.003-0.012 0.335 1.184c-0.051 0.035-2.129 1.449-3.517 0.472 0 0 0 0 0 0 0.005-0.042 0.177-1.432 0.058-2.112-0.028-0.148-0.050-0.329-0.061-0.512l-0.001-0.014c0-0.004 0-0.009 0-0.013-0.013-0.161-0.089-0.303-0.203-0.401l-0.001-0.001c-0.125-0.112-0.294-0.409-0.127-1.196 0.048-0.216 0.112-0.405 0.194-0.585l-0.007 0.018 0.466-1.052s0 0 0 0l0.429 0.009cv0.003c-0.037 0.046-0.535 0.668-0.589 1.068-0.053 0.381-0.118 0.498 0.613 0.545z"></path>
<path fill="#fdc2cc" d="M14.699 12.31s0.42 0.36 0.585 1.177 0.532 2.174 0.532 2.174 0.149 0.592-0.36 1.177-0.847 1.042-0.847 1.042l-0.335 0.494c-0.057 0.083-0.14 0.143-0.238 0.17l-0.003 0.001c-0.153 0.040-0.387 0.069-0.59-0.042-0.106-0.060-0.176-0.172-0.176-0.3 0-0.048 0.010-0.095 0.028-0.136l-0.001 0.002 0.074-0.172s-0.69 0.435-0.75 0.195 0.802-0.48 0.802-0.48 0.712-0.12 0.856-0.457c0 0 0.764-0.982 0.705-1.319l-0.738-1.979s-0.923-0.122-0.609-1.159 1.065-0.385 1.065-0.385z"></path>
<path fill="#65617d" d="M10.283 19.776s1.687 0.337 2.084 0.292l0.043 0.143s0.64 0.143 2.088-0.086q0.142-0.022 0.294-0.050l0.034-0.006s0.020-0.107 0.035-0.29c0.035-0.415 0.047-1.219-0.245-2.041l-0.243-0.75s-1.504 0.902-2.5 0.819c-0.089-0.007-0.177-0.015-0.266-0.017-0.204-0.008-0.521 0-0.727-0.165l-0.432 0.074v1.228c-0 0.189-0.036 0.37-0.101 0.536l0.003-0.010c-0.009 0.025-0.019 0.049-0.030 0.074-0.027 0.052-0.044 0.114-0.044 0.179 0 0.025 0.002 0.049 0.007 0.073l-0-0.002z"></path>
<path fill="#000" opacity="0.1" d="M12.41 19.828v0.382s0.737 0.165 2.416-0.143c0 0 0.020-0.107 0.035-0.29-0.515 0.083-1.936 0.281-2.451 0.050z"></path>
<path fill="#000" opacity="0.1" d="M10.283 19.776s1.687 0.337 2.084 0.292l0.043 0.143v-0.382c-0.192 0.080-1.563-0.251-2.060-0.375-0.009 0.025-0.019 0.049-0.030 0.074-0.027 0.052-0.043 0.114-0.043 0.179 0 0.024 0.002 0.048 0.007 0.071l-0-0.002z"></path>
<path fill="#65617d" d="M14.373 19.35l0.125 0.776q0.142-0.022 0.294-0.050c-0.039-0.227-0.124-0.744-0.101-0.83l-0.157-0.135z"></path>
<path fill="#000" opacity="0.1" d="M14.39 19.333l0.125 0.776q0.142-0.023 0.294-0.050c-0.039-0.227-0.124-0.744-0.101-0.83l-0.157-0.135z"></path>
<path fill="#000" opacity="0.05" d="M11.782 17.806c-0.089-0.007-0.177-0.015-0.266-0.017-0.199-0.007-0.502 0-0.709-0.152l0.072-0.013c0.207 0.164 0.521 0.157 0.727 0.165 0.089 0.003 0.177 0.010 0.266 0.017 0.029 0.003 0.059 0.004 0.089 0.005-0.013 0-0.029 0.001-0.044 0.001-0.047 0-0.094-0.002-0.141-0.006l0.006 0z"></path>
<path fill="#000" opacity="0.05" d="M14.407 20.124q0.142-0.022 0.294-0.050l0.034-0.006s0.020-0.107 0.035-0.29c0.035-0.415 0.047-1.219-0.245-2.041l-0.229-0.707c0.049-0.028 0.074-0.044 0.074-0.044l0.243 0.75c0.292 0.823 0.28 1.626 0.245 2.041-0.016 0.183-0.035 0.29-0.035 0.29l-0.034 0.006q-0.152 0.028-0.294 0.050c-0.676 0.107-1.176 0.133-1.517 0.13 0.51-0.008 1.004-0.055 1.485-0.137l-0.057 0.008z"></path>
<path fill="#d39999" d="M14.646 19.364c0 0.072-0.028 0.131-0.064 0.131s-0.064-0.059-0.064-0.131c0-0.072 0.028-0.131 0.064-0.131s0.064 0.059 0.064 0.131z"></path>
<path fill="#fdc2cc" d="M10.52 16.711c0.103-0.763 0.284-1.216 0.38-1.394 0.004 0.024 0.013 0.103 0.018 0.127 0.019 0.112 0.002 0.252 0.008 0.394l-0.095 1.726 0.128 0.54c0.12 0.427-0.324 0.090-0.324 0.090-0.092 0.203-0.261 0.18-0.261 0.18l-0.023-0.31c-0.005-0.060-0.007-0.13-0.007-0.2 0-0.238 0.031-0.468 0.089-0.687l-0.004 0.019c0.035-0.132 0.068-0.296 0.090-0.463l0.002-0.021z"></path>
<path fill="#000" opacity="0.05" d="M10.52 16.711c0.103-0.763 0.284-1.216 0.38-1.394 0.004 0.024 0.013 0.103 0.018 0.127 0.019 0.112 0.002 0.252 0.008 0.394l-0.095 1.726 0.128 0.54c0.12 0.427-0.324 0.090-0.324 0.090-0.092 0.203-0.261 0.18-0.261 0.18l-0.023-0.31c-0.005-0.060-0.007-0.13-0.007-0.2 0-0.238 0.031-0.468 0.089-0.687l-0.004 0.019c0.035-0.132 0.068-0.296 0.090-0.463l0.002-0.021z"></path>
<path fill="#fdc2cc" d="M14.792 17.641c-0.081 0.105-0.125 0.165-0.125 0.165l-0.335 0.493c-0.057 0.083-0.14 0.144-0.238 0.17l-0.003 0.001c-0.153 0.040-0.387 0.070-0.59-0.042-0.106-0.060-0.176-0.172-0.176-0.3 0-0.048 0.010-0.095 0.028-0.136l-0.001 0.002 0.074-0.173s-0.69 0.435-0.75 0.195 0.802-0.48 0.802-0.48 0.712-0.12 0.856-0.457c0 0 0.062-0.080 0.149-0.202z"></path>
<path fill="#000" opacity="0.1" d="M13.566 9.638c-0.069 0.097-0.188 0.146-0.306 0.161s-0.237 0.002-0.355 0c-0.186-0.003-0.384 0.026-0.536 0.135-0.097 0.070-0.17 0.168-0.246 0.261-0.23 0.281-0.549 0.544-0.912 0.515 0 0 0 0-0 0-0.066 0-0.126-0.027-0.169-0.071l-0-0c-0.027-0.042-0.043-0.092-0.043-0.147 0-0.002 0-0.005 0-0.007v0c-0.005-0.071-0.008-0.153-0.008-0.236 0-0.162 0.011-0.32 0.032-0.476l-0.002 0.018c0.016-0.153 0.053-0.293 0.109-0.424l-0.004 0.010c0.069-0.138 0.153-0.257 0.253-0.361l-0 0c0.123-0.142 0.268-0.26 0.432-0.349l0.008-0.004c0.107-0.058 0.235-0.092 0.37-0.092 0.064 0 0.127 0.008 0.186 0.022l-0.005-0.001c0.217 0.059 0.386 0.229 0.593 0.316 0.236 0.099 0.864 0.365 0.605 0.731z"></path>
<path fill="#865a61" d="M13.566 9.593c-0.069 0.097-0.188 0.146-0.306 0.161s-0.237 0.002-0.355 0c-0.186-0.003-0.384 0.025-0.536 0.135-0.097 0.070-0.17 0.168-0.246 0.261-0.23 0.281-0.549 0.544-0.912 0.515-0 0-0 0-0.001 0-0.066 0-0.126-0.027-0.169-0.071l-0-0c-0.027-0.041-0.043-0.092-0.043-0.147 0-0.003 0-0.005 0-0.008v0c-0.005-0.071-0.008-0.153-0.008-0.236 0-0.162 0.011-0.32 0.032-0.476l-0.002 0.018c0.016-0.153 0.053-0.293 0.109-0.424l-0.004 0.010c0.068-0.138 0.153-0.257 0.253-0.36l-0 0c0.123-0.142 0.268-0.26 0.432-0.349l0.008-0.004c0.107-0.058 0.235-0.092 0.37-0.092 0.064 0 0.127 0.008 0.186 0.022l-0.005-0.001c0.217 0.059 0.386 0.229 0.593 0.316 0.236 0.1 0.864 0.364 0.605 0.731z"></path>
<path fill="#000" opacity="0.05" d="M13.75 12.624c-0.315 1.037 0.604 1.159 0.604 1.159l0.738 1.979c0.060 0.337-0.705 1.319-0.705 1.319-0.053 0.126-0.186 0.221-0.331 0.292 0.085-0.052 0.152-0.126 0.195-0.213l0.001-0.003s0.764-0.982 0.705-1.319l-0.738-1.979s-0.919-0.122-0.604-1.159c0.105-0.347 0.261-0.504 0.418-0.561-0.108 0.087-0.208 0.238-0.282 0.485z"></path>
<path fill="#000" opacity="0.1" d="M13.765 13.566c0.043 0.053 0.092 0.1 0.147 0.14l0.002 0.002c0.099 0.073 0.218 0.125 0.346 0.148l0.005 0.001s0 0 0 0.002v0.037c-0.121-0.026-0.228-0.075-0.321-0.143l0.002 0.002c-0.071-0.052-0.131-0.115-0.18-0.185l-0.002-0.003z"></path>
<path fill="#000" opacity="0.1" d="M10.91 15.050c0 0.004 0 0.009 0 0.013 0.013 0.198 0.036 0.379 0.069 0.557l-0.004-0.029c0.112 0.642-0.035 1.916-0.055 2.092-0.012-0.008-0.024-0.015-0.037-0.024 0.006-0.042 0.177-1.432 0.058-2.111-0.028-0.148-0.050-0.329-0.061-0.512l-0.001-0.014c0-0.004 0-0.009 0-0.013-0.008-0.107-0.044-0.205-0.101-0.287l0.001 0.002c0.074 0.089 0.123 0.201 0.133 0.324l0 0.002z"></path>
<path fill="#000" opacity="0.1" d="M11.595 11.839l-0.364-0.007c-0-0-0.001-0-0.001-0s-0.001 0-0.001 0v0l-0.465 1.052c-0.074 0.161-0.138 0.351-0.182 0.548l-0.004 0.019c-0.136 0.636-0.050 0.954 0.053 1.11-0.117-0.137-0.237-0.45-0.087-1.154 0.047-0.216 0.11-0.406 0.192-0.585l-0.007 0.018 0.469-1.052s0 0 0 0l0.429 0.009cv0.003c-0.003 0.004-0.015 0.019-0.031 0.040z"></path>
<path fill="#000" opacity="0.1" d="M14.205 12.118l-0.365-0.11ch-0.002c-0.022 0.024-0.549 0.609-0.945 1.082-0.354 0.423-0.976 0.39-1.125 0.375-0.027-0.003-0.055-0.005-0.082-0.007-0.407-0.026-0.567-0.074-0.62-0.177 0.076 0.074 0.244 0.112 0.587 0.133 0.028 0 0.055 0.004 0.082 0.007 0.149 0.015 0.771 0.048 1.125-0.375 0.396-0.474 0.924-1.059 0.946-1.082v0l0.531 0.161c-0.024-0.006-0.052-0.010-0.080-0.010-0.018 0-0.035 0.001-0.052 0.004l0.002-0z"></path>
<path fill="#9b8149" d="M21.734 27.756c0.009-0.074 0.021-0.149 0.034-0.223 0.059-0.322-0.031-0.628-0.074-0.755v0c-0.014-0.039-0.024-0.061-0.024-0.061-0.237-0.065-1.172 0.66-1.512 0.933-0.118 0-0.246 0.005-0.386 0.015-0.061 0.004-0.122 0.006-0.183 0.005-0.055 0-0.133 0-0.223 0-0.316-0.255-1.294-1.020-1.538-0.954 0 0-0.010 0.022-0.024 0.061v0c-0.045 0.127-0.135 0.433-0.076 0.755 0.013 0.074 0.026 0.149 0.034 0.223 0.018 0.163 0.087 0.477 0.335 0.689 0.053 0.387 0.252 0.896 0.406 1.205 0.013 0.065 0.031 0.122 0.054 0.176l-0.002-0.006c-0.063 0.244-0.136 0.563-0.115 0.67 0 0-0.331-0.080-0.364 0.318 0 0.004 0 0.008 0 0.012-0.119 0.055-0.269 0.18-0.101 0.443 0.020 0.032 0.050 0.057 0.085 0.070l0.001 0c0.030 0.010 0.059 0.010 0.056-0.031l0.207 0.233s0.374 0.043 0.379-0.174l0.022 0.003c0.050 0.007 0.103 0.014 0.157 0.019l0.026 0.086s-0.281-0.006-0.204 0.167c0 0 0.071 0.066 0.095 0.042 0 0-0.037 0.114 0.109 0.114 0 0 0.157 0.083 0.219 0.024s0.189-0.149 0.201-0.186c0.003-0.010 0.005-0.098 0.006-0.22h0.024c0.314 0.007 0.647-0.003 0.95-0.019h0.025c0 0.132 0.002 0.23 0.005 0.24 0.012 0.037 0.14 0.125 0.201 0.186s0.218-0.024 0.218-0.024c0.146 0 0.109-0.114 0.109-0.114 0.025 0.024 0.095-0.042 0.095-0.042 0.077-0.173-0.205-0.167-0.205-0.167l0.034-0.112 0.18-0.015c-0.015 0.236 0.378 0.191 0.378 0.191l0.207-0.233c-0.003 0.042 0.026 0.042 0.055 0.031 0.035-0.014 0.064-0.039 0.083-0.070l0-0.001c0.253-0.396-0.215-0.48-0.215-0.48-0.013-0.004-0.028-0.006-0.044-0.007l-0.001-0c0-0.007 0-0.014 0.002-0.020v0c0.003-0.028 0.005-0.061 0.005-0.094 0-0.022-0.001-0.044-0.003-0.066l0 0.003c-0.017-0.072-0.133-0.186-0.279-0.203-0.095-0.012-0.097-0.45-0.087-0.753 0.010-0.048 0.015-0.104 0.015-0.16 0-0.004-0-0.009-0-0.013v0.001c0-0.005 0-0.012 0-0.018 0-0.092-0.014-0.181-0.039-0.265l0.002 0.006c0.186-0.316 0.335-0.646 0.352-0.744 0.245-0.214 0.314-0.526 0.332-0.69z"></path>
<path fill="#6c63ff" d="M21.374 30.773v0c-0.015 0.206-0.055 0.537-0.055 0.537s-0.166 0.020-0.422 0.043l-0.174 0.015c-0.133 0.011-0.283 0.021-0.441 0.030-0.292 0.016-0.613 0.026-0.916 0.019-0.151-0.003-0.298-0.011-0.434-0.025-0.061-0.006-0.119-0.013-0.175-0.021-0.347-0.052-0.596-0.151-0.617-0.325-0.007-0.044-0.011-0.095-0.011-0.147 0-0.027 0.001-0.054 0.003-0.080l-0 0.003c0.032-0.391 0.351-0.312 0.351-0.312-0.020-0.108 0.057-0.443 0.119-0.686 0.039-0.153 0.074-0.269 0.074-0.269l2.245-0.149c0 0 0 0 0 0 0.060 0 0.109 0.049 0.109 0.109 0 0.002-0 0.004-0 0.006v-0c-0.013 0.268-0.032 0.883 0.077 0.897 0.141 0.017 0.252 0.129 0.269 0.199 0.001 0.015 0.002 0.033 0.002 0.051 0 0.036-0.002 0.072-0.007 0.108l0-0.004z"></path>
<path fill="#6c63ff" d="M19.473 27.827s-0.844 1.016-1.25 0.734c-0.010-0.007-0.019-0.013-0.028-0.020-0.273-0.207-0.345-0.54-0.364-0.71-0.008-0.074-0.020-0.146-0.033-0.219-0.056-0.316 0.030-0.617 0.074-0.741v0c0.013-0.037 0.023-0.060 0.023-0.060 0.281-0.078 1.578 1.016 1.578 1.016z"></path>
<path fill="#6c63ff" d="M19.020 27.921s-0.266 0.186-0.641 0.492c-0.055 0.045-0.115 0.087-0.18 0.125l-0.006 0.003c-0.273-0.207-0.345-0.54-0.364-0.71-0.008-0.074-0.020-0.146-0.033-0.219-0.056-0.316 0.030-0.617 0.074-0.741v0c0.526 0.036 1.149 1.050 1.149 1.050z"></path>
<path fill="#fff" opacity="0.5" d="M19.020 27.921s-0.266 0.186-0.641 0.492c-0.055 0.045-0.115 0.087-0.18 0.125l-0.006 0.003c-0.273-0.207-0.345-0.54-0.364-0.71-0.008-0.074-0.020-0.146-0.033-0.219-0.056-0.316 0.030-0.617 0.074-0.741v0c0.526 0.036 1.149 1.050 1.149 1.050z"></path>
<path fill="#000" opacity="0.1" d="M18.731 27.821s-0.142 0.1-0.342 0.263c-0.029 0.024-0.061 0.046-0.095 0.066l-0.003 0.002c-0.146-0.112-0.186-0.288-0.194-0.378-0.004-0.039-0.010-0.078-0.017-0.117-0.005-0.035-0.008-0.075-0.008-0.116 0-0.1 0.018-0.197 0.051-0.285l-0.002 0.006c0.278 0.019 0.611 0.56 0.611 0.56z"></path>
<path fill="#6c63ff" d="M20.020 27.827s0.844 1.016 1.25 0.734c0.009-0.007 0.019-0.013 0.028-0.020 0.273-0.207 0.345-0.54 0.364-0.71 0.008-0.074 0.020-0.146 0.033-0.219 0.057-0.316-0.030-0.617-0.074-0.741v0c-0.013-0.037-0.023-0.060-0.023-0.060-0.28-0.078-1.577 1.016-1.577 1.016z"></path>
<path fill="#6c63ff" d="M20.473 27.921s0.266 0.186 0.641 0.492c0.054 0.045 0.114 0.087 0.178 0.125l0.006 0.003c0.273-0.207 0.345-0.54 0.364-0.71 0.008-0.074 0.020-0.146 0.033-0.219 0.057-0.316-0.030-0.617-0.074-0.741v0c-0.523 0.036-1.148 1.050-1.148 1.050z"></path>
<path fill="#fff" opacity="0.5" d="M20.473 27.921s0.266 0.186 0.641 0.492c0.054 0.045 0.114 0.087 0.178 0.125l0.006 0.003c0.273-0.207 0.345-0.54 0.364-0.71 0.008-0.074 0.020-0.146 0.033-0.219 0.057-0.316-0.030-0.617-0.074-0.741v0c-0.523 0.036-1.148 1.050-1.148 1.050z"></path>
<path fill="#000" opacity="0.1" d="M20.765 27.82s0.141 0.1 0.34 0.261c0.029 0.024 0.061 0.046 0.095 0.066l0.003 0.002c0.145-0.11 0.183-0.287 0.193-0.376 0.004-0.037 0.010-0.078 0.017-0.116 0.006-0.036 0.009-0.077 0.009-0.118 0-0.099-0.017-0.193-0.050-0.28l0.002 0.006c-0.278 0.020-0.609 0.558-0.609 0.558z"></path>
<path fill="#000" opacity="0.1" d="M20.914 29.408c-0.106 0.168-0.22 0.32-0.323 0.412-0.335 0.298-1.781 0.179-1.875 0.164-0.020-0.003-0.061-0.062-0.112-0.157 0.039-0.153 0.074-0.269 0.074-0.269z"></path>
<path fill="#6c63ff" d="M19.769 27.742c-0.059 0.004-0.118 0.006-0.177 0.004-0.302-0.005-1.319 0.008-1.431 0.419-0.133 0.484 0.461 1.779 0.555 1.795s1.539 0.133 1.875-0.164 0.773-1.228 0.75-1.313c0 0 0.417-0.879-1.572-0.741z"></path>
<path fill="#000" opacity="0.1" d="M19.737 28.526s-0.744-0.115-1.093 0.618c-0.058 0.115-0.092 0.25-0.092 0.394 0 0.189 0.059 0.365 0.159 0.509l-0.002-0.003c0.116 0.163 0.287 0.285 0.524 0.186 0.527-0.217 0.504-1.704 0.504-1.704z"></path>
<path fill="#000" opacity="0.1" d="M19.713 28.479s-0.744-0.115-1.093 0.618c-0.058 0.115-0.092 0.25-0.092 0.394 0 0.189 0.059 0.365 0.159 0.509l-0.002-0.003c0.116 0.163 0.287 0.285 0.524 0.186 0.527-0.217 0.504-1.704 0.504-1.704z"></path>
<path fill="#6c63ff" d="M19.713 28.503s-0.744-0.115-1.093 0.618c-0.058 0.115-0.092 0.25-0.092 0.394 0 0.189 0.059 0.365 0.159 0.509l-0.002-0.003c0.116 0.163 0.287 0.285 0.524 0.186 0.527-0.217 0.504-1.704 0.504-1.704z"></path>
<path fill="#fff" opacity="0.5" d="M19.713 28.503s-0.744-0.115-1.093 0.618c-0.058 0.115-0.092 0.25-0.092 0.394 0 0.189 0.059 0.365 0.159 0.509l-0.002-0.003c0.116 0.163 0.287 0.285 0.524 0.186 0.527-0.217 0.504-1.704 0.504-1.704z"></path>
<path fill="#000" opacity="0.1" d="M19.832 28.526s0.744-0.115 1.093 0.618c0.058 0.115 0.092 0.25 0.092 0.394 0 0.189-0.059 0.365-0.159 0.509l0.002-0.003c-0.116 0.163-0.287 0.285-0.524 0.186-0.529-0.217-0.504-1.704-0.504-1.704z"></path>
<path fill="#000" opacity="0.1" d="M19.854 28.479s0.744-0.115 1.093 0.618c0.058 0.115 0.092 0.25 0.092 0.394 0 0.189-0.059 0.365-0.159 0.509l0.002-0.003c-0.116 0.163-0.287 0.285-0.524 0.186-0.526-0.217-0.504-1.704-0.504-1.704z"></path>
<path fill="#6c63ff" d="M19.854 28.503s0.744-0.115 1.093 0.618c0.058 0.115 0.092 0.25 0.092 0.394 0 0.189-0.059 0.365-0.159 0.509l0.002-0.003c-0.116 0.163-0.287 0.285-0.524 0.186-0.526-0.217-0.504-1.704-0.504-1.704z"></path>
<path fill="#fff" opacity="0.5" d="M19.854 28.503s0.744-0.115 1.093 0.618c0.058 0.115 0.092 0.25 0.092 0.394 0 0.189-0.059 0.365-0.159 0.509l0.002-0.003c-0.116 0.163-0.287 0.285-0.524 0.186-0.526-0.217-0.504-1.704-0.504-1.704z"></path>
<path fill="#000" opacity="0.1" d="M18.758 31.372c-0.347-0.052-0.596-0.151-0.617-0.325-0.007-0.044-0.011-0.095-0.011-0.147 0-0.027 0.001-0.054 0.003-0.080l-0 0.003c0.038-0.021 0.082-0.038 0.129-0.048l0.003-0.001c0.063-0.017 0.141-0.006 0.305 0.041s0.152 0.24 0.186 0.492c0.002 0.011 0.003 0.023 0.003 0.035 0 0.010-0.001 0.019-0.002 0.029l0-0.001z"></path>
<path fill="#6c63ff" d="M18.243 30.8s-0.451 0.083-0.207 0.472c0.019 0.031 0.048 0.055 0.082 0.068l0.001 0c0.029 0.010 0.056 0.010 0.053-0.031l0.2 0.229s0.398 0.047 0.363-0.205-0.023-0.447-0.186-0.492-0.243-0.059-0.306-0.041z"></path>
<path fill="#000" opacity="0.1" d="M21.374 30.773v0c-0.015 0.206-0.055 0.537-0.055 0.537s-0.166 0.020-0.422 0.043c-0.001-0.006-0.001-0.014-0.001-0.022s0-0.015 0.001-0.023l-0 0.001c0.035-0.252 0.023-0.447 0.186-0.492 0.153-0.041 0.23-0.057 0.29-0.045z"></path>
<path fill="#6c63ff" d="M21.415 30.8s0.451 0.083 0.207 0.472c-0.020 0.031-0.048 0.055-0.082 0.068l-0.001 0c-0.029 0.010-0.057 0.010-0.054-0.031l-0.199 0.229s-0.399 0.047-0.363-0.205 0.023-0.447 0.186-0.492 0.243-0.059 0.306-0.041z"></path>
<path fill="#000" opacity="0.1" d="M19.367 31.416c-0.151-0.003-0.298-0.011-0.434-0.025l-0.135-0.455c-0.008-0.025-0.012-0.053-0.012-0.083v-0c0.005-0.156 0.133-0.28 0.289-0.28s0.283 0.123 0.289 0.278l0 0.001c0.002 0.177 0.003 0.402 0.002 0.564z"></path>
<path fill="#6c63ff" d="M18.775 30.937l0.159 0.537s-0.271-0.006-0.197 0.164c0 0 0.068 0.064 0.092 0.041 0 0-0.035 0.112 0.105 0.112 0 0 0.152 0.082 0.211 0.023s0.182-0.147 0.194-0.182c0.007-0.023 0.005-0.472 0.003-0.782-0.001-0.159-0.13-0.287-0.289-0.287-0 0-0 0-0 0h0c-0 0-0 0-0 0-0.16 0-0.289 0.13-0.289 0.289 0 0.030 0.005 0.059 0.013 0.086l-0.001-0.002z"></path>
<path fill="#000" opacity="0.1" d="M20.864 30.854c0 0 0 0 0 0 0 0.030-0.004 0.058-0.012 0.085l0.001-0.002-0.126 0.431c-0.133 0.011-0.283 0.021-0.441 0.030 0-0.161 0-0.375 0.003-0.546 0.001-0.159 0.13-0.288 0.289-0.288s0.289 0.13 0.289 0.289c0 0 0 0.001 0 0.001v-0z"></path>
<path fill="#6c63ff" d="M20.874 30.937l-0.159 0.537s0.271-0.006 0.197 0.164c0 0-0.068 0.064-0.092 0.041 0 0 0.035 0.112-0.106 0.112 0 0-0.152 0.082-0.211 0.023s-0.182-0.147-0.194-0.182c-0.007-0.023-0.005-0.472-0.003-0.782 0.001-0.159 0.13-0.287 0.289-0.287 0 0 0 0 0 0h-0c0 0 0 0 0 0 0.16 0 0.289 0.13 0.289 0.289 0 0.030-0.005 0.059-0.013 0.086l0.001-0.002z"></path>
<path fill="#000" opacity="0.1" d="M19.714 28.386s-0.551-0.017-0.569 0.409 0.861 0.246 0.861 0.246 0.369-0.049 0.305-0.309-0.199-0.323-0.597-0.346z"></path>
<path fill="#000" opacity="0.1" d="M19.714 28.339s-0.551-0.017-0.569 0.409 0.861 0.246 0.861 0.246 0.369-0.049 0.305-0.309-0.199-0.323-0.597-0.346z"></path>
<path fill="#3f2b3b" d="M19.714 28.362s-0.551-0.017-0.569 0.409 0.861 0.246 0.861 0.246 0.369-0.049 0.305-0.309-0.199-0.323-0.597-0.346z"></path>
<path fill="#000" opacity="0.1" d="M18.484 30.513s0.186 0.066 0.223 0.193z"></path>
<path fill="#000" opacity="0.1" d="M21.108 30.419s-0.132 0.055-0.123 0.287z"></path>
<path fill="#6c63ff" d="M18.637 31.437c0.039 0.069 0.038 0.143-0.004 0.167s-0.107-0.013-0.146-0.081c-0.039-0.069-0.038-0.143 0.004-0.167s0.107 0.013 0.146 0.081z"></path>
<path fill="#6c63ff" d="M21.253 31.229c0.041 0.024 0.043 0.098 0.003 0.166s-0.105 0.104-0.146 0.080c-0.041-0.024-0.043-0.098-0.003-0.166s0.105-0.104 0.146-0.080z"></path>
<path fill="#fff" opacity="0.5" d="M18.637 31.437c0.039 0.069 0.038 0.143-0.004 0.167s-0.107-0.013-0.146-0.081c-0.039-0.069-0.038-0.143 0.004-0.167s0.107 0.013 0.146 0.081z"></path>
<path fill="#fff" opacity="0.5" d="M21.253 31.229c0.041 0.024 0.043 0.098 0.003 0.166s-0.105 0.104-0.146 0.080c-0.041-0.024-0.043-0.098-0.003-0.166s0.105-0.104 0.146-0.080z"></path>
<path fill="#6c63ff" opacity="0.1" d="M8.171 26.652c0 0.094-0.449 0.169-1.002 0.169s-1.002-0.076-1.002-0.169c0-0.094 0.449-0.169 1.002-0.169s1.002 0.076 1.002 0.169z"></path>
<path fill="#6c63ff" opacity="0.1" d="M4.222 29.054c0 0.094-0.449 0.169-1.002 0.169s-1.002-0.076-1.002-0.169c0-0.094 0.449-0.169 1.002-0.169s1.002 0.076 1.002 0.169z"></path>
<path fill="#6c63ff" d="M3.673 26.905c0 0.14-0.67 0.253-1.497 0.253s-1.497-0.113-1.497-0.253c0-0.14 0.67-0.253 1.497-0.253s1.497 0.113 1.497 0.253z"></path>
<path fill="#6c63ff" d="M1.557 26.492c-0.067-0.055-0.117-0.128-0.142-0.212l-0.001-0.003c-0.018-0.086 0.018-0.188 0.1-0.219 0.092-0.035 0.189 0.028 0.264 0.092s0.159 0.137 0.256 0.124c-0.079-0.072-0.128-0.175-0.128-0.289 0-0.027 0.003-0.053 0.008-0.079l-0 0.003c0.004-0.029 0.016-0.054 0.034-0.075l-0 0c0.051-0.054 0.143-0.031 0.204 0.012 0.193 0.136 0.248 0.399 0.248 0.636 0.020-0.086 0.003-0.174 0.004-0.261s0.025-0.186 0.098-0.232c0.042-0.023 0.091-0.037 0.144-0.037 0.002 0 0.003 0 0.005 0h-0c0.087-0.003 0.184 0.006 0.243 0.069 0.074 0.079 0.055 0.212-0.010 0.298s-0.162 0.141-0.252 0.202c-0.073 0.044-0.133 0.101-0.179 0.17l-0.001 0.002c-0.005 0.009-0.009 0.019-0.013 0.029l-0 0.001h-0.544c-0.129-0.065-0.24-0.142-0.339-0.232l0.001 0.001z"></path>
<path fill="#6c63ff" opacity="0.1" d="M39.332 28.069c0 0.094-0.449 0.169-1.002 0.169s-1.002-0.076-1.002-0.169c0-0.094 0.449-0.169 1.002-0.169s1.002 0.076 1.002 0.169z"></path>
<path fill="#a8a8a8" d="M37.657 27.282s0.572-0.017 0.744-0.14 0.879-0.269 0.922-0.072 0.859 0.979 0.214 0.984-1.5-0.101-1.672-0.205-0.208-0.566-0.208-0.566z"></path>
<path fill="#000" opacity="0.2" d="M39.548 27.985c-0.645 0.005-1.5-0.101-1.672-0.205-0.131-0.080-0.183-0.366-0.201-0.498h-0.019s0.037 0.461 0.208 0.566 1.026 0.211 1.672 0.205c0.186 0 0.251-0.068 0.247-0.166-0.026 0.061-0.097 0.098-0.236 0.098z"></path>
</svg>
