<!-- Generated by IcoMoon.io -->
<svg version="1.1" xmlns="http://www.w3.org/2000/svg" width="32" height="32" viewBox="0 0 32 32">
<title>time</title>
<path fill="#c6e2f7" d="M20.052 11.346c-2.688 0-4.867-2.179-4.867-4.867v-4.327h9.735v4.327c0 2.688-2.18 4.867-4.867 4.867z"></path>
<path fill="#c6e2f7" d="M20.052 11.346c2.688 0 4.867 2.179 4.867 4.867v4.327h-9.735v-4.327c0-2.688 2.179-4.867 4.867-4.867z"></path>
<path fill="#be6e41" d="M25.46 2.693h-10.816c-0.598 0-1.082-0.484-1.082-1.082s0.484-1.082 1.082-1.082h10.816c0.598 0 1.082 0.484 1.082 1.082s-0.485 1.082-1.082 1.082z"></path>
<path fill="#f7e6a1" d="M15.308 7.56c0.492 2.167 2.427 3.786 4.742 3.786s4.25-1.619 4.742-3.786z"></path>
<path fill="#f7e6a1" d="M20.052 15.673c-2.704 0-4.867 3.245-4.867 3.245l4.867 1.622 4.867-1.622s-2.163-3.245-4.867-3.245z"></path>
<path fill="#fbce9d" d="M26.441 16.979c-0.361 0.579-0.876 1.044-1.503 1.313l-2.635 1.129-4.956-0.503-2.062-1.237c-0.42-0.252-0.9-0.385-1.39-0.385h-3.037c-2.163 0-5.408 4.327-5.408 4.327l-0.541 0.541 5.694 4.965c0.567-0.377 1.336-0.638 1.336-0.638h7.558c1.748 0 3.434-0.652 4.728-1.828l3.938-3.58c1.066-1.066 2.468-3.813 3.014-4.927 0.135-0.276 0.010-0.611-0.27-0.736-2.364-1.053-3.802 0.498-4.466 1.561z"></path>
<path fill="#366db6" d="M12.213 29.22l-2.295 2.295c-0.211 0.211-0.554 0.211-0.765 0l-8.189-8.19c-0.211-0.211-0.211-0.554 0-0.765l2.295-2.295c0.211-0.211 0.554-0.211 0.765 0l8.189 8.189c0.211 0.211 0.211 0.554 0 0.765z"></path>
<path fill="#4d007e" d="M25.494 3.245h-10.816c-0.895 0-1.622-0.728-1.622-1.623s0.728-1.622 1.622-1.622h10.816c0.895 0 1.622 0.728 1.622 1.622s-0.728 1.622-1.622 1.622zM14.677 1.082c-0.299 0-0.541 0.243-0.541 0.541 0 0.144 0.056 0.28 0.158 0.382s0.237 0.158 0.382 0.158h10.816c0.299 0 0.541-0.243 0.541-0.541s-0.242-0.541-0.541-0.541z"></path>
<path fill="#4d007e" d="M20.086 11.357c-2.982 0-5.408-2.426-5.408-5.408v-3.245c0-0.299 0.242-0.541 0.541-0.541h9.735c0.299 0 0.541 0.242 0.541 0.541v3.245c0 2.982-2.426 5.408-5.408 5.408zM15.759 3.245v2.704c0 2.386 1.941 4.327 4.327 4.327s4.327-1.941 4.327-4.327v-2.704z"></path>
<path fill="#4d007e" d="M20.086 11.357c-2.54 0-4.707-1.73-5.27-4.207-0.036-0.161 0.002-0.329 0.105-0.458s0.257-0.203 0.422-0.203h9.486c0.164 0 0.32 0.075 0.422 0.203s0.141 0.297 0.105 0.458c-0.563 2.476-2.73 4.207-5.27 4.207zM16.076 7.572c0.648 1.621 2.212 2.704 4.010 2.704s3.361-1.083 4.010-2.704z"></path>
<path fill="#4d007e" d="M20.086 13.521c-0.299 0-0.541-0.242-0.541-0.541v-2.163c0-0.299 0.242-0.541 0.541-0.541s0.541 0.242 0.541 0.541v2.163c0 0.299-0.242 0.541-0.541 0.541z"></path>
<path fill="#4d007e" d="M23.511 19.47h-6.129c-0.098 0-0.194-0.026-0.279-0.077l-2.058-1.235c-0.012-0.006-0.084-0.042-0.087-0.044-0.174-0.095-0.281-0.277-0.281-0.474v-1.955c0-2.982 2.426-5.408 5.408-5.408s5.408 2.426 5.408 5.408v2.627c0 0.216-0.129 0.412-0.328 0.497l-1.442 0.618c-0.067 0.029-0.139 0.044-0.213 0.044zM17.531 18.388h5.868l1.012-0.434v-2.27c0-2.386-1.941-4.327-4.327-4.327s-4.327 1.941-4.327 4.327v1.641z"></path>
<path fill="#4d007e" d="M23.511 19.47h-6.129c-0.098 0-0.194-0.026-0.278-0.077l-1.466-0.88c-0.138-0.083-0.231-0.222-0.256-0.381s0.023-0.32 0.129-0.441c1.025-1.162 2.652-2.547 4.575-2.547 2.231 0 4.053 1.867 4.94 2.98 0.105 0.132 0.143 0.306 0.102 0.469s-0.156 0.299-0.311 0.365l-1.092 0.468c-0.067 0.029-0.14 0.043-0.213 0.043zM17.531 18.388h5.868l0.314-0.135c-0.791-0.858-2.141-2.029-3.628-2.029-1.315 0-2.527 0.924-3.316 1.706z"></path>
<path fill="#4d007e" d="M21.167 22.715h-4.327c-0.299 0-0.541-0.242-0.541-0.541s0.242-0.541 0.541-0.541h4.327c0.597 0 1.082-0.485 1.082-1.082s-0.485-1.082-1.082-1.082h-3.786c-0.299 0-0.541-0.242-0.541-0.541s0.242-0.541 0.541-0.541h3.786c1.193 0 2.163 0.97 2.163 2.163s-0.971 2.163-2.163 2.163z"></path>
<path fill="#4d007e" d="M9.57 32c-0.416 0-0.831-0.158-1.148-0.474l-7.424-7.424c-0.633-0.633-0.633-1.663 0-2.295l1.529-1.529c0.633-0.632 1.662-0.633 2.295 0l7.424 7.424c0.633 0.633 0.633 1.663 0 2.295l-1.529 1.529c-0.316 0.317-0.732 0.475-1.147 0.475zM3.675 20.884c-0.138 0-0.277 0.053-0.383 0.158l-1.529 1.529c-0.211 0.211-0.211 0.554 0 0.766l7.424 7.424c0.211 0.211 0.554 0.211 0.766 0l1.529-1.529c0.211-0.211 0.211-0.554 0-0.766l-7.424-7.424c-0.105-0.105-0.244-0.158-0.383-0.158zM11.864 29.614h0.005z"></path>
<path fill="#4d007e" d="M10.809 27.57c-0.14 0-0.278-0.054-0.382-0.158l-5.349-5.349c-0.165-0.165-0.205-0.417-0.101-0.625 0.015-0.029 0.055-0.103 0.074-0.128 0.349-0.465 3.475-4.543 5.841-4.543h3.037c0.588 0 1.165 0.16 1.669 0.462l2.062 1.237c0.256 0.154 0.339 0.486 0.186 0.742s-0.486 0.339-0.742 0.186l-2.062-1.237c-0.337-0.202-0.721-0.308-1.114-0.308h-3.037c-1.284 0-3.465 2.195-4.72 3.779l4.725 4.725c0.495-0.259 0.922-0.369 0.944-0.375 0.043-0.011 0.088-0.017 0.133-0.017h7.558c1.617 0 3.168-0.599 4.364-1.687l3.938-3.58c0.594-0.595 1.479-1.997 2.473-3.931 0.118-0.23 0.117-0.506-0.004-0.737-0.111-0.213-0.307-0.352-0.535-0.382-1.381-0.181-2.303 0.787-2.832 1.633-0.434 0.693-1.039 1.221-1.751 1.525l-2.635 1.129c-0.275 0.117-0.592-0.010-0.71-0.284s0.010-0.593 0.284-0.71l2.635-1.129c0.508-0.218 0.943-0.6 1.26-1.105 0.985-1.575 2.367-2.333 3.891-2.131 0.582 0.077 1.075 0.425 1.352 0.953 0.284 0.542 0.287 1.191 0.008 1.733-0.739 1.436-1.805 3.335-2.688 4.218l-3.957 3.598c-1.396 1.27-3.205 1.97-5.092 1.97h-7.483c-0.148 0.045-0.556 0.183-0.94 0.438-0.091 0.061-0.195 0.091-0.299 0.091z"></path>
</svg>
