<!-- Generated by IcoMoon.io -->
<svg version="1.1" xmlns="http://www.w3.org/2000/svg" width="44" height="32" viewBox="0 0 44 32">
<title>wall_post</title>
<path fill="#6c63ff" opacity="0.1" d="M2.668 4.786c0.409 0.712 0.182 1.635-0.262 2.325s-1.076 1.238-1.568 1.896c-0.979 1.313-1.232 3.387 0.002 4.467 0.266 0.233 0.595 0.417 0.757 0.73 0.224 0.433 0.058 0.954-0.111 1.412l-0.014 0.038c-0.638 1.729 0.302 3.646 2.063 4.188 0.975 0.3 1.854 0.787 2.505 1.574 0.569 0.688 0.898 1.537 1.273 2.347 0.678 1.463 1.554 2.862 2.764 3.927s2.789 1.771 4.401 1.713c3.681-0.133 6.392-4.009 10.070-4.213 0.265-0.015 0.547-0.005 0.769 0.141 0.313 0.206 0.409 0.611 0.54 0.962 0.696 1.861 2.793 2.72 4.671 3.371l3.528 1.226c1.916 0.666 3.929 1.341 5.934 1.033s3.962-1.955 3.875-3.982c-0.071-1.665-1.451-3.13-1.271-4.788 0.125-1.145 0.983-2.107 1.126-3.25 0.15-1.19-0.501-2.332-1.249-3.268-2.154-2.696-5.223-4.473-8.219-6.187-2.11-1.208-4.231-2.42-6.503-3.288-5.6-2.133-11.755-2.042-17.721-2.624-1.026-0.1-2.098-0.218-3.039-0.672-0.722-0.348-1.286-1.153-2.078-1.323-0.603-0.13-1.496 0.138-2.023 0.431-0.96 0.538-0.696 0.986-0.221 1.811z"></path>
<path fill="#b86fcc" d="M39.614 0h-32.222c-0.618 0.003-1.118 0.504-1.118 1.123 0 0.002 0 0.004 0 0.006v-0 22.66c0 0.002-0 0.004-0 0.006 0 0.618 0.5 1.12 1.118 1.123h32.222c0.618-0.003 1.118-0.504 1.118-1.123 0-0.002 0-0.004-0-0.006v0-22.66c0-0.002 0-0.004 0-0.006 0-0.618-0.5-1.12-1.118-1.123h-0z"></path>
<path fill="#f6f7f9" d="M40.586 2.401v21.118c0 0.612-0.496 1.108-1.108 1.108v0h-31.938c-0.612 0-1.108-0.496-1.108-1.108v0-21.118z"></path>
<path fill="#dde1ec" d="M14.775 13.286v11.341h-7.235c-0.612 0-1.108-0.506-1.108-1.13v-10.211z"></path>
<path fill="#dde1ec" d="M17.252 4.986h13.905v0.391h-13.905v-0.391z"></path>
<path fill="#dde1ec" d="M17.252 7.767h8.386v0.391h-8.386v-0.391z"></path>
<path fill="#dde1ec" d="M27.507 7.767h2.825v0.391h-2.825v-0.391z"></path>
<path fill="#6c63ff" opacity="0.1" d="M8.996 17.522h2.825v0.391h-2.825v-0.391z"></path>
<path fill="#dde1ec" d="M27.507 11.417h2.825v0.391h-2.825v-0.391z"></path>
<path fill="#dde1ec" d="M27.507 15.067h2.825v0.391h-2.825v-0.391z"></path>
<path fill="#dde1ec" d="M27.507 8.984h2.825v0.391h-2.825v-0.391z"></path>
<path fill="#dde1ec" d="M32.374 8.984h2.825v0.391h-2.825v-0.391z"></path>
<path fill="#dde1ec" d="M27.507 10.2h2.825v0.391h-2.825v-0.391z"></path>
<path fill="#dde1ec" d="M32.374 10.2h2.825v0.391h-2.825v-0.391z"></path>
<path fill="#dde1ec" d="M32.374 12.46h2.825v0.391h-2.825v-0.391z"></path>
<path fill="#dde1ec" d="M32.374 13.677h2.825v0.391h-2.825v-0.391z"></path>
<path fill="#dde1ec" d="M32.374 16.284h2.825v0.391h-2.825v-0.391z"></path>
<path fill="#dde1ec" d="M17.252 8.984h8.386v0.391h-8.386v-0.391z"></path>
<path fill="#dde1ec" d="M17.252 10.2h8.386v0.391h-8.386v-0.391z"></path>
<path fill="#dde1ec" d="M17.252 11.417h8.386v0.391h-8.386v-0.391z"></path>
<path fill="#dde1ec" d="M17.252 12.634h8.386v0.391h-8.386v-0.391z"></path>
<path fill="#dde1ec" d="M17.252 13.851h8.386v0.391h-8.386v-0.391z"></path>
<path fill="#dde1ec" d="M17.252 15.067h8.386v0.391h-8.386v-0.391z"></path>
<path fill="#dde1ec" d="M17.252 16.284h8.386v0.391h-8.386v-0.391z"></path>
<path fill="#6c63ff" d="M6.432 2.379h8.343v11.124h-8.343v-11.124z"></path>
<path fill="#e8eaf1" d="M40.586 1.271c-0-0.612-0.496-1.108-1.108-1.108h-31.938c-0.612 0-1.108 0.496-1.108 1.108v1.26h34.154z"></path>
<path fill="#ff5252" d="M8.214 1.336c0 0.24-0.195 0.435-0.435 0.435s-0.435-0.195-0.435-0.435c0-0.24 0.195-0.435 0.435-0.435s0.435 0.195 0.435 0.435z"></path>
<path fill="#ff0" d="M9.648 1.336c0 0.24-0.195 0.435-0.435 0.435s-0.435-0.195-0.435-0.435c0-0.24 0.195-0.435 0.435-0.435s0.435 0.195 0.435 0.435z"></path>
<path fill="#69f0ae" d="M11.082 1.336c0 0.24-0.195 0.435-0.435 0.435s-0.435-0.195-0.435-0.435c0-0.24 0.195-0.435 0.435-0.435s0.435 0.195 0.435 0.435z"></path>
<path fill="#fff" d="M13.038 7.941c0 0.001 0 0.002 0 0.003 0 0.581-0.205 1.114-0.546 1.531l0.003-0.004c-0.013 0.016-0.026 0.032-0.040 0.049v0c-0.003 0.003-0.005 0.006-0.007 0.009l-0 0c-0.124 0.143-0.262 0.27-0.413 0.38l-0.007 0.005-0.020 0.015c-0.028 0.020-0.056 0.040-0.084 0.057l-0.020 0.012-0.042 0.026c-0.005 0.003-0.012 0.007-0.018 0.010l-0.001 0.001c-0.005 0.003-0.010 0.007-0.016 0.010l-0.001 0c-0.062 0.036-0.126 0.069-0.191 0.1-0.007 0.004-0.015 0.007-0.023 0.011s-0.016 0.008-0.025 0.011-0.026 0.012-0.040 0.017c-0.123 0.054-0.268 0.101-0.419 0.133l-0.016 0.003c-0.127 0.029-0.275 0.047-0.427 0.052l-0.004 0h-0.079c-0.002 0-0.005 0-0.008 0-0.199 0-0.392-0.024-0.576-0.069l0.017 0.003-0.035-0.008q-0.123-0.032-0.241-0.075c-0.048-0.018-0.095-0.037-0.141-0.057-0.012-0.005-0.023-0.010-0.034-0.016l-0.035-0.016-0.063-0.032-0.036-0.019-0.040-0.023-0.006-0.004c-0.179-0.103-0.334-0.218-0.473-0.35l0.001 0.001c-0.012-0.012-0.024-0.023-0.036-0.035s-0.025-0.025-0.037-0.038c-0.425-0.438-0.688-1.036-0.688-1.695 0-1.344 1.089-2.433 2.433-2.433s2.433 1.089 2.433 2.433c0 0 0 0.001 0 0.001v-0z"></path>
<path fill="#d2adb5" d="M12.316 8.808c-0.006 0.041-0.014 0.077-0.025 0.112l0.001-0.005c-0.001 0.006-0.003 0.012-0.005 0.017l0-0.001c0-0.015-0.003-0.031-0.004-0.049v0c-0.012-0.178-0.022-0.46 0.014-0.627 0.034-0.157-0.214-0.109-0.38 0.031v0c-0.048 0.039-0.087 0.087-0.114 0.142l-0.001 0.002c-0.004-0.005-0.007-0.009-0.011-0.014-0.078-0.097-0.196-0.159-0.328-0.162h-0.001c-0.273-0.018-0.516-0.132-0.699-0.307l0 0c-0.008-0.032-0.014-0.065-0.019-0.097 0-0.010-0.003-0.020-0.004-0.030 0.090-0.081 0.156-0.188 0.185-0.309l0.001-0.004s0-0.003 0-0.005c0.010-0.040 0.015-0.086 0.015-0.133v-0c0-0.018 0-0.036-0.002-0.054 0-0.006 0-0.013-0.002-0.020s0-0.015-0.003-0.022c0.012-0.005 0.021-0.010 0.030-0.016l-0.001 0.001c0.057-0.035 0.101-0.085 0.129-0.145l0.001-0.002v-0.003c0.009-0.018 0.017-0.040 0.025-0.063l0.001-0.004c0.018-0.059 0.030-0.128 0.033-0.199l0-0.002c0-0.008 0-0.017 0-0.026 0-0.053-0.010-0.118-0.062-0.129-0.068-0.014-0.117 0.088-0.186 0.077-0.022-0.005-0.040-0.017-0.054-0.032l-0-0c-0.046-0.046-0.078-0.105-0.124-0.152-0.070-0.065-0.162-0.107-0.264-0.113l-0.001-0c-0.016-0.001-0.036-0.002-0.055-0.002-0.084 0-0.166 0.010-0.244 0.030l0.007-0.001c-0.057 0.010-0.107 0.028-0.153 0.053l0.003-0.001c-0.046 0.026-0.080 0.070-0.090 0.123l-0 0.001c-0.001 0.005-0.001 0.011-0.001 0.017s0 0.012 0.001 0.018l-0-0.001c0 0.017 0 0.034 0 0.052-0.001 0.008-0.002 0.016-0.003 0.023l0-0.001c-0.015 0.049-0.048 0.088-0.092 0.11l-0.001 0c-0.043 0.025-0.090 0.043-0.13 0.072-0.063 0.049-0.108 0.118-0.125 0.198l-0 0.002c-0.009 0.037-0.014 0.079-0.014 0.122 0 0.005 0 0.010 0 0.015v-0.001c-0 0.004-0 0.008-0 0.012 0 0.039 0.002 0.078 0.007 0.116l-0-0.004c0.019 0.148 0.059 0.282 0.118 0.406l-0.003-0.008c0.018 0.038 0.037 0.071 0.058 0.102l-0.001-0.002s0 0 0 0c0.006 0.008 0.011 0.015 0.017 0.022 0.037 0.042 0.080 0.078 0.127 0.108l0.002 0.001 0.028 0.019c0.014 0.012 0.032 0.019 0.052 0.019 0.006 0 0.011-0.001 0.017-0.002l-0.001 0c0.008-0.003 0.015-0.007 0.021-0.012l-0 0c0.031-0.029 0.050-0.071 0.050-0.117 0-0.003-0-0.007-0-0.010l0 0v-0.006c0 0.001 0 0.002 0 0.003s-0 0.002-0 0.004v-0c0 0.001 0 0.003 0 0.005s-0 0.003-0 0.005v-0h0.004c0.001 0.009 0.001 0.020 0.001 0.031s-0 0.022-0.001 0.032l0-0.002c0 0.004 0 0.008 0 0.012s-0 0.009-0 0.013l0-0.001c0 0.005 0 0.010 0 0.014l-0.006 0.006c-0.013 0.011-0.037 0.031-0.071 0.057v0c-0.13 0.102-0.279 0.192-0.437 0.263l-0.013 0.005c-0.178 0.075-0.313 0.223-0.368 0.406l-0.001 0.005c-0.043 0.145-0.103 0.271-0.179 0.385l0.003-0.005c-0.019 0.028-0.072 0.241-0.134 0.459 0.012 0.013 0.025 0.026 0.037 0.038s0.024 0.024 0.036 0.035c0.138 0.131 0.293 0.247 0.46 0.343l0.012 0.006 0.006 0.004 0.040 0.023 0.036 0.019c0-0.030-0.004-0.058-0.006-0.084 0-0.016-0.002-0.030-0.004-0.045 0.009-0.015 0.017-0.029 0.025-0.040 0 0.012 0.003 0.024 0.004 0.040v0c0.004 0.040 0.009 0.089 0.014 0.146q0 0.027 0.004 0.056c0-0.020-0.002-0.040-0.004-0.056l0.030 0.016 0.035 0.016c0.011 0.006 0.022 0.010 0.034 0.016 0.046 0.020 0.093 0.040 0.141 0.057q0.117 0.043 0.241 0.075l0.035 0.008c0.17 0.043 0.365 0.067 0.566 0.067 0.001 0 0.002 0 0.003 0h0.079c0.157-0.005 0.306-0.025 0.451-0.057l-0.016 0.003c0.166-0.036 0.311-0.082 0.45-0.142l-0.015 0.006q0.020-0.008 0.040-0.017c0.009-0.004 0.017-0.007 0.025-0.011s0.016-0.007 0.023-0.011c-0.040-0.141-0.062-0.231-0.062-0.231l0.059-0.152 0.016-0.042c0 0.005 0.002 0.010 0.004 0.016v0c0.035 0.12 0.101 0.222 0.188 0.3l0.001 0.001c0.008-0.004 0.014-0.007 0.020-0.011l-0.001 0.001 0.042-0.026 0.020-0.012c0.029-0.019 0.057-0.037 0.084-0.057l0.020-0.015c0.158-0.115 0.295-0.241 0.417-0.381l0.003-0.003 0.007-0.009c0.014-0.016 0.027-0.032 0.040-0.049zM11.966 8.991c0.001 0.002 0.002 0.004 0.004 0.006l0 0-0.003-0.003z"></path>
<path fill="#fd1a87" d="M11.973 8.916v0.003l0.003 0.003c-0.001-0.002-0.002-0.004-0.003-0.006zM9.521 10.119c-0.004-0.056-0.008-0.107-0.012-0.15-0.003-0.030-0.006-0.058-0.008-0.080-0-0-0-0.001-0-0.002s0-0.001 0-0.002v0c0-0.006 0-0.011 0-0.016-0.036 0.054-0.068 0.116-0.093 0.182l-0.002 0.006 0.006 0.004 0.040 0.023 0.036 0.019 0.032 0.016q0 0.027 0.004 0.056c-0.002-0.019-0.003-0.038-0.004-0.056zM10.054 7.827v0 0l0.002 0.004c0 0 0 0.001 0 0.001s-0 0.001-0 0.001v-0c-0-0.002-0.001-0.004-0.002-0.005l0 0z"></path>
<path fill="#e0a17e" d="M10.752 7.417s-0.145 0.65 0.253 0.994-0.939 0.613-1.175 0.325 0.164-0.434 0.164-0.434 0.2-0.163 0-0.65z"></path>
<path fill="#f0f1f5" d="M11.113 10.32c-0.127 0.029-0.275 0.047-0.427 0.052l-0.004 0h-0.079c-0.001 0-0.003 0-0.005 0-0.2 0-0.394-0.024-0.58-0.070l0.017 0.003-0.035-0.008q-0.123-0.032-0.241-0.075l-0.040-0.601 0.174-0.833 0.102-0.491 0.029-0.137 0.036 0.049 0.008 0.010 0.321 0.427 0.47-0.506 0.016 0.124 0.058 0.445 0.107 0.822z"></path>
<path fill="#000" opacity="0.1" d="M12.008 9.928c-0.028 0.020-0.056 0.040-0.084 0.057l-0.020 0.012-0.042 0.026c-0.005 0.003-0.012 0.007-0.018 0.010l-0.001 0.001c-0.005 0.003-0.010 0.007-0.016 0.010l-0.001 0c-0.087-0.074-0.153-0.17-0.191-0.279l-0.001-0.005c-0.004-0.011-0.008-0.025-0.011-0.040l-0.001-0.003c-0-0.001-0-0.002-0-0.003s0-0.002 0-0.004v0l-0.023 0.060-0.070 0.174s0.021 0.085 0.058 0.22q-0.020 0.009-0.040 0.017c-0.123 0.054-0.268 0.101-0.419 0.133l-0.016 0.003c-0.127 0.029-0.275 0.047-0.427 0.052l-0.004 0h-0.022c-0.015-0.129-0.023-0.279-0.023-0.431 0-0.046 0.001-0.091 0.002-0.137l-0 0.007 0.053-1.009 0.027-0.509 0.015-0.281s0.005 0.006 0.015 0.015 0.017 0.016 0.029 0.027v0c0.172 0.151 0.394 0.248 0.638 0.265l0.003 0c0.137 0.004 0.258 0.072 0.333 0.176l0.001 0.001c0.069 0.098 0.118 0.215 0.135 0.343l0 0.004 0.012 0.11s0 0 0 0l0.003 0.031 0.004 0.040z"></path>
<path fill="#293158" d="M12.028 9.914l-0.020 0.015c-0.028 0.020-0.056 0.040-0.084 0.057l-0.020 0.012-0.042 0.026c-0.093-0.075-0.164-0.173-0.206-0.285l-0.002-0.005c-0.002-0.004-0.003-0.009-0.005-0.014l-0-0.001c-0.004-0.014-0.008-0.029-0.012-0.043l-0.016 0.043-0.022 0.058-0.051 0.134s0.024 0.096 0.065 0.245c-0.008 0.004-0.016 0.008-0.025 0.011s-0.026 0.012-0.040 0.017c-0.123 0.054-0.268 0.101-0.419 0.133l-0.016 0.003c-0.127 0.029-0.275 0.047-0.427 0.052l-0.004 0c-0.017-0.14-0.027-0.302-0.027-0.467 0-0.046 0.001-0.092 0.002-0.138l-0 0.007 0.051-0.978 0.027-0.521 0.013-0.246 0.002-0.051c0.002 0.002 0.004 0.005 0.007 0.007l0 0c0.178 0.171 0.415 0.282 0.678 0.3l0.003 0c0.135 0.004 0.254 0.071 0.33 0.172l0.001 0.001c0.071 0.099 0.121 0.218 0.139 0.347l0 0.004 0.021 0.198v0.003l0.004 0.040z"></path>
<path fill="#000" opacity="0.1" d="M10.079 8.102v0.024l-0.006 0.093-0.022 0.318s-0.013 0.092-0.023 0.299c-0.014 0.273-0.022 0.745 0.010 1.471l-0.035-0.008q-0.123-0.032-0.241-0.075c-0.048-0.018-0.095-0.037-0.141-0.057-0.012-0.005-0.023-0.010-0.034-0.016-0.012-0.16-0.026-0.259-0.026-0.259s-0.011 0.014-0.027 0.040c-0.007 0.011-0.015 0.024-0.024 0.040l-0.002 0.004q-0.012 0.020-0.025 0.046c-0.010 0.020-0.020 0.040-0.030 0.065l-0.040-0.023-0.006-0.004c-0.179-0.103-0.334-0.218-0.473-0.35l0.001 0.001c0.065-0.227 0.12-0.456 0.14-0.485 0.071-0.107 0.129-0.23 0.168-0.362l0.003-0.010c0.056-0.183 0.187-0.327 0.357-0.399l0.004-0.002c0.185-0.088 0.343-0.207 0.471-0.351l0.001-0.001ch0.001z"></path>
<path fill="#293158" d="M10.079 8.090c-0.148 0.126-0.317 0.234-0.5 0.318l-0.014 0.006c-0.174 0.074-0.305 0.218-0.36 0.396l-0.001 0.004c-0.042 0.141-0.1 0.265-0.174 0.377l0.003-0.005c-0.020 0.029-0.076 0.258-0.14 0.486 0.012 0.012 0.024 0.024 0.036 0.035 0.138 0.131 0.293 0.247 0.46 0.343l0.012 0.006 0.006 0.004c0.026-0.065 0.055-0.121 0.090-0.173l-0.002 0.003 0.002-0.003c0.014-0.021 0.023-0.032 0.023-0.032s0.004 0.026 0.009 0.074 0.012 0.12 0.018 0.204l0.035 0.016c0.011 0.006 0.022 0.010 0.034 0.016 0.046 0.020 0.093 0.040 0.141 0.057q0.117 0.043 0.241 0.075c-0.033-0.719-0.026-1.193-0.012-1.473 0.010-0.225 0.024-0.325 0.024-0.325l0.051-0.293 0.014-0.083 0.007-0.040z"></path>
<path fill="#000" opacity="0.1" d="M10.337 8.050c-0 0-0 0-0.001 0-0.094 0-0.184-0.022-0.263-0.061l0.003 0.002c-0.015-0.112-0.045-0.214-0.086-0.309l0.003 0.008 0.759-0.235c-0.016 0.082-0.026 0.175-0.026 0.271 0 0.060 0.004 0.119 0.011 0.177l-0.001-0.007c-0.105 0.096-0.245 0.155-0.4 0.155h-0z"></path>
<path fill="#e0a17e" d="M10.933 7.418c0 0.329-0.267 0.596-0.596 0.596s-0.596-0.267-0.596-0.596c0-0.329 0.267-0.596 0.596-0.596s0.596 0.267 0.596 0.596z"></path>
<path fill="#000" opacity="0.1" d="M11.549 10.184c-0.047-0.165-0.073-0.273-0.073-0.273l0.090-0.235c0.008 0.037 0.019 0.069 0.032 0.099l-0.001-0.003 0.002 0.005-0.051 0.134s0.024 0.096 0.065 0.245c-0.008 0.004-0.016 0.008-0.025 0.011s-0.026 0.012-0.039 0.017z"></path>
<path fill="#e0a17e" d="M12.252 9.061s-0.054-0.524 0-0.777-0.632 0.036-0.488 0.379c0.085 0.208 0.182 0.386 0.296 0.552l-0.007-0.010z"></path>
<path fill="#000" opacity="0.1" d="M12.448 9.529c-0.124 0.143-0.262 0.27-0.413 0.38l-0.007 0.005-0.020 0.015c-0.028 0.020-0.056 0.040-0.084 0.057-0.061-0.072-0.118-0.153-0.168-0.238l-0.004-0.008-0.005-0.009 0.145-0.759 0.015 0.016c0.006 0.006 0.015 0.014 0.025 0.022v0h0.002c0.075 0.064 0.233 0.16 0.31-0.063 0.012-0.034 0.021-0.075 0.027-0.117l0-0.004 0.015 0.055 0.009 0.032 0.16 0.605z"></path>
<path fill="#293158" d="M12.448 9.529c-0.124 0.143-0.262 0.27-0.413 0.38l-0.007 0.005-0.020 0.015c-0.028 0.020-0.056 0.040-0.084 0.057l-0.020 0.012c-0.055-0.068-0.107-0.144-0.153-0.223l-0.005-0.008 0.005-0.027 0.14-0.732s0.007 0.008 0.020 0.020l0.025 0.022c0.010 0.009 0.022 0.018 0.036 0.027 0.083 0.057 0.209 0.1 0.273-0.1 0.011-0.032 0.020-0.071 0.025-0.11l0-0.004 0.018 0.068z"></path>
<path fill="#000" opacity="0.02" d="M12.448 9.529c-0.124 0.143-0.262 0.27-0.413 0.38l-0.007 0.005-0.020 0.015c-0.028 0.020-0.056 0.040-0.084 0.057l-0.020 0.012c-0.055-0.068-0.107-0.144-0.153-0.223l-0.005-0.008 0.005-0.027 0.14-0.732s0.007 0.008 0.020 0.020l0.025 0.022c0.010 0.009 0.022 0.018 0.036 0.027 0.083 0.057 0.209 0.1 0.273-0.1 0.011-0.032 0.020-0.071 0.025-0.11l0-0.004 0.018 0.068z"></path>
<path fill="#000" opacity="0.1" d="M9.501 9.889l-0.002 0.003c0-0.002 0-0.004 0-0.006 0.025-0.088 0.048-0.147 0.069-0.165 0 0 0.027 0.178 0.051 0.446-0.012-0.005-0.023-0.010-0.034-0.016l-0.035-0.016c-0.006-0.086-0.012-0.156-0.018-0.204s-0.009-0.074-0.009-0.074-0.007 0.011-0.021 0.032z"></path>
<path fill="#000" opacity="0.1" d="M10.344 7.253c0.023-0.013 0.050-0.020 0.079-0.020 0.008 0 0.017 0.001 0.024 0.002l-0.001-0c0.016 0.007 0.029 0.016 0.040 0.028l0 0c0.047 0.045 0.093 0.096 0.157 0.11 0.014 0.002 0.029 0.003 0.046 0.003 0.026 0 0.050-0.003 0.074-0.009l-0.002 0c0.072-0.008 0.137-0.029 0.196-0.060l-0.003 0.001c0.134-0.080 0.177-0.254 0.186-0.41 0.003-0.053-0.008-0.12-0.060-0.131-0.066-0.014-0.114 0.086-0.18 0.075-0.021-0.005-0.039-0.016-0.052-0.032l-0-0c-0.045-0.045-0.076-0.103-0.12-0.149-0.068-0.064-0.158-0.105-0.257-0.111l-0.001-0c-0.016-0.001-0.034-0.001-0.052-0.001-0.082 0-0.162 0.010-0.239 0.030l0.007-0.001c-0.055 0.009-0.104 0.027-0.149 0.051l0.002-0.001c-0.045 0.025-0.078 0.068-0.088 0.119l-0 0.001c-0.004 0.035 0.005 0.071-0.002 0.105-0.014 0.048-0.046 0.086-0.089 0.108l-0.001 0c-0.040 0.025-0.087 0.040-0.127 0.071-0.061 0.048-0.105 0.115-0.122 0.193l-0 0.002c-0.009 0.040-0.014 0.087-0.014 0.135 0 0.035 0.003 0.069 0.008 0.103l-0-0.004c0.018 0.145 0.057 0.276 0.115 0.398l-0.003-0.008c0.020 0.046 0.045 0.085 0.073 0.121l-0.001-0.001c0.042 0.046 0.090 0.086 0.143 0.119l0.003 0.002c0.016 0.014 0.037 0.023 0.060 0.023 0.005 0 0.009-0 0.014-0.001l-0.001 0c0.008-0.003 0.015-0.007 0.021-0.012l-0 0c0.051-0.043 0.056-0.12 0.040-0.186s-0.043-0.128-0.046-0.194c-0-0.003-0.001-0.007-0.001-0.010 0-0.016 0.004-0.031 0.011-0.044l-0 0c0.011-0.014 0.023-0.026 0.036-0.036l0-0c0.017-0.019 0.030-0.042 0.040-0.066l0.001-0.002c0.029-0.056 0.051-0.122 0.062-0.191l0.001-0.004c0.001-0.008 0.001-0.018 0.001-0.027 0-0.049-0.014-0.095-0.037-0.134l0.001 0.001c0.037 0.035 0.087 0.056 0.142 0.056 0.024 0 0.048-0.004 0.069-0.012l-0.001 0z"></path>
<path fill="#463e3b" d="M10.344 7.232c0.023-0.013 0.050-0.020 0.079-0.020 0.008 0 0.017 0.001 0.024 0.002l-0.001-0c0.016 0.007 0.029 0.016 0.040 0.028l0 0c0.047 0.045 0.093 0.096 0.157 0.11 0.014 0.002 0.029 0.003 0.046 0.003 0.026 0 0.050-0.003 0.074-0.009l-0.002 0c0.072-0.008 0.137-0.029 0.196-0.060l-0.003 0.001c0.134-0.080 0.177-0.254 0.186-0.41 0.003-0.053-0.008-0.12-0.060-0.131-0.066-0.014-0.114 0.086-0.18 0.075-0.021-0.005-0.039-0.016-0.052-0.032l-0-0c-0.045-0.045-0.076-0.103-0.12-0.149-0.068-0.064-0.158-0.105-0.257-0.111l-0.001-0c-0.016-0.001-0.034-0.001-0.052-0.001-0.082 0-0.162 0.010-0.239 0.030l0.007-0.001c-0.055 0.009-0.104 0.027-0.149 0.051l0.002-0.001c-0.045 0.025-0.078 0.068-0.088 0.119l-0 0.001c-0.004 0.035 0.005 0.071-0.002 0.105-0.014 0.048-0.046 0.086-0.089 0.108l-0.001 0c-0.040 0.025-0.087 0.040-0.127 0.071-0.061 0.048-0.105 0.115-0.122 0.193l-0 0.002c-0.009 0.040-0.014 0.087-0.014 0.135 0 0.035 0.003 0.069 0.008 0.103l-0-0.004c0.018 0.145 0.057 0.276 0.115 0.398l-0.003-0.008c0.020 0.046 0.045 0.085 0.073 0.121l-0.001-0.001c0.042 0.046 0.090 0.086 0.143 0.119l0.003 0.002c0.016 0.014 0.037 0.023 0.060 0.023 0.005 0 0.009-0 0.014-0.001l-0.001 0c0.008-0.003 0.015-0.007 0.021-0.012l-0 0c0.051-0.043 0.056-0.12 0.040-0.186s-0.043-0.128-0.046-0.194c-0-0.003-0.001-0.007-0.001-0.010 0-0.016 0.004-0.031 0.011-0.044l-0 0c0.011-0.014 0.023-0.026 0.036-0.036l0-0c0.017-0.019 0.030-0.042 0.040-0.066l0.001-0.002c0.029-0.056 0.051-0.122 0.062-0.191l0.001-0.004c0.001-0.008 0.001-0.018 0.001-0.027 0-0.049-0.014-0.095-0.037-0.134l0.001 0.001c0.037 0.035 0.087 0.056 0.142 0.056 0.024 0 0.048-0.004 0.069-0.012l-0.001 0z"></path>
<path fill="#cd9494" d="M8.074 22.336c0 0.205-0.452 0.371-1.010 0.371s-1.010-0.166-1.010-0.371c0-0.205 0.452-0.371 1.010-0.371s1.010 0.166 1.010 0.371z"></path>
<path fill="#000" opacity="0.05" d="M7.579 22.294c0 0.105-0.231 0.189-0.515 0.189s-0.515-0.085-0.515-0.189c0-0.105 0.231-0.189 0.515-0.189s0.515 0.085 0.515 0.189z"></path>
<path fill="#ff7361" d="M6.054 22.254s1.113 0.618 2.020 0.083c0 0-0.123 2.144-0.742 2.35h-0.824s-0.701-1.445-0.454-2.432z"></path>
<path fill="#6c63ff" d="M7.936 18.325c0.283 1.036-0.925 3.986-0.925 3.986s-2.541-1.924-2.825-2.96c-0.044-0.154-0.069-0.33-0.069-0.513 0-1.074 0.87-1.944 1.944-1.944 0.891 0 1.642 0.599 1.872 1.417l0.003 0.014z"></path>
<path fill="#000" opacity="0.1" d="M7.936 18.325c0.283 1.036-0.925 3.986-0.925 3.986s-2.541-1.924-2.825-2.96c-0.044-0.154-0.069-0.33-0.069-0.513 0-1.074 0.87-1.944 1.944-1.944 0.891 0 1.642 0.599 1.872 1.417l0.003 0.014z"></path>
<path fill="#6c63ff" d="M8.34 20.218s-1.436-0.781-1.253 2.1c0 0 1.197-0.043 1.621-1.019 0.045-0.1 0.071-0.216 0.071-0.339 0-0.31-0.166-0.58-0.414-0.728l-0.004-0.002z"></path>
<path fill="#000" opacity="0.05" d="M7.939 22.405c-0.040 0.493-0.213 2.025-0.731 2.197h-0.739c0.024 0.053 0.038 0.083 0.038 0.083h0.825c0.618-0.206 0.742-2.351 0.742-2.351-0.036 0.022-0.080 0.046-0.126 0.067l-0.009 0.004z"></path>
<path fill="#dde1ec" d="M17.252 18.956h8.386v4.867h-8.386v-4.867z"></path>
<path fill="#636ac3" d="M39.412 9.35c0.001-0.007 0.001-0.015 0.001-0.024s-0-0.017-0.001-0.025l0 0.001c-0.014-0.196-0.2-0.337-0.385-0.413s-0.391-0.112-0.554-0.227c-0.276-0.193-0.361-0.554-0.386-0.885-0.008-0.103-0.011-0.205-0.011-0.308s0.006-0.217 0.016-0.325c0.016-0.18 0.042-0.366 0.040-0.546 0.001-0.017 0.002-0.037 0.002-0.057 0-0.16-0.036-0.313-0.1-0.448l0.003 0.006c-0.164-0.323-0.531-0.488-0.871-0.629-0.131-0.054-0.265-0.109-0.407-0.115-0.15-0.006-0.296 0.042-0.438 0.090-0.225 0.076-0.454 0.175-0.687 0.227-0.131 0.029-0.274 0.007-0.401 0.053-0.249 0.091-0.303 0.316-0.299 0.561 0 0.016 0 0.031 0 0.046-0.025-0.023-0.051-0.045-0.077-0.065l-0.015-0.012q-0.040-0.032-0.085-0.061l-0.014-0.009c-0.054-0.036-0.117-0.071-0.183-0.101l-0.009-0.004-0.010-0.004q-0.050-0.022-0.102-0.040l-0.006-0.002c-0.061-0.022-0.134-0.042-0.21-0.056l-0.009-0.001c-0.080-0.016-0.172-0.024-0.266-0.024-0.406 0-0.774 0.166-1.038 0.434l-0 0-0.275 0.281c-1.252-0.281-1.308 0.807-1.308 0.807l0.009-0.002-0.003 0.008c0.034 0.165 0.071 0.301 0.116 0.435l-0.008-0.027-9.669 9.876-0.977 3.029 3.056-1.091 8.978-9.172c0.672 0.477 1.37 1.117 1.37 1.117s-0.433 0.229-0.273 1.278c0.196 1.283-0.099 3.109-0.099 3.109v1.181l0.055-0.015c-0.007 0.040-0.014 0.080-0.021 0.126-0.050 0.308-0.078 0.663-0.078 1.025 0 0.271 0.016 0.538 0.047 0.8l-0.003-0.032c0.148 1.253 0.741 2.964 0.741 2.964s0.222 0.601 0.272 1.084c0.009 0.102 0.031 0.197 0.066 0.286l-0.002-0.007c0.107 0.247 0.17 0.534 0.173 0.836v0.001c0 0.524 0.069 1.311 0.381 2.114 0.251 0.645 0.343 1.022 0.371 1.243-0.178 0.235-0.41 0.491-0.593 0.517-0.346 0.048-1.013 0.096-0.568 0.675 0.016 0.020 0.033 0.038 0.051 0.055l0 0c-0.338 0.055-0.709 0.175-0.348 0.644 0.445 0.579 3.063 0.314 3.063 0.314s0.017-0.321 0-0.674c0.184-0.013 0.297-0.024 0.297-0.024s0.074-1.398-0.247-1.567c-0.064 0.007-0.123 0.022-0.178 0.044l0.005-0.002c-0.034-0.193-0.061-0.433-0.077-0.611l0.127-0.010v-2.097s-0.148-1.301-0.692-1.88c-0.067-0.070-0.126-0.149-0.175-0.235l-0.003-0.006c0.004-0.167 0.004-0.401 0.002-0.671 0.023-0.038 0.048-0.071 0.077-0.101l-0 0s0.296-0.361 1.309-2.651c0.597-1.351 0.464-2.131 0.255-2.543-0.040-0.147-0.144-0.566-0.281-1.337-0.173-0.988 0.025-1.953 0.025-1.953s0.641-1.663 0.939-2.338c0.055-0.126 0.087-0.273 0.087-0.428 0-0.031-0.001-0.061-0.004-0.091l0 0.004c0.077-0.057 0.115-0.151 0.148-0.241l0.304-0.812c0.033-0.088 0.067-0.179 0.059-0.273zM35.279 7.888c0.036 0.055 0.072 0.103 0.111 0.148l-0.001-0.001s-0.045-0.047-0.12-0.123c0.004-0.008 0.007-0.016 0.010-0.023zM33.783 9.555l0.838-0.856c0.289 0.265 0.599 0.535 0.858 0.757-0.029 0.132-0.062 0.244-0.103 0.353l0.006-0.017c-0.112 0.056-0.261 0.074-0.441-0.024-0.286-0.154-0.813-0.2-1.157-0.213z"></path>
<path fill="#febdd5" d="M33.109 6.398s-0.621 0.358-0.43 0.862c0 0 0.645 0.191 0.908 0.669s2.294 2.198 2.294 2.198l1.481-0.742s-0.515-0.688-2.145-1.168c0 0-0.962-1.030-1.295-1.221s-0.812-0.598-0.812-0.598z"></path>
<path fill="#000" opacity="0.05" d="M33.109 6.398s-0.621 0.358-0.43 0.862c0 0 0.645 0.191 0.908 0.669s2.294 2.198 2.294 2.198l1.481-0.742s-0.515-0.688-2.145-1.168c0 0-0.962-1.030-1.295-1.221s-0.812-0.598-0.812-0.598z"></path>
<path fill="#6c63ff" d="M22.043 17.859l10.776-11.281c0.254-0.265 0.61-0.429 1.005-0.429 0.372 0 0.711 0.146 0.96 0.385l-0.001-0c0.265 0.254 0.429 0.61 0.429 1.005 0 0.372-0.146 0.711-0.385 0.96l0.001-0.001-10.775 11.283-2.956 1.082z"></path>
<path fill="#fff" opacity="0.1" d="M34.197 6.333v0c0.265 0.254 0.429 0.61 0.429 1.005 0 0.372-0.146 0.711-0.385 0.96l0.001-0.001-10.776 11.281-2.22 0.812-0.15 0.471 2.956-1.082 10.777-11.277c0.238-0.249 0.384-0.587 0.384-0.96 0-0.395-0.165-0.751-0.429-1.004l-0.001-0c-0.214-0.206-0.496-0.343-0.808-0.377l-0.006-0.001c0.085 0.053 0.159 0.11 0.226 0.173l-0.001-0.001z"></path>
<path fill="#efc8c4" d="M22.043 17.859l2.011 1.921-2.956 1.082 0.336-1.068 0.609-1.935z"></path>
<path fill="#727a9c" d="M21.434 19.794c0.078 0.016 0.148 0.044 0.209 0.084l-0.002-0.001c0.073 0.053 0.126 0.144 0.106 0.231-0.021 0.058-0.049 0.108-0.084 0.152l0.001-0.001c-0.041 0.069-0.066 0.152-0.066 0.241 0 0.061 0.011 0.118 0.032 0.172l-0.001-0.003-0.532 0.194z"></path>
<path fill="#ffb9b9" d="M36.98 26.777s0.072 1.051 0.191 1.171-1.075 0.191-1.075 0.191l0.167-1.363z"></path>
<path fill="#000" opacity="0.05" d="M36.98 26.777s0.072 1.051 0.191 1.171-1.075 0.191-1.075 0.191l0.167-1.363z"></path>
<path fill="#cbcdda" d="M37.242 27.589s-0.167 0-0.765 0.311c0 0-0.406-0.072-0.573-0.645 0 0-0.502 0.86-0.836 0.908s-0.979 0.095-0.55 0.669 2.962 0.311 2.962 0.311 0.072-1.386-0.239-1.553z"></path>
<path fill="#000" opacity="0.05" d="M37.242 27.589s-0.167 0-0.765 0.311c0 0-0.406-0.072-0.573-0.645 0 0-0.502 0.86-0.836 0.908s-0.979 0.095-0.55 0.669 2.962 0.311 2.962 0.311 0.072-1.386-0.239-1.553z"></path>
<path fill="#ffb9b9" d="M36.884 28.401l-0.167 0.454-1.099-0.311 0.063-0.451 0.015-0.109 0.040-0.301s0.932-0.241 0.932-0.12c0.014 0.11 0.036 0.209 0.065 0.304l-0.003-0.013c0.040 0.147 0.086 0.314 0.12 0.425 0.021 0.074 0.035 0.121 0.035 0.121z"></path>
<path fill="#4c4c78" d="M36.284 22.171c-0.075 0.128-0.16 0.366-0.002 0.665 0.050 0.091 0.107 0.169 0.172 0.239l-0.001-0.001c0.526 0.573 0.669 1.863 0.669 1.863v2.078l-0.932 0.072-0.862-3.535s-0.502-2.58-0.263-3.034 0.454-3.297 0.454-3.297l0.198-0.205 0.471-0.488h1.363c0.109 0.079 0.198 0.177 0.263 0.292l0.002 0.005c0.229 0.378 0.434 1.166-0.193 2.618-0.979 2.27-1.266 2.628-1.266 2.628-0.028 0.029-0.052 0.062-0.073 0.097l-0.001 0.003z"></path>
<path fill="#000" opacity="0.05" d="M36.284 22.171c-0.075 0.128-0.16 0.366-0.002 0.665 0.050 0.091 0.107 0.169 0.172 0.239l-0.001-0.001c0.526 0.573 0.669 1.863 0.669 1.863v2.078l-0.932 0.072-0.862-3.535s-0.502-2.58-0.263-3.034 0.454-3.297 0.454-3.297l0.198-0.205 0.471-0.488h1.363c0.109 0.079 0.198 0.177 0.263 0.292l0.002 0.005c0.229 0.378 0.434 1.166-0.193 2.618-0.979 2.27-1.266 2.628-1.266 2.628-0.028 0.029-0.052 0.062-0.073 0.097l-0.001 0.003z"></path>
<path fill="#000" opacity="0.1" d="M36.73 27.856l-1.035 0.129 0.040-0.301s0.932-0.241 0.932-0.12c0.015 0.111 0.037 0.21 0.066 0.305l-0.004-0.013z"></path>
<path fill="#4c4c78" d="M36.215 19.108s0.059 1.881 0.069 3.063c0.002 0.267 0 0.499-0.002 0.665 0 0.007 0 0.015 0 0.024 0 0.084-0.007 0.167-0.021 0.247l0.001-0.009c-0.072 0.215 0.072 0.693 0.072 0.693 0.597 1.577 0.43 2.962 0.43 2.962v1.051l-1.147 0.144s0.191-0.144-0.334-1.529c-0.302-0.796-0.367-1.576-0.368-2.096-0.003-0.3-0.064-0.584-0.173-0.844l0.005 0.015c-0.031-0.081-0.052-0.175-0.059-0.273l-0-0.003c-0.048-0.478-0.263-1.075-0.263-1.075s-0.573-1.696-0.717-2.939c-0.027-0.229-0.043-0.493-0.043-0.762 0-0.358 0.028-0.71 0.081-1.054l-0.005 0.038c0.025-0.177 0.055-0.328 0.093-0.475l-0.007 0.031s2.335-1.47 3.217-0.454c0.082 0.095 0.15 0.206 0.198 0.327l0.003 0.008c0.044 0.105 0.082 0.229 0.11 0.358l0.003 0.015c0.271 1.35-1.143 1.875-1.143 1.875z"></path>
<path fill="#ffb9b9" d="M37.362 7.425c0 0.673-0.545 1.218-1.218 1.218s-1.218-0.546-1.218-1.218c0-0.673 0.545-1.218 1.218-1.218s1.218 0.545 1.218 1.218z"></path>
<path fill="#ffb9b9" d="M35.474 8.189s0.502 1.41 0 2.15 1.6 0.502 1.6 0.502l0.812-0.979s-0.956 0-1.002-1.672-1.41 0-1.41 0z"></path>
<path fill="#000" opacity="0.1" d="M37.887 17.101c-0.15 0.054-0.33 0.101-0.514 0.131l-0.018 0.002c-0.297 0.046-0.648 0.048-0.854-0.134-0.12-0.107-0.421-0.12-0.781-0.086-0.758 0.073-1.785 0.356-1.981 0.411 0.025-0.177 0.055-0.328 0.093-0.475l-0.007 0.031s2.335-1.47 3.217-0.454h0.51c0.109 0.079 0.198 0.177 0.263 0.292l0.002 0.005c0.044 0.19 0.070 0.277 0.070 0.277z"></path>
<path fill="#000" opacity="0.1" d="M36.884 28.401l-0.167 0.454-1.099-0.311 0.063-0.451c0.189 0.418 0.511 0.474 0.511 0.474 0.347-0.18 0.549-0.256 0.658-0.288 0.021 0.073 0.035 0.121 0.035 0.121z"></path>
<path fill="#cbcdda" d="M36.956 28.282s-0.167 0-0.765 0.311c0 0-0.406-0.072-0.573-0.645 0 0-0.502 0.86-0.836 0.908s-0.979 0.095-0.549 0.669 2.962 0.311 2.962 0.311 0.072-1.386-0.239-1.553z"></path>
<path fill="#ffb9b9" d="M31.288 7.659s0.054-1.078 1.265-0.8l-0.311 0.583z"></path>
<path fill="#febdd5" d="M36.933 10.149s-1.171-0.191-1.481-0.43c0 0-0.241 0.454-0.669 0.215s-1.433-0.215-1.433-0.215-0.836-0.454-1.002-1.481c0 0-0.167-0.621-0.12-0.788 0 0-0.621-0.645-0.932 0.215 0.12 0.597 0.215 0.55 0.191 1.027l0.382 1.051s0.024 0.358 0.717 0.836 1.481 1.218 1.481 1.218-0.418 0.227-0.263 1.266c0.19 1.27-0.095 3.082-0.095 3.082v1.171s2.389-0.693 2.795-0.334 1.386 0 1.386 0-0.12-0.406-0.287-1.386 0.024-1.935 0.024-1.935 0.621-1.649 0.908-2.317-0.215-1.577-0.717-1.911-0.688-0.133-0.688-0.133 0.878 0.635-0.196 0.85z"></path>
<path fill="#000" opacity="0.1" d="M34.825 7.127c0 0.001 0 0.002 0 0.003 0 0.051 0.009 0.1 0.026 0.146l-0.001-0.003c0.029 0.055 0.066 0.101 0.111 0.139l0.001 0.001c0.179 0.175 0.336 0.383 0.399 0.625 0.042 0.164 0.040 0.336 0.038 0.505-0.010 0.686-0.040 1.427-0.463 1.965-0.156 0.198-0.356 0.356-0.544 0.524-0.026 0.020-0.046 0.046-0.057 0.077l-0 0.001c-0.001 0.007-0.002 0.015-0.002 0.023 0 0.027 0.007 0.051 0.020 0.073l-0-0.001c0.087 0.182 0.271 0.293 0.446 0.394 0.080 0.046 0.164 0.094 0.256 0.097 0.217 0.007 0.361-0.223 0.559-0.313 0.288-0.132 0.611 0.051 0.896 0.188 0.185 0.091 0.401 0.168 0.626 0.221l0.021 0.004c0.306 0.071 0.651 0.088 0.909-0.091 0.146-0.104 0.249-0.259 0.282-0.439l0.001-0.004c0.021-0.117 0.018-0.252 0.106-0.331 0.046-0.040 0.108-0.058 0.157-0.094 0.077-0.056 0.113-0.15 0.145-0.241l0.294-0.805c0.036-0.079 0.057-0.172 0.057-0.269 0-0 0-0.001 0-0.001v0c-0.014-0.194-0.193-0.334-0.372-0.409s-0.378-0.111-0.536-0.225c-0.267-0.192-0.349-0.55-0.373-0.877-0.007-0.092-0.011-0.2-0.011-0.308 0-0.129 0.006-0.258 0.017-0.384l-0.001 0.016c0.029-0.333 0.094-0.688-0.054-0.988-0.158-0.321-0.514-0.484-0.842-0.623-0.126-0.054-0.256-0.108-0.393-0.114-0.145-0.006-0.286 0.040-0.423 0.089-0.218 0.076-0.441 0.174-0.664 0.225-0.126 0.029-0.265 0.007-0.387 0.053-0.448 0.168-0.242 0.791-0.242 1.152z"></path>
<path fill="#b96b6b" d="M34.825 7.079c0 0.001 0 0.002 0 0.003 0 0.051 0.009 0.1 0.026 0.146l-0.001-0.003c0.029 0.055 0.066 0.101 0.111 0.139l0.001 0.001c0.179 0.175 0.336 0.383 0.399 0.625 0.042 0.164 0.040 0.336 0.038 0.505-0.010 0.686-0.040 1.427-0.463 1.965-0.156 0.198-0.356 0.356-0.544 0.524-0.026 0.019-0.046 0.045-0.057 0.075l-0 0.001c-0.001 0.007-0.002 0.015-0.002 0.023 0 0.027 0.007 0.051 0.020 0.073l-0-0.001c0.087 0.182 0.271 0.293 0.446 0.394 0.080 0.046 0.164 0.094 0.256 0.097 0.217 0.007 0.361-0.223 0.559-0.313 0.288-0.132 0.611 0.051 0.896 0.188 0.185 0.091 0.401 0.168 0.626 0.221l0.021 0.004c0.306 0.071 0.651 0.088 0.909-0.091 0.146-0.104 0.249-0.259 0.282-0.439l0.001-0.004c0.021-0.117 0.018-0.252 0.106-0.331 0.046-0.040 0.108-0.058 0.157-0.094 0.077-0.056 0.113-0.15 0.145-0.241l0.294-0.805c0.036-0.079 0.057-0.172 0.057-0.269 0-0 0-0.001 0-0.001v0c-0.014-0.194-0.193-0.334-0.372-0.409s-0.378-0.111-0.536-0.225c-0.267-0.192-0.349-0.55-0.373-0.877-0.007-0.092-0.011-0.199-0.011-0.308 0-0.129 0.006-0.258 0.017-0.384l-0.001 0.016c0.029-0.333 0.094-0.688-0.054-0.988-0.158-0.321-0.514-0.484-0.842-0.623-0.126-0.054-0.256-0.108-0.393-0.114-0.145-0.006-0.286 0.040-0.423 0.089-0.218 0.076-0.441 0.174-0.664 0.225-0.126 0.029-0.265 0.007-0.387 0.053-0.447 0.171-0.242 0.793-0.242 1.153z"></path>
<path fill="#000" opacity="0.05" d="M33.862 13.6s0.19-0.045 1.146-0.19 2.628 0.191 2.628 0.191z"></path>
</svg>
